%TF.GenerationSoftware,KiCad,Pcbnew,10.0.4*%
%TF.CreationDate,2026-07-15T08:18:49+05:00*%
%TF.ProjectId,USR_32bit_Full,5553525f-3332-4626-9974-5f46756c6c2e,rev?*%
%TF.SameCoordinates,Original*%
%TF.FileFunction,Copper,L1,Top*%
%TF.FilePolarity,Positive*%
%FSLAX46Y46*%
G04 Gerber Fmt 4.6, Leading zero omitted, Abs format (unit mm)*
G04 Created by KiCad (PCBNEW 10.0.4) date 2026-07-15 08:18:49*
%MOMM*%
%LPD*%
G01*
G04 APERTURE LIST*
G04 Aperture macros list*
%AMRoundRect*
0 Rectangle with rounded corners*
0 $1 Rounding radius*
0 $2 $3 $4 $5 $6 $7 $8 $9 X,Y pos of 4 corners*
0 Add a 4 corners polygon primitive as box body*
4,1,4,$2,$3,$4,$5,$6,$7,$8,$9,$2,$3,0*
0 Add four circle primitives for the rounded corners*
1,1,$1+$1,$2,$3*
1,1,$1+$1,$4,$5*
1,1,$1+$1,$6,$7*
1,1,$1+$1,$8,$9*
0 Add four rect primitives between the rounded corners*
20,1,$1+$1,$2,$3,$4,$5,0*
20,1,$1+$1,$4,$5,$6,$7,0*
20,1,$1+$1,$6,$7,$8,$9,0*
20,1,$1+$1,$8,$9,$2,$3,0*%
G04 Aperture macros list end*
%TA.AperFunction,ComponentPad*%
%ADD10R,1.700000X1.700000*%
%TD*%
%TA.AperFunction,ComponentPad*%
%ADD11C,1.700000*%
%TD*%
%TA.AperFunction,ComponentPad*%
%ADD12RoundRect,0.250000X-0.550000X-0.550000X0.550000X-0.550000X0.550000X0.550000X-0.550000X0.550000X0*%
%TD*%
%TA.AperFunction,ComponentPad*%
%ADD13C,1.600000*%
%TD*%
%TA.AperFunction,ComponentPad*%
%ADD14O,2.200000X3.500000*%
%TD*%
%TA.AperFunction,ComponentPad*%
%ADD15R,1.500000X2.500000*%
%TD*%
%TA.AperFunction,ComponentPad*%
%ADD16O,1.500000X2.500000*%
%TD*%
%TA.AperFunction,ComponentPad*%
%ADD17C,2.000000*%
%TD*%
%TA.AperFunction,ViaPad*%
%ADD18C,0.600000*%
%TD*%
%TA.AperFunction,Conductor*%
%ADD19C,0.200000*%
%TD*%
%TA.AperFunction,Conductor*%
%ADD20C,0.500000*%
%TD*%
G04 APERTURE END LIST*
D10*
%TO.P,J7,1,Pin_1_1*%
%TO.N,Net-(J7-Pin_1)*%
X116005000Y-93710000D03*
D11*
%TO.P,J7,2,Pin_2_2*%
%TO.N,Net-(J7-Pin_2)*%
X116005000Y-96250000D03*
%TO.P,J7,3,Pin_3_3*%
%TO.N,Net-(J7-Pin_3)*%
X116005000Y-98790000D03*
%TO.P,J7,4,Pin_4_4*%
%TO.N,Net-(J7-Pin_4)*%
X116005000Y-101330000D03*
%TD*%
D12*
%TO.P,U6,1,Mr_1*%
%TO.N,CLR*%
X104600000Y-87020000D03*
D13*
%TO.P,U6,2,Dsr_2*%
%TO.N,/USR_Slice4/Q0_Out*%
X104600000Y-89560000D03*
%TO.P,U6,3,P0_3*%
%TO.N,Net-(J6-Pin_1)*%
X104600000Y-92100000D03*
%TO.P,U6,4,P1_4*%
%TO.N,Net-(J6-Pin_2)*%
X104600000Y-94640000D03*
%TO.P,U6,5,P2_5*%
%TO.N,Net-(J6-Pin_3)*%
X104600000Y-97180000D03*
%TO.P,U6,6,P3_6*%
%TO.N,Net-(J6-Pin_4)*%
X104600000Y-99720000D03*
%TO.P,U6,7,Dsl_7*%
%TO.N,/USR_Slice5/DSL*%
X104600000Y-102260000D03*
%TO.P,U6,8,GND_8*%
%TO.N,GND*%
X104600000Y-104800000D03*
%TO.P,U6,9,S0_9*%
%TO.N,S0*%
X112220000Y-104800000D03*
%TO.P,U6,10,S1_10*%
%TO.N,S1*%
X112220000Y-102260000D03*
%TO.P,U6,11,Cp_11*%
%TO.N,/USR_Slice5/CLK*%
X112220000Y-99720000D03*
%TO.P,U6,12,Q3_12*%
%TO.N,/USR_Slice4/DSL*%
X112220000Y-97180000D03*
%TO.P,U6,13,Q2_13*%
%TO.N,/USR_Slice5/Q2_Out*%
X112220000Y-94640000D03*
%TO.P,U6,14,Q1_14*%
%TO.N,/USR_Slice5/Q1_Out*%
X112220000Y-92100000D03*
%TO.P,U6,15,Q0_15*%
%TO.N,/USR_Slice5/Q0_Out*%
X112220000Y-89560000D03*
%TO.P,U6,16,VCC_16*%
%TO.N,VCC*%
X112220000Y-87020000D03*
%TD*%
D12*
%TO.P,U2,1,Mr_1*%
%TO.N,CLR*%
X83400000Y-59060000D03*
D13*
%TO.P,U2,2,Dsr_2*%
%TO.N,/USR_Slice1/DSR*%
X83400000Y-61600000D03*
%TO.P,U2,3,P0_3*%
%TO.N,Net-(J2-Pin_1)*%
X83400000Y-64140000D03*
%TO.P,U2,4,P1_4*%
%TO.N,Net-(J2-Pin_2)*%
X83400000Y-66680000D03*
%TO.P,U2,5,P2_5*%
%TO.N,Net-(J2-Pin_3)*%
X83400000Y-69220000D03*
%TO.P,U2,6,P3_6*%
%TO.N,Net-(J2-Pin_4)*%
X83400000Y-71760000D03*
%TO.P,U2,7,Dsl_7*%
%TO.N,/USR_Slice/Q3_Out*%
X83400000Y-74300000D03*
%TO.P,U2,8,GND_8*%
%TO.N,GND*%
X83400000Y-76840000D03*
%TO.P,U2,9,S0_9*%
%TO.N,S0*%
X91020000Y-76840000D03*
%TO.P,U2,10,S1_10*%
%TO.N,S1*%
X91020000Y-74300000D03*
%TO.P,U2,11,Cp_11*%
%TO.N,/USR_Slice1/CLK*%
X91020000Y-71760000D03*
%TO.P,U2,12,Q3_12*%
%TO.N,/USR_Slice1/Q3_Out*%
X91020000Y-69220000D03*
%TO.P,U2,13,Q2_13*%
%TO.N,/USR_Slice1/Q2_Out*%
X91020000Y-66680000D03*
%TO.P,U2,14,Q1_14*%
%TO.N,/USR_Slice1/Q1_Out*%
X91020000Y-64140000D03*
%TO.P,U2,15,Q0_15*%
%TO.N,/USR_Slice/DSR*%
X91020000Y-61600000D03*
%TO.P,U2,16,VCC_16*%
%TO.N,VCC*%
X91020000Y-59060000D03*
%TD*%
D10*
%TO.P,J20,1,Pin_1_1*%
%TO.N,GND*%
X94000000Y-82000000D03*
%TD*%
%TO.P,J5,1,Pin_1_1*%
%TO.N,Net-(J5-Pin_1)*%
X81600000Y-96400000D03*
D11*
%TO.P,J5,2,Pin_2_2*%
%TO.N,Net-(J5-Pin_2)*%
X81600000Y-98940000D03*
%TO.P,J5,3,Pin_3_3*%
%TO.N,Net-(J5-Pin_3)*%
X81600000Y-101480000D03*
%TO.P,J5,4,Pin_4_4*%
%TO.N,Net-(J5-Pin_4)*%
X81600000Y-104020000D03*
%TD*%
D12*
%TO.P,U3,1,Mr_1*%
%TO.N,CLR*%
X117980000Y-58180000D03*
D13*
%TO.P,U3,2,Dsr_2*%
%TO.N,/USR_Slice2/DSR*%
X117980000Y-60720000D03*
%TO.P,U3,3,P0_3*%
%TO.N,Net-(J3-Pin_1)*%
X117980000Y-63260000D03*
%TO.P,U3,4,P1_4*%
%TO.N,Net-(J3-Pin_2)*%
X117980000Y-65800000D03*
%TO.P,U3,5,P2_5*%
%TO.N,Net-(J3-Pin_3)*%
X117980000Y-68340000D03*
%TO.P,U3,6,P3_6*%
%TO.N,Net-(J3-Pin_4)*%
X117980000Y-70880000D03*
%TO.P,U3,7,Dsl_7*%
%TO.N,/USR_Slice1/Q3_Out*%
X117980000Y-73420000D03*
%TO.P,U3,8,GND_8*%
%TO.N,GND*%
X117980000Y-75960000D03*
%TO.P,U3,9,S0_9*%
%TO.N,S0*%
X125600000Y-75960000D03*
%TO.P,U3,10,S1_10*%
%TO.N,S1*%
X125600000Y-73420000D03*
%TO.P,U3,11,Cp_11*%
%TO.N,/USR_Slice2/CLK*%
X125600000Y-70880000D03*
%TO.P,U3,12,Q3_12*%
%TO.N,/USR_Slice2/Q3_Out*%
X125600000Y-68340000D03*
%TO.P,U3,13,Q2_13*%
%TO.N,/USR_Slice2/Q2_Out*%
X125600000Y-65800000D03*
%TO.P,U3,14,Q1_14*%
%TO.N,/USR_Slice2/Q1_Out*%
X125600000Y-63260000D03*
%TO.P,U3,15,Q0_15*%
%TO.N,/USR_Slice1/DSR*%
X125600000Y-60720000D03*
%TO.P,U3,16,VCC_16*%
%TO.N,VCC*%
X125600000Y-58180000D03*
%TD*%
%TO.P,C2,1*%
%TO.N,VCC*%
X77900000Y-62000000D03*
%TO.P,C2,2*%
%TO.N,GND*%
X80400000Y-62000000D03*
%TD*%
D10*
%TO.P,J10,1,Pin_1_1*%
%TO.N,DSR*%
X86400000Y-83200000D03*
%TD*%
D12*
%TO.P,U9,1,1OE_1*%
%TO.N,GND*%
X100200000Y-58260000D03*
D13*
%TO.P,U9,2,1A0_2*%
%TO.N,Net-(U9-1A0)*%
X100200000Y-60800000D03*
%TO.P,U9,3,2Y0_3*%
%TO.N,/USR_Slice1/CLK*%
X100200000Y-63340000D03*
%TO.P,U9,4,1A1_4*%
%TO.N,Net-(U9-1A0)*%
X100200000Y-65880000D03*
%TO.P,U9,5,2Y1_5*%
%TO.N,CLK*%
X100200000Y-68420000D03*
%TO.P,U9,6,1A2_6*%
%TO.N,Net-(U9-1A0)*%
X100200000Y-70960000D03*
%TO.P,U9,7,2Y2_7*%
%TO.N,/USR_Slice6/CLK*%
X100200000Y-73500000D03*
%TO.P,U9,8,1A3_8*%
%TO.N,Net-(U9-1A0)*%
X100200000Y-76040000D03*
%TO.P,U9,9,2Y3_9*%
%TO.N,/USR_Slice7/CLK*%
X100200000Y-78580000D03*
%TO.P,U9,10,GND_10*%
%TO.N,GND*%
X100200000Y-81120000D03*
%TO.P,U9,11,2A3_11*%
%TO.N,Net-(U9-1A0)*%
X107820000Y-81120000D03*
%TO.P,U9,12,1Y3_12*%
%TO.N,/USR_Slice5/CLK*%
X107820000Y-78580000D03*
%TO.P,U9,13,2A2_13*%
%TO.N,Net-(U9-1A0)*%
X107820000Y-76040000D03*
%TO.P,U9,14,1Y2_14*%
%TO.N,/USR_Slice3/CLK*%
X107820000Y-73500000D03*
%TO.P,U9,15,2A1_15*%
%TO.N,Net-(U9-1A0)*%
X107820000Y-70960000D03*
%TO.P,U9,16,1Y1_16*%
%TO.N,/USR_Slice4/CLK*%
X107820000Y-68420000D03*
%TO.P,U9,17,2A0_17*%
%TO.N,Net-(U9-1A0)*%
X107820000Y-65880000D03*
%TO.P,U9,18,1Y0_18*%
%TO.N,/USR_Slice2/CLK*%
X107820000Y-63340000D03*
%TO.P,U9,19,2OE_19*%
%TO.N,GND*%
X107820000Y-60800000D03*
%TO.P,U9,20,VCC_20*%
%TO.N,VCC*%
X107820000Y-58260000D03*
%TD*%
D10*
%TO.P,J11,1,Pin_1_1*%
%TO.N,VCC*%
X71600000Y-91000000D03*
D11*
%TO.P,J11,2,Pin_2_2*%
%TO.N,GND*%
X71600000Y-93540000D03*
%TD*%
D10*
%TO.P,J15,1,Pin_1_1*%
%TO.N,/USR_Slice2/DSR*%
X178180000Y-59020000D03*
D11*
%TO.P,J15,2,Pin_2_2*%
%TO.N,/USR_Slice3/Q1_Out*%
X178180000Y-61560000D03*
%TO.P,J15,3,Pin_3_3*%
%TO.N,/USR_Slice3/Q2_Out*%
X178180000Y-64100000D03*
%TO.P,J15,4,Pin_4_4*%
%TO.N,/USR_Slice3/Q3_Out*%
X178180000Y-66640000D03*
%TD*%
D13*
%TO.P,C1,1*%
%TO.N,VCC*%
X60700000Y-59000000D03*
%TO.P,C1,2*%
%TO.N,GND*%
X63200000Y-59000000D03*
%TD*%
D10*
%TO.P,J19,1,Pin_1_1*%
%TO.N,/USR_Slice4/Q0_Out*%
X179200000Y-88580000D03*
D11*
%TO.P,J19,2,Pin_2_2*%
%TO.N,/USR_Slice4/Q1_Out*%
X179200000Y-91120000D03*
%TO.P,J19,3,Pin_3_3*%
%TO.N,/USR_Slice4/Q2_Out*%
X179200000Y-93660000D03*
%TO.P,J19,4,Pin_4_4*%
%TO.N,Q3_Out*%
X179200000Y-96200000D03*
%TD*%
D12*
%TO.P,U8,1,Mr_1*%
%TO.N,CLR*%
X137205000Y-86430000D03*
D13*
%TO.P,U8,2,Dsr_2*%
%TO.N,/USR_Slice6/Q0_Out*%
X137205000Y-88970000D03*
%TO.P,U8,3,P0_3*%
%TO.N,Net-(J8-Pin_1)*%
X137205000Y-91510000D03*
%TO.P,U8,4,P1_4*%
%TO.N,Net-(J8-Pin_2)*%
X137205000Y-94050000D03*
%TO.P,U8,5,P2_5*%
%TO.N,Net-(J8-Pin_3)*%
X137205000Y-96590000D03*
%TO.P,U8,6,P3_6*%
%TO.N,Net-(J8-Pin_4)*%
X137205000Y-99130000D03*
%TO.P,U8,7,Dsl_7*%
%TO.N,/USR_Slice3/Q3_Out*%
X137205000Y-101670000D03*
%TO.P,U8,8,GND_8*%
%TO.N,GND*%
X137205000Y-104210000D03*
%TO.P,U8,9,S0_9*%
%TO.N,S0*%
X144825000Y-104210000D03*
%TO.P,U8,10,S1_10*%
%TO.N,S1*%
X144825000Y-101670000D03*
%TO.P,U8,11,Cp_11*%
%TO.N,/USR_Slice7/CLK*%
X144825000Y-99130000D03*
%TO.P,U8,12,Q3_12*%
%TO.N,/USR_Slice6/DSL*%
X144825000Y-96590000D03*
%TO.P,U8,13,Q2_13*%
%TO.N,/USR_Slice7/Q2_Out*%
X144825000Y-94050000D03*
%TO.P,U8,14,Q1_14*%
%TO.N,/USR_Slice7/Q1_Out*%
X144825000Y-91510000D03*
%TO.P,U8,15,Q0_15*%
%TO.N,/USR_Slice3/DSR*%
X144825000Y-88970000D03*
%TO.P,U8,16,VCC_16*%
%TO.N,VCC*%
X144825000Y-86430000D03*
%TD*%
D10*
%TO.P,J18,1,Pin_1_1*%
%TO.N,/USR_Slice5/Q0_Out*%
X170600000Y-88380000D03*
D11*
%TO.P,J18,2,Pin_2_2*%
%TO.N,/USR_Slice5/Q1_Out*%
X170600000Y-90920000D03*
%TO.P,J18,3,Pin_3_3*%
%TO.N,/USR_Slice5/Q2_Out*%
X170600000Y-93460000D03*
%TO.P,J18,4,Pin_4_4*%
%TO.N,/USR_Slice4/DSL*%
X170600000Y-96000000D03*
%TD*%
D10*
%TO.P,J12,1,Pin_1_1*%
%TO.N,Q0_Out*%
X149180000Y-59220000D03*
D11*
%TO.P,J12,2,Pin_2_2*%
%TO.N,/USR_Slice/Q1_Out*%
X149180000Y-61760000D03*
%TO.P,J12,3,Pin_3_3*%
%TO.N,/USR_Slice/Q2_Out*%
X149180000Y-64300000D03*
%TO.P,J12,4,Pin_4_4*%
%TO.N,/USR_Slice/Q3_Out*%
X149180000Y-66840000D03*
%TD*%
D12*
%TO.P,U5,1,Mr_1*%
%TO.N,CLR*%
X87000000Y-88040000D03*
D13*
%TO.P,U5,2,Dsr_2*%
%TO.N,DSR*%
X87000000Y-90580000D03*
%TO.P,U5,3,P0_3*%
%TO.N,Net-(J5-Pin_1)*%
X87000000Y-93120000D03*
%TO.P,U5,4,P1_4*%
%TO.N,Net-(J5-Pin_2)*%
X87000000Y-95660000D03*
%TO.P,U5,5,P2_5*%
%TO.N,Net-(J5-Pin_3)*%
X87000000Y-98200000D03*
%TO.P,U5,6,P3_6*%
%TO.N,Net-(J5-Pin_4)*%
X87000000Y-100740000D03*
%TO.P,U5,7,Dsl_7*%
%TO.N,/USR_Slice4/DSL*%
X87000000Y-103280000D03*
%TO.P,U5,8,GND_8*%
%TO.N,GND*%
X87000000Y-105820000D03*
%TO.P,U5,9,S0_9*%
%TO.N,S0*%
X94620000Y-105820000D03*
%TO.P,U5,10,S1_10*%
%TO.N,S1*%
X94620000Y-103280000D03*
%TO.P,U5,11,Cp_11*%
%TO.N,/USR_Slice4/CLK*%
X94620000Y-100740000D03*
%TO.P,U5,12,Q3_12*%
%TO.N,Q3_Out*%
X94620000Y-98200000D03*
%TO.P,U5,13,Q2_13*%
%TO.N,/USR_Slice4/Q2_Out*%
X94620000Y-95660000D03*
%TO.P,U5,14,Q1_14*%
%TO.N,/USR_Slice4/Q1_Out*%
X94620000Y-93120000D03*
%TO.P,U5,15,Q0_15*%
%TO.N,/USR_Slice4/Q0_Out*%
X94620000Y-90580000D03*
%TO.P,U5,16,VCC_16*%
%TO.N,VCC*%
X94620000Y-88040000D03*
%TD*%
D12*
%TO.P,U4,1,Mr_1*%
%TO.N,CLR*%
X134980000Y-57540000D03*
D13*
%TO.P,U4,2,Dsr_2*%
%TO.N,/USR_Slice3/DSR*%
X134980000Y-60080000D03*
%TO.P,U4,3,P0_3*%
%TO.N,Net-(J4-Pin_1)*%
X134980000Y-62620000D03*
%TO.P,U4,4,P1_4*%
%TO.N,Net-(J4-Pin_2)*%
X134980000Y-65160000D03*
%TO.P,U4,5,P2_5*%
%TO.N,Net-(J4-Pin_3)*%
X134980000Y-67700000D03*
%TO.P,U4,6,P3_6*%
%TO.N,Net-(J4-Pin_4)*%
X134980000Y-70240000D03*
%TO.P,U4,7,Dsl_7*%
%TO.N,/USR_Slice2/Q3_Out*%
X134980000Y-72780000D03*
%TO.P,U4,8,GND_8*%
%TO.N,GND*%
X134980000Y-75320000D03*
%TO.P,U4,9,S0_9*%
%TO.N,S0*%
X142600000Y-75320000D03*
%TO.P,U4,10,S1_10*%
%TO.N,S1*%
X142600000Y-72780000D03*
%TO.P,U4,11,Cp_11*%
%TO.N,/USR_Slice3/CLK*%
X142600000Y-70240000D03*
%TO.P,U4,12,Q3_12*%
%TO.N,/USR_Slice3/Q3_Out*%
X142600000Y-67700000D03*
%TO.P,U4,13,Q2_13*%
%TO.N,/USR_Slice3/Q2_Out*%
X142600000Y-65160000D03*
%TO.P,U4,14,Q1_14*%
%TO.N,/USR_Slice3/Q1_Out*%
X142600000Y-62620000D03*
%TO.P,U4,15,Q0_15*%
%TO.N,/USR_Slice2/DSR*%
X142600000Y-60080000D03*
%TO.P,U4,16,VCC_16*%
%TO.N,VCC*%
X142600000Y-57540000D03*
%TD*%
%TO.P,C9,1*%
%TO.N,VCC*%
X94400000Y-59200000D03*
%TO.P,C9,2*%
%TO.N,GND*%
X96900000Y-59200000D03*
%TD*%
D14*
%TO.P,SW2,*%
%TO.N,*%
X57600000Y-96600000D03*
X65800000Y-96600000D03*
D15*
%TO.P,SW2,1,A_1*%
%TO.N,GND*%
X59700000Y-96600000D03*
D16*
%TO.P,SW2,2,B_2*%
%TO.N,S1*%
X61700000Y-96600000D03*
%TO.P,SW2,3,C_3*%
%TO.N,VCC*%
X63700000Y-96600000D03*
%TD*%
D10*
%TO.P,J8,1,Pin_1_1*%
%TO.N,Net-(J8-Pin_1)*%
X132405000Y-93710000D03*
D11*
%TO.P,J8,2,Pin_2_2*%
%TO.N,Net-(J8-Pin_2)*%
X132405000Y-96250000D03*
%TO.P,J8,3,Pin_3_3*%
%TO.N,Net-(J8-Pin_3)*%
X132405000Y-98790000D03*
%TO.P,J8,4,Pin_4_4*%
%TO.N,Net-(J8-Pin_4)*%
X132405000Y-101330000D03*
%TD*%
D13*
%TO.P,R33,1*%
%TO.N,Net-(U9-1A0)*%
X69840000Y-84200000D03*
%TO.P,R33,2*%
%TO.N,GND*%
X80000000Y-84200000D03*
%TD*%
D12*
%TO.P,U1,1,Mr_1*%
%TO.N,CLR*%
X67575000Y-59470000D03*
D13*
%TO.P,U1,2,Dsr_2*%
%TO.N,/USR_Slice/DSR*%
X67575000Y-62010000D03*
%TO.P,U1,3,P0_3*%
%TO.N,Net-(J1-Pin_1)*%
X67575000Y-64550000D03*
%TO.P,U1,4,P1_4*%
%TO.N,Net-(J1-Pin_2)*%
X67575000Y-67090000D03*
%TO.P,U1,5,P2_5*%
%TO.N,Net-(J1-Pin_3)*%
X67575000Y-69630000D03*
%TO.P,U1,6,P3_6*%
%TO.N,Net-(J1-Pin_4)*%
X67575000Y-72170000D03*
%TO.P,U1,7,Dsl_7*%
%TO.N,DSL*%
X67575000Y-74710000D03*
%TO.P,U1,8,GND_8*%
%TO.N,GND*%
X67575000Y-77250000D03*
%TO.P,U1,9,S0_9*%
%TO.N,S0*%
X75195000Y-77250000D03*
%TO.P,U1,10,S1_10*%
%TO.N,S1*%
X75195000Y-74710000D03*
%TO.P,U1,11,Cp_11*%
%TO.N,CLK*%
X75195000Y-72170000D03*
%TO.P,U1,12,Q3_12*%
%TO.N,/USR_Slice/Q3_Out*%
X75195000Y-69630000D03*
%TO.P,U1,13,Q2_13*%
%TO.N,/USR_Slice/Q2_Out*%
X75195000Y-67090000D03*
%TO.P,U1,14,Q1_14*%
%TO.N,/USR_Slice/Q1_Out*%
X75195000Y-64550000D03*
%TO.P,U1,15,Q0_15*%
%TO.N,Q0_Out*%
X75195000Y-62010000D03*
%TO.P,U1,16,VCC_16*%
%TO.N,VCC*%
X75195000Y-59470000D03*
%TD*%
D10*
%TO.P,J6,1,Pin_1_1*%
%TO.N,Net-(J6-Pin_1)*%
X99400000Y-95200000D03*
D11*
%TO.P,J6,2,Pin_2_2*%
%TO.N,Net-(J6-Pin_2)*%
X99400000Y-97740000D03*
%TO.P,J6,3,Pin_3_3*%
%TO.N,Net-(J6-Pin_3)*%
X99400000Y-100280000D03*
%TO.P,J6,4,Pin_4_4*%
%TO.N,Net-(J6-Pin_4)*%
X99400000Y-102820000D03*
%TD*%
D10*
%TO.P,J17,1,Pin_1_1*%
%TO.N,/USR_Slice6/Q0_Out*%
X160600000Y-88580000D03*
D11*
%TO.P,J17,2,Pin_2_2*%
%TO.N,/USR_Slice6/Q1_Out*%
X160600000Y-91120000D03*
%TO.P,J17,3,Pin_3_3*%
%TO.N,/USR_Slice6/Q2_Out*%
X160600000Y-93660000D03*
%TO.P,J17,4,Pin_4_4*%
%TO.N,/USR_Slice5/DSL*%
X160600000Y-96200000D03*
%TD*%
D13*
%TO.P,C3,1*%
%TO.N,VCC*%
X112150000Y-57980000D03*
%TO.P,C3,2*%
%TO.N,GND*%
X114650000Y-57980000D03*
%TD*%
D10*
%TO.P,J16,1,Pin_1_1*%
%TO.N,/USR_Slice3/DSR*%
X151200000Y-88780000D03*
D11*
%TO.P,J16,2,Pin_2_2*%
%TO.N,/USR_Slice7/Q1_Out*%
X151200000Y-91320000D03*
%TO.P,J16,3,Pin_3_3*%
%TO.N,/USR_Slice7/Q2_Out*%
X151200000Y-93860000D03*
%TO.P,J16,4,Pin_4_4*%
%TO.N,/USR_Slice6/DSL*%
X151200000Y-96400000D03*
%TD*%
D10*
%TO.P,J13,1,Pin_1_1*%
%TO.N,/USR_Slice/DSR*%
X158780000Y-59220000D03*
D11*
%TO.P,J13,2,Pin_2_2*%
%TO.N,/USR_Slice1/Q1_Out*%
X158780000Y-61760000D03*
%TO.P,J13,3,Pin_3_3*%
%TO.N,/USR_Slice1/Q2_Out*%
X158780000Y-64300000D03*
%TO.P,J13,4,Pin_4_4*%
%TO.N,/USR_Slice1/Q3_Out*%
X158780000Y-66840000D03*
%TD*%
D14*
%TO.P,SW1,*%
%TO.N,*%
X57600000Y-87800000D03*
X65800000Y-87800000D03*
D15*
%TO.P,SW1,1,A_1*%
%TO.N,GND*%
X59700000Y-87800000D03*
D16*
%TO.P,SW1,2,B_2*%
%TO.N,S0*%
X61700000Y-87800000D03*
%TO.P,SW1,3,C_3*%
%TO.N,VCC*%
X63700000Y-87800000D03*
%TD*%
D13*
%TO.P,C5,1*%
%TO.N,VCC*%
X79950000Y-89600000D03*
%TO.P,C5,2*%
%TO.N,GND*%
X82450000Y-89600000D03*
%TD*%
D17*
%TO.P,SW4,1,1_1*%
%TO.N,VCC*%
X69100000Y-101300000D03*
X75600000Y-101300000D03*
%TO.P,SW4,2,2_2*%
%TO.N,Net-(U9-1A0)*%
X69100000Y-105800000D03*
X75600000Y-105800000D03*
%TD*%
D13*
%TO.P,C8,1*%
%TO.N,VCC*%
X131155000Y-86710000D03*
%TO.P,C8,2*%
%TO.N,GND*%
X133655000Y-86710000D03*
%TD*%
D10*
%TO.P,J3,1,Pin_1_1*%
%TO.N,Net-(J3-Pin_1)*%
X112200000Y-65580000D03*
D11*
%TO.P,J3,2,Pin_2_2*%
%TO.N,Net-(J3-Pin_2)*%
X112200000Y-68120000D03*
%TO.P,J3,3,Pin_3_3*%
%TO.N,Net-(J3-Pin_3)*%
X112200000Y-70660000D03*
%TO.P,J3,4,Pin_4_4*%
%TO.N,Net-(J3-Pin_4)*%
X112200000Y-73200000D03*
%TD*%
D10*
%TO.P,J1,1,Pin_1_1*%
%TO.N,Net-(J1-Pin_1)*%
X61400000Y-64600000D03*
D11*
%TO.P,J1,2,Pin_2_2*%
%TO.N,Net-(J1-Pin_2)*%
X61400000Y-67140000D03*
%TO.P,J1,3,Pin_3_3*%
%TO.N,Net-(J1-Pin_3)*%
X61400000Y-69680000D03*
%TO.P,J1,4,Pin_4_4*%
%TO.N,Net-(J1-Pin_4)*%
X61400000Y-72220000D03*
%TD*%
D13*
%TO.P,C7,1*%
%TO.N,VCC*%
X114805000Y-86910000D03*
%TO.P,C7,2*%
%TO.N,GND*%
X117305000Y-86910000D03*
%TD*%
D12*
%TO.P,U7,1,Mr_1*%
%TO.N,CLR*%
X120785000Y-86830000D03*
D13*
%TO.P,U7,2,Dsr_2*%
%TO.N,/USR_Slice5/Q0_Out*%
X120785000Y-89370000D03*
%TO.P,U7,3,P0_3*%
%TO.N,Net-(J7-Pin_1)*%
X120785000Y-91910000D03*
%TO.P,U7,4,P1_4*%
%TO.N,Net-(J7-Pin_2)*%
X120785000Y-94450000D03*
%TO.P,U7,5,P2_5*%
%TO.N,Net-(J7-Pin_3)*%
X120785000Y-96990000D03*
%TO.P,U7,6,P3_6*%
%TO.N,Net-(J7-Pin_4)*%
X120785000Y-99530000D03*
%TO.P,U7,7,Dsl_7*%
%TO.N,/USR_Slice6/DSL*%
X120785000Y-102070000D03*
%TO.P,U7,8,GND_8*%
%TO.N,GND*%
X120785000Y-104610000D03*
%TO.P,U7,9,S0_9*%
%TO.N,S0*%
X128405000Y-104610000D03*
%TO.P,U7,10,S1_10*%
%TO.N,S1*%
X128405000Y-102070000D03*
%TO.P,U7,11,Cp_11*%
%TO.N,/USR_Slice6/CLK*%
X128405000Y-99530000D03*
%TO.P,U7,12,Q3_12*%
%TO.N,/USR_Slice5/DSL*%
X128405000Y-96990000D03*
%TO.P,U7,13,Q2_13*%
%TO.N,/USR_Slice6/Q2_Out*%
X128405000Y-94450000D03*
%TO.P,U7,14,Q1_14*%
%TO.N,/USR_Slice6/Q1_Out*%
X128405000Y-91910000D03*
%TO.P,U7,15,Q0_15*%
%TO.N,/USR_Slice6/Q0_Out*%
X128405000Y-89370000D03*
%TO.P,U7,16,VCC_16*%
%TO.N,VCC*%
X128405000Y-86830000D03*
%TD*%
D10*
%TO.P,J14,1,Pin_1_1*%
%TO.N,/USR_Slice1/DSR*%
X168380000Y-59220000D03*
D11*
%TO.P,J14,2,Pin_2_2*%
%TO.N,/USR_Slice2/Q1_Out*%
X168380000Y-61760000D03*
%TO.P,J14,3,Pin_3_3*%
%TO.N,/USR_Slice2/Q2_Out*%
X168380000Y-64300000D03*
%TO.P,J14,4,Pin_4_4*%
%TO.N,/USR_Slice2/Q3_Out*%
X168380000Y-66840000D03*
%TD*%
D14*
%TO.P,SW3,*%
%TO.N,*%
X57200000Y-104600000D03*
X65400000Y-104600000D03*
D15*
%TO.P,SW3,1,A_1*%
%TO.N,GND*%
X59300000Y-104600000D03*
D16*
%TO.P,SW3,2,B_2*%
%TO.N,CLR*%
X61300000Y-104600000D03*
%TO.P,SW3,3,C_3*%
%TO.N,VCC*%
X63300000Y-104600000D03*
%TD*%
D13*
%TO.P,C4,1*%
%TO.N,VCC*%
X129380000Y-58420000D03*
%TO.P,C4,2*%
%TO.N,GND*%
X131880000Y-58420000D03*
%TD*%
D10*
%TO.P,J4,1,Pin_1_1*%
%TO.N,Net-(J4-Pin_1)*%
X130580000Y-66420000D03*
D11*
%TO.P,J4,2,Pin_2_2*%
%TO.N,Net-(J4-Pin_2)*%
X130580000Y-68960000D03*
%TO.P,J4,3,Pin_3_3*%
%TO.N,Net-(J4-Pin_3)*%
X130580000Y-71500000D03*
%TO.P,J4,4,Pin_4_4*%
%TO.N,Net-(J4-Pin_4)*%
X130580000Y-74040000D03*
%TD*%
D10*
%TO.P,J2,1,Pin_1_1*%
%TO.N,Net-(J2-Pin_1)*%
X79000000Y-68780000D03*
D11*
%TO.P,J2,2,Pin_2_2*%
%TO.N,Net-(J2-Pin_2)*%
X79000000Y-71320000D03*
%TO.P,J2,3,Pin_3_3*%
%TO.N,Net-(J2-Pin_3)*%
X79000000Y-73860000D03*
%TO.P,J2,4,Pin_4_4*%
%TO.N,Net-(J2-Pin_4)*%
X79000000Y-76400000D03*
%TD*%
D13*
%TO.P,C6,1*%
%TO.N,VCC*%
X98200000Y-88200000D03*
%TO.P,C6,2*%
%TO.N,GND*%
X100700000Y-88200000D03*
%TD*%
D10*
%TO.P,J9,1,Pin_1_1*%
%TO.N,DSL*%
X62000000Y-79400000D03*
%TD*%
D18*
%TO.N,CLR*%
X136800000Y-78600000D03*
%TO.N,/USR_Slice4/Q0_Out*%
X143200000Y-83400000D03*
X137805000Y-82999997D03*
X146925000Y-83199997D03*
%TO.N,/USR_Slice5/DSL*%
X146525000Y-97800000D03*
X126400000Y-99200000D03*
%TO.N,GND*%
X80800000Y-80600000D03*
X101800000Y-93855000D03*
X133655000Y-78000000D03*
X106245735Y-104845735D03*
%TO.N,/USR_Slice4/DSL*%
X113200000Y-106310000D03*
%TO.N,/USR_Slice5/Q0_Out*%
X143200000Y-84200000D03*
X146925000Y-84000000D03*
X137805000Y-83800000D03*
%TO.N,VCC*%
X112400000Y-79420000D03*
X112400000Y-82200000D03*
X101991677Y-88346871D03*
%TO.N,/USR_Slice1/DSR*%
X137080000Y-61800000D03*
X151730000Y-58098527D03*
%TO.N,/USR_Slice/DSR*%
X57800000Y-62200000D03*
%TO.N,/USR_Slice2/DSR*%
X143802082Y-58877917D03*
%TO.N,/USR_Slice2/Q3_Out*%
X142140393Y-74011863D03*
%TO.N,Net-(U9-1A0)*%
X78966898Y-94896580D03*
X79190660Y-91420000D03*
X68400000Y-91800000D03*
%TO.N,CLK*%
X96800000Y-72660000D03*
%TO.N,/USR_Slice7/CLK*%
X139513235Y-98513235D03*
%TO.N,/USR_Slice3/CLK*%
X109600000Y-72600000D03*
%TO.N,/USR_Slice6/Q0_Out*%
X146525000Y-90200000D03*
X143200000Y-89800000D03*
%TO.N,/USR_Slice3/Q3_Out*%
X144200000Y-69200000D03*
X146924999Y-69245960D03*
%TO.N,/USR_Slice3/DSR*%
X146525000Y-89000000D03*
%TO.N,Q3_Out*%
X91799997Y-105079999D03*
X92328528Y-103879999D03*
X91000000Y-102780000D03*
%TO.N,Q0_Out*%
X79200000Y-59400000D03*
%TO.N,/USR_Slice1/Q1_Out*%
X86000000Y-69600000D03*
%TO.N,/USR_Slice2/Q1_Out*%
X137800000Y-63600000D03*
X151730000Y-62800000D03*
X145136447Y-63663552D03*
%TO.N,/USR_Slice2/Q2_Out*%
X135827576Y-66714292D03*
X137080000Y-68540000D03*
%TO.N,/USR_Slice3/Q2_Out*%
X146925000Y-68400000D03*
%TO.N,/USR_Slice3/Q1_Out*%
X147000000Y-67400000D03*
%TO.N,/USR_Slice7/Q1_Out*%
X146600000Y-91400000D03*
%TO.N,/USR_Slice7/Q2_Out*%
X146525000Y-93800000D03*
%TO.N,/USR_Slice6/Q2_Out*%
X143200000Y-95400000D03*
X146525000Y-95000000D03*
%TO.N,/USR_Slice6/Q1_Out*%
X143200000Y-92800000D03*
X146525000Y-92800000D03*
%TO.N,/USR_Slice5/Q2_Out*%
X114600000Y-107600000D03*
%TO.N,/USR_Slice5/Q1_Out*%
X114400000Y-106310000D03*
X113493920Y-94380898D03*
%TO.N,/USR_Slice4/Q1_Out*%
X93551169Y-105079999D03*
X95612171Y-94820000D03*
%TO.N,/USR_Slice4/Q2_Out*%
X92600000Y-105079999D03*
X96320000Y-95800000D03*
%TD*%
%TO.N,Net-(J7-Pin_1)*%
D19*
X118985000Y-93710000D02*
X120785000Y-91910000D01*
X116005000Y-93710000D02*
X118985000Y-93710000D01*
%TO.N,Net-(J7-Pin_2)*%
X116005000Y-96250000D02*
X117805000Y-94450000D01*
X117805000Y-94450000D02*
X120785000Y-94450000D01*
%TO.N,Net-(J7-Pin_3)*%
X117805000Y-96990000D02*
X120785000Y-96990000D01*
X116005000Y-98790000D02*
X117805000Y-96990000D01*
%TO.N,Net-(J7-Pin_4)*%
X116005000Y-101330000D02*
X117805000Y-99530000D01*
X117805000Y-99530000D02*
X120785000Y-99530000D01*
%TO.N,CLR*%
X136800000Y-78600000D02*
X137205000Y-79005000D01*
X137205000Y-79005000D02*
X137205000Y-86430000D01*
%TO.N,/USR_Slice4/Q0_Out*%
X104600000Y-89560000D02*
X103580000Y-90580000D01*
X142799997Y-82999997D02*
X137805000Y-82999997D01*
X179200000Y-88580000D02*
X171420000Y-80800000D01*
X143200000Y-83400000D02*
X142799997Y-82999997D01*
X149324997Y-80800000D02*
X146925000Y-83199997D01*
X103580000Y-90580000D02*
X94620000Y-90580000D01*
X171420000Y-80800000D02*
X149324997Y-80800000D01*
%TO.N,Net-(J6-Pin_1)*%
X101500000Y-95200000D02*
X104600000Y-92100000D01*
X99400000Y-95200000D02*
X101500000Y-95200000D01*
%TO.N,Net-(J6-Pin_2)*%
X101500000Y-97740000D02*
X104600000Y-94640000D01*
X99400000Y-97740000D02*
X101500000Y-97740000D01*
%TO.N,Net-(J6-Pin_3)*%
X101500000Y-100280000D02*
X104600000Y-97180000D01*
X99400000Y-100280000D02*
X101500000Y-100280000D01*
%TO.N,Net-(J6-Pin_4)*%
X99580000Y-102820000D02*
X102680000Y-99720000D01*
X99400000Y-102820000D02*
X99580000Y-102820000D01*
X102680000Y-99720000D02*
X104600000Y-99720000D01*
%TO.N,/USR_Slice5/DSL*%
X126800000Y-98800000D02*
X126800000Y-98595000D01*
X95873654Y-99640000D02*
X98923654Y-96590000D01*
X127305000Y-95890000D02*
X128405000Y-96990000D01*
X158600000Y-98200000D02*
X146925000Y-98200000D01*
X104600000Y-102260000D02*
X102380001Y-104479999D01*
X113968654Y-96080000D02*
X115528654Y-97640000D01*
X160600000Y-96200000D02*
X158600000Y-98200000D01*
X104144365Y-93540000D02*
X109224365Y-93540000D01*
X126800000Y-98595000D02*
X128405000Y-96990000D01*
X85900000Y-102824365D02*
X86544365Y-102180000D01*
X86544365Y-102180000D02*
X87455635Y-102180000D01*
X118231346Y-95890000D02*
X127305000Y-95890000D01*
X102380001Y-104479999D02*
X86644364Y-104479999D01*
X116481346Y-97640000D02*
X118231346Y-95890000D01*
X87455635Y-102180000D02*
X89995635Y-99640000D01*
X98923654Y-96590000D02*
X101094365Y-96590000D01*
X109224365Y-93540000D02*
X111764365Y-96080000D01*
X146925000Y-98200000D02*
X146525000Y-97800000D01*
X86644364Y-104479999D02*
X85900000Y-103735635D01*
X101094365Y-96590000D02*
X104144365Y-93540000D01*
X115528654Y-97640000D02*
X116481346Y-97640000D01*
X89995635Y-99640000D02*
X95873654Y-99640000D01*
X85900000Y-103735635D02*
X85900000Y-102824365D01*
X126400000Y-99200000D02*
X126800000Y-98800000D01*
X111764365Y-96080000D02*
X113968654Y-96080000D01*
%TO.N,GND*%
D20*
X80799999Y-84999999D02*
X80000000Y-84200000D01*
X59300000Y-104600000D02*
X59300000Y-97000000D01*
X80400000Y-62000000D02*
X80400000Y-59963122D01*
X100700000Y-88200000D02*
X103240000Y-85660000D01*
X77050000Y-101900610D02*
X77050000Y-98990000D01*
X95302233Y-89330000D02*
X97682233Y-86950000D01*
X114650000Y-57980000D02*
X115700000Y-56930000D01*
X59300000Y-104797056D02*
X61302944Y-106800000D01*
X100200000Y-58260000D02*
X97840000Y-58260000D01*
X132405000Y-85460000D02*
X133655000Y-86710000D01*
X76200610Y-102750000D02*
X76875305Y-102075305D01*
X59700000Y-87300000D02*
X67575000Y-79425000D01*
X116055000Y-85660000D02*
X117305000Y-86910000D01*
X95137767Y-89290000D02*
X95870000Y-88557767D01*
X119895000Y-103720000D02*
X120785000Y-104610000D01*
X118755000Y-85460000D02*
X132405000Y-85460000D01*
X103240000Y-85660000D02*
X116055000Y-85660000D01*
X61302944Y-106800000D02*
X66042031Y-106800000D01*
X136355000Y-103360000D02*
X137205000Y-104210000D01*
X83400000Y-78000000D02*
X80800000Y-80600000D01*
X101800000Y-93855000D02*
X99775000Y-91830000D01*
X79129390Y-105820000D02*
X76875305Y-103565915D01*
X94102233Y-91830000D02*
X93370000Y-91097767D01*
X106245735Y-104845735D02*
X107541470Y-103550000D01*
X127887233Y-103360000D02*
X136355000Y-103360000D01*
X66042031Y-106800000D02*
X70092031Y-102750000D01*
X97682233Y-86950000D02*
X99450000Y-86950000D01*
X59700000Y-96600000D02*
X59700000Y-87800000D01*
X59700000Y-87800000D02*
X59700000Y-87300000D01*
X112732182Y-103550000D02*
X112902183Y-103720000D01*
X133655000Y-76645000D02*
X134980000Y-75320000D01*
X76875305Y-102075305D02*
X77050000Y-101900610D01*
X95870000Y-87522233D02*
X93347766Y-84999999D01*
X63999999Y-58200001D02*
X76600001Y-58200001D01*
X67575000Y-79425000D02*
X67575000Y-77250000D01*
X130390000Y-56930000D02*
X131880000Y-58420000D01*
X82450000Y-89600000D02*
X82450000Y-92474139D01*
X77050000Y-98990000D02*
X71600000Y-93540000D01*
X126637233Y-104610000D02*
X127887233Y-103360000D01*
X76600001Y-58200001D02*
X80400000Y-62000000D01*
X59300000Y-104600000D02*
X59300000Y-104797056D01*
X82760000Y-89290000D02*
X95137767Y-89290000D01*
X83163122Y-57200000D02*
X94900000Y-57200000D01*
X120785000Y-104610000D02*
X126637233Y-104610000D01*
X93347766Y-84999999D02*
X80799999Y-84999999D01*
X82720000Y-89330000D02*
X95302233Y-89330000D01*
X133655000Y-78000000D02*
X133655000Y-76645000D01*
X70092031Y-102750000D02*
X76200610Y-102750000D01*
X112902183Y-103720000D02*
X119895000Y-103720000D01*
X107541470Y-103550000D02*
X112732182Y-103550000D01*
X83400000Y-76840000D02*
X83400000Y-78000000D01*
X95870000Y-88762234D02*
X95302234Y-89330000D01*
X115700000Y-56930000D02*
X130390000Y-56930000D01*
X82450000Y-92474139D02*
X77050000Y-97874139D01*
X59300000Y-97000000D02*
X59700000Y-96600000D01*
X76875305Y-103565915D02*
X76875305Y-102075305D01*
X117305000Y-86910000D02*
X118755000Y-85460000D01*
X80400000Y-59963122D02*
X83163122Y-57200000D01*
X99450000Y-86950000D02*
X100700000Y-88200000D01*
X82720000Y-89330000D02*
X82450000Y-89600000D01*
X93370000Y-90062233D02*
X94102233Y-89330000D01*
X100200000Y-58260000D02*
X105280000Y-58260000D01*
X95302234Y-89330000D02*
X82720000Y-89330000D01*
X133655000Y-86710000D02*
X133655000Y-78000000D01*
X97840000Y-58260000D02*
X96900000Y-59200000D01*
X63200000Y-59000000D02*
X63999999Y-58200001D01*
X95870000Y-87522233D02*
X95870000Y-88762234D01*
X105280000Y-58260000D02*
X107820000Y-60800000D01*
X94900000Y-57200000D02*
X96900000Y-59200000D01*
X87000000Y-105820000D02*
X79129390Y-105820000D01*
X95870000Y-88557767D02*
X95870000Y-87522233D01*
X82450000Y-89600000D02*
X82760000Y-89290000D01*
X93370000Y-91097767D02*
X93370000Y-90062233D01*
X94102233Y-89330000D02*
X95302233Y-89330000D01*
X77050000Y-97874139D02*
X77050000Y-98990000D01*
X99775000Y-91830000D02*
X94102233Y-91830000D01*
%TO.N,S0*%
D19*
X72250000Y-77250000D02*
X75195000Y-77250000D01*
X96980000Y-82800000D02*
X118760000Y-82800000D01*
X129105000Y-105310000D02*
X128405000Y-104610000D01*
X113130000Y-105710000D02*
X112220000Y-104800000D01*
X118760000Y-82800000D02*
X125600000Y-75960000D01*
X75195000Y-77250000D02*
X79145000Y-81200000D01*
X91020000Y-76840000D02*
X96980000Y-82800000D01*
X95419999Y-106619999D02*
X94620000Y-105820000D01*
X125600000Y-75960000D02*
X132784365Y-75960000D01*
X112220000Y-104800000D02*
X110400001Y-106619999D01*
X144825000Y-104210000D02*
X143725000Y-105310000D01*
X127305000Y-105710000D02*
X113130000Y-105710000D01*
X61700000Y-87800000D02*
X72250000Y-77250000D01*
X141500000Y-74220000D02*
X142600000Y-75320000D01*
X134524365Y-74220000D02*
X141500000Y-74220000D01*
X143725000Y-105310000D02*
X129105000Y-105310000D01*
X79145000Y-81200000D02*
X86660000Y-81200000D01*
X86660000Y-81200000D02*
X91020000Y-76840000D01*
X110400001Y-106619999D02*
X95419999Y-106619999D01*
X132784365Y-75960000D02*
X134524365Y-74220000D01*
X128405000Y-104610000D02*
X127305000Y-105710000D01*
%TO.N,S1*%
X111120000Y-101160000D02*
X102686346Y-101160000D01*
X89920000Y-75400000D02*
X91020000Y-74300000D01*
X125230000Y-103170000D02*
X113130000Y-103170000D01*
X91020000Y-74300000D02*
X91520000Y-74800000D01*
X78035000Y-77550000D02*
X80050000Y-77550000D01*
X124220000Y-74800000D02*
X125600000Y-73420000D01*
X91520000Y-74800000D02*
X124220000Y-74800000D01*
X134524365Y-71680000D02*
X141500000Y-71680000D01*
X128405000Y-102070000D02*
X128275000Y-102200000D01*
X99766347Y-104079999D02*
X95419999Y-104079999D01*
X126200000Y-102200000D02*
X125230000Y-103170000D01*
X143725000Y-102770000D02*
X129105000Y-102770000D01*
X141500000Y-71680000D02*
X142600000Y-72780000D01*
X102686346Y-101160000D02*
X99766347Y-104079999D01*
X144825000Y-101670000D02*
X143725000Y-102770000D01*
X80050000Y-77550000D02*
X82200000Y-75400000D01*
X145925000Y-100570000D02*
X145925000Y-76105000D01*
X128275000Y-102200000D02*
X126200000Y-102200000D01*
X132988679Y-73215686D02*
X134524365Y-71680000D01*
X127370000Y-75190000D02*
X132988679Y-75190000D01*
X82200000Y-75400000D02*
X89920000Y-75400000D01*
X75195000Y-74710000D02*
X78035000Y-77550000D01*
X145925000Y-76105000D02*
X142600000Y-72780000D01*
X144825000Y-101670000D02*
X145925000Y-100570000D01*
X129105000Y-102770000D02*
X128405000Y-102070000D01*
X132988679Y-75190000D02*
X132988679Y-73215686D01*
X112220000Y-102260000D02*
X111120000Y-101160000D01*
X125600000Y-73420000D02*
X127370000Y-75190000D01*
X95419999Y-104079999D02*
X94620000Y-103280000D01*
X113130000Y-103170000D02*
X112220000Y-102260000D01*
%TO.N,/USR_Slice4/DSL*%
X88100000Y-102180000D02*
X95873654Y-102180000D01*
X95873654Y-102180000D02*
X98923654Y-99130000D01*
X157800000Y-108800000D02*
X114951471Y-108800000D01*
X104144365Y-96080000D02*
X111120000Y-96080000D01*
X98923654Y-99130000D02*
X101094365Y-99130000D01*
X101094365Y-99130000D02*
X104144365Y-96080000D01*
X170600000Y-96000000D02*
X157800000Y-108800000D01*
X114951471Y-108800000D02*
X113200000Y-107048529D01*
X87000000Y-103280000D02*
X88100000Y-102180000D01*
X111120000Y-96080000D02*
X112220000Y-97180000D01*
X113200000Y-107048529D02*
X113200000Y-106310000D01*
%TO.N,/USR_Slice5/Q0_Out*%
X138205000Y-84200000D02*
X137805000Y-83800000D01*
X120785000Y-89370000D02*
X112410000Y-89370000D01*
X143200000Y-84200000D02*
X138205000Y-84200000D01*
X166220000Y-84000000D02*
X146925000Y-84000000D01*
X112410000Y-89370000D02*
X112220000Y-89560000D01*
X170600000Y-88380000D02*
X166220000Y-84000000D01*
%TO.N,VCC*%
D20*
X131035000Y-86830000D02*
X131155000Y-86710000D01*
X143535000Y-87720000D02*
X144825000Y-86430000D01*
X62420000Y-60720000D02*
X73945000Y-60720000D01*
X79150000Y-63250000D02*
X80917767Y-63250000D01*
X79950000Y-89600000D02*
X82760000Y-86790000D01*
X141350000Y-58790000D02*
X142600000Y-57540000D01*
X120187233Y-88200000D02*
X120307233Y-88080000D01*
X80917767Y-63250000D02*
X82150000Y-62017767D01*
X136687233Y-87720000D02*
X143535000Y-87720000D01*
X77900000Y-62000000D02*
X79150000Y-63250000D01*
X63700000Y-88542031D02*
X66157969Y-91000000D01*
X73945000Y-60720000D02*
X75195000Y-59470000D01*
X63300000Y-104600000D02*
X63300000Y-102850000D01*
X116095000Y-88200000D02*
X120187233Y-88200000D01*
X77900000Y-62000000D02*
X77725000Y-62000000D01*
X136407233Y-88000000D02*
X136687233Y-87720000D01*
X108100000Y-57980000D02*
X107820000Y-58260000D01*
X82760000Y-86790000D02*
X93370000Y-86790000D01*
X101991677Y-89599444D02*
X102392233Y-90000000D01*
X63300000Y-102850000D02*
X64850000Y-101300000D01*
X129140000Y-58180000D02*
X129380000Y-58420000D01*
X91160000Y-59200000D02*
X91020000Y-59060000D01*
X100000000Y-90000000D02*
X102392233Y-90000000D01*
X124310000Y-59470000D02*
X125600000Y-58180000D01*
X64850000Y-101300000D02*
X69100000Y-101300000D01*
X69100000Y-101300000D02*
X75600000Y-101300000D01*
X131155000Y-86710000D02*
X132445000Y-88000000D01*
X112150000Y-57980000D02*
X108100000Y-57980000D01*
X127155000Y-88080000D02*
X128405000Y-86830000D01*
X93370000Y-86790000D02*
X94620000Y-88040000D01*
X66157969Y-91000000D02*
X71600000Y-91000000D01*
X120307233Y-88080000D02*
X127155000Y-88080000D01*
X112400000Y-79420000D02*
X112400000Y-82200000D01*
X113640000Y-59470000D02*
X124310000Y-59470000D01*
X133622233Y-59670000D02*
X134502233Y-58790000D01*
X94400000Y-59200000D02*
X91160000Y-59200000D01*
X130630000Y-59670000D02*
X133622233Y-59670000D01*
X110930000Y-88310000D02*
X112220000Y-87020000D01*
X63700000Y-96600000D02*
X63700000Y-87800000D01*
X132445000Y-88000000D02*
X136407233Y-88000000D01*
X63700000Y-96600000D02*
X63700000Y-97342031D01*
X82882233Y-60350000D02*
X89730000Y-60350000D01*
X63700000Y-97342031D02*
X67657969Y-101300000D01*
X112150000Y-57980000D02*
X113640000Y-59470000D01*
X63700000Y-87800000D02*
X63700000Y-88542031D01*
X134502233Y-58790000D02*
X141350000Y-58790000D01*
X102392233Y-90000000D02*
X104082233Y-88310000D01*
X77725000Y-62000000D02*
X75195000Y-59470000D01*
X114805000Y-86910000D02*
X116095000Y-88200000D01*
X78550000Y-91000000D02*
X79950000Y-89600000D01*
X60700000Y-59000000D02*
X62420000Y-60720000D01*
X82150000Y-61082233D02*
X82882233Y-60350000D01*
X128405000Y-86830000D02*
X131035000Y-86830000D01*
X71600000Y-91000000D02*
X78550000Y-91000000D01*
X104082233Y-88310000D02*
X110930000Y-88310000D01*
X101991677Y-88346871D02*
X101991677Y-89599444D01*
X98200000Y-88200000D02*
X100000000Y-90000000D01*
X67657969Y-101300000D02*
X69100000Y-101300000D01*
X89730000Y-60350000D02*
X91020000Y-59060000D01*
X82150000Y-62017767D02*
X82150000Y-61082233D01*
X129380000Y-58420000D02*
X130630000Y-59670000D01*
X125600000Y-58180000D02*
X129140000Y-58180000D01*
%TO.N,/USR_Slice1/DSR*%
D19*
X124420000Y-61900000D02*
X125600000Y-60720000D01*
X127400000Y-62520000D02*
X125600000Y-60720000D01*
X90564365Y-60500000D02*
X98344365Y-60500000D01*
X131056346Y-70110000D02*
X130103654Y-70110000D01*
X131730000Y-68483654D02*
X131730000Y-69436346D01*
X131730000Y-69436346D02*
X131056346Y-70110000D01*
X130103654Y-70110000D02*
X127400000Y-67406346D01*
X135435635Y-66260000D02*
X133953654Y-66260000D01*
X127400000Y-67406346D02*
X127400000Y-62520000D01*
X89464365Y-61600000D02*
X90564365Y-60500000D01*
X137080000Y-64615635D02*
X135435635Y-66260000D01*
X137080000Y-61800000D02*
X137080000Y-64615635D01*
X164690000Y-62910000D02*
X156541473Y-62910000D01*
X99744365Y-61900000D02*
X124420000Y-61900000D01*
X83400000Y-61600000D02*
X89464365Y-61600000D01*
X156541473Y-62910000D02*
X151730000Y-58098527D01*
X168380000Y-59220000D02*
X164690000Y-62910000D01*
X133953654Y-66260000D02*
X131730000Y-68483654D01*
X98344365Y-60500000D02*
X99744365Y-61900000D01*
%TO.N,Net-(J2-Pin_1)*%
X79000000Y-68540000D02*
X83400000Y-64140000D01*
X79000000Y-68780000D02*
X79000000Y-68540000D01*
%TO.N,Net-(J2-Pin_2)*%
X83400000Y-66920000D02*
X83400000Y-66680000D01*
X79000000Y-71320000D02*
X83400000Y-66920000D01*
%TO.N,Net-(J2-Pin_3)*%
X79000000Y-73860000D02*
X83400000Y-69460000D01*
X83400000Y-69460000D02*
X83400000Y-69220000D01*
%TO.N,Net-(J2-Pin_4)*%
X79000000Y-76400000D02*
X83400000Y-72000000D01*
X83400000Y-72000000D02*
X83400000Y-71760000D01*
%TO.N,/USR_Slice/Q3_Out*%
X73995000Y-70830000D02*
X75195000Y-69630000D01*
X61832994Y-55180000D02*
X58800000Y-58212995D01*
X151130000Y-57738628D02*
X148571370Y-55180000D01*
X149180000Y-66840000D02*
X151130000Y-64890000D01*
X58800000Y-58212995D02*
X58800000Y-68946346D01*
X148571370Y-55180000D02*
X61832994Y-55180000D01*
X60683654Y-70830000D02*
X73995000Y-70830000D01*
X58800000Y-68946346D02*
X60683654Y-70830000D01*
X151130000Y-64890000D02*
X151130000Y-57738628D01*
%TO.N,/USR_Slice1/CLK*%
X90884365Y-67800000D02*
X89920000Y-68764365D01*
X95740000Y-67800000D02*
X90884365Y-67800000D01*
X89920000Y-68764365D02*
X89920000Y-70660000D01*
X89920000Y-70660000D02*
X91020000Y-71760000D01*
X100200000Y-63340000D02*
X95740000Y-67800000D01*
%TO.N,/USR_Slice1/Q3_Out*%
X107935635Y-72060000D02*
X93860000Y-72060000D01*
X110275635Y-74400000D02*
X107935635Y-72060000D01*
X93860000Y-72060000D02*
X91020000Y-69220000D01*
X117000000Y-74400000D02*
X110275635Y-74400000D01*
X117980000Y-73420000D02*
X117000000Y-74400000D01*
%TO.N,/USR_Slice/DSR*%
X82100000Y-63800000D02*
X83200000Y-62700000D01*
X77580001Y-63800000D02*
X82100000Y-63800000D01*
X153940000Y-54380000D02*
X61501622Y-54380000D01*
X61501622Y-54380000D02*
X57800000Y-58081622D01*
X57800000Y-58081622D02*
X57800000Y-62200000D01*
X158780000Y-59220000D02*
X153940000Y-54380000D01*
X76890001Y-63110000D02*
X77580001Y-63800000D01*
X67575000Y-62010000D02*
X68675000Y-63110000D01*
X83200000Y-62700000D02*
X89920000Y-62700000D01*
X89920000Y-62700000D02*
X91020000Y-61600000D01*
X68675000Y-63110000D02*
X76890001Y-63110000D01*
%TO.N,Net-(J5-Pin_1)*%
X81600000Y-96400000D02*
X83720000Y-96400000D01*
X83720000Y-96400000D02*
X87000000Y-93120000D01*
%TO.N,Net-(J5-Pin_2)*%
X83720000Y-98940000D02*
X87000000Y-95660000D01*
X81600000Y-98940000D02*
X83720000Y-98940000D01*
%TO.N,Net-(J5-Pin_3)*%
X81600000Y-101480000D02*
X83720000Y-101480000D01*
X83720000Y-101480000D02*
X87000000Y-98200000D01*
%TO.N,Net-(J5-Pin_4)*%
X83720000Y-104020000D02*
X87000000Y-100740000D01*
X81600000Y-104020000D02*
X83720000Y-104020000D01*
%TO.N,/USR_Slice2/DSR*%
X130584365Y-61180000D02*
X141500000Y-61180000D01*
X169210000Y-67990000D02*
X148703654Y-67990000D01*
X128804365Y-59400000D02*
X130584365Y-61180000D01*
X146725000Y-61800835D02*
X143802082Y-58877917D01*
X124044365Y-60720000D02*
X125364365Y-59400000D01*
X146725000Y-66011346D02*
X146725000Y-61800835D01*
X178180000Y-59020000D02*
X169210000Y-67990000D01*
X141500000Y-61180000D02*
X142600000Y-60080000D01*
X117980000Y-60720000D02*
X124044365Y-60720000D01*
X148703654Y-67990000D02*
X146725000Y-66011346D01*
X125364365Y-59400000D02*
X128804365Y-59400000D01*
%TO.N,Net-(J3-Pin_1)*%
X112200000Y-65580000D02*
X115660000Y-65580000D01*
X115660000Y-65580000D02*
X117980000Y-63260000D01*
%TO.N,Net-(J3-Pin_2)*%
X115660000Y-68120000D02*
X117980000Y-65800000D01*
X112200000Y-68120000D02*
X115660000Y-68120000D01*
%TO.N,Net-(J3-Pin_3)*%
X115660000Y-70660000D02*
X117980000Y-68340000D01*
X112200000Y-70660000D02*
X115660000Y-70660000D01*
%TO.N,Net-(J3-Pin_4)*%
X115660000Y-73200000D02*
X117980000Y-70880000D01*
X112200000Y-73200000D02*
X115660000Y-73200000D01*
%TO.N,/USR_Slice2/CLK*%
X125600000Y-70880000D02*
X119420000Y-64700000D01*
X119420000Y-64700000D02*
X117524365Y-64700000D01*
X111280000Y-66800000D02*
X107820000Y-63340000D01*
X117524365Y-64700000D02*
X115424365Y-66800000D01*
X115424365Y-66800000D02*
X111280000Y-66800000D01*
%TO.N,/USR_Slice2/Q3_Out*%
X140908530Y-72780000D02*
X134980000Y-72780000D01*
X142140393Y-74011863D02*
X140908530Y-72780000D01*
%TO.N,Net-(U9-1A0)*%
X76460318Y-92390000D02*
X68990000Y-92390000D01*
X99100000Y-66980000D02*
X99100000Y-69860000D01*
X77635159Y-92975501D02*
X77635159Y-93564841D01*
X100200000Y-70960000D02*
X105360000Y-70960000D01*
X105360000Y-70960000D02*
X106720000Y-69600000D01*
X106720000Y-69600000D02*
X106720000Y-69860000D01*
X68990000Y-92390000D02*
X68400000Y-91800000D01*
X99100000Y-69860000D02*
X100200000Y-70960000D01*
X100200000Y-76040000D02*
X107820000Y-76040000D01*
X79190660Y-91420000D02*
X77635159Y-92975501D01*
X75600000Y-105800000D02*
X69100000Y-105800000D01*
X77635159Y-93564841D02*
X76460318Y-92390000D01*
X107820000Y-65880000D02*
X106720000Y-66980000D01*
X78966898Y-94896580D02*
X77635159Y-93564841D01*
X108920000Y-80020000D02*
X108920000Y-77140000D01*
X106720000Y-66980000D02*
X106720000Y-69600000D01*
X107820000Y-81120000D02*
X108920000Y-80020000D01*
X106720000Y-69860000D02*
X107820000Y-70960000D01*
X108920000Y-77140000D02*
X107820000Y-76040000D01*
X100200000Y-65880000D02*
X99100000Y-66980000D01*
%TO.N,CLK*%
X85824365Y-68120000D02*
X90564365Y-72860000D01*
X82944365Y-68120000D02*
X85824365Y-68120000D01*
X82300000Y-69675635D02*
X82300000Y-68764365D01*
X75495000Y-72470000D02*
X79505635Y-72470000D01*
X79505635Y-72470000D02*
X82300000Y-69675635D01*
X82300000Y-68764365D02*
X82944365Y-68120000D01*
X96600000Y-72860000D02*
X96800000Y-72660000D01*
X75195000Y-72170000D02*
X75495000Y-72470000D01*
X90564365Y-72860000D02*
X96600000Y-72860000D01*
%TO.N,/USR_Slice7/CLK*%
X140130000Y-99130000D02*
X139513235Y-98513235D01*
X144825000Y-99130000D02*
X140130000Y-99130000D01*
%TO.N,/USR_Slice3/CLK*%
X134524365Y-69140000D02*
X133880000Y-69784365D01*
X110390000Y-71810000D02*
X109600000Y-72600000D01*
X142600000Y-70240000D02*
X141500000Y-69140000D01*
X115154365Y-71810000D02*
X110390000Y-71810000D01*
X128545686Y-72000000D02*
X120995635Y-72000000D01*
X141500000Y-69140000D02*
X134524365Y-69140000D01*
X118435635Y-69440000D02*
X117524365Y-69440000D01*
X117524365Y-69440000D02*
X115154365Y-71810000D01*
X133880000Y-70066346D02*
X131056346Y-72890000D01*
X120995635Y-72000000D02*
X118435635Y-69440000D01*
X129435686Y-72890000D02*
X128545686Y-72000000D01*
X131056346Y-72890000D02*
X129435686Y-72890000D01*
X133880000Y-69784365D02*
X133880000Y-70066346D01*
%TO.N,/USR_Slice6/Q0_Out*%
X159180000Y-90000000D02*
X146725000Y-90000000D01*
X142370000Y-88970000D02*
X137205000Y-88970000D01*
X137205000Y-88970000D02*
X128805000Y-88970000D01*
X160600000Y-88580000D02*
X159180000Y-90000000D01*
X128805000Y-88970000D02*
X128405000Y-89370000D01*
X146725000Y-90000000D02*
X146525000Y-90200000D01*
X143200000Y-89800000D02*
X142370000Y-88970000D01*
%TO.N,Net-(J8-Pin_1)*%
X132405000Y-93710000D02*
X135005000Y-93710000D01*
X135005000Y-93710000D02*
X137205000Y-91510000D01*
%TO.N,Net-(J8-Pin_2)*%
X135005000Y-96250000D02*
X137205000Y-94050000D01*
X132405000Y-96250000D02*
X135005000Y-96250000D01*
%TO.N,Net-(J8-Pin_3)*%
X135005000Y-98790000D02*
X137205000Y-96590000D01*
X132405000Y-98790000D02*
X135005000Y-98790000D01*
%TO.N,Net-(J8-Pin_4)*%
X132405000Y-101330000D02*
X135005000Y-101330000D01*
X135005000Y-101330000D02*
X137205000Y-99130000D01*
%TO.N,/USR_Slice3/Q3_Out*%
X144200000Y-69200000D02*
X144100000Y-69200000D01*
X146955950Y-69276911D02*
X146924999Y-69245960D01*
X175543089Y-69276911D02*
X146955950Y-69276911D01*
X178180000Y-66640000D02*
X175543089Y-69276911D01*
X144100000Y-69200000D02*
X142600000Y-67700000D01*
%TO.N,/USR_Slice6/DSL*%
X134599365Y-100180000D02*
X137089365Y-97690000D01*
X120785000Y-102070000D02*
X121885000Y-100970000D01*
X143725000Y-97690000D02*
X144825000Y-96590000D01*
X121885000Y-100970000D02*
X128970000Y-100970000D01*
X129760000Y-100180000D02*
X134599365Y-100180000D01*
X137089365Y-97690000D02*
X143725000Y-97690000D01*
X128970000Y-100970000D02*
X129760000Y-100180000D01*
%TO.N,/USR_Slice3/DSR*%
X146745000Y-88780000D02*
X146525000Y-89000000D01*
X140837818Y-60080000D02*
X141937818Y-58980000D01*
X134980000Y-60080000D02*
X140837818Y-60080000D01*
X141937818Y-58980000D02*
X143055635Y-58980000D01*
X146325000Y-62249365D02*
X146325000Y-88970000D01*
X146325000Y-88970000D02*
X146495000Y-88970000D01*
X151200000Y-88780000D02*
X146745000Y-88780000D01*
X143055635Y-58980000D02*
X146325000Y-62249365D01*
X146495000Y-88970000D02*
X146525000Y-89000000D01*
%TO.N,Q3_Out*%
X96112993Y-110000000D02*
X91799997Y-105687004D01*
X165400000Y-110000000D02*
X96112993Y-110000000D01*
X179200000Y-96200000D02*
X165400000Y-110000000D01*
X91000000Y-102580000D02*
X91000000Y-102780000D01*
X91799997Y-105687004D02*
X91799997Y-105079999D01*
X91028529Y-102580000D02*
X91000000Y-102580000D01*
X92328528Y-103879999D02*
X91028529Y-102580000D01*
%TO.N,Net-(J4-Pin_1)*%
X130580000Y-66420000D02*
X131180000Y-66420000D01*
X131180000Y-66420000D02*
X134980000Y-62620000D01*
%TO.N,Net-(J4-Pin_2)*%
X134380000Y-65160000D02*
X134980000Y-65160000D01*
X130580000Y-68960000D02*
X134380000Y-65160000D01*
%TO.N,Net-(J4-Pin_3)*%
X134380000Y-67700000D02*
X134980000Y-67700000D01*
X130580000Y-71500000D02*
X134380000Y-67700000D01*
%TO.N,Net-(J4-Pin_4)*%
X134380000Y-70240000D02*
X134980000Y-70240000D01*
X130580000Y-74040000D02*
X134380000Y-70240000D01*
%TO.N,Net-(J1-Pin_1)*%
X61400000Y-64600000D02*
X67525000Y-64600000D01*
X67525000Y-64600000D02*
X67575000Y-64550000D01*
%TO.N,Net-(J1-Pin_2)*%
X67525000Y-67140000D02*
X67575000Y-67090000D01*
X61400000Y-67140000D02*
X67525000Y-67140000D01*
%TO.N,Net-(J1-Pin_3)*%
X61400000Y-69680000D02*
X67525000Y-69680000D01*
X67525000Y-69680000D02*
X67575000Y-69630000D01*
%TO.N,Net-(J1-Pin_4)*%
X61400000Y-72220000D02*
X67525000Y-72220000D01*
X67525000Y-72220000D02*
X67575000Y-72170000D01*
%TO.N,DSL*%
X62000000Y-79400000D02*
X62885000Y-79400000D01*
X62885000Y-79400000D02*
X67575000Y-74710000D01*
%TO.N,Q0_Out*%
X82220000Y-56380000D02*
X79200000Y-59400000D01*
X149180000Y-59220000D02*
X146340000Y-56380000D01*
X146340000Y-56380000D02*
X82220000Y-56380000D01*
%TO.N,/USR_Slice/Q2_Out*%
X148405685Y-55580000D02*
X61998680Y-55580000D01*
X149180000Y-64300000D02*
X150730000Y-62750000D01*
X73995000Y-68290000D02*
X75195000Y-67090000D01*
X59200000Y-66566346D02*
X60923654Y-68290000D01*
X150730000Y-57904314D02*
X148405685Y-55580000D01*
X60923654Y-68290000D02*
X73995000Y-68290000D01*
X150730000Y-62750000D02*
X150730000Y-57904314D01*
X61998680Y-55580000D02*
X59200000Y-58378680D01*
X59200000Y-58378680D02*
X59200000Y-66566346D01*
%TO.N,/USR_Slice/Q1_Out*%
X148240000Y-55980000D02*
X62164365Y-55980000D01*
X59600000Y-58544365D02*
X59600000Y-59455635D01*
X69470635Y-64550000D02*
X75195000Y-64550000D01*
X150330000Y-58070000D02*
X148240000Y-55980000D01*
X62164365Y-55980000D02*
X59600000Y-58544365D01*
X149180000Y-61760000D02*
X150330000Y-60610000D01*
X63254365Y-63110000D02*
X68030635Y-63110000D01*
X150330000Y-60610000D02*
X150330000Y-58070000D01*
X59600000Y-59455635D02*
X63254365Y-63110000D01*
X68030635Y-63110000D02*
X69470635Y-64550000D01*
%TO.N,/USR_Slice1/Q1_Out*%
X83105686Y-70320000D02*
X85280000Y-70320000D01*
X60923654Y-73370000D02*
X76883654Y-73370000D01*
X78523654Y-75010000D02*
X79476346Y-75010000D01*
X158780000Y-61760000D02*
X151800000Y-54780000D01*
X80150000Y-73275686D02*
X83105686Y-70320000D01*
X58400000Y-58047310D02*
X58400000Y-70846346D01*
X80150000Y-74336346D02*
X80150000Y-73275686D01*
X61667308Y-54780000D02*
X58400000Y-58047310D01*
X151800000Y-54780000D02*
X61667308Y-54780000D01*
X79476346Y-75010000D02*
X80150000Y-74336346D01*
X85280000Y-70320000D02*
X86000000Y-69600000D01*
X76883654Y-73370000D02*
X78523654Y-75010000D01*
X58400000Y-70846346D02*
X60923654Y-73370000D01*
%TO.N,/USR_Slice2/Q1_Out*%
X164450000Y-65690000D02*
X154620000Y-65690000D01*
X168380000Y-61760000D02*
X164450000Y-65690000D01*
X145136447Y-63663552D02*
X144739999Y-64060000D01*
X138260000Y-64060000D02*
X137800000Y-63600000D01*
X144739999Y-64060000D02*
X138260000Y-64060000D01*
X154620000Y-65690000D02*
X151730000Y-62800000D01*
%TO.N,/USR_Slice2/Q2_Out*%
X137080000Y-67966716D02*
X135827576Y-66714292D01*
X137080000Y-68540000D02*
X137080000Y-67966716D01*
%TO.N,/USR_Slice3/Q2_Out*%
X147315000Y-68790000D02*
X146925000Y-68400000D01*
X173490000Y-68790000D02*
X147315000Y-68790000D01*
X178180000Y-64100000D02*
X173490000Y-68790000D01*
%TO.N,/USR_Slice3/Q1_Out*%
X171350000Y-68390000D02*
X147990000Y-68390000D01*
X178180000Y-61560000D02*
X171350000Y-68390000D01*
X147990000Y-68390000D02*
X147000000Y-67400000D01*
%TO.N,/USR_Slice7/Q1_Out*%
X151200000Y-91320000D02*
X146680000Y-91320000D01*
X146680000Y-91320000D02*
X146600000Y-91400000D01*
%TO.N,/USR_Slice7/Q2_Out*%
X146585000Y-93860000D02*
X146525000Y-93800000D01*
X151200000Y-93860000D02*
X146585000Y-93860000D01*
%TO.N,/USR_Slice6/Q2_Out*%
X140750000Y-92950000D02*
X136330686Y-92950000D01*
X128815000Y-94860000D02*
X128405000Y-94450000D01*
X146581109Y-95056109D02*
X146525000Y-95000000D01*
X143200000Y-95400000D02*
X140750000Y-92950000D01*
X160600000Y-93660000D02*
X159203891Y-95056109D01*
X159203891Y-95056109D02*
X146581109Y-95056109D01*
X136330686Y-92950000D02*
X134420686Y-94860000D01*
X134420686Y-94860000D02*
X128815000Y-94860000D01*
%TO.N,/USR_Slice6/Q1_Out*%
X159010000Y-92710000D02*
X146615000Y-92710000D01*
X143200000Y-92800000D02*
X140810000Y-90410000D01*
X146615000Y-92710000D02*
X146525000Y-92800000D01*
X160600000Y-91120000D02*
X159010000Y-92710000D01*
X140810000Y-90410000D02*
X129905000Y-90410000D01*
X129905000Y-90410000D02*
X128405000Y-91910000D01*
%TO.N,/USR_Slice5/Q2_Out*%
X115400000Y-108400000D02*
X114600000Y-107600000D01*
X155660000Y-108400000D02*
X115400000Y-108400000D01*
X170600000Y-93460000D02*
X155660000Y-108400000D01*
%TO.N,/USR_Slice5/Q1_Out*%
X115394263Y-107304263D02*
X114400000Y-106310000D01*
X170600000Y-90920000D02*
X154215737Y-107304263D01*
X154215737Y-107304263D02*
X115394263Y-107304263D01*
X113493920Y-94380898D02*
X113493920Y-93373920D01*
X113493920Y-93373920D02*
X112220000Y-92100000D01*
%TO.N,/USR_Slice4/Q1_Out*%
X95612171Y-94820000D02*
X94620000Y-93827829D01*
X93418954Y-106174589D02*
X93418954Y-105212214D01*
X161120000Y-109200000D02*
X96444365Y-109200000D01*
X94620000Y-93827829D02*
X94620000Y-93120000D01*
X179200000Y-91120000D02*
X161120000Y-109200000D01*
X96444365Y-109200000D02*
X93418954Y-106174589D01*
X93418954Y-105212214D02*
X93551169Y-105079999D01*
%TO.N,/USR_Slice4/Q2_Out*%
X92600000Y-105921321D02*
X92600000Y-105079999D01*
X96320000Y-95800000D02*
X94760000Y-95800000D01*
X94760000Y-95800000D02*
X94620000Y-95660000D01*
X179200000Y-93660000D02*
X163260000Y-109600000D01*
X163260000Y-109600000D02*
X96278679Y-109600000D01*
X96278679Y-109600000D02*
X92600000Y-105921321D01*
%TD*%
M02*
