M48
; DRILL file KiCad 10.0.4 date 2026-07-15T08:19:39
; FORMAT={-:-/ absolute / metric / decimal}
; #@! TF.CreationDate,2026-07-15T08:19:39+05:00
; #@! TF.GenerationSoftware,Kicad,Pcbnew,10.0.4
; #@! TF.FileFunction,Plated,1,2,PTH
FMAT,2
METRIC
; #@! TA.AperFunction,Plated,PTH,ViaDrill
T1C0.300
; #@! TA.AperFunction,Plated,PTH,ComponentDrill
T2C0.800
; #@! TA.AperFunction,Plated,PTH,ComponentDrill
T3C1.000
; #@! TA.AperFunction,Plated,PTH,ComponentDrill
T4C1.100
; #@! TA.AperFunction,Plated,PTH,ComponentDrill
T5C1.500
%
G90
G05
T1
X57.8Y-62.2
X68.4Y-91.8
X78.967Y-94.897
X79.191Y-91.42
X79.2Y-59.4
X80.8Y-80.6
X86.0Y-69.6
X91.0Y-102.78
X91.8Y-105.08
X92.329Y-103.88
X92.6Y-105.08
X93.551Y-105.08
X95.612Y-94.82
X96.32Y-95.8
X96.8Y-72.66
X101.8Y-93.855
X101.992Y-88.347
X106.246Y-104.846
X109.6Y-72.6
X112.4Y-79.42
X112.4Y-82.2
X113.2Y-106.31
X113.494Y-94.381
X114.4Y-106.31
X114.6Y-107.6
X126.4Y-99.2
X133.655Y-78.0
X135.828Y-66.714
X136.8Y-78.6
X137.08Y-61.8
X137.08Y-68.54
X137.8Y-63.6
X137.805Y-83.0
X137.805Y-83.8
X139.513Y-98.513
X142.14Y-74.012
X143.2Y-83.4
X143.2Y-84.2
X143.2Y-89.8
X143.2Y-92.8
X143.2Y-95.4
X143.802Y-58.878
X144.2Y-69.2
X145.136Y-63.664
X146.525Y-89.0
X146.525Y-90.2
X146.525Y-92.8
X146.525Y-93.8
X146.525Y-95.0
X146.525Y-97.8
X146.6Y-91.4
X146.925Y-69.246
X146.925Y-68.4
X146.925Y-83.2
X146.925Y-84.0
X147.0Y-67.4
X151.73Y-58.099
X151.73Y-62.8
T2
X59.3Y-104.6
X59.7Y-87.8
X59.7Y-96.6
X60.7Y-59.0
X61.3Y-104.6
X61.7Y-87.8
X61.7Y-96.6
X63.2Y-59.0
X63.3Y-104.6
X63.7Y-87.8
X63.7Y-96.6
X67.575Y-59.47
X67.575Y-62.01
X67.575Y-64.55
X67.575Y-67.09
X67.575Y-69.63
X67.575Y-72.17
X67.575Y-74.71
X67.575Y-77.25
X69.84Y-84.2
X75.195Y-59.47
X75.195Y-62.01
X75.195Y-64.55
X75.195Y-67.09
X75.195Y-69.63
X75.195Y-72.17
X75.195Y-74.71
X75.195Y-77.25
X77.9Y-62.0
X79.95Y-89.6
X80.0Y-84.2
X80.4Y-62.0
X82.45Y-89.6
X83.4Y-59.06
X83.4Y-61.6
X83.4Y-64.14
X83.4Y-66.68
X83.4Y-69.22
X83.4Y-71.76
X83.4Y-74.3
X83.4Y-76.84
X87.0Y-88.04
X87.0Y-90.58
X87.0Y-93.12
X87.0Y-95.66
X87.0Y-98.2
X87.0Y-100.74
X87.0Y-103.28
X87.0Y-105.82
X91.02Y-59.06
X91.02Y-61.6
X91.02Y-64.14
X91.02Y-66.68
X91.02Y-69.22
X91.02Y-71.76
X91.02Y-74.3
X91.02Y-76.84
X94.4Y-59.2
X94.62Y-88.04
X94.62Y-90.58
X94.62Y-93.12
X94.62Y-95.66
X94.62Y-98.2
X94.62Y-100.74
X94.62Y-103.28
X94.62Y-105.82
X96.9Y-59.2
X98.2Y-88.2
X100.2Y-58.26
X100.2Y-60.8
X100.2Y-63.34
X100.2Y-65.88
X100.2Y-68.42
X100.2Y-70.96
X100.2Y-73.5
X100.2Y-76.04
X100.2Y-78.58
X100.2Y-81.12
X100.7Y-88.2
X104.6Y-87.02
X104.6Y-89.56
X104.6Y-92.1
X104.6Y-94.64
X104.6Y-97.18
X104.6Y-99.72
X104.6Y-102.26
X104.6Y-104.8
X107.82Y-58.26
X107.82Y-60.8
X107.82Y-63.34
X107.82Y-65.88
X107.82Y-68.42
X107.82Y-70.96
X107.82Y-73.5
X107.82Y-76.04
X107.82Y-78.58
X107.82Y-81.12
X112.15Y-57.98
X112.22Y-87.02
X112.22Y-89.56
X112.22Y-92.1
X112.22Y-94.64
X112.22Y-97.18
X112.22Y-99.72
X112.22Y-102.26
X112.22Y-104.8
X114.65Y-57.98
X114.805Y-86.91
X117.305Y-86.91
X117.98Y-58.18
X117.98Y-60.72
X117.98Y-63.26
X117.98Y-65.8
X117.98Y-68.34
X117.98Y-70.88
X117.98Y-73.42
X117.98Y-75.96
X120.785Y-86.83
X120.785Y-89.37
X120.785Y-91.91
X120.785Y-94.45
X120.785Y-96.99
X120.785Y-99.53
X120.785Y-102.07
X120.785Y-104.61
X125.6Y-58.18
X125.6Y-60.72
X125.6Y-63.26
X125.6Y-65.8
X125.6Y-68.34
X125.6Y-70.88
X125.6Y-73.42
X125.6Y-75.96
X128.405Y-86.83
X128.405Y-89.37
X128.405Y-91.91
X128.405Y-94.45
X128.405Y-96.99
X128.405Y-99.53
X128.405Y-102.07
X128.405Y-104.61
X129.38Y-58.42
X131.155Y-86.71
X131.88Y-58.42
X133.655Y-86.71
X134.98Y-57.54
X134.98Y-60.08
X134.98Y-62.62
X134.98Y-65.16
X134.98Y-67.7
X134.98Y-70.24
X134.98Y-72.78
X134.98Y-75.32
X137.205Y-86.43
X137.205Y-88.97
X137.205Y-91.51
X137.205Y-94.05
X137.205Y-96.59
X137.205Y-99.13
X137.205Y-101.67
X137.205Y-104.21
X142.6Y-57.54
X142.6Y-60.08
X142.6Y-62.62
X142.6Y-65.16
X142.6Y-67.7
X142.6Y-70.24
X142.6Y-72.78
X142.6Y-75.32
X144.825Y-86.43
X144.825Y-88.97
X144.825Y-91.51
X144.825Y-94.05
X144.825Y-96.59
X144.825Y-99.13
X144.825Y-101.67
X144.825Y-104.21
T3
X61.4Y-64.6
X61.4Y-67.14
X61.4Y-69.68
X61.4Y-72.22
X62.0Y-79.4
X71.6Y-91.0
X71.6Y-93.54
X79.0Y-68.78
X79.0Y-71.32
X79.0Y-73.86
X79.0Y-76.4
X81.6Y-96.4
X81.6Y-98.94
X81.6Y-101.48
X81.6Y-104.02
X86.4Y-83.2
X94.0Y-82.0
X99.4Y-95.2
X99.4Y-97.74
X99.4Y-100.28
X99.4Y-102.82
X112.2Y-65.58
X112.2Y-68.12
X112.2Y-70.66
X112.2Y-73.2
X116.005Y-93.71
X116.005Y-96.25
X116.005Y-98.79
X116.005Y-101.33
X130.58Y-66.42
X130.58Y-68.96
X130.58Y-71.5
X130.58Y-74.04
X132.405Y-93.71
X132.405Y-96.25
X132.405Y-98.79
X132.405Y-101.33
X149.18Y-59.22
X149.18Y-61.76
X149.18Y-64.3
X149.18Y-66.84
X151.2Y-88.78
X151.2Y-91.32
X151.2Y-93.86
X151.2Y-96.4
X158.78Y-59.22
X158.78Y-61.76
X158.78Y-64.3
X158.78Y-66.84
X160.6Y-88.58
X160.6Y-91.12
X160.6Y-93.66
X160.6Y-96.2
X168.38Y-59.22
X168.38Y-61.76
X168.38Y-64.3
X168.38Y-66.84
X170.6Y-88.38
X170.6Y-90.92
X170.6Y-93.46
X170.6Y-96.0
X178.18Y-59.02
X178.18Y-61.56
X178.18Y-64.1
X178.18Y-66.64
X179.2Y-88.58
X179.2Y-91.12
X179.2Y-93.66
X179.2Y-96.2
T4
X69.1Y-101.3
X69.1Y-105.8
X75.6Y-101.3
X75.6Y-105.8
T5
X57.2Y-104.6
X57.6Y-87.8
X57.6Y-96.6
X65.4Y-104.6
X65.8Y-87.8
X65.8Y-96.6
M30
