%TF.GenerationSoftware,KiCad,Pcbnew,10.0.4*%
%TF.CreationDate,2026-07-15T08:18:49+05:00*%
%TF.ProjectId,USR_32bit_Full,5553525f-3332-4626-9974-5f46756c6c2e,rev?*%
%TF.SameCoordinates,Original*%
%TF.FileFunction,Legend,Top*%
%TF.FilePolarity,Positive*%
%FSLAX46Y46*%
G04 Gerber Fmt 4.6, Leading zero omitted, Abs format (unit mm)*
G04 Created by KiCad (PCBNEW 10.0.4) date 2026-07-15 08:18:49*
%MOMM*%
%LPD*%
G01*
G04 APERTURE LIST*
%ADD10C,0.300000*%
%ADD11C,0.150000*%
%ADD12C,0.120000*%
G04 APERTURE END LIST*
D10*
X158754510Y-103600828D02*
X158754510Y-102100828D01*
X158754510Y-102100828D02*
X159611653Y-103600828D01*
X159611653Y-103600828D02*
X159611653Y-102100828D01*
X160968797Y-103600828D02*
X160968797Y-102815114D01*
X160968797Y-102815114D02*
X160897368Y-102672257D01*
X160897368Y-102672257D02*
X160754511Y-102600828D01*
X160754511Y-102600828D02*
X160468797Y-102600828D01*
X160468797Y-102600828D02*
X160325939Y-102672257D01*
X160968797Y-103529400D02*
X160825939Y-103600828D01*
X160825939Y-103600828D02*
X160468797Y-103600828D01*
X160468797Y-103600828D02*
X160325939Y-103529400D01*
X160325939Y-103529400D02*
X160254511Y-103386542D01*
X160254511Y-103386542D02*
X160254511Y-103243685D01*
X160254511Y-103243685D02*
X160325939Y-103100828D01*
X160325939Y-103100828D02*
X160468797Y-103029400D01*
X160468797Y-103029400D02*
X160825939Y-103029400D01*
X160825939Y-103029400D02*
X160968797Y-102957971D01*
X161468797Y-102600828D02*
X162040225Y-102600828D01*
X161683082Y-102100828D02*
X161683082Y-103386542D01*
X161683082Y-103386542D02*
X161754511Y-103529400D01*
X161754511Y-103529400D02*
X161897368Y-103600828D01*
X161897368Y-103600828D02*
X162040225Y-103600828D01*
X163183083Y-103600828D02*
X163183083Y-102815114D01*
X163183083Y-102815114D02*
X163111654Y-102672257D01*
X163111654Y-102672257D02*
X162968797Y-102600828D01*
X162968797Y-102600828D02*
X162683083Y-102600828D01*
X162683083Y-102600828D02*
X162540225Y-102672257D01*
X163183083Y-103529400D02*
X163040225Y-103600828D01*
X163040225Y-103600828D02*
X162683083Y-103600828D01*
X162683083Y-103600828D02*
X162540225Y-103529400D01*
X162540225Y-103529400D02*
X162468797Y-103386542D01*
X162468797Y-103386542D02*
X162468797Y-103243685D01*
X162468797Y-103243685D02*
X162540225Y-103100828D01*
X162540225Y-103100828D02*
X162683083Y-103029400D01*
X162683083Y-103029400D02*
X163040225Y-103029400D01*
X163040225Y-103029400D02*
X163183083Y-102957971D01*
X163825940Y-103529400D02*
X163968797Y-103600828D01*
X163968797Y-103600828D02*
X164254511Y-103600828D01*
X164254511Y-103600828D02*
X164397368Y-103529400D01*
X164397368Y-103529400D02*
X164468797Y-103386542D01*
X164468797Y-103386542D02*
X164468797Y-103315114D01*
X164468797Y-103315114D02*
X164397368Y-103172257D01*
X164397368Y-103172257D02*
X164254511Y-103100828D01*
X164254511Y-103100828D02*
X164040226Y-103100828D01*
X164040226Y-103100828D02*
X163897368Y-103029400D01*
X163897368Y-103029400D02*
X163825940Y-102886542D01*
X163825940Y-102886542D02*
X163825940Y-102815114D01*
X163825940Y-102815114D02*
X163897368Y-102672257D01*
X163897368Y-102672257D02*
X164040226Y-102600828D01*
X164040226Y-102600828D02*
X164254511Y-102600828D01*
X164254511Y-102600828D02*
X164397368Y-102672257D01*
X165111654Y-103600828D02*
X165111654Y-102100828D01*
X165754512Y-103600828D02*
X165754512Y-102815114D01*
X165754512Y-102815114D02*
X165683083Y-102672257D01*
X165683083Y-102672257D02*
X165540226Y-102600828D01*
X165540226Y-102600828D02*
X165325940Y-102600828D01*
X165325940Y-102600828D02*
X165183083Y-102672257D01*
X165183083Y-102672257D02*
X165111654Y-102743685D01*
X167111655Y-103600828D02*
X167111655Y-102815114D01*
X167111655Y-102815114D02*
X167040226Y-102672257D01*
X167040226Y-102672257D02*
X166897369Y-102600828D01*
X166897369Y-102600828D02*
X166611655Y-102600828D01*
X166611655Y-102600828D02*
X166468797Y-102672257D01*
X167111655Y-103529400D02*
X166968797Y-103600828D01*
X166968797Y-103600828D02*
X166611655Y-103600828D01*
X166611655Y-103600828D02*
X166468797Y-103529400D01*
X166468797Y-103529400D02*
X166397369Y-103386542D01*
X166397369Y-103386542D02*
X166397369Y-103243685D01*
X166397369Y-103243685D02*
X166468797Y-103100828D01*
X166468797Y-103100828D02*
X166611655Y-103029400D01*
X166611655Y-103029400D02*
X166968797Y-103029400D01*
X166968797Y-103029400D02*
X167111655Y-102957971D01*
X168968797Y-102815114D02*
X169468797Y-102815114D01*
X169683083Y-103600828D02*
X168968797Y-103600828D01*
X168968797Y-103600828D02*
X168968797Y-102100828D01*
X168968797Y-102100828D02*
X169683083Y-102100828D01*
X170325940Y-103600828D02*
X170325940Y-102600828D01*
X170325940Y-102743685D02*
X170397369Y-102672257D01*
X170397369Y-102672257D02*
X170540226Y-102600828D01*
X170540226Y-102600828D02*
X170754512Y-102600828D01*
X170754512Y-102600828D02*
X170897369Y-102672257D01*
X170897369Y-102672257D02*
X170968798Y-102815114D01*
X170968798Y-102815114D02*
X170968798Y-103600828D01*
X170968798Y-102815114D02*
X171040226Y-102672257D01*
X171040226Y-102672257D02*
X171183083Y-102600828D01*
X171183083Y-102600828D02*
X171397369Y-102600828D01*
X171397369Y-102600828D02*
X171540226Y-102672257D01*
X171540226Y-102672257D02*
X171611655Y-102815114D01*
X171611655Y-102815114D02*
X171611655Y-103600828D01*
X172968798Y-103600828D02*
X172968798Y-102815114D01*
X172968798Y-102815114D02*
X172897369Y-102672257D01*
X172897369Y-102672257D02*
X172754512Y-102600828D01*
X172754512Y-102600828D02*
X172468798Y-102600828D01*
X172468798Y-102600828D02*
X172325940Y-102672257D01*
X172968798Y-103529400D02*
X172825940Y-103600828D01*
X172825940Y-103600828D02*
X172468798Y-103600828D01*
X172468798Y-103600828D02*
X172325940Y-103529400D01*
X172325940Y-103529400D02*
X172254512Y-103386542D01*
X172254512Y-103386542D02*
X172254512Y-103243685D01*
X172254512Y-103243685D02*
X172325940Y-103100828D01*
X172325940Y-103100828D02*
X172468798Y-103029400D01*
X172468798Y-103029400D02*
X172825940Y-103029400D01*
X172825940Y-103029400D02*
X172968798Y-102957971D01*
X173683083Y-102600828D02*
X173683083Y-103600828D01*
X173683083Y-102743685D02*
X173754512Y-102672257D01*
X173754512Y-102672257D02*
X173897369Y-102600828D01*
X173897369Y-102600828D02*
X174111655Y-102600828D01*
X174111655Y-102600828D02*
X174254512Y-102672257D01*
X174254512Y-102672257D02*
X174325941Y-102815114D01*
X174325941Y-102815114D02*
X174325941Y-103600828D01*
X176183083Y-102100828D02*
X176183083Y-103315114D01*
X176183083Y-103315114D02*
X176254512Y-103457971D01*
X176254512Y-103457971D02*
X176325941Y-103529400D01*
X176325941Y-103529400D02*
X176468798Y-103600828D01*
X176468798Y-103600828D02*
X176754512Y-103600828D01*
X176754512Y-103600828D02*
X176897369Y-103529400D01*
X176897369Y-103529400D02*
X176968798Y-103457971D01*
X176968798Y-103457971D02*
X177040226Y-103315114D01*
X177040226Y-103315114D02*
X177040226Y-102100828D01*
X177754512Y-103600828D02*
X177754512Y-102600828D01*
X177754512Y-102743685D02*
X177825941Y-102672257D01*
X177825941Y-102672257D02*
X177968798Y-102600828D01*
X177968798Y-102600828D02*
X178183084Y-102600828D01*
X178183084Y-102600828D02*
X178325941Y-102672257D01*
X178325941Y-102672257D02*
X178397370Y-102815114D01*
X178397370Y-102815114D02*
X178397370Y-103600828D01*
X178397370Y-102815114D02*
X178468798Y-102672257D01*
X178468798Y-102672257D02*
X178611655Y-102600828D01*
X178611655Y-102600828D02*
X178825941Y-102600828D01*
X178825941Y-102600828D02*
X178968798Y-102672257D01*
X178968798Y-102672257D02*
X179040227Y-102815114D01*
X179040227Y-102815114D02*
X179040227Y-103600828D01*
X180397370Y-103600828D02*
X180397370Y-102815114D01*
X180397370Y-102815114D02*
X180325941Y-102672257D01*
X180325941Y-102672257D02*
X180183084Y-102600828D01*
X180183084Y-102600828D02*
X179897370Y-102600828D01*
X179897370Y-102600828D02*
X179754512Y-102672257D01*
X180397370Y-103529400D02*
X180254512Y-103600828D01*
X180254512Y-103600828D02*
X179897370Y-103600828D01*
X179897370Y-103600828D02*
X179754512Y-103529400D01*
X179754512Y-103529400D02*
X179683084Y-103386542D01*
X179683084Y-103386542D02*
X179683084Y-103243685D01*
X179683084Y-103243685D02*
X179754512Y-103100828D01*
X179754512Y-103100828D02*
X179897370Y-103029400D01*
X179897370Y-103029400D02*
X180254512Y-103029400D01*
X180254512Y-103029400D02*
X180397370Y-102957971D01*
X181111655Y-103600828D02*
X181111655Y-102600828D01*
X181111655Y-102886542D02*
X181183084Y-102743685D01*
X181183084Y-102743685D02*
X181254513Y-102672257D01*
X181254513Y-102672257D02*
X181397370Y-102600828D01*
X181397370Y-102600828D02*
X181540227Y-102600828D01*
D11*
X181638095Y-107404819D02*
X181638095Y-106404819D01*
X181638095Y-106881009D02*
X182209523Y-106881009D01*
X182209523Y-107404819D02*
X182209523Y-106404819D01*
X182590476Y-106404819D02*
X183209523Y-106404819D01*
X183209523Y-106404819D02*
X182876190Y-106785771D01*
X182876190Y-106785771D02*
X183019047Y-106785771D01*
X183019047Y-106785771D02*
X183114285Y-106833390D01*
X183114285Y-106833390D02*
X183161904Y-106881009D01*
X183161904Y-106881009D02*
X183209523Y-106976247D01*
X183209523Y-106976247D02*
X183209523Y-107214342D01*
X183209523Y-107214342D02*
X183161904Y-107309580D01*
X183161904Y-107309580D02*
X183114285Y-107357200D01*
X183114285Y-107357200D02*
X183019047Y-107404819D01*
X183019047Y-107404819D02*
X182733333Y-107404819D01*
X182733333Y-107404819D02*
X182638095Y-107357200D01*
X182638095Y-107357200D02*
X182590476Y-107309580D01*
X54238095Y-108804819D02*
X54238095Y-107804819D01*
X54238095Y-108281009D02*
X54809523Y-108281009D01*
X54809523Y-108804819D02*
X54809523Y-107804819D01*
X55714285Y-108138152D02*
X55714285Y-108804819D01*
X55476190Y-107757200D02*
X55238095Y-108471485D01*
X55238095Y-108471485D02*
X55857142Y-108471485D01*
X182838095Y-52404819D02*
X182838095Y-51404819D01*
X182838095Y-51881009D02*
X183409523Y-51881009D01*
X183409523Y-52404819D02*
X183409523Y-51404819D01*
X183838095Y-51500057D02*
X183885714Y-51452438D01*
X183885714Y-51452438D02*
X183980952Y-51404819D01*
X183980952Y-51404819D02*
X184219047Y-51404819D01*
X184219047Y-51404819D02*
X184314285Y-51452438D01*
X184314285Y-51452438D02*
X184361904Y-51500057D01*
X184361904Y-51500057D02*
X184409523Y-51595295D01*
X184409523Y-51595295D02*
X184409523Y-51690533D01*
X184409523Y-51690533D02*
X184361904Y-51833390D01*
X184361904Y-51833390D02*
X183790476Y-52404819D01*
X183790476Y-52404819D02*
X184409523Y-52404819D01*
X54638095Y-52204819D02*
X54638095Y-51204819D01*
X54638095Y-51681009D02*
X55209523Y-51681009D01*
X55209523Y-52204819D02*
X55209523Y-51204819D01*
X56209523Y-52204819D02*
X55638095Y-52204819D01*
X55923809Y-52204819D02*
X55923809Y-51204819D01*
X55923809Y-51204819D02*
X55828571Y-51347676D01*
X55828571Y-51347676D02*
X55733333Y-51442914D01*
X55733333Y-51442914D02*
X55638095Y-51490533D01*
X115671666Y-90784819D02*
X115671666Y-91499104D01*
X115671666Y-91499104D02*
X115624047Y-91641961D01*
X115624047Y-91641961D02*
X115528809Y-91737200D01*
X115528809Y-91737200D02*
X115385952Y-91784819D01*
X115385952Y-91784819D02*
X115290714Y-91784819D01*
X116052619Y-90784819D02*
X116719285Y-90784819D01*
X116719285Y-90784819D02*
X116290714Y-91784819D01*
X107648095Y-84144819D02*
X107648095Y-84954342D01*
X107648095Y-84954342D02*
X107695714Y-85049580D01*
X107695714Y-85049580D02*
X107743333Y-85097200D01*
X107743333Y-85097200D02*
X107838571Y-85144819D01*
X107838571Y-85144819D02*
X108029047Y-85144819D01*
X108029047Y-85144819D02*
X108124285Y-85097200D01*
X108124285Y-85097200D02*
X108171904Y-85049580D01*
X108171904Y-85049580D02*
X108219523Y-84954342D01*
X108219523Y-84954342D02*
X108219523Y-84144819D01*
X109124285Y-84144819D02*
X108933809Y-84144819D01*
X108933809Y-84144819D02*
X108838571Y-84192438D01*
X108838571Y-84192438D02*
X108790952Y-84240057D01*
X108790952Y-84240057D02*
X108695714Y-84382914D01*
X108695714Y-84382914D02*
X108648095Y-84573390D01*
X108648095Y-84573390D02*
X108648095Y-84954342D01*
X108648095Y-84954342D02*
X108695714Y-85049580D01*
X108695714Y-85049580D02*
X108743333Y-85097200D01*
X108743333Y-85097200D02*
X108838571Y-85144819D01*
X108838571Y-85144819D02*
X109029047Y-85144819D01*
X109029047Y-85144819D02*
X109124285Y-85097200D01*
X109124285Y-85097200D02*
X109171904Y-85049580D01*
X109171904Y-85049580D02*
X109219523Y-84954342D01*
X109219523Y-84954342D02*
X109219523Y-84716247D01*
X109219523Y-84716247D02*
X109171904Y-84621009D01*
X109171904Y-84621009D02*
X109124285Y-84573390D01*
X109124285Y-84573390D02*
X109029047Y-84525771D01*
X109029047Y-84525771D02*
X108838571Y-84525771D01*
X108838571Y-84525771D02*
X108743333Y-84573390D01*
X108743333Y-84573390D02*
X108695714Y-84621009D01*
X108695714Y-84621009D02*
X108648095Y-84716247D01*
X86448095Y-56184819D02*
X86448095Y-56994342D01*
X86448095Y-56994342D02*
X86495714Y-57089580D01*
X86495714Y-57089580D02*
X86543333Y-57137200D01*
X86543333Y-57137200D02*
X86638571Y-57184819D01*
X86638571Y-57184819D02*
X86829047Y-57184819D01*
X86829047Y-57184819D02*
X86924285Y-57137200D01*
X86924285Y-57137200D02*
X86971904Y-57089580D01*
X86971904Y-57089580D02*
X87019523Y-56994342D01*
X87019523Y-56994342D02*
X87019523Y-56184819D01*
X87448095Y-56280057D02*
X87495714Y-56232438D01*
X87495714Y-56232438D02*
X87590952Y-56184819D01*
X87590952Y-56184819D02*
X87829047Y-56184819D01*
X87829047Y-56184819D02*
X87924285Y-56232438D01*
X87924285Y-56232438D02*
X87971904Y-56280057D01*
X87971904Y-56280057D02*
X88019523Y-56375295D01*
X88019523Y-56375295D02*
X88019523Y-56470533D01*
X88019523Y-56470533D02*
X87971904Y-56613390D01*
X87971904Y-56613390D02*
X87400476Y-57184819D01*
X87400476Y-57184819D02*
X88019523Y-57184819D01*
X93190476Y-78684819D02*
X93190476Y-79399104D01*
X93190476Y-79399104D02*
X93142857Y-79541961D01*
X93142857Y-79541961D02*
X93047619Y-79637200D01*
X93047619Y-79637200D02*
X92904762Y-79684819D01*
X92904762Y-79684819D02*
X92809524Y-79684819D01*
X93619048Y-78780057D02*
X93666667Y-78732438D01*
X93666667Y-78732438D02*
X93761905Y-78684819D01*
X93761905Y-78684819D02*
X94000000Y-78684819D01*
X94000000Y-78684819D02*
X94095238Y-78732438D01*
X94095238Y-78732438D02*
X94142857Y-78780057D01*
X94142857Y-78780057D02*
X94190476Y-78875295D01*
X94190476Y-78875295D02*
X94190476Y-78970533D01*
X94190476Y-78970533D02*
X94142857Y-79113390D01*
X94142857Y-79113390D02*
X93571429Y-79684819D01*
X93571429Y-79684819D02*
X94190476Y-79684819D01*
X94809524Y-78684819D02*
X94904762Y-78684819D01*
X94904762Y-78684819D02*
X95000000Y-78732438D01*
X95000000Y-78732438D02*
X95047619Y-78780057D01*
X95047619Y-78780057D02*
X95095238Y-78875295D01*
X95095238Y-78875295D02*
X95142857Y-79065771D01*
X95142857Y-79065771D02*
X95142857Y-79303866D01*
X95142857Y-79303866D02*
X95095238Y-79494342D01*
X95095238Y-79494342D02*
X95047619Y-79589580D01*
X95047619Y-79589580D02*
X95000000Y-79637200D01*
X95000000Y-79637200D02*
X94904762Y-79684819D01*
X94904762Y-79684819D02*
X94809524Y-79684819D01*
X94809524Y-79684819D02*
X94714286Y-79637200D01*
X94714286Y-79637200D02*
X94666667Y-79589580D01*
X94666667Y-79589580D02*
X94619048Y-79494342D01*
X94619048Y-79494342D02*
X94571429Y-79303866D01*
X94571429Y-79303866D02*
X94571429Y-79065771D01*
X94571429Y-79065771D02*
X94619048Y-78875295D01*
X94619048Y-78875295D02*
X94666667Y-78780057D01*
X94666667Y-78780057D02*
X94714286Y-78732438D01*
X94714286Y-78732438D02*
X94809524Y-78684819D01*
X81266666Y-93474819D02*
X81266666Y-94189104D01*
X81266666Y-94189104D02*
X81219047Y-94331961D01*
X81219047Y-94331961D02*
X81123809Y-94427200D01*
X81123809Y-94427200D02*
X80980952Y-94474819D01*
X80980952Y-94474819D02*
X80885714Y-94474819D01*
X82219047Y-93474819D02*
X81742857Y-93474819D01*
X81742857Y-93474819D02*
X81695238Y-93951009D01*
X81695238Y-93951009D02*
X81742857Y-93903390D01*
X81742857Y-93903390D02*
X81838095Y-93855771D01*
X81838095Y-93855771D02*
X82076190Y-93855771D01*
X82076190Y-93855771D02*
X82171428Y-93903390D01*
X82171428Y-93903390D02*
X82219047Y-93951009D01*
X82219047Y-93951009D02*
X82266666Y-94046247D01*
X82266666Y-94046247D02*
X82266666Y-94284342D01*
X82266666Y-94284342D02*
X82219047Y-94379580D01*
X82219047Y-94379580D02*
X82171428Y-94427200D01*
X82171428Y-94427200D02*
X82076190Y-94474819D01*
X82076190Y-94474819D02*
X81838095Y-94474819D01*
X81838095Y-94474819D02*
X81742857Y-94427200D01*
X81742857Y-94427200D02*
X81695238Y-94379580D01*
X121028095Y-55304819D02*
X121028095Y-56114342D01*
X121028095Y-56114342D02*
X121075714Y-56209580D01*
X121075714Y-56209580D02*
X121123333Y-56257200D01*
X121123333Y-56257200D02*
X121218571Y-56304819D01*
X121218571Y-56304819D02*
X121409047Y-56304819D01*
X121409047Y-56304819D02*
X121504285Y-56257200D01*
X121504285Y-56257200D02*
X121551904Y-56209580D01*
X121551904Y-56209580D02*
X121599523Y-56114342D01*
X121599523Y-56114342D02*
X121599523Y-55304819D01*
X121980476Y-55304819D02*
X122599523Y-55304819D01*
X122599523Y-55304819D02*
X122266190Y-55685771D01*
X122266190Y-55685771D02*
X122409047Y-55685771D01*
X122409047Y-55685771D02*
X122504285Y-55733390D01*
X122504285Y-55733390D02*
X122551904Y-55781009D01*
X122551904Y-55781009D02*
X122599523Y-55876247D01*
X122599523Y-55876247D02*
X122599523Y-56114342D01*
X122599523Y-56114342D02*
X122551904Y-56209580D01*
X122551904Y-56209580D02*
X122504285Y-56257200D01*
X122504285Y-56257200D02*
X122409047Y-56304819D01*
X122409047Y-56304819D02*
X122123333Y-56304819D01*
X122123333Y-56304819D02*
X122028095Y-56257200D01*
X122028095Y-56257200D02*
X121980476Y-56209580D01*
X78983333Y-60109580D02*
X78935714Y-60157200D01*
X78935714Y-60157200D02*
X78792857Y-60204819D01*
X78792857Y-60204819D02*
X78697619Y-60204819D01*
X78697619Y-60204819D02*
X78554762Y-60157200D01*
X78554762Y-60157200D02*
X78459524Y-60061961D01*
X78459524Y-60061961D02*
X78411905Y-59966723D01*
X78411905Y-59966723D02*
X78364286Y-59776247D01*
X78364286Y-59776247D02*
X78364286Y-59633390D01*
X78364286Y-59633390D02*
X78411905Y-59442914D01*
X78411905Y-59442914D02*
X78459524Y-59347676D01*
X78459524Y-59347676D02*
X78554762Y-59252438D01*
X78554762Y-59252438D02*
X78697619Y-59204819D01*
X78697619Y-59204819D02*
X78792857Y-59204819D01*
X78792857Y-59204819D02*
X78935714Y-59252438D01*
X78935714Y-59252438D02*
X78983333Y-59300057D01*
X79364286Y-59300057D02*
X79411905Y-59252438D01*
X79411905Y-59252438D02*
X79507143Y-59204819D01*
X79507143Y-59204819D02*
X79745238Y-59204819D01*
X79745238Y-59204819D02*
X79840476Y-59252438D01*
X79840476Y-59252438D02*
X79888095Y-59300057D01*
X79888095Y-59300057D02*
X79935714Y-59395295D01*
X79935714Y-59395295D02*
X79935714Y-59490533D01*
X79935714Y-59490533D02*
X79888095Y-59633390D01*
X79888095Y-59633390D02*
X79316667Y-60204819D01*
X79316667Y-60204819D02*
X79935714Y-60204819D01*
X85590476Y-80274819D02*
X85590476Y-80989104D01*
X85590476Y-80989104D02*
X85542857Y-81131961D01*
X85542857Y-81131961D02*
X85447619Y-81227200D01*
X85447619Y-81227200D02*
X85304762Y-81274819D01*
X85304762Y-81274819D02*
X85209524Y-81274819D01*
X86590476Y-81274819D02*
X86019048Y-81274819D01*
X86304762Y-81274819D02*
X86304762Y-80274819D01*
X86304762Y-80274819D02*
X86209524Y-80417676D01*
X86209524Y-80417676D02*
X86114286Y-80512914D01*
X86114286Y-80512914D02*
X86019048Y-80560533D01*
X87209524Y-80274819D02*
X87304762Y-80274819D01*
X87304762Y-80274819D02*
X87400000Y-80322438D01*
X87400000Y-80322438D02*
X87447619Y-80370057D01*
X87447619Y-80370057D02*
X87495238Y-80465295D01*
X87495238Y-80465295D02*
X87542857Y-80655771D01*
X87542857Y-80655771D02*
X87542857Y-80893866D01*
X87542857Y-80893866D02*
X87495238Y-81084342D01*
X87495238Y-81084342D02*
X87447619Y-81179580D01*
X87447619Y-81179580D02*
X87400000Y-81227200D01*
X87400000Y-81227200D02*
X87304762Y-81274819D01*
X87304762Y-81274819D02*
X87209524Y-81274819D01*
X87209524Y-81274819D02*
X87114286Y-81227200D01*
X87114286Y-81227200D02*
X87066667Y-81179580D01*
X87066667Y-81179580D02*
X87019048Y-81084342D01*
X87019048Y-81084342D02*
X86971429Y-80893866D01*
X86971429Y-80893866D02*
X86971429Y-80655771D01*
X86971429Y-80655771D02*
X87019048Y-80465295D01*
X87019048Y-80465295D02*
X87066667Y-80370057D01*
X87066667Y-80370057D02*
X87114286Y-80322438D01*
X87114286Y-80322438D02*
X87209524Y-80274819D01*
X103248095Y-55384819D02*
X103248095Y-56194342D01*
X103248095Y-56194342D02*
X103295714Y-56289580D01*
X103295714Y-56289580D02*
X103343333Y-56337200D01*
X103343333Y-56337200D02*
X103438571Y-56384819D01*
X103438571Y-56384819D02*
X103629047Y-56384819D01*
X103629047Y-56384819D02*
X103724285Y-56337200D01*
X103724285Y-56337200D02*
X103771904Y-56289580D01*
X103771904Y-56289580D02*
X103819523Y-56194342D01*
X103819523Y-56194342D02*
X103819523Y-55384819D01*
X104343333Y-56384819D02*
X104533809Y-56384819D01*
X104533809Y-56384819D02*
X104629047Y-56337200D01*
X104629047Y-56337200D02*
X104676666Y-56289580D01*
X104676666Y-56289580D02*
X104771904Y-56146723D01*
X104771904Y-56146723D02*
X104819523Y-55956247D01*
X104819523Y-55956247D02*
X104819523Y-55575295D01*
X104819523Y-55575295D02*
X104771904Y-55480057D01*
X104771904Y-55480057D02*
X104724285Y-55432438D01*
X104724285Y-55432438D02*
X104629047Y-55384819D01*
X104629047Y-55384819D02*
X104438571Y-55384819D01*
X104438571Y-55384819D02*
X104343333Y-55432438D01*
X104343333Y-55432438D02*
X104295714Y-55480057D01*
X104295714Y-55480057D02*
X104248095Y-55575295D01*
X104248095Y-55575295D02*
X104248095Y-55813390D01*
X104248095Y-55813390D02*
X104295714Y-55908628D01*
X104295714Y-55908628D02*
X104343333Y-55956247D01*
X104343333Y-55956247D02*
X104438571Y-56003866D01*
X104438571Y-56003866D02*
X104629047Y-56003866D01*
X104629047Y-56003866D02*
X104724285Y-55956247D01*
X104724285Y-55956247D02*
X104771904Y-55908628D01*
X104771904Y-55908628D02*
X104819523Y-55813390D01*
X70790476Y-87054819D02*
X70790476Y-87769104D01*
X70790476Y-87769104D02*
X70742857Y-87911961D01*
X70742857Y-87911961D02*
X70647619Y-88007200D01*
X70647619Y-88007200D02*
X70504762Y-88054819D01*
X70504762Y-88054819D02*
X70409524Y-88054819D01*
X71790476Y-88054819D02*
X71219048Y-88054819D01*
X71504762Y-88054819D02*
X71504762Y-87054819D01*
X71504762Y-87054819D02*
X71409524Y-87197676D01*
X71409524Y-87197676D02*
X71314286Y-87292914D01*
X71314286Y-87292914D02*
X71219048Y-87340533D01*
X72742857Y-88054819D02*
X72171429Y-88054819D01*
X72457143Y-88054819D02*
X72457143Y-87054819D01*
X72457143Y-87054819D02*
X72361905Y-87197676D01*
X72361905Y-87197676D02*
X72266667Y-87292914D01*
X72266667Y-87292914D02*
X72171429Y-87340533D01*
X177370476Y-56094819D02*
X177370476Y-56809104D01*
X177370476Y-56809104D02*
X177322857Y-56951961D01*
X177322857Y-56951961D02*
X177227619Y-57047200D01*
X177227619Y-57047200D02*
X177084762Y-57094819D01*
X177084762Y-57094819D02*
X176989524Y-57094819D01*
X178370476Y-57094819D02*
X177799048Y-57094819D01*
X178084762Y-57094819D02*
X178084762Y-56094819D01*
X178084762Y-56094819D02*
X177989524Y-56237676D01*
X177989524Y-56237676D02*
X177894286Y-56332914D01*
X177894286Y-56332914D02*
X177799048Y-56380533D01*
X179275238Y-56094819D02*
X178799048Y-56094819D01*
X178799048Y-56094819D02*
X178751429Y-56571009D01*
X178751429Y-56571009D02*
X178799048Y-56523390D01*
X178799048Y-56523390D02*
X178894286Y-56475771D01*
X178894286Y-56475771D02*
X179132381Y-56475771D01*
X179132381Y-56475771D02*
X179227619Y-56523390D01*
X179227619Y-56523390D02*
X179275238Y-56571009D01*
X179275238Y-56571009D02*
X179322857Y-56666247D01*
X179322857Y-56666247D02*
X179322857Y-56904342D01*
X179322857Y-56904342D02*
X179275238Y-56999580D01*
X179275238Y-56999580D02*
X179227619Y-57047200D01*
X179227619Y-57047200D02*
X179132381Y-57094819D01*
X179132381Y-57094819D02*
X178894286Y-57094819D01*
X178894286Y-57094819D02*
X178799048Y-57047200D01*
X178799048Y-57047200D02*
X178751429Y-56999580D01*
X61783333Y-57109580D02*
X61735714Y-57157200D01*
X61735714Y-57157200D02*
X61592857Y-57204819D01*
X61592857Y-57204819D02*
X61497619Y-57204819D01*
X61497619Y-57204819D02*
X61354762Y-57157200D01*
X61354762Y-57157200D02*
X61259524Y-57061961D01*
X61259524Y-57061961D02*
X61211905Y-56966723D01*
X61211905Y-56966723D02*
X61164286Y-56776247D01*
X61164286Y-56776247D02*
X61164286Y-56633390D01*
X61164286Y-56633390D02*
X61211905Y-56442914D01*
X61211905Y-56442914D02*
X61259524Y-56347676D01*
X61259524Y-56347676D02*
X61354762Y-56252438D01*
X61354762Y-56252438D02*
X61497619Y-56204819D01*
X61497619Y-56204819D02*
X61592857Y-56204819D01*
X61592857Y-56204819D02*
X61735714Y-56252438D01*
X61735714Y-56252438D02*
X61783333Y-56300057D01*
X62735714Y-57204819D02*
X62164286Y-57204819D01*
X62450000Y-57204819D02*
X62450000Y-56204819D01*
X62450000Y-56204819D02*
X62354762Y-56347676D01*
X62354762Y-56347676D02*
X62259524Y-56442914D01*
X62259524Y-56442914D02*
X62164286Y-56490533D01*
X178390476Y-85654819D02*
X178390476Y-86369104D01*
X178390476Y-86369104D02*
X178342857Y-86511961D01*
X178342857Y-86511961D02*
X178247619Y-86607200D01*
X178247619Y-86607200D02*
X178104762Y-86654819D01*
X178104762Y-86654819D02*
X178009524Y-86654819D01*
X179390476Y-86654819D02*
X178819048Y-86654819D01*
X179104762Y-86654819D02*
X179104762Y-85654819D01*
X179104762Y-85654819D02*
X179009524Y-85797676D01*
X179009524Y-85797676D02*
X178914286Y-85892914D01*
X178914286Y-85892914D02*
X178819048Y-85940533D01*
X179866667Y-86654819D02*
X180057143Y-86654819D01*
X180057143Y-86654819D02*
X180152381Y-86607200D01*
X180152381Y-86607200D02*
X180200000Y-86559580D01*
X180200000Y-86559580D02*
X180295238Y-86416723D01*
X180295238Y-86416723D02*
X180342857Y-86226247D01*
X180342857Y-86226247D02*
X180342857Y-85845295D01*
X180342857Y-85845295D02*
X180295238Y-85750057D01*
X180295238Y-85750057D02*
X180247619Y-85702438D01*
X180247619Y-85702438D02*
X180152381Y-85654819D01*
X180152381Y-85654819D02*
X179961905Y-85654819D01*
X179961905Y-85654819D02*
X179866667Y-85702438D01*
X179866667Y-85702438D02*
X179819048Y-85750057D01*
X179819048Y-85750057D02*
X179771429Y-85845295D01*
X179771429Y-85845295D02*
X179771429Y-86083390D01*
X179771429Y-86083390D02*
X179819048Y-86178628D01*
X179819048Y-86178628D02*
X179866667Y-86226247D01*
X179866667Y-86226247D02*
X179961905Y-86273866D01*
X179961905Y-86273866D02*
X180152381Y-86273866D01*
X180152381Y-86273866D02*
X180247619Y-86226247D01*
X180247619Y-86226247D02*
X180295238Y-86178628D01*
X180295238Y-86178628D02*
X180342857Y-86083390D01*
X140253095Y-83554819D02*
X140253095Y-84364342D01*
X140253095Y-84364342D02*
X140300714Y-84459580D01*
X140300714Y-84459580D02*
X140348333Y-84507200D01*
X140348333Y-84507200D02*
X140443571Y-84554819D01*
X140443571Y-84554819D02*
X140634047Y-84554819D01*
X140634047Y-84554819D02*
X140729285Y-84507200D01*
X140729285Y-84507200D02*
X140776904Y-84459580D01*
X140776904Y-84459580D02*
X140824523Y-84364342D01*
X140824523Y-84364342D02*
X140824523Y-83554819D01*
X141443571Y-83983390D02*
X141348333Y-83935771D01*
X141348333Y-83935771D02*
X141300714Y-83888152D01*
X141300714Y-83888152D02*
X141253095Y-83792914D01*
X141253095Y-83792914D02*
X141253095Y-83745295D01*
X141253095Y-83745295D02*
X141300714Y-83650057D01*
X141300714Y-83650057D02*
X141348333Y-83602438D01*
X141348333Y-83602438D02*
X141443571Y-83554819D01*
X141443571Y-83554819D02*
X141634047Y-83554819D01*
X141634047Y-83554819D02*
X141729285Y-83602438D01*
X141729285Y-83602438D02*
X141776904Y-83650057D01*
X141776904Y-83650057D02*
X141824523Y-83745295D01*
X141824523Y-83745295D02*
X141824523Y-83792914D01*
X141824523Y-83792914D02*
X141776904Y-83888152D01*
X141776904Y-83888152D02*
X141729285Y-83935771D01*
X141729285Y-83935771D02*
X141634047Y-83983390D01*
X141634047Y-83983390D02*
X141443571Y-83983390D01*
X141443571Y-83983390D02*
X141348333Y-84031009D01*
X141348333Y-84031009D02*
X141300714Y-84078628D01*
X141300714Y-84078628D02*
X141253095Y-84173866D01*
X141253095Y-84173866D02*
X141253095Y-84364342D01*
X141253095Y-84364342D02*
X141300714Y-84459580D01*
X141300714Y-84459580D02*
X141348333Y-84507200D01*
X141348333Y-84507200D02*
X141443571Y-84554819D01*
X141443571Y-84554819D02*
X141634047Y-84554819D01*
X141634047Y-84554819D02*
X141729285Y-84507200D01*
X141729285Y-84507200D02*
X141776904Y-84459580D01*
X141776904Y-84459580D02*
X141824523Y-84364342D01*
X141824523Y-84364342D02*
X141824523Y-84173866D01*
X141824523Y-84173866D02*
X141776904Y-84078628D01*
X141776904Y-84078628D02*
X141729285Y-84031009D01*
X141729285Y-84031009D02*
X141634047Y-83983390D01*
X169790476Y-84444819D02*
X169790476Y-85159104D01*
X169790476Y-85159104D02*
X169742857Y-85301961D01*
X169742857Y-85301961D02*
X169647619Y-85397200D01*
X169647619Y-85397200D02*
X169504762Y-85444819D01*
X169504762Y-85444819D02*
X169409524Y-85444819D01*
X170790476Y-85444819D02*
X170219048Y-85444819D01*
X170504762Y-85444819D02*
X170504762Y-84444819D01*
X170504762Y-84444819D02*
X170409524Y-84587676D01*
X170409524Y-84587676D02*
X170314286Y-84682914D01*
X170314286Y-84682914D02*
X170219048Y-84730533D01*
X171361905Y-84873390D02*
X171266667Y-84825771D01*
X171266667Y-84825771D02*
X171219048Y-84778152D01*
X171219048Y-84778152D02*
X171171429Y-84682914D01*
X171171429Y-84682914D02*
X171171429Y-84635295D01*
X171171429Y-84635295D02*
X171219048Y-84540057D01*
X171219048Y-84540057D02*
X171266667Y-84492438D01*
X171266667Y-84492438D02*
X171361905Y-84444819D01*
X171361905Y-84444819D02*
X171552381Y-84444819D01*
X171552381Y-84444819D02*
X171647619Y-84492438D01*
X171647619Y-84492438D02*
X171695238Y-84540057D01*
X171695238Y-84540057D02*
X171742857Y-84635295D01*
X171742857Y-84635295D02*
X171742857Y-84682914D01*
X171742857Y-84682914D02*
X171695238Y-84778152D01*
X171695238Y-84778152D02*
X171647619Y-84825771D01*
X171647619Y-84825771D02*
X171552381Y-84873390D01*
X171552381Y-84873390D02*
X171361905Y-84873390D01*
X171361905Y-84873390D02*
X171266667Y-84921009D01*
X171266667Y-84921009D02*
X171219048Y-84968628D01*
X171219048Y-84968628D02*
X171171429Y-85063866D01*
X171171429Y-85063866D02*
X171171429Y-85254342D01*
X171171429Y-85254342D02*
X171219048Y-85349580D01*
X171219048Y-85349580D02*
X171266667Y-85397200D01*
X171266667Y-85397200D02*
X171361905Y-85444819D01*
X171361905Y-85444819D02*
X171552381Y-85444819D01*
X171552381Y-85444819D02*
X171647619Y-85397200D01*
X171647619Y-85397200D02*
X171695238Y-85349580D01*
X171695238Y-85349580D02*
X171742857Y-85254342D01*
X171742857Y-85254342D02*
X171742857Y-85063866D01*
X171742857Y-85063866D02*
X171695238Y-84968628D01*
X171695238Y-84968628D02*
X171647619Y-84921009D01*
X171647619Y-84921009D02*
X171552381Y-84873390D01*
X148370476Y-56294819D02*
X148370476Y-57009104D01*
X148370476Y-57009104D02*
X148322857Y-57151961D01*
X148322857Y-57151961D02*
X148227619Y-57247200D01*
X148227619Y-57247200D02*
X148084762Y-57294819D01*
X148084762Y-57294819D02*
X147989524Y-57294819D01*
X149370476Y-57294819D02*
X148799048Y-57294819D01*
X149084762Y-57294819D02*
X149084762Y-56294819D01*
X149084762Y-56294819D02*
X148989524Y-56437676D01*
X148989524Y-56437676D02*
X148894286Y-56532914D01*
X148894286Y-56532914D02*
X148799048Y-56580533D01*
X149751429Y-56390057D02*
X149799048Y-56342438D01*
X149799048Y-56342438D02*
X149894286Y-56294819D01*
X149894286Y-56294819D02*
X150132381Y-56294819D01*
X150132381Y-56294819D02*
X150227619Y-56342438D01*
X150227619Y-56342438D02*
X150275238Y-56390057D01*
X150275238Y-56390057D02*
X150322857Y-56485295D01*
X150322857Y-56485295D02*
X150322857Y-56580533D01*
X150322857Y-56580533D02*
X150275238Y-56723390D01*
X150275238Y-56723390D02*
X149703810Y-57294819D01*
X149703810Y-57294819D02*
X150322857Y-57294819D01*
X90048095Y-85164819D02*
X90048095Y-85974342D01*
X90048095Y-85974342D02*
X90095714Y-86069580D01*
X90095714Y-86069580D02*
X90143333Y-86117200D01*
X90143333Y-86117200D02*
X90238571Y-86164819D01*
X90238571Y-86164819D02*
X90429047Y-86164819D01*
X90429047Y-86164819D02*
X90524285Y-86117200D01*
X90524285Y-86117200D02*
X90571904Y-86069580D01*
X90571904Y-86069580D02*
X90619523Y-85974342D01*
X90619523Y-85974342D02*
X90619523Y-85164819D01*
X91571904Y-85164819D02*
X91095714Y-85164819D01*
X91095714Y-85164819D02*
X91048095Y-85641009D01*
X91048095Y-85641009D02*
X91095714Y-85593390D01*
X91095714Y-85593390D02*
X91190952Y-85545771D01*
X91190952Y-85545771D02*
X91429047Y-85545771D01*
X91429047Y-85545771D02*
X91524285Y-85593390D01*
X91524285Y-85593390D02*
X91571904Y-85641009D01*
X91571904Y-85641009D02*
X91619523Y-85736247D01*
X91619523Y-85736247D02*
X91619523Y-85974342D01*
X91619523Y-85974342D02*
X91571904Y-86069580D01*
X91571904Y-86069580D02*
X91524285Y-86117200D01*
X91524285Y-86117200D02*
X91429047Y-86164819D01*
X91429047Y-86164819D02*
X91190952Y-86164819D01*
X91190952Y-86164819D02*
X91095714Y-86117200D01*
X91095714Y-86117200D02*
X91048095Y-86069580D01*
X138028095Y-54664819D02*
X138028095Y-55474342D01*
X138028095Y-55474342D02*
X138075714Y-55569580D01*
X138075714Y-55569580D02*
X138123333Y-55617200D01*
X138123333Y-55617200D02*
X138218571Y-55664819D01*
X138218571Y-55664819D02*
X138409047Y-55664819D01*
X138409047Y-55664819D02*
X138504285Y-55617200D01*
X138504285Y-55617200D02*
X138551904Y-55569580D01*
X138551904Y-55569580D02*
X138599523Y-55474342D01*
X138599523Y-55474342D02*
X138599523Y-54664819D01*
X139504285Y-54998152D02*
X139504285Y-55664819D01*
X139266190Y-54617200D02*
X139028095Y-55331485D01*
X139028095Y-55331485D02*
X139647142Y-55331485D01*
X95483333Y-57309580D02*
X95435714Y-57357200D01*
X95435714Y-57357200D02*
X95292857Y-57404819D01*
X95292857Y-57404819D02*
X95197619Y-57404819D01*
X95197619Y-57404819D02*
X95054762Y-57357200D01*
X95054762Y-57357200D02*
X94959524Y-57261961D01*
X94959524Y-57261961D02*
X94911905Y-57166723D01*
X94911905Y-57166723D02*
X94864286Y-56976247D01*
X94864286Y-56976247D02*
X94864286Y-56833390D01*
X94864286Y-56833390D02*
X94911905Y-56642914D01*
X94911905Y-56642914D02*
X94959524Y-56547676D01*
X94959524Y-56547676D02*
X95054762Y-56452438D01*
X95054762Y-56452438D02*
X95197619Y-56404819D01*
X95197619Y-56404819D02*
X95292857Y-56404819D01*
X95292857Y-56404819D02*
X95435714Y-56452438D01*
X95435714Y-56452438D02*
X95483333Y-56500057D01*
X95959524Y-57404819D02*
X96150000Y-57404819D01*
X96150000Y-57404819D02*
X96245238Y-57357200D01*
X96245238Y-57357200D02*
X96292857Y-57309580D01*
X96292857Y-57309580D02*
X96388095Y-57166723D01*
X96388095Y-57166723D02*
X96435714Y-56976247D01*
X96435714Y-56976247D02*
X96435714Y-56595295D01*
X96435714Y-56595295D02*
X96388095Y-56500057D01*
X96388095Y-56500057D02*
X96340476Y-56452438D01*
X96340476Y-56452438D02*
X96245238Y-56404819D01*
X96245238Y-56404819D02*
X96054762Y-56404819D01*
X96054762Y-56404819D02*
X95959524Y-56452438D01*
X95959524Y-56452438D02*
X95911905Y-56500057D01*
X95911905Y-56500057D02*
X95864286Y-56595295D01*
X95864286Y-56595295D02*
X95864286Y-56833390D01*
X95864286Y-56833390D02*
X95911905Y-56928628D01*
X95911905Y-56928628D02*
X95959524Y-56976247D01*
X95959524Y-56976247D02*
X96054762Y-57023866D01*
X96054762Y-57023866D02*
X96245238Y-57023866D01*
X96245238Y-57023866D02*
X96340476Y-56976247D01*
X96340476Y-56976247D02*
X96388095Y-56928628D01*
X96388095Y-56928628D02*
X96435714Y-56833390D01*
X62356667Y-94017200D02*
X62499524Y-94064819D01*
X62499524Y-94064819D02*
X62737619Y-94064819D01*
X62737619Y-94064819D02*
X62832857Y-94017200D01*
X62832857Y-94017200D02*
X62880476Y-93969580D01*
X62880476Y-93969580D02*
X62928095Y-93874342D01*
X62928095Y-93874342D02*
X62928095Y-93779104D01*
X62928095Y-93779104D02*
X62880476Y-93683866D01*
X62880476Y-93683866D02*
X62832857Y-93636247D01*
X62832857Y-93636247D02*
X62737619Y-93588628D01*
X62737619Y-93588628D02*
X62547143Y-93541009D01*
X62547143Y-93541009D02*
X62451905Y-93493390D01*
X62451905Y-93493390D02*
X62404286Y-93445771D01*
X62404286Y-93445771D02*
X62356667Y-93350533D01*
X62356667Y-93350533D02*
X62356667Y-93255295D01*
X62356667Y-93255295D02*
X62404286Y-93160057D01*
X62404286Y-93160057D02*
X62451905Y-93112438D01*
X62451905Y-93112438D02*
X62547143Y-93064819D01*
X62547143Y-93064819D02*
X62785238Y-93064819D01*
X62785238Y-93064819D02*
X62928095Y-93112438D01*
X63261429Y-93064819D02*
X63499524Y-94064819D01*
X63499524Y-94064819D02*
X63690000Y-93350533D01*
X63690000Y-93350533D02*
X63880476Y-94064819D01*
X63880476Y-94064819D02*
X64118572Y-93064819D01*
X64451905Y-93160057D02*
X64499524Y-93112438D01*
X64499524Y-93112438D02*
X64594762Y-93064819D01*
X64594762Y-93064819D02*
X64832857Y-93064819D01*
X64832857Y-93064819D02*
X64928095Y-93112438D01*
X64928095Y-93112438D02*
X64975714Y-93160057D01*
X64975714Y-93160057D02*
X65023333Y-93255295D01*
X65023333Y-93255295D02*
X65023333Y-93350533D01*
X65023333Y-93350533D02*
X64975714Y-93493390D01*
X64975714Y-93493390D02*
X64404286Y-94064819D01*
X64404286Y-94064819D02*
X65023333Y-94064819D01*
X132071666Y-90784819D02*
X132071666Y-91499104D01*
X132071666Y-91499104D02*
X132024047Y-91641961D01*
X132024047Y-91641961D02*
X131928809Y-91737200D01*
X131928809Y-91737200D02*
X131785952Y-91784819D01*
X131785952Y-91784819D02*
X131690714Y-91784819D01*
X132690714Y-91213390D02*
X132595476Y-91165771D01*
X132595476Y-91165771D02*
X132547857Y-91118152D01*
X132547857Y-91118152D02*
X132500238Y-91022914D01*
X132500238Y-91022914D02*
X132500238Y-90975295D01*
X132500238Y-90975295D02*
X132547857Y-90880057D01*
X132547857Y-90880057D02*
X132595476Y-90832438D01*
X132595476Y-90832438D02*
X132690714Y-90784819D01*
X132690714Y-90784819D02*
X132881190Y-90784819D01*
X132881190Y-90784819D02*
X132976428Y-90832438D01*
X132976428Y-90832438D02*
X133024047Y-90880057D01*
X133024047Y-90880057D02*
X133071666Y-90975295D01*
X133071666Y-90975295D02*
X133071666Y-91022914D01*
X133071666Y-91022914D02*
X133024047Y-91118152D01*
X133024047Y-91118152D02*
X132976428Y-91165771D01*
X132976428Y-91165771D02*
X132881190Y-91213390D01*
X132881190Y-91213390D02*
X132690714Y-91213390D01*
X132690714Y-91213390D02*
X132595476Y-91261009D01*
X132595476Y-91261009D02*
X132547857Y-91308628D01*
X132547857Y-91308628D02*
X132500238Y-91403866D01*
X132500238Y-91403866D02*
X132500238Y-91594342D01*
X132500238Y-91594342D02*
X132547857Y-91689580D01*
X132547857Y-91689580D02*
X132595476Y-91737200D01*
X132595476Y-91737200D02*
X132690714Y-91784819D01*
X132690714Y-91784819D02*
X132881190Y-91784819D01*
X132881190Y-91784819D02*
X132976428Y-91737200D01*
X132976428Y-91737200D02*
X133024047Y-91689580D01*
X133024047Y-91689580D02*
X133071666Y-91594342D01*
X133071666Y-91594342D02*
X133071666Y-91403866D01*
X133071666Y-91403866D02*
X133024047Y-91308628D01*
X133024047Y-91308628D02*
X132976428Y-91261009D01*
X132976428Y-91261009D02*
X132881190Y-91213390D01*
X74277142Y-82284819D02*
X73943809Y-81808628D01*
X73705714Y-82284819D02*
X73705714Y-81284819D01*
X73705714Y-81284819D02*
X74086666Y-81284819D01*
X74086666Y-81284819D02*
X74181904Y-81332438D01*
X74181904Y-81332438D02*
X74229523Y-81380057D01*
X74229523Y-81380057D02*
X74277142Y-81475295D01*
X74277142Y-81475295D02*
X74277142Y-81618152D01*
X74277142Y-81618152D02*
X74229523Y-81713390D01*
X74229523Y-81713390D02*
X74181904Y-81761009D01*
X74181904Y-81761009D02*
X74086666Y-81808628D01*
X74086666Y-81808628D02*
X73705714Y-81808628D01*
X74610476Y-81284819D02*
X75229523Y-81284819D01*
X75229523Y-81284819D02*
X74896190Y-81665771D01*
X74896190Y-81665771D02*
X75039047Y-81665771D01*
X75039047Y-81665771D02*
X75134285Y-81713390D01*
X75134285Y-81713390D02*
X75181904Y-81761009D01*
X75181904Y-81761009D02*
X75229523Y-81856247D01*
X75229523Y-81856247D02*
X75229523Y-82094342D01*
X75229523Y-82094342D02*
X75181904Y-82189580D01*
X75181904Y-82189580D02*
X75134285Y-82237200D01*
X75134285Y-82237200D02*
X75039047Y-82284819D01*
X75039047Y-82284819D02*
X74753333Y-82284819D01*
X74753333Y-82284819D02*
X74658095Y-82237200D01*
X74658095Y-82237200D02*
X74610476Y-82189580D01*
X75562857Y-81284819D02*
X76181904Y-81284819D01*
X76181904Y-81284819D02*
X75848571Y-81665771D01*
X75848571Y-81665771D02*
X75991428Y-81665771D01*
X75991428Y-81665771D02*
X76086666Y-81713390D01*
X76086666Y-81713390D02*
X76134285Y-81761009D01*
X76134285Y-81761009D02*
X76181904Y-81856247D01*
X76181904Y-81856247D02*
X76181904Y-82094342D01*
X76181904Y-82094342D02*
X76134285Y-82189580D01*
X76134285Y-82189580D02*
X76086666Y-82237200D01*
X76086666Y-82237200D02*
X75991428Y-82284819D01*
X75991428Y-82284819D02*
X75705714Y-82284819D01*
X75705714Y-82284819D02*
X75610476Y-82237200D01*
X75610476Y-82237200D02*
X75562857Y-82189580D01*
X70623095Y-56594819D02*
X70623095Y-57404342D01*
X70623095Y-57404342D02*
X70670714Y-57499580D01*
X70670714Y-57499580D02*
X70718333Y-57547200D01*
X70718333Y-57547200D02*
X70813571Y-57594819D01*
X70813571Y-57594819D02*
X71004047Y-57594819D01*
X71004047Y-57594819D02*
X71099285Y-57547200D01*
X71099285Y-57547200D02*
X71146904Y-57499580D01*
X71146904Y-57499580D02*
X71194523Y-57404342D01*
X71194523Y-57404342D02*
X71194523Y-56594819D01*
X72194523Y-57594819D02*
X71623095Y-57594819D01*
X71908809Y-57594819D02*
X71908809Y-56594819D01*
X71908809Y-56594819D02*
X71813571Y-56737676D01*
X71813571Y-56737676D02*
X71718333Y-56832914D01*
X71718333Y-56832914D02*
X71623095Y-56880533D01*
X99066666Y-92274819D02*
X99066666Y-92989104D01*
X99066666Y-92989104D02*
X99019047Y-93131961D01*
X99019047Y-93131961D02*
X98923809Y-93227200D01*
X98923809Y-93227200D02*
X98780952Y-93274819D01*
X98780952Y-93274819D02*
X98685714Y-93274819D01*
X99971428Y-92274819D02*
X99780952Y-92274819D01*
X99780952Y-92274819D02*
X99685714Y-92322438D01*
X99685714Y-92322438D02*
X99638095Y-92370057D01*
X99638095Y-92370057D02*
X99542857Y-92512914D01*
X99542857Y-92512914D02*
X99495238Y-92703390D01*
X99495238Y-92703390D02*
X99495238Y-93084342D01*
X99495238Y-93084342D02*
X99542857Y-93179580D01*
X99542857Y-93179580D02*
X99590476Y-93227200D01*
X99590476Y-93227200D02*
X99685714Y-93274819D01*
X99685714Y-93274819D02*
X99876190Y-93274819D01*
X99876190Y-93274819D02*
X99971428Y-93227200D01*
X99971428Y-93227200D02*
X100019047Y-93179580D01*
X100019047Y-93179580D02*
X100066666Y-93084342D01*
X100066666Y-93084342D02*
X100066666Y-92846247D01*
X100066666Y-92846247D02*
X100019047Y-92751009D01*
X100019047Y-92751009D02*
X99971428Y-92703390D01*
X99971428Y-92703390D02*
X99876190Y-92655771D01*
X99876190Y-92655771D02*
X99685714Y-92655771D01*
X99685714Y-92655771D02*
X99590476Y-92703390D01*
X99590476Y-92703390D02*
X99542857Y-92751009D01*
X99542857Y-92751009D02*
X99495238Y-92846247D01*
X159790476Y-85654819D02*
X159790476Y-86369104D01*
X159790476Y-86369104D02*
X159742857Y-86511961D01*
X159742857Y-86511961D02*
X159647619Y-86607200D01*
X159647619Y-86607200D02*
X159504762Y-86654819D01*
X159504762Y-86654819D02*
X159409524Y-86654819D01*
X160790476Y-86654819D02*
X160219048Y-86654819D01*
X160504762Y-86654819D02*
X160504762Y-85654819D01*
X160504762Y-85654819D02*
X160409524Y-85797676D01*
X160409524Y-85797676D02*
X160314286Y-85892914D01*
X160314286Y-85892914D02*
X160219048Y-85940533D01*
X161123810Y-85654819D02*
X161790476Y-85654819D01*
X161790476Y-85654819D02*
X161361905Y-86654819D01*
X113233333Y-56089580D02*
X113185714Y-56137200D01*
X113185714Y-56137200D02*
X113042857Y-56184819D01*
X113042857Y-56184819D02*
X112947619Y-56184819D01*
X112947619Y-56184819D02*
X112804762Y-56137200D01*
X112804762Y-56137200D02*
X112709524Y-56041961D01*
X112709524Y-56041961D02*
X112661905Y-55946723D01*
X112661905Y-55946723D02*
X112614286Y-55756247D01*
X112614286Y-55756247D02*
X112614286Y-55613390D01*
X112614286Y-55613390D02*
X112661905Y-55422914D01*
X112661905Y-55422914D02*
X112709524Y-55327676D01*
X112709524Y-55327676D02*
X112804762Y-55232438D01*
X112804762Y-55232438D02*
X112947619Y-55184819D01*
X112947619Y-55184819D02*
X113042857Y-55184819D01*
X113042857Y-55184819D02*
X113185714Y-55232438D01*
X113185714Y-55232438D02*
X113233333Y-55280057D01*
X113566667Y-55184819D02*
X114185714Y-55184819D01*
X114185714Y-55184819D02*
X113852381Y-55565771D01*
X113852381Y-55565771D02*
X113995238Y-55565771D01*
X113995238Y-55565771D02*
X114090476Y-55613390D01*
X114090476Y-55613390D02*
X114138095Y-55661009D01*
X114138095Y-55661009D02*
X114185714Y-55756247D01*
X114185714Y-55756247D02*
X114185714Y-55994342D01*
X114185714Y-55994342D02*
X114138095Y-56089580D01*
X114138095Y-56089580D02*
X114090476Y-56137200D01*
X114090476Y-56137200D02*
X113995238Y-56184819D01*
X113995238Y-56184819D02*
X113709524Y-56184819D01*
X113709524Y-56184819D02*
X113614286Y-56137200D01*
X113614286Y-56137200D02*
X113566667Y-56089580D01*
X150390476Y-85854819D02*
X150390476Y-86569104D01*
X150390476Y-86569104D02*
X150342857Y-86711961D01*
X150342857Y-86711961D02*
X150247619Y-86807200D01*
X150247619Y-86807200D02*
X150104762Y-86854819D01*
X150104762Y-86854819D02*
X150009524Y-86854819D01*
X151390476Y-86854819D02*
X150819048Y-86854819D01*
X151104762Y-86854819D02*
X151104762Y-85854819D01*
X151104762Y-85854819D02*
X151009524Y-85997676D01*
X151009524Y-85997676D02*
X150914286Y-86092914D01*
X150914286Y-86092914D02*
X150819048Y-86140533D01*
X152247619Y-85854819D02*
X152057143Y-85854819D01*
X152057143Y-85854819D02*
X151961905Y-85902438D01*
X151961905Y-85902438D02*
X151914286Y-85950057D01*
X151914286Y-85950057D02*
X151819048Y-86092914D01*
X151819048Y-86092914D02*
X151771429Y-86283390D01*
X151771429Y-86283390D02*
X151771429Y-86664342D01*
X151771429Y-86664342D02*
X151819048Y-86759580D01*
X151819048Y-86759580D02*
X151866667Y-86807200D01*
X151866667Y-86807200D02*
X151961905Y-86854819D01*
X151961905Y-86854819D02*
X152152381Y-86854819D01*
X152152381Y-86854819D02*
X152247619Y-86807200D01*
X152247619Y-86807200D02*
X152295238Y-86759580D01*
X152295238Y-86759580D02*
X152342857Y-86664342D01*
X152342857Y-86664342D02*
X152342857Y-86426247D01*
X152342857Y-86426247D02*
X152295238Y-86331009D01*
X152295238Y-86331009D02*
X152247619Y-86283390D01*
X152247619Y-86283390D02*
X152152381Y-86235771D01*
X152152381Y-86235771D02*
X151961905Y-86235771D01*
X151961905Y-86235771D02*
X151866667Y-86283390D01*
X151866667Y-86283390D02*
X151819048Y-86331009D01*
X151819048Y-86331009D02*
X151771429Y-86426247D01*
X157970476Y-56294819D02*
X157970476Y-57009104D01*
X157970476Y-57009104D02*
X157922857Y-57151961D01*
X157922857Y-57151961D02*
X157827619Y-57247200D01*
X157827619Y-57247200D02*
X157684762Y-57294819D01*
X157684762Y-57294819D02*
X157589524Y-57294819D01*
X158970476Y-57294819D02*
X158399048Y-57294819D01*
X158684762Y-57294819D02*
X158684762Y-56294819D01*
X158684762Y-56294819D02*
X158589524Y-56437676D01*
X158589524Y-56437676D02*
X158494286Y-56532914D01*
X158494286Y-56532914D02*
X158399048Y-56580533D01*
X159303810Y-56294819D02*
X159922857Y-56294819D01*
X159922857Y-56294819D02*
X159589524Y-56675771D01*
X159589524Y-56675771D02*
X159732381Y-56675771D01*
X159732381Y-56675771D02*
X159827619Y-56723390D01*
X159827619Y-56723390D02*
X159875238Y-56771009D01*
X159875238Y-56771009D02*
X159922857Y-56866247D01*
X159922857Y-56866247D02*
X159922857Y-57104342D01*
X159922857Y-57104342D02*
X159875238Y-57199580D01*
X159875238Y-57199580D02*
X159827619Y-57247200D01*
X159827619Y-57247200D02*
X159732381Y-57294819D01*
X159732381Y-57294819D02*
X159446667Y-57294819D01*
X159446667Y-57294819D02*
X159351429Y-57247200D01*
X159351429Y-57247200D02*
X159303810Y-57199580D01*
X62356667Y-85217200D02*
X62499524Y-85264819D01*
X62499524Y-85264819D02*
X62737619Y-85264819D01*
X62737619Y-85264819D02*
X62832857Y-85217200D01*
X62832857Y-85217200D02*
X62880476Y-85169580D01*
X62880476Y-85169580D02*
X62928095Y-85074342D01*
X62928095Y-85074342D02*
X62928095Y-84979104D01*
X62928095Y-84979104D02*
X62880476Y-84883866D01*
X62880476Y-84883866D02*
X62832857Y-84836247D01*
X62832857Y-84836247D02*
X62737619Y-84788628D01*
X62737619Y-84788628D02*
X62547143Y-84741009D01*
X62547143Y-84741009D02*
X62451905Y-84693390D01*
X62451905Y-84693390D02*
X62404286Y-84645771D01*
X62404286Y-84645771D02*
X62356667Y-84550533D01*
X62356667Y-84550533D02*
X62356667Y-84455295D01*
X62356667Y-84455295D02*
X62404286Y-84360057D01*
X62404286Y-84360057D02*
X62451905Y-84312438D01*
X62451905Y-84312438D02*
X62547143Y-84264819D01*
X62547143Y-84264819D02*
X62785238Y-84264819D01*
X62785238Y-84264819D02*
X62928095Y-84312438D01*
X63261429Y-84264819D02*
X63499524Y-85264819D01*
X63499524Y-85264819D02*
X63690000Y-84550533D01*
X63690000Y-84550533D02*
X63880476Y-85264819D01*
X63880476Y-85264819D02*
X64118572Y-84264819D01*
X65023333Y-85264819D02*
X64451905Y-85264819D01*
X64737619Y-85264819D02*
X64737619Y-84264819D01*
X64737619Y-84264819D02*
X64642381Y-84407676D01*
X64642381Y-84407676D02*
X64547143Y-84502914D01*
X64547143Y-84502914D02*
X64451905Y-84550533D01*
X81033333Y-87709580D02*
X80985714Y-87757200D01*
X80985714Y-87757200D02*
X80842857Y-87804819D01*
X80842857Y-87804819D02*
X80747619Y-87804819D01*
X80747619Y-87804819D02*
X80604762Y-87757200D01*
X80604762Y-87757200D02*
X80509524Y-87661961D01*
X80509524Y-87661961D02*
X80461905Y-87566723D01*
X80461905Y-87566723D02*
X80414286Y-87376247D01*
X80414286Y-87376247D02*
X80414286Y-87233390D01*
X80414286Y-87233390D02*
X80461905Y-87042914D01*
X80461905Y-87042914D02*
X80509524Y-86947676D01*
X80509524Y-86947676D02*
X80604762Y-86852438D01*
X80604762Y-86852438D02*
X80747619Y-86804819D01*
X80747619Y-86804819D02*
X80842857Y-86804819D01*
X80842857Y-86804819D02*
X80985714Y-86852438D01*
X80985714Y-86852438D02*
X81033333Y-86900057D01*
X81938095Y-86804819D02*
X81461905Y-86804819D01*
X81461905Y-86804819D02*
X81414286Y-87281009D01*
X81414286Y-87281009D02*
X81461905Y-87233390D01*
X81461905Y-87233390D02*
X81557143Y-87185771D01*
X81557143Y-87185771D02*
X81795238Y-87185771D01*
X81795238Y-87185771D02*
X81890476Y-87233390D01*
X81890476Y-87233390D02*
X81938095Y-87281009D01*
X81938095Y-87281009D02*
X81985714Y-87376247D01*
X81985714Y-87376247D02*
X81985714Y-87614342D01*
X81985714Y-87614342D02*
X81938095Y-87709580D01*
X81938095Y-87709580D02*
X81890476Y-87757200D01*
X81890476Y-87757200D02*
X81795238Y-87804819D01*
X81795238Y-87804819D02*
X81557143Y-87804819D01*
X81557143Y-87804819D02*
X81461905Y-87757200D01*
X81461905Y-87757200D02*
X81414286Y-87709580D01*
X71016667Y-99707200D02*
X71159524Y-99754819D01*
X71159524Y-99754819D02*
X71397619Y-99754819D01*
X71397619Y-99754819D02*
X71492857Y-99707200D01*
X71492857Y-99707200D02*
X71540476Y-99659580D01*
X71540476Y-99659580D02*
X71588095Y-99564342D01*
X71588095Y-99564342D02*
X71588095Y-99469104D01*
X71588095Y-99469104D02*
X71540476Y-99373866D01*
X71540476Y-99373866D02*
X71492857Y-99326247D01*
X71492857Y-99326247D02*
X71397619Y-99278628D01*
X71397619Y-99278628D02*
X71207143Y-99231009D01*
X71207143Y-99231009D02*
X71111905Y-99183390D01*
X71111905Y-99183390D02*
X71064286Y-99135771D01*
X71064286Y-99135771D02*
X71016667Y-99040533D01*
X71016667Y-99040533D02*
X71016667Y-98945295D01*
X71016667Y-98945295D02*
X71064286Y-98850057D01*
X71064286Y-98850057D02*
X71111905Y-98802438D01*
X71111905Y-98802438D02*
X71207143Y-98754819D01*
X71207143Y-98754819D02*
X71445238Y-98754819D01*
X71445238Y-98754819D02*
X71588095Y-98802438D01*
X71921429Y-98754819D02*
X72159524Y-99754819D01*
X72159524Y-99754819D02*
X72350000Y-99040533D01*
X72350000Y-99040533D02*
X72540476Y-99754819D01*
X72540476Y-99754819D02*
X72778572Y-98754819D01*
X73588095Y-99088152D02*
X73588095Y-99754819D01*
X73350000Y-98707200D02*
X73111905Y-99421485D01*
X73111905Y-99421485D02*
X73730952Y-99421485D01*
X132238333Y-84819580D02*
X132190714Y-84867200D01*
X132190714Y-84867200D02*
X132047857Y-84914819D01*
X132047857Y-84914819D02*
X131952619Y-84914819D01*
X131952619Y-84914819D02*
X131809762Y-84867200D01*
X131809762Y-84867200D02*
X131714524Y-84771961D01*
X131714524Y-84771961D02*
X131666905Y-84676723D01*
X131666905Y-84676723D02*
X131619286Y-84486247D01*
X131619286Y-84486247D02*
X131619286Y-84343390D01*
X131619286Y-84343390D02*
X131666905Y-84152914D01*
X131666905Y-84152914D02*
X131714524Y-84057676D01*
X131714524Y-84057676D02*
X131809762Y-83962438D01*
X131809762Y-83962438D02*
X131952619Y-83914819D01*
X131952619Y-83914819D02*
X132047857Y-83914819D01*
X132047857Y-83914819D02*
X132190714Y-83962438D01*
X132190714Y-83962438D02*
X132238333Y-84010057D01*
X132809762Y-84343390D02*
X132714524Y-84295771D01*
X132714524Y-84295771D02*
X132666905Y-84248152D01*
X132666905Y-84248152D02*
X132619286Y-84152914D01*
X132619286Y-84152914D02*
X132619286Y-84105295D01*
X132619286Y-84105295D02*
X132666905Y-84010057D01*
X132666905Y-84010057D02*
X132714524Y-83962438D01*
X132714524Y-83962438D02*
X132809762Y-83914819D01*
X132809762Y-83914819D02*
X133000238Y-83914819D01*
X133000238Y-83914819D02*
X133095476Y-83962438D01*
X133095476Y-83962438D02*
X133143095Y-84010057D01*
X133143095Y-84010057D02*
X133190714Y-84105295D01*
X133190714Y-84105295D02*
X133190714Y-84152914D01*
X133190714Y-84152914D02*
X133143095Y-84248152D01*
X133143095Y-84248152D02*
X133095476Y-84295771D01*
X133095476Y-84295771D02*
X133000238Y-84343390D01*
X133000238Y-84343390D02*
X132809762Y-84343390D01*
X132809762Y-84343390D02*
X132714524Y-84391009D01*
X132714524Y-84391009D02*
X132666905Y-84438628D01*
X132666905Y-84438628D02*
X132619286Y-84533866D01*
X132619286Y-84533866D02*
X132619286Y-84724342D01*
X132619286Y-84724342D02*
X132666905Y-84819580D01*
X132666905Y-84819580D02*
X132714524Y-84867200D01*
X132714524Y-84867200D02*
X132809762Y-84914819D01*
X132809762Y-84914819D02*
X133000238Y-84914819D01*
X133000238Y-84914819D02*
X133095476Y-84867200D01*
X133095476Y-84867200D02*
X133143095Y-84819580D01*
X133143095Y-84819580D02*
X133190714Y-84724342D01*
X133190714Y-84724342D02*
X133190714Y-84533866D01*
X133190714Y-84533866D02*
X133143095Y-84438628D01*
X133143095Y-84438628D02*
X133095476Y-84391009D01*
X133095476Y-84391009D02*
X133000238Y-84343390D01*
X111866666Y-62654819D02*
X111866666Y-63369104D01*
X111866666Y-63369104D02*
X111819047Y-63511961D01*
X111819047Y-63511961D02*
X111723809Y-63607200D01*
X111723809Y-63607200D02*
X111580952Y-63654819D01*
X111580952Y-63654819D02*
X111485714Y-63654819D01*
X112247619Y-62654819D02*
X112866666Y-62654819D01*
X112866666Y-62654819D02*
X112533333Y-63035771D01*
X112533333Y-63035771D02*
X112676190Y-63035771D01*
X112676190Y-63035771D02*
X112771428Y-63083390D01*
X112771428Y-63083390D02*
X112819047Y-63131009D01*
X112819047Y-63131009D02*
X112866666Y-63226247D01*
X112866666Y-63226247D02*
X112866666Y-63464342D01*
X112866666Y-63464342D02*
X112819047Y-63559580D01*
X112819047Y-63559580D02*
X112771428Y-63607200D01*
X112771428Y-63607200D02*
X112676190Y-63654819D01*
X112676190Y-63654819D02*
X112390476Y-63654819D01*
X112390476Y-63654819D02*
X112295238Y-63607200D01*
X112295238Y-63607200D02*
X112247619Y-63559580D01*
X61066666Y-61674819D02*
X61066666Y-62389104D01*
X61066666Y-62389104D02*
X61019047Y-62531961D01*
X61019047Y-62531961D02*
X60923809Y-62627200D01*
X60923809Y-62627200D02*
X60780952Y-62674819D01*
X60780952Y-62674819D02*
X60685714Y-62674819D01*
X62066666Y-62674819D02*
X61495238Y-62674819D01*
X61780952Y-62674819D02*
X61780952Y-61674819D01*
X61780952Y-61674819D02*
X61685714Y-61817676D01*
X61685714Y-61817676D02*
X61590476Y-61912914D01*
X61590476Y-61912914D02*
X61495238Y-61960533D01*
X116638333Y-85269580D02*
X116590714Y-85317200D01*
X116590714Y-85317200D02*
X116447857Y-85364819D01*
X116447857Y-85364819D02*
X116352619Y-85364819D01*
X116352619Y-85364819D02*
X116209762Y-85317200D01*
X116209762Y-85317200D02*
X116114524Y-85221961D01*
X116114524Y-85221961D02*
X116066905Y-85126723D01*
X116066905Y-85126723D02*
X116019286Y-84936247D01*
X116019286Y-84936247D02*
X116019286Y-84793390D01*
X116019286Y-84793390D02*
X116066905Y-84602914D01*
X116066905Y-84602914D02*
X116114524Y-84507676D01*
X116114524Y-84507676D02*
X116209762Y-84412438D01*
X116209762Y-84412438D02*
X116352619Y-84364819D01*
X116352619Y-84364819D02*
X116447857Y-84364819D01*
X116447857Y-84364819D02*
X116590714Y-84412438D01*
X116590714Y-84412438D02*
X116638333Y-84460057D01*
X116971667Y-84364819D02*
X117638333Y-84364819D01*
X117638333Y-84364819D02*
X117209762Y-85364819D01*
X123833095Y-83954819D02*
X123833095Y-84764342D01*
X123833095Y-84764342D02*
X123880714Y-84859580D01*
X123880714Y-84859580D02*
X123928333Y-84907200D01*
X123928333Y-84907200D02*
X124023571Y-84954819D01*
X124023571Y-84954819D02*
X124214047Y-84954819D01*
X124214047Y-84954819D02*
X124309285Y-84907200D01*
X124309285Y-84907200D02*
X124356904Y-84859580D01*
X124356904Y-84859580D02*
X124404523Y-84764342D01*
X124404523Y-84764342D02*
X124404523Y-83954819D01*
X124785476Y-83954819D02*
X125452142Y-83954819D01*
X125452142Y-83954819D02*
X125023571Y-84954819D01*
X167570476Y-56294819D02*
X167570476Y-57009104D01*
X167570476Y-57009104D02*
X167522857Y-57151961D01*
X167522857Y-57151961D02*
X167427619Y-57247200D01*
X167427619Y-57247200D02*
X167284762Y-57294819D01*
X167284762Y-57294819D02*
X167189524Y-57294819D01*
X168570476Y-57294819D02*
X167999048Y-57294819D01*
X168284762Y-57294819D02*
X168284762Y-56294819D01*
X168284762Y-56294819D02*
X168189524Y-56437676D01*
X168189524Y-56437676D02*
X168094286Y-56532914D01*
X168094286Y-56532914D02*
X167999048Y-56580533D01*
X169427619Y-56628152D02*
X169427619Y-57294819D01*
X169189524Y-56247200D02*
X168951429Y-56961485D01*
X168951429Y-56961485D02*
X169570476Y-56961485D01*
X61956667Y-102017200D02*
X62099524Y-102064819D01*
X62099524Y-102064819D02*
X62337619Y-102064819D01*
X62337619Y-102064819D02*
X62432857Y-102017200D01*
X62432857Y-102017200D02*
X62480476Y-101969580D01*
X62480476Y-101969580D02*
X62528095Y-101874342D01*
X62528095Y-101874342D02*
X62528095Y-101779104D01*
X62528095Y-101779104D02*
X62480476Y-101683866D01*
X62480476Y-101683866D02*
X62432857Y-101636247D01*
X62432857Y-101636247D02*
X62337619Y-101588628D01*
X62337619Y-101588628D02*
X62147143Y-101541009D01*
X62147143Y-101541009D02*
X62051905Y-101493390D01*
X62051905Y-101493390D02*
X62004286Y-101445771D01*
X62004286Y-101445771D02*
X61956667Y-101350533D01*
X61956667Y-101350533D02*
X61956667Y-101255295D01*
X61956667Y-101255295D02*
X62004286Y-101160057D01*
X62004286Y-101160057D02*
X62051905Y-101112438D01*
X62051905Y-101112438D02*
X62147143Y-101064819D01*
X62147143Y-101064819D02*
X62385238Y-101064819D01*
X62385238Y-101064819D02*
X62528095Y-101112438D01*
X62861429Y-101064819D02*
X63099524Y-102064819D01*
X63099524Y-102064819D02*
X63290000Y-101350533D01*
X63290000Y-101350533D02*
X63480476Y-102064819D01*
X63480476Y-102064819D02*
X63718572Y-101064819D01*
X64004286Y-101064819D02*
X64623333Y-101064819D01*
X64623333Y-101064819D02*
X64290000Y-101445771D01*
X64290000Y-101445771D02*
X64432857Y-101445771D01*
X64432857Y-101445771D02*
X64528095Y-101493390D01*
X64528095Y-101493390D02*
X64575714Y-101541009D01*
X64575714Y-101541009D02*
X64623333Y-101636247D01*
X64623333Y-101636247D02*
X64623333Y-101874342D01*
X64623333Y-101874342D02*
X64575714Y-101969580D01*
X64575714Y-101969580D02*
X64528095Y-102017200D01*
X64528095Y-102017200D02*
X64432857Y-102064819D01*
X64432857Y-102064819D02*
X64147143Y-102064819D01*
X64147143Y-102064819D02*
X64051905Y-102017200D01*
X64051905Y-102017200D02*
X64004286Y-101969580D01*
X130463333Y-56529580D02*
X130415714Y-56577200D01*
X130415714Y-56577200D02*
X130272857Y-56624819D01*
X130272857Y-56624819D02*
X130177619Y-56624819D01*
X130177619Y-56624819D02*
X130034762Y-56577200D01*
X130034762Y-56577200D02*
X129939524Y-56481961D01*
X129939524Y-56481961D02*
X129891905Y-56386723D01*
X129891905Y-56386723D02*
X129844286Y-56196247D01*
X129844286Y-56196247D02*
X129844286Y-56053390D01*
X129844286Y-56053390D02*
X129891905Y-55862914D01*
X129891905Y-55862914D02*
X129939524Y-55767676D01*
X129939524Y-55767676D02*
X130034762Y-55672438D01*
X130034762Y-55672438D02*
X130177619Y-55624819D01*
X130177619Y-55624819D02*
X130272857Y-55624819D01*
X130272857Y-55624819D02*
X130415714Y-55672438D01*
X130415714Y-55672438D02*
X130463333Y-55720057D01*
X131320476Y-55958152D02*
X131320476Y-56624819D01*
X131082381Y-55577200D02*
X130844286Y-56291485D01*
X130844286Y-56291485D02*
X131463333Y-56291485D01*
X130246666Y-63494819D02*
X130246666Y-64209104D01*
X130246666Y-64209104D02*
X130199047Y-64351961D01*
X130199047Y-64351961D02*
X130103809Y-64447200D01*
X130103809Y-64447200D02*
X129960952Y-64494819D01*
X129960952Y-64494819D02*
X129865714Y-64494819D01*
X131151428Y-63828152D02*
X131151428Y-64494819D01*
X130913333Y-63447200D02*
X130675238Y-64161485D01*
X130675238Y-64161485D02*
X131294285Y-64161485D01*
X78666666Y-65854819D02*
X78666666Y-66569104D01*
X78666666Y-66569104D02*
X78619047Y-66711961D01*
X78619047Y-66711961D02*
X78523809Y-66807200D01*
X78523809Y-66807200D02*
X78380952Y-66854819D01*
X78380952Y-66854819D02*
X78285714Y-66854819D01*
X79095238Y-65950057D02*
X79142857Y-65902438D01*
X79142857Y-65902438D02*
X79238095Y-65854819D01*
X79238095Y-65854819D02*
X79476190Y-65854819D01*
X79476190Y-65854819D02*
X79571428Y-65902438D01*
X79571428Y-65902438D02*
X79619047Y-65950057D01*
X79619047Y-65950057D02*
X79666666Y-66045295D01*
X79666666Y-66045295D02*
X79666666Y-66140533D01*
X79666666Y-66140533D02*
X79619047Y-66283390D01*
X79619047Y-66283390D02*
X79047619Y-66854819D01*
X79047619Y-66854819D02*
X79666666Y-66854819D01*
X99283333Y-86309580D02*
X99235714Y-86357200D01*
X99235714Y-86357200D02*
X99092857Y-86404819D01*
X99092857Y-86404819D02*
X98997619Y-86404819D01*
X98997619Y-86404819D02*
X98854762Y-86357200D01*
X98854762Y-86357200D02*
X98759524Y-86261961D01*
X98759524Y-86261961D02*
X98711905Y-86166723D01*
X98711905Y-86166723D02*
X98664286Y-85976247D01*
X98664286Y-85976247D02*
X98664286Y-85833390D01*
X98664286Y-85833390D02*
X98711905Y-85642914D01*
X98711905Y-85642914D02*
X98759524Y-85547676D01*
X98759524Y-85547676D02*
X98854762Y-85452438D01*
X98854762Y-85452438D02*
X98997619Y-85404819D01*
X98997619Y-85404819D02*
X99092857Y-85404819D01*
X99092857Y-85404819D02*
X99235714Y-85452438D01*
X99235714Y-85452438D02*
X99283333Y-85500057D01*
X100140476Y-85404819D02*
X99950000Y-85404819D01*
X99950000Y-85404819D02*
X99854762Y-85452438D01*
X99854762Y-85452438D02*
X99807143Y-85500057D01*
X99807143Y-85500057D02*
X99711905Y-85642914D01*
X99711905Y-85642914D02*
X99664286Y-85833390D01*
X99664286Y-85833390D02*
X99664286Y-86214342D01*
X99664286Y-86214342D02*
X99711905Y-86309580D01*
X99711905Y-86309580D02*
X99759524Y-86357200D01*
X99759524Y-86357200D02*
X99854762Y-86404819D01*
X99854762Y-86404819D02*
X100045238Y-86404819D01*
X100045238Y-86404819D02*
X100140476Y-86357200D01*
X100140476Y-86357200D02*
X100188095Y-86309580D01*
X100188095Y-86309580D02*
X100235714Y-86214342D01*
X100235714Y-86214342D02*
X100235714Y-85976247D01*
X100235714Y-85976247D02*
X100188095Y-85881009D01*
X100188095Y-85881009D02*
X100140476Y-85833390D01*
X100140476Y-85833390D02*
X100045238Y-85785771D01*
X100045238Y-85785771D02*
X99854762Y-85785771D01*
X99854762Y-85785771D02*
X99759524Y-85833390D01*
X99759524Y-85833390D02*
X99711905Y-85881009D01*
X99711905Y-85881009D02*
X99664286Y-85976247D01*
X61666666Y-76474819D02*
X61666666Y-77189104D01*
X61666666Y-77189104D02*
X61619047Y-77331961D01*
X61619047Y-77331961D02*
X61523809Y-77427200D01*
X61523809Y-77427200D02*
X61380952Y-77474819D01*
X61380952Y-77474819D02*
X61285714Y-77474819D01*
X62190476Y-77474819D02*
X62380952Y-77474819D01*
X62380952Y-77474819D02*
X62476190Y-77427200D01*
X62476190Y-77427200D02*
X62523809Y-77379580D01*
X62523809Y-77379580D02*
X62619047Y-77236723D01*
X62619047Y-77236723D02*
X62666666Y-77046247D01*
X62666666Y-77046247D02*
X62666666Y-76665295D01*
X62666666Y-76665295D02*
X62619047Y-76570057D01*
X62619047Y-76570057D02*
X62571428Y-76522438D01*
X62571428Y-76522438D02*
X62476190Y-76474819D01*
X62476190Y-76474819D02*
X62285714Y-76474819D01*
X62285714Y-76474819D02*
X62190476Y-76522438D01*
X62190476Y-76522438D02*
X62142857Y-76570057D01*
X62142857Y-76570057D02*
X62095238Y-76665295D01*
X62095238Y-76665295D02*
X62095238Y-76903390D01*
X62095238Y-76903390D02*
X62142857Y-76998628D01*
X62142857Y-76998628D02*
X62190476Y-77046247D01*
X62190476Y-77046247D02*
X62285714Y-77093866D01*
X62285714Y-77093866D02*
X62476190Y-77093866D01*
X62476190Y-77093866D02*
X62571428Y-77046247D01*
X62571428Y-77046247D02*
X62619047Y-76998628D01*
X62619047Y-76998628D02*
X62666666Y-76903390D01*
%TO.C,J7*%
D12*
X114625000Y-92330000D02*
X116005000Y-92330000D01*
X114625000Y-93710000D02*
X114625000Y-92330000D01*
X114625000Y-94980000D02*
X114625000Y-102710000D01*
X114625000Y-94980000D02*
X117385000Y-94980000D01*
X114625000Y-102710000D02*
X117385000Y-102710000D01*
X117385000Y-94980000D02*
X117385000Y-102710000D01*
%TO.C,U6*%
X105760000Y-85690000D02*
X105760000Y-106130000D01*
X105760000Y-106130000D02*
X111060000Y-106130000D01*
X107410000Y-85690000D02*
X105760000Y-85690000D01*
X111060000Y-85690000D02*
X109410000Y-85690000D01*
X111060000Y-106130000D02*
X111060000Y-85690000D01*
X109410000Y-85690000D02*
G75*
G02*
X107410000Y-85690000I-1000000J0D01*
G01*
%TO.C,U2*%
X84560000Y-57730000D02*
X84560000Y-78170000D01*
X84560000Y-78170000D02*
X89860000Y-78170000D01*
X86210000Y-57730000D02*
X84560000Y-57730000D01*
X89860000Y-57730000D02*
X88210000Y-57730000D01*
X89860000Y-78170000D02*
X89860000Y-57730000D01*
X88210000Y-57730000D02*
G75*
G02*
X86210000Y-57730000I-1000000J0D01*
G01*
%TO.C,J20*%
X92670000Y-83210000D02*
X92670000Y-83330000D01*
X92670000Y-83330000D02*
X95330000Y-83330000D01*
X94000000Y-80670000D02*
X95330000Y-80670000D01*
X95330000Y-80670000D02*
X95330000Y-82000000D01*
X95330000Y-83210000D02*
X95330000Y-83330000D01*
%TO.C,J5*%
X80220000Y-95020000D02*
X81600000Y-95020000D01*
X80220000Y-96400000D02*
X80220000Y-95020000D01*
X80220000Y-97670000D02*
X80220000Y-105400000D01*
X80220000Y-97670000D02*
X82980000Y-97670000D01*
X80220000Y-105400000D02*
X82980000Y-105400000D01*
X82980000Y-97670000D02*
X82980000Y-105400000D01*
%TO.C,U3*%
X119140000Y-56850000D02*
X119140000Y-77290000D01*
X119140000Y-77290000D02*
X124440000Y-77290000D01*
X120790000Y-56850000D02*
X119140000Y-56850000D01*
X124440000Y-56850000D02*
X122790000Y-56850000D01*
X124440000Y-77290000D02*
X124440000Y-56850000D01*
X122790000Y-56850000D02*
G75*
G02*
X120790000Y-56850000I-1000000J0D01*
G01*
%TO.C,C2*%
X77530000Y-60880000D02*
X80770000Y-60880000D01*
X77530000Y-61028000D02*
X77530000Y-60880000D01*
X77530000Y-63120000D02*
X77530000Y-62972000D01*
X80770000Y-60880000D02*
X80770000Y-61028000D01*
X80770000Y-62972000D02*
X80770000Y-63120000D01*
X80770000Y-63120000D02*
X77530000Y-63120000D01*
%TO.C,J10*%
X85020000Y-81820000D02*
X86400000Y-81820000D01*
X85020000Y-83200000D02*
X85020000Y-81820000D01*
X85020000Y-84470000D02*
X85020000Y-84580000D01*
X85020000Y-84470000D02*
X87780000Y-84470000D01*
X85020000Y-84580000D02*
X87780000Y-84580000D01*
X87780000Y-84470000D02*
X87780000Y-84580000D01*
%TO.C,U9*%
X101360000Y-56930000D02*
X101360000Y-82450000D01*
X101360000Y-82450000D02*
X106660000Y-82450000D01*
X103010000Y-56930000D02*
X101360000Y-56930000D01*
X106660000Y-56930000D02*
X105010000Y-56930000D01*
X106660000Y-82450000D02*
X106660000Y-56930000D01*
X105010000Y-56930000D02*
G75*
G02*
X103010000Y-56930000I-1000000J0D01*
G01*
%TO.C,J11*%
X70220000Y-89620000D02*
X71600000Y-89620000D01*
X70220000Y-91000000D02*
X70220000Y-89620000D01*
X70220000Y-92270000D02*
X70220000Y-94920000D01*
X70220000Y-92270000D02*
X72980000Y-92270000D01*
X70220000Y-94920000D02*
X72980000Y-94920000D01*
X72980000Y-92270000D02*
X72980000Y-94920000D01*
%TO.C,J15*%
X176800000Y-57640000D02*
X178180000Y-57640000D01*
X176800000Y-59020000D02*
X176800000Y-57640000D01*
X176800000Y-60290000D02*
X176800000Y-68020000D01*
X176800000Y-60290000D02*
X179560000Y-60290000D01*
X176800000Y-68020000D02*
X179560000Y-68020000D01*
X179560000Y-60290000D02*
X179560000Y-68020000D01*
%TO.C,C1*%
X60330000Y-57880000D02*
X63570000Y-57880000D01*
X60330000Y-58028000D02*
X60330000Y-57880000D01*
X60330000Y-60120000D02*
X60330000Y-59972000D01*
X63570000Y-57880000D02*
X63570000Y-58028000D01*
X63570000Y-59972000D02*
X63570000Y-60120000D01*
X63570000Y-60120000D02*
X60330000Y-60120000D01*
%TO.C,J19*%
X177820000Y-87200000D02*
X179200000Y-87200000D01*
X177820000Y-88580000D02*
X177820000Y-87200000D01*
X177820000Y-89850000D02*
X177820000Y-97580000D01*
X177820000Y-89850000D02*
X180580000Y-89850000D01*
X177820000Y-97580000D02*
X180580000Y-97580000D01*
X180580000Y-89850000D02*
X180580000Y-97580000D01*
%TO.C,U8*%
X138365000Y-85100000D02*
X138365000Y-105540000D01*
X138365000Y-105540000D02*
X143665000Y-105540000D01*
X140015000Y-85100000D02*
X138365000Y-85100000D01*
X143665000Y-85100000D02*
X142015000Y-85100000D01*
X143665000Y-105540000D02*
X143665000Y-85100000D01*
X142015000Y-85100000D02*
G75*
G02*
X140015000Y-85100000I-1000000J0D01*
G01*
%TO.C,J18*%
X169220000Y-87000000D02*
X170600000Y-87000000D01*
X169220000Y-88380000D02*
X169220000Y-87000000D01*
X169220000Y-89650000D02*
X169220000Y-97380000D01*
X169220000Y-89650000D02*
X171980000Y-89650000D01*
X169220000Y-97380000D02*
X171980000Y-97380000D01*
X171980000Y-89650000D02*
X171980000Y-97380000D01*
%TO.C,J12*%
X147800000Y-57840000D02*
X149180000Y-57840000D01*
X147800000Y-59220000D02*
X147800000Y-57840000D01*
X147800000Y-60490000D02*
X147800000Y-68220000D01*
X147800000Y-60490000D02*
X150560000Y-60490000D01*
X147800000Y-68220000D02*
X150560000Y-68220000D01*
X150560000Y-60490000D02*
X150560000Y-68220000D01*
%TO.C,U5*%
X88160000Y-86710000D02*
X88160000Y-107150000D01*
X88160000Y-107150000D02*
X93460000Y-107150000D01*
X89810000Y-86710000D02*
X88160000Y-86710000D01*
X93460000Y-86710000D02*
X91810000Y-86710000D01*
X93460000Y-107150000D02*
X93460000Y-86710000D01*
X91810000Y-86710000D02*
G75*
G02*
X89810000Y-86710000I-1000000J0D01*
G01*
%TO.C,U4*%
X136140000Y-56210000D02*
X136140000Y-76650000D01*
X136140000Y-76650000D02*
X141440000Y-76650000D01*
X137790000Y-56210000D02*
X136140000Y-56210000D01*
X141440000Y-56210000D02*
X139790000Y-56210000D01*
X141440000Y-76650000D02*
X141440000Y-56210000D01*
X139790000Y-56210000D02*
G75*
G02*
X137790000Y-56210000I-1000000J0D01*
G01*
%TO.C,C9*%
X94030000Y-58080000D02*
X97270000Y-58080000D01*
X94030000Y-58228000D02*
X94030000Y-58080000D01*
X94030000Y-60320000D02*
X94030000Y-60172000D01*
X97270000Y-58080000D02*
X97270000Y-58228000D01*
X97270000Y-60172000D02*
X97270000Y-60320000D01*
X97270000Y-60320000D02*
X94030000Y-60320000D01*
%TO.C,SW2*%
X57290000Y-94340000D02*
X66110000Y-94340000D01*
X57290000Y-94650000D02*
X57290000Y-94340000D01*
X57290000Y-98860000D02*
X57290000Y-98550000D01*
X59200000Y-93640000D02*
X59700000Y-94140000D01*
X59700000Y-94140000D02*
X60200000Y-93640000D01*
X60200000Y-93640000D02*
X59200000Y-93640000D01*
X66110000Y-94340000D02*
X66110000Y-94650000D01*
X66110000Y-98860000D02*
X57290000Y-98860000D01*
X66110000Y-98860000D02*
X66110000Y-98550000D01*
%TO.C,J8*%
X131025000Y-92330000D02*
X132405000Y-92330000D01*
X131025000Y-93710000D02*
X131025000Y-92330000D01*
X131025000Y-94980000D02*
X131025000Y-102710000D01*
X131025000Y-94980000D02*
X133785000Y-94980000D01*
X131025000Y-102710000D02*
X133785000Y-102710000D01*
X133785000Y-94980000D02*
X133785000Y-102710000D01*
%TO.C,R33*%
X70880000Y-84200000D02*
X71650000Y-84200000D01*
X78960000Y-84200000D02*
X78190000Y-84200000D01*
X71650000Y-82830000D02*
X78190000Y-82830000D01*
X78190000Y-85570000D01*
X71650000Y-85570000D01*
X71650000Y-82830000D01*
%TO.C,U1*%
X68735000Y-58140000D02*
X68735000Y-78580000D01*
X68735000Y-78580000D02*
X74035000Y-78580000D01*
X70385000Y-58140000D02*
X68735000Y-58140000D01*
X74035000Y-58140000D02*
X72385000Y-58140000D01*
X74035000Y-78580000D02*
X74035000Y-58140000D01*
X72385000Y-58140000D02*
G75*
G02*
X70385000Y-58140000I-1000000J0D01*
G01*
%TO.C,J6*%
X98020000Y-93820000D02*
X99400000Y-93820000D01*
X98020000Y-95200000D02*
X98020000Y-93820000D01*
X98020000Y-96470000D02*
X98020000Y-104200000D01*
X98020000Y-96470000D02*
X100780000Y-96470000D01*
X98020000Y-104200000D02*
X100780000Y-104200000D01*
X100780000Y-96470000D02*
X100780000Y-104200000D01*
%TO.C,J17*%
X159220000Y-87200000D02*
X160600000Y-87200000D01*
X159220000Y-88580000D02*
X159220000Y-87200000D01*
X159220000Y-89850000D02*
X159220000Y-97580000D01*
X159220000Y-89850000D02*
X161980000Y-89850000D01*
X159220000Y-97580000D02*
X161980000Y-97580000D01*
X161980000Y-89850000D02*
X161980000Y-97580000D01*
%TO.C,C3*%
X111780000Y-56860000D02*
X115020000Y-56860000D01*
X111780000Y-57008000D02*
X111780000Y-56860000D01*
X111780000Y-59100000D02*
X111780000Y-58952000D01*
X115020000Y-56860000D02*
X115020000Y-57008000D01*
X115020000Y-58952000D02*
X115020000Y-59100000D01*
X115020000Y-59100000D02*
X111780000Y-59100000D01*
%TO.C,J16*%
X149820000Y-87400000D02*
X151200000Y-87400000D01*
X149820000Y-88780000D02*
X149820000Y-87400000D01*
X149820000Y-90050000D02*
X149820000Y-97780000D01*
X149820000Y-90050000D02*
X152580000Y-90050000D01*
X149820000Y-97780000D02*
X152580000Y-97780000D01*
X152580000Y-90050000D02*
X152580000Y-97780000D01*
%TO.C,J13*%
X157400000Y-57840000D02*
X158780000Y-57840000D01*
X157400000Y-59220000D02*
X157400000Y-57840000D01*
X157400000Y-60490000D02*
X157400000Y-68220000D01*
X157400000Y-60490000D02*
X160160000Y-60490000D01*
X157400000Y-68220000D02*
X160160000Y-68220000D01*
X160160000Y-60490000D02*
X160160000Y-68220000D01*
%TO.C,SW1*%
X57290000Y-85540000D02*
X66110000Y-85540000D01*
X57290000Y-85850000D02*
X57290000Y-85540000D01*
X57290000Y-90060000D02*
X57290000Y-89750000D01*
X59200000Y-84840000D02*
X59700000Y-85340000D01*
X59700000Y-85340000D02*
X60200000Y-84840000D01*
X60200000Y-84840000D02*
X59200000Y-84840000D01*
X66110000Y-85540000D02*
X66110000Y-85850000D01*
X66110000Y-90060000D02*
X57290000Y-90060000D01*
X66110000Y-90060000D02*
X66110000Y-89750000D01*
%TO.C,C5*%
X79580000Y-88480000D02*
X82820000Y-88480000D01*
X79580000Y-88628000D02*
X79580000Y-88480000D01*
X79580000Y-90720000D02*
X79580000Y-90572000D01*
X82820000Y-88480000D02*
X82820000Y-88628000D01*
X82820000Y-90572000D02*
X82820000Y-90720000D01*
X82820000Y-90720000D02*
X79580000Y-90720000D01*
%TO.C,SW4*%
X68850000Y-102800000D02*
X68850000Y-104300000D01*
X70100000Y-106800000D02*
X74600000Y-106800000D01*
X74600000Y-100300000D02*
X70100000Y-100300000D01*
X75850000Y-104300000D02*
X75850000Y-102800000D01*
%TO.C,C8*%
X130785000Y-85590000D02*
X134025000Y-85590000D01*
X130785000Y-85738000D02*
X130785000Y-85590000D01*
X130785000Y-87830000D02*
X130785000Y-87682000D01*
X134025000Y-85590000D02*
X134025000Y-85738000D01*
X134025000Y-87682000D02*
X134025000Y-87830000D01*
X134025000Y-87830000D02*
X130785000Y-87830000D01*
%TO.C,J3*%
X110820000Y-64200000D02*
X112200000Y-64200000D01*
X110820000Y-65580000D02*
X110820000Y-64200000D01*
X110820000Y-66850000D02*
X110820000Y-74580000D01*
X110820000Y-66850000D02*
X113580000Y-66850000D01*
X110820000Y-74580000D02*
X113580000Y-74580000D01*
X113580000Y-66850000D02*
X113580000Y-74580000D01*
%TO.C,J1*%
X60020000Y-63220000D02*
X61400000Y-63220000D01*
X60020000Y-64600000D02*
X60020000Y-63220000D01*
X60020000Y-65870000D02*
X60020000Y-73600000D01*
X60020000Y-65870000D02*
X62780000Y-65870000D01*
X60020000Y-73600000D02*
X62780000Y-73600000D01*
X62780000Y-65870000D02*
X62780000Y-73600000D01*
%TO.C,C7*%
X114435000Y-85790000D02*
X117675000Y-85790000D01*
X114435000Y-85938000D02*
X114435000Y-85790000D01*
X114435000Y-88030000D02*
X114435000Y-87882000D01*
X117675000Y-85790000D02*
X117675000Y-85938000D01*
X117675000Y-87882000D02*
X117675000Y-88030000D01*
X117675000Y-88030000D02*
X114435000Y-88030000D01*
%TO.C,U7*%
X121945000Y-85500000D02*
X121945000Y-105940000D01*
X121945000Y-105940000D02*
X127245000Y-105940000D01*
X123595000Y-85500000D02*
X121945000Y-85500000D01*
X127245000Y-85500000D02*
X125595000Y-85500000D01*
X127245000Y-105940000D02*
X127245000Y-85500000D01*
X125595000Y-85500000D02*
G75*
G02*
X123595000Y-85500000I-1000000J0D01*
G01*
%TO.C,J14*%
X167000000Y-57840000D02*
X168380000Y-57840000D01*
X167000000Y-59220000D02*
X167000000Y-57840000D01*
X167000000Y-60490000D02*
X167000000Y-68220000D01*
X167000000Y-60490000D02*
X169760000Y-60490000D01*
X167000000Y-68220000D02*
X169760000Y-68220000D01*
X169760000Y-60490000D02*
X169760000Y-68220000D01*
%TO.C,SW3*%
X56890000Y-102340000D02*
X65710000Y-102340000D01*
X56890000Y-102650000D02*
X56890000Y-102340000D01*
X56890000Y-106860000D02*
X56890000Y-106550000D01*
X58800000Y-101640000D02*
X59300000Y-102140000D01*
X59300000Y-102140000D02*
X59800000Y-101640000D01*
X59800000Y-101640000D02*
X58800000Y-101640000D01*
X65710000Y-102340000D02*
X65710000Y-102650000D01*
X65710000Y-106860000D02*
X56890000Y-106860000D01*
X65710000Y-106860000D02*
X65710000Y-106550000D01*
%TO.C,C4*%
X129010000Y-57300000D02*
X132250000Y-57300000D01*
X129010000Y-57448000D02*
X129010000Y-57300000D01*
X129010000Y-59540000D02*
X129010000Y-59392000D01*
X132250000Y-57300000D02*
X132250000Y-57448000D01*
X132250000Y-59392000D02*
X132250000Y-59540000D01*
X132250000Y-59540000D02*
X129010000Y-59540000D01*
%TO.C,J4*%
X129200000Y-65040000D02*
X130580000Y-65040000D01*
X129200000Y-66420000D02*
X129200000Y-65040000D01*
X129200000Y-67690000D02*
X129200000Y-75420000D01*
X129200000Y-67690000D02*
X131960000Y-67690000D01*
X129200000Y-75420000D02*
X131960000Y-75420000D01*
X131960000Y-67690000D02*
X131960000Y-75420000D01*
%TO.C,J2*%
X77620000Y-67400000D02*
X79000000Y-67400000D01*
X77620000Y-68780000D02*
X77620000Y-67400000D01*
X77620000Y-70050000D02*
X77620000Y-77780000D01*
X77620000Y-70050000D02*
X80380000Y-70050000D01*
X77620000Y-77780000D02*
X80380000Y-77780000D01*
X80380000Y-70050000D02*
X80380000Y-77780000D01*
%TO.C,C6*%
X97830000Y-87080000D02*
X101070000Y-87080000D01*
X97830000Y-87228000D02*
X97830000Y-87080000D01*
X97830000Y-89320000D02*
X97830000Y-89172000D01*
X101070000Y-87080000D02*
X101070000Y-87228000D01*
X101070000Y-89172000D02*
X101070000Y-89320000D01*
X101070000Y-89320000D02*
X97830000Y-89320000D01*
%TO.C,J9*%
X60620000Y-78020000D02*
X62000000Y-78020000D01*
X60620000Y-79400000D02*
X60620000Y-78020000D01*
X60620000Y-80670000D02*
X60620000Y-80780000D01*
X60620000Y-80670000D02*
X63380000Y-80670000D01*
X60620000Y-80780000D02*
X63380000Y-80780000D01*
X63380000Y-80670000D02*
X63380000Y-80780000D01*
%TD*%
M02*
