M48
; DRILL file KiCad 10.0.4 date 2026-07-14T02:37:04
; FORMAT={-:-/ absolute / metric / decimal}
; #@! TF.CreationDate,2026-07-14T02:37:04+05:00
; #@! TF.GenerationSoftware,Kicad,Pcbnew,10.0.4
; #@! TF.FileFunction,Plated,1,2,PTH
FMAT,2
METRIC
; #@! TA.AperFunction,Plated,PTH,ViaDrill
T1C0.300
; #@! TA.AperFunction,Plated,PTH,ComponentDrill
T2C0.800
; #@! TA.AperFunction,Plated,PTH,ComponentDrill
T3C0.900
; #@! TA.AperFunction,Plated,PTH,ComponentDrill
T4C1.000
; #@! TA.AperFunction,Plated,PTH,ComponentDrill
T5C1.100
; #@! TA.AperFunction,Plated,PTH,ComponentDrill
T6C1.500
; #@! TA.AperFunction,Plated,PTH,ComponentDrill
T7C3.200
%
G90
G05
T1
X61.6Y-91.8
X85.8Y-122.2
X86.4Y-60.8
X86.6Y-70.2
X104.4Y-56.0
X116.928Y-74.272
X125.0Y-112.2
X127.4Y-76.6
X132.4Y-73.6
X141.8Y-69.8
X142.098Y-75.23
X147.8Y-70.8
X148.293Y-77.992
X151.2Y-56.6
X158.0Y-112.2
X158.466Y-71.366
X158.8Y-64.8
X164.6Y-92.06
X192.2Y-81.47
X192.4Y-79.4
X194.4Y-74.0
X195.6Y-80.0
X195.736Y-64.264
X197.6Y-74.0
X197.86Y-101.784
X201.8Y-84.2
X202.4Y-77.8
T2
X59.3Y-104.6
X59.7Y-87.8
X59.7Y-96.6
X60.7Y-59.0
X61.3Y-104.6
X61.7Y-87.8
X61.7Y-96.6
X63.2Y-59.0
X63.3Y-104.6
X63.7Y-87.8
X63.7Y-96.6
X67.575Y-59.47
X67.575Y-62.01
X67.575Y-64.55
X67.575Y-67.09
X67.575Y-69.63
X67.575Y-72.17
X67.575Y-74.71
X67.575Y-77.25
X71.11Y-94.16
X73.61Y-94.16
X75.195Y-59.47
X75.195Y-62.01
X75.195Y-64.55
X75.195Y-67.09
X75.195Y-69.63
X75.195Y-72.17
X75.195Y-74.71
X75.195Y-77.25
X77.795Y-79.0
X77.995Y-72.25
X78.09Y-96.13
X78.09Y-98.67
X78.09Y-101.21
X78.09Y-103.75
X78.09Y-106.29
X78.09Y-108.83
X78.09Y-111.37
X78.09Y-113.91
X78.195Y-66.05
X78.395Y-59.65
X85.71Y-96.13
X85.71Y-98.67
X85.71Y-101.21
X85.71Y-103.75
X85.71Y-106.29
X85.71Y-108.83
X85.71Y-111.37
X85.71Y-113.91
X87.955Y-79.0
X88.155Y-72.25
X88.355Y-66.05
X88.38Y-114.6
X88.555Y-59.65
X88.58Y-108.4
X88.78Y-102.2
X88.86Y-96.11
X98.1Y-58.4
X98.54Y-114.6
X98.74Y-108.4
X98.94Y-102.2
X99.02Y-96.11
X100.6Y-58.4
X104.4Y-58.66
X104.4Y-61.2
X104.4Y-63.74
X104.4Y-66.28
X104.4Y-68.82
X104.4Y-71.36
X104.4Y-73.9
X104.4Y-76.44
X112.02Y-58.66
X112.02Y-61.2
X112.02Y-63.74
X112.02Y-66.28
X112.02Y-68.82
X112.02Y-71.36
X112.02Y-73.9
X112.02Y-76.44
X115.35Y-92.0
X115.86Y-64.6
X115.86Y-70.8
X115.86Y-77.2
X116.11Y-95.93
X116.11Y-98.47
X116.11Y-101.01
X116.11Y-103.55
X116.11Y-106.09
X116.11Y-108.63
X116.11Y-111.17
X116.11Y-113.71
X116.18Y-58.6
X117.85Y-92.0
X122.84Y-90.8
X123.73Y-95.93
X123.73Y-98.47
X123.73Y-101.01
X123.73Y-103.55
X123.73Y-106.09
X123.73Y-108.63
X123.73Y-111.17
X123.73Y-113.71
X126.02Y-64.6
X126.02Y-70.8
X126.02Y-77.2
X126.34Y-58.6
X126.8Y-102.2
X126.8Y-108.2
X126.88Y-95.91
X127.0Y-114.2
X133.0Y-90.8
X136.78Y-67.0
X136.78Y-69.54
X136.78Y-72.08
X136.78Y-74.62
X136.78Y-77.16
X136.78Y-79.7
X136.78Y-82.24
X136.78Y-84.78
X136.78Y-87.32
X136.78Y-89.86
X136.96Y-102.2
X136.96Y-108.2
X137.04Y-95.91
X137.16Y-114.2
X137.3Y-58.8
X139.8Y-58.8
X144.4Y-67.0
X144.4Y-69.54
X144.4Y-72.08
X144.4Y-74.62
X144.4Y-77.16
X144.4Y-79.7
X144.4Y-82.24
X144.4Y-84.78
X144.4Y-87.32
X144.4Y-89.86
X148.5Y-59.0
X151.0Y-59.0
X153.29Y-94.18
X153.29Y-96.72
X153.29Y-99.26
X153.29Y-101.8
X153.29Y-104.34
X153.29Y-106.88
X153.29Y-109.42
X153.29Y-111.96
X153.92Y-60.8
X153.92Y-63.34
X153.92Y-65.88
X153.92Y-68.42
X153.92Y-70.96
X153.92Y-73.5
X153.92Y-76.04
X153.92Y-78.58
X155.7Y-87.2
X158.2Y-87.2
X160.91Y-94.18
X160.91Y-96.72
X160.91Y-99.26
X160.91Y-101.8
X160.91Y-104.34
X160.91Y-106.88
X160.91Y-109.42
X160.91Y-111.96
X161.54Y-60.8
X161.54Y-63.34
X161.54Y-65.88
X161.54Y-68.42
X161.54Y-70.96
X161.54Y-73.5
X161.54Y-76.04
X161.54Y-78.58
X164.06Y-94.16
X164.21Y-79.47
X164.38Y-100.85
X164.38Y-107.05
X164.41Y-67.07
X164.41Y-73.27
X164.42Y-113.25
X164.69Y-60.78
X174.22Y-94.16
X174.37Y-79.47
X174.54Y-100.85
X174.54Y-107.05
X174.57Y-67.07
X174.57Y-73.27
X174.58Y-113.25
X174.85Y-60.78
X185.7Y-59.6
X188.2Y-59.6
X192.12Y-59.8
X192.12Y-62.34
X192.12Y-64.88
X192.12Y-67.42
X192.12Y-69.96
X192.12Y-72.5
X192.12Y-75.04
X192.12Y-77.58
X192.92Y-93.07
X192.92Y-95.61
X192.92Y-98.15
X192.92Y-100.69
X192.92Y-103.23
X192.92Y-105.77
X192.92Y-108.31
X192.92Y-110.85
X195.7Y-85.8
X198.2Y-85.8
X199.74Y-59.8
X199.74Y-62.34
X199.74Y-64.88
X199.74Y-67.42
X199.74Y-69.96
X199.74Y-72.5
X199.74Y-75.04
X199.74Y-77.58
X200.54Y-93.07
X200.54Y-95.61
X200.54Y-98.15
X200.54Y-100.69
X200.54Y-103.23
X200.54Y-105.77
X200.54Y-108.31
X200.54Y-110.85
X202.92Y-66.8
X202.92Y-79.0
X203.04Y-73.0
X203.12Y-60.4
X203.72Y-93.47
X203.72Y-100.27
X203.72Y-106.67
X203.92Y-113.27
X213.08Y-66.8
X213.08Y-79.0
X213.2Y-73.0
X213.28Y-60.4
X213.88Y-93.47
X213.88Y-100.27
X213.88Y-106.67
X214.08Y-113.27
T3
X84.86Y-85.29
X87.4Y-85.29
X91.995Y-71.05
X91.995Y-82.0
X92.055Y-61.25
X94.535Y-71.05
X94.535Y-82.0
X94.595Y-61.25
X95.38Y-121.2
X97.92Y-121.2
X102.38Y-106.6
X102.58Y-116.2
X102.78Y-97.4
X104.92Y-106.6
X105.12Y-116.2
X105.32Y-97.4
X122.66Y-83.8
X125.2Y-83.8
X129.66Y-80.4
X129.86Y-60.4
X130.06Y-70.2
X132.2Y-80.4
X132.4Y-60.4
X132.6Y-70.2
X134.0Y-121.0
X136.54Y-121.0
X141.22Y-108.2
X141.42Y-98.6
X141.62Y-117.8
X143.76Y-108.2
X143.96Y-98.6
X144.16Y-117.8
X171.18Y-119.85
X171.21Y-86.27
X173.72Y-119.85
X173.75Y-86.27
X178.18Y-95.65
X178.38Y-105.05
X178.38Y-114.25
X178.61Y-72.07
X178.61Y-82.07
X178.87Y-62.26
X180.72Y-95.65
X180.92Y-105.05
X180.92Y-114.25
X181.15Y-72.07
X181.15Y-82.07
X181.41Y-62.26
X210.78Y-120.07
X210.92Y-85.4
X213.32Y-120.07
X213.46Y-85.4
X217.92Y-62.0
X217.92Y-71.4
X217.92Y-81.0
X217.92Y-105.07
X217.92Y-114.67
X217.98Y-94.86
X220.46Y-62.0
X220.46Y-71.4
X220.46Y-81.0
X220.46Y-105.07
X220.46Y-114.67
X220.52Y-94.86
T4
X61.4Y-64.6
X61.4Y-67.14
X61.4Y-69.68
X61.4Y-72.22
X62.0Y-79.4
X71.78Y-102.0
X71.78Y-104.54
X71.78Y-107.08
X71.78Y-109.62
X80.2Y-88.2
X99.395Y-64.78
X99.395Y-67.32
X99.395Y-69.86
X99.395Y-72.4
X110.2Y-101.8
X110.2Y-104.34
X110.2Y-106.88
X110.2Y-109.42
X143.8Y-58.0
X143.8Y-60.54
X149.0Y-100.4
X149.0Y-102.94
X149.0Y-105.48
X149.0Y-108.02
X149.52Y-66.59
X149.52Y-69.13
X149.52Y-71.67
X149.52Y-74.21
X186.46Y-99.85
X186.46Y-102.39
X186.46Y-104.93
X186.46Y-107.47
X186.6Y-65.86
X186.6Y-68.4
X186.6Y-70.94
X186.6Y-73.48
T5
X110.1Y-81.7
X110.1Y-86.2
X116.6Y-81.7
X116.6Y-86.2
T6
X57.2Y-104.6
X57.6Y-87.8
X57.6Y-96.6
X65.4Y-104.6
X65.8Y-87.8
X65.8Y-96.6
T7
X55.8Y-123.8
X56.4Y-53.6
X226.6Y-123.4
X227.2Y-54.6
M30
