%TF.GenerationSoftware,KiCad,Pcbnew,10.0.4*%
%TF.CreationDate,2026-07-14T02:36:32+05:00*%
%TF.ProjectId,USR_32bit_Full,5553525f-3332-4626-9974-5f46756c6c2e,rev?*%
%TF.SameCoordinates,Original*%
%TF.FileFunction,Soldermask,Top*%
%TF.FilePolarity,Negative*%
%FSLAX46Y46*%
G04 Gerber Fmt 4.6, Leading zero omitted, Abs format (unit mm)*
G04 Created by KiCad (PCBNEW 10.0.4) date 2026-07-14 02:36:32*
%MOMM*%
%LPD*%
G01*
G04 APERTURE LIST*
G04 Aperture macros list*
%AMRoundRect*
0 Rectangle with rounded corners*
0 $1 Rounding radius*
0 $2 $3 $4 $5 $6 $7 $8 $9 X,Y pos of 4 corners*
0 Add a 4 corners polygon primitive as box body*
4,1,4,$2,$3,$4,$5,$6,$7,$8,$9,$2,$3,0*
0 Add four circle primitives for the rounded corners*
1,1,$1+$1,$2,$3*
1,1,$1+$1,$4,$5*
1,1,$1+$1,$6,$7*
1,1,$1+$1,$8,$9*
0 Add four rect primitives between the rounded corners*
20,1,$1+$1,$2,$3,$4,$5,0*
20,1,$1+$1,$4,$5,$6,$7,0*
20,1,$1+$1,$6,$7,$8,$9,0*
20,1,$1+$1,$8,$9,$2,$3,0*%
G04 Aperture macros list end*
%ADD10R,1.700000X1.700000*%
%ADD11C,1.700000*%
%ADD12RoundRect,0.250000X-0.550000X-0.550000X0.550000X-0.550000X0.550000X0.550000X-0.550000X0.550000X0*%
%ADD13C,1.600000*%
%ADD14R,1.800000X1.800000*%
%ADD15C,1.800000*%
%ADD16C,6.400000*%
%ADD17O,2.200000X3.500000*%
%ADD18R,1.500000X2.500000*%
%ADD19O,1.500000X2.500000*%
%ADD20C,2.000000*%
G04 APERTURE END LIST*
D10*
%TO.C,J7*%
X149000000Y-100400000D03*
D11*
X149000000Y-102940000D03*
X149000000Y-105480000D03*
X149000000Y-108020000D03*
%TD*%
D12*
%TO.C,U6*%
X116110000Y-95930000D03*
D13*
X116110000Y-98470000D03*
X116110000Y-101010000D03*
X116110000Y-103550000D03*
X116110000Y-106090000D03*
X116110000Y-108630000D03*
X116110000Y-111170000D03*
X116110000Y-113710000D03*
X123730000Y-113710000D03*
X123730000Y-111170000D03*
X123730000Y-108630000D03*
X123730000Y-106090000D03*
X123730000Y-103550000D03*
X123730000Y-101010000D03*
X123730000Y-98470000D03*
X123730000Y-95930000D03*
%TD*%
D14*
%TO.C,D23*%
X141620000Y-117800000D03*
D15*
X144160000Y-117800000D03*
%TD*%
D16*
%TO.C,H3*%
X226600000Y-123400000D03*
%TD*%
D14*
%TO.C,D14*%
X217920000Y-71400000D03*
D15*
X220460000Y-71400000D03*
%TD*%
D13*
%TO.C,R9*%
X164690000Y-60780000D03*
X174850000Y-60780000D03*
%TD*%
D12*
%TO.C,U2*%
X104400000Y-58660000D03*
D13*
X104400000Y-61200000D03*
X104400000Y-63740000D03*
X104400000Y-66280000D03*
X104400000Y-68820000D03*
X104400000Y-71360000D03*
X104400000Y-73900000D03*
X104400000Y-76440000D03*
X112020000Y-76440000D03*
X112020000Y-73900000D03*
X112020000Y-71360000D03*
X112020000Y-68820000D03*
X112020000Y-66280000D03*
X112020000Y-63740000D03*
X112020000Y-61200000D03*
X112020000Y-58660000D03*
%TD*%
%TO.C,R2*%
X78195000Y-66050000D03*
X88355000Y-66050000D03*
%TD*%
D14*
%TO.C,D5*%
X129860000Y-60400000D03*
D15*
X132400000Y-60400000D03*
%TD*%
D13*
%TO.C,R4*%
X77795000Y-79000000D03*
X87955000Y-79000000D03*
%TD*%
D14*
%TO.C,D12*%
X171210000Y-86270000D03*
D15*
X173750000Y-86270000D03*
%TD*%
D14*
%TO.C,D10*%
X178610000Y-72070000D03*
D15*
X181150000Y-72070000D03*
%TD*%
D10*
%TO.C,J5*%
X71780000Y-102000000D03*
D11*
X71780000Y-104540000D03*
X71780000Y-107080000D03*
X71780000Y-109620000D03*
%TD*%
D12*
%TO.C,U3*%
X153920000Y-60800000D03*
D13*
X153920000Y-63340000D03*
X153920000Y-65880000D03*
X153920000Y-68420000D03*
X153920000Y-70960000D03*
X153920000Y-73500000D03*
X153920000Y-76040000D03*
X153920000Y-78580000D03*
X161540000Y-78580000D03*
X161540000Y-76040000D03*
X161540000Y-73500000D03*
X161540000Y-70960000D03*
X161540000Y-68420000D03*
X161540000Y-65880000D03*
X161540000Y-63340000D03*
X161540000Y-60800000D03*
%TD*%
%TO.C,C2*%
X98100000Y-58400000D03*
X100600000Y-58400000D03*
%TD*%
%TO.C,R31*%
X203720000Y-106670000D03*
X213880000Y-106670000D03*
%TD*%
D14*
%TO.C,D22*%
X141220000Y-108200000D03*
D15*
X143760000Y-108200000D03*
%TD*%
D14*
%TO.C,D24*%
X134000000Y-121000000D03*
D15*
X136540000Y-121000000D03*
%TD*%
D10*
%TO.C,J10*%
X80200000Y-88200000D03*
%TD*%
D13*
%TO.C,R18*%
X88780000Y-102200000D03*
X98940000Y-102200000D03*
%TD*%
D14*
%TO.C,D27*%
X178380000Y-114250000D03*
D15*
X180920000Y-114250000D03*
%TD*%
D14*
%TO.C,D21*%
X141420000Y-98600000D03*
D15*
X143960000Y-98600000D03*
%TD*%
D14*
%TO.C,D8*%
X122660000Y-83800000D03*
D15*
X125200000Y-83800000D03*
%TD*%
D12*
%TO.C,U9*%
X136780000Y-67000000D03*
D13*
X136780000Y-69540000D03*
X136780000Y-72080000D03*
X136780000Y-74620000D03*
X136780000Y-77160000D03*
X136780000Y-79700000D03*
X136780000Y-82240000D03*
X136780000Y-84780000D03*
X136780000Y-87320000D03*
X136780000Y-89860000D03*
X144400000Y-89860000D03*
X144400000Y-87320000D03*
X144400000Y-84780000D03*
X144400000Y-82240000D03*
X144400000Y-79700000D03*
X144400000Y-77160000D03*
X144400000Y-74620000D03*
X144400000Y-72080000D03*
X144400000Y-69540000D03*
X144400000Y-67000000D03*
%TD*%
D10*
%TO.C,J11*%
X143800000Y-58000000D03*
D11*
X143800000Y-60540000D03*
%TD*%
D14*
%TO.C,D6*%
X130060000Y-70200000D03*
D15*
X132600000Y-70200000D03*
%TD*%
D14*
%TO.C,D11*%
X178610000Y-82070000D03*
D15*
X181150000Y-82070000D03*
%TD*%
D13*
%TO.C,C1*%
X60700000Y-59000000D03*
X63200000Y-59000000D03*
%TD*%
D12*
%TO.C,U8*%
X192920000Y-93070000D03*
D13*
X192920000Y-95610000D03*
X192920000Y-98150000D03*
X192920000Y-100690000D03*
X192920000Y-103230000D03*
X192920000Y-105770000D03*
X192920000Y-108310000D03*
X192920000Y-110850000D03*
X200540000Y-110850000D03*
X200540000Y-108310000D03*
X200540000Y-105770000D03*
X200540000Y-103230000D03*
X200540000Y-100690000D03*
X200540000Y-98150000D03*
X200540000Y-95610000D03*
X200540000Y-93070000D03*
%TD*%
%TO.C,R8*%
X115860000Y-77200000D03*
X126020000Y-77200000D03*
%TD*%
%TO.C,R11*%
X164410000Y-73270000D03*
X174570000Y-73270000D03*
%TD*%
%TO.C,R15*%
X203040000Y-73000000D03*
X213200000Y-73000000D03*
%TD*%
%TO.C,R13*%
X203120000Y-60400000D03*
X213280000Y-60400000D03*
%TD*%
D14*
%TO.C,D15*%
X217920000Y-81000000D03*
D15*
X220460000Y-81000000D03*
%TD*%
D13*
%TO.C,R24*%
X127000000Y-114200000D03*
X137160000Y-114200000D03*
%TD*%
%TO.C,R10*%
X164410000Y-67070000D03*
X174570000Y-67070000D03*
%TD*%
D14*
%TO.C,D29*%
X217980000Y-94860000D03*
D15*
X220520000Y-94860000D03*
%TD*%
D13*
%TO.C,R27*%
X164380000Y-107050000D03*
X174540000Y-107050000D03*
%TD*%
D12*
%TO.C,U5*%
X78090000Y-96130000D03*
D13*
X78090000Y-98670000D03*
X78090000Y-101210000D03*
X78090000Y-103750000D03*
X78090000Y-106290000D03*
X78090000Y-108830000D03*
X78090000Y-111370000D03*
X78090000Y-113910000D03*
X85710000Y-113910000D03*
X85710000Y-111370000D03*
X85710000Y-108830000D03*
X85710000Y-106290000D03*
X85710000Y-103750000D03*
X85710000Y-101210000D03*
X85710000Y-98670000D03*
X85710000Y-96130000D03*
%TD*%
%TO.C,R23*%
X126800000Y-108200000D03*
X136960000Y-108200000D03*
%TD*%
D12*
%TO.C,U4*%
X192120000Y-59800000D03*
D13*
X192120000Y-62340000D03*
X192120000Y-64880000D03*
X192120000Y-67420000D03*
X192120000Y-69960000D03*
X192120000Y-72500000D03*
X192120000Y-75040000D03*
X192120000Y-77580000D03*
X199740000Y-77580000D03*
X199740000Y-75040000D03*
X199740000Y-72500000D03*
X199740000Y-69960000D03*
X199740000Y-67420000D03*
X199740000Y-64880000D03*
X199740000Y-62340000D03*
X199740000Y-59800000D03*
%TD*%
D16*
%TO.C,H4*%
X55800000Y-123800000D03*
%TD*%
D13*
%TO.C,C9*%
X137300000Y-58800000D03*
X139800000Y-58800000D03*
%TD*%
%TO.C,R21*%
X126880000Y-95910000D03*
X137040000Y-95910000D03*
%TD*%
%TO.C,R26*%
X164380000Y-100850000D03*
X174540000Y-100850000D03*
%TD*%
D14*
%TO.C,D26*%
X178380000Y-105050000D03*
D15*
X180920000Y-105050000D03*
%TD*%
D13*
%TO.C,R6*%
X115860000Y-64600000D03*
X126020000Y-64600000D03*
%TD*%
%TO.C,R25*%
X164060000Y-94160000D03*
X174220000Y-94160000D03*
%TD*%
D14*
%TO.C,D9*%
X178870000Y-62260000D03*
D15*
X181410000Y-62260000D03*
%TD*%
D16*
%TO.C,H1*%
X56400000Y-53600000D03*
%TD*%
D17*
%TO.C,SW2*%
X57600000Y-96600000D03*
X65800000Y-96600000D03*
D18*
X59700000Y-96600000D03*
D19*
X61700000Y-96600000D03*
X63700000Y-96600000D03*
%TD*%
D13*
%TO.C,R17*%
X88860000Y-96110000D03*
X99020000Y-96110000D03*
%TD*%
D14*
%TO.C,D16*%
X210920000Y-85400000D03*
D15*
X213460000Y-85400000D03*
%TD*%
D10*
%TO.C,J8*%
X186460000Y-99850000D03*
D11*
X186460000Y-102390000D03*
X186460000Y-104930000D03*
X186460000Y-107470000D03*
%TD*%
D13*
%TO.C,R16*%
X202920000Y-79000000D03*
X213080000Y-79000000D03*
%TD*%
%TO.C,R33*%
X122840000Y-90800000D03*
X133000000Y-90800000D03*
%TD*%
%TO.C,R32*%
X203920000Y-113270000D03*
X214080000Y-113270000D03*
%TD*%
%TO.C,R12*%
X164210000Y-79470000D03*
X174370000Y-79470000D03*
%TD*%
D12*
%TO.C,U1*%
X67575000Y-59470000D03*
D13*
X67575000Y-62010000D03*
X67575000Y-64550000D03*
X67575000Y-67090000D03*
X67575000Y-69630000D03*
X67575000Y-72170000D03*
X67575000Y-74710000D03*
X67575000Y-77250000D03*
X75195000Y-77250000D03*
X75195000Y-74710000D03*
X75195000Y-72170000D03*
X75195000Y-69630000D03*
X75195000Y-67090000D03*
X75195000Y-64550000D03*
X75195000Y-62010000D03*
X75195000Y-59470000D03*
%TD*%
D14*
%TO.C,D4*%
X84860000Y-85290000D03*
D15*
X87400000Y-85290000D03*
%TD*%
D16*
%TO.C,H2*%
X227200000Y-54600000D03*
%TD*%
D13*
%TO.C,R5*%
X116180000Y-58600000D03*
X126340000Y-58600000D03*
%TD*%
D10*
%TO.C,J6*%
X110200000Y-101800000D03*
D11*
X110200000Y-104340000D03*
X110200000Y-106880000D03*
X110200000Y-109420000D03*
%TD*%
D14*
%TO.C,D31*%
X217920000Y-114670000D03*
D15*
X220460000Y-114670000D03*
%TD*%
D14*
%TO.C,D2*%
X91995000Y-71050000D03*
D15*
X94535000Y-71050000D03*
%TD*%
D14*
%TO.C,D19*%
X102580000Y-116200000D03*
D15*
X105120000Y-116200000D03*
%TD*%
D14*
%TO.C,D28*%
X171180000Y-119850000D03*
D15*
X173720000Y-119850000D03*
%TD*%
D13*
%TO.C,C3*%
X148500000Y-59000000D03*
X151000000Y-59000000D03*
%TD*%
D14*
%TO.C,D32*%
X210780000Y-120070000D03*
D15*
X213320000Y-120070000D03*
%TD*%
D13*
%TO.C,R30*%
X203720000Y-100270000D03*
X213880000Y-100270000D03*
%TD*%
D17*
%TO.C,SW1*%
X57600000Y-87800000D03*
X65800000Y-87800000D03*
D18*
X59700000Y-87800000D03*
D19*
X61700000Y-87800000D03*
X63700000Y-87800000D03*
%TD*%
D13*
%TO.C,C5*%
X71110000Y-94160000D03*
X73610000Y-94160000D03*
%TD*%
%TO.C,R3*%
X77995000Y-72250000D03*
X88155000Y-72250000D03*
%TD*%
D14*
%TO.C,D3*%
X91995000Y-82000000D03*
D15*
X94535000Y-82000000D03*
%TD*%
D14*
%TO.C,D25*%
X178180000Y-95650000D03*
D15*
X180720000Y-95650000D03*
%TD*%
D20*
%TO.C,SW4*%
X110100000Y-81700000D03*
X116600000Y-81700000D03*
X110100000Y-86200000D03*
X116600000Y-86200000D03*
%TD*%
D13*
%TO.C,C8*%
X195700000Y-85800000D03*
X198200000Y-85800000D03*
%TD*%
D14*
%TO.C,D30*%
X217920000Y-105070000D03*
D15*
X220460000Y-105070000D03*
%TD*%
D10*
%TO.C,J3*%
X149520000Y-66590000D03*
D11*
X149520000Y-69130000D03*
X149520000Y-71670000D03*
X149520000Y-74210000D03*
%TD*%
D10*
%TO.C,J1*%
X61400000Y-64600000D03*
D11*
X61400000Y-67140000D03*
X61400000Y-69680000D03*
X61400000Y-72220000D03*
%TD*%
D13*
%TO.C,C7*%
X155700000Y-87200000D03*
X158200000Y-87200000D03*
%TD*%
D12*
%TO.C,U7*%
X153290000Y-94180000D03*
D13*
X153290000Y-96720000D03*
X153290000Y-99260000D03*
X153290000Y-101800000D03*
X153290000Y-104340000D03*
X153290000Y-106880000D03*
X153290000Y-109420000D03*
X153290000Y-111960000D03*
X160910000Y-111960000D03*
X160910000Y-109420000D03*
X160910000Y-106880000D03*
X160910000Y-104340000D03*
X160910000Y-101800000D03*
X160910000Y-99260000D03*
X160910000Y-96720000D03*
X160910000Y-94180000D03*
%TD*%
D14*
%TO.C,D7*%
X129660000Y-80400000D03*
D15*
X132200000Y-80400000D03*
%TD*%
D13*
%TO.C,R20*%
X88380000Y-114600000D03*
X98540000Y-114600000D03*
%TD*%
%TO.C,R22*%
X126800000Y-102200000D03*
X136960000Y-102200000D03*
%TD*%
D17*
%TO.C,SW3*%
X57200000Y-104600000D03*
X65400000Y-104600000D03*
D18*
X59300000Y-104600000D03*
D19*
X61300000Y-104600000D03*
X63300000Y-104600000D03*
%TD*%
D13*
%TO.C,C4*%
X185700000Y-59600000D03*
X188200000Y-59600000D03*
%TD*%
%TO.C,R14*%
X202920000Y-66800000D03*
X213080000Y-66800000D03*
%TD*%
%TO.C,R1*%
X78395000Y-59650000D03*
X88555000Y-59650000D03*
%TD*%
D14*
%TO.C,D13*%
X217920000Y-62000000D03*
D15*
X220460000Y-62000000D03*
%TD*%
D14*
%TO.C,D18*%
X102380000Y-106600000D03*
D15*
X104920000Y-106600000D03*
%TD*%
D13*
%TO.C,R29*%
X203720000Y-93470000D03*
X213880000Y-93470000D03*
%TD*%
%TO.C,R7*%
X115860000Y-70800000D03*
X126020000Y-70800000D03*
%TD*%
%TO.C,R28*%
X164420000Y-113250000D03*
X174580000Y-113250000D03*
%TD*%
D10*
%TO.C,J4*%
X186600000Y-65860000D03*
D11*
X186600000Y-68400000D03*
X186600000Y-70940000D03*
X186600000Y-73480000D03*
%TD*%
D14*
%TO.C,D20*%
X95380000Y-121200000D03*
D15*
X97920000Y-121200000D03*
%TD*%
D13*
%TO.C,R19*%
X88580000Y-108400000D03*
X98740000Y-108400000D03*
%TD*%
D14*
%TO.C,D1*%
X92055000Y-61250000D03*
D15*
X94595000Y-61250000D03*
%TD*%
D14*
%TO.C,D17*%
X102780000Y-97400000D03*
D15*
X105320000Y-97400000D03*
%TD*%
D10*
%TO.C,J2*%
X99395000Y-64780000D03*
D11*
X99395000Y-67320000D03*
X99395000Y-69860000D03*
X99395000Y-72400000D03*
%TD*%
D13*
%TO.C,C6*%
X115350000Y-92000000D03*
X117850000Y-92000000D03*
%TD*%
D10*
%TO.C,J9*%
X62000000Y-79400000D03*
%TD*%
M02*
