%TF.GenerationSoftware,KiCad,Pcbnew,10.0.4*%
%TF.CreationDate,2026-07-14T02:36:32+05:00*%
%TF.ProjectId,USR_32bit_Full,5553525f-3332-4626-9974-5f46756c6c2e,rev?*%
%TF.SameCoordinates,Original*%
%TF.FileFunction,Legend,Top*%
%TF.FilePolarity,Positive*%
%FSLAX46Y46*%
G04 Gerber Fmt 4.6, Leading zero omitted, Abs format (unit mm)*
G04 Created by KiCad (PCBNEW 10.0.4) date 2026-07-14 02:36:32*
%MOMM*%
%LPD*%
G01*
G04 APERTURE LIST*
%ADD10C,0.300000*%
%ADD11C,0.150000*%
%ADD12C,0.120000*%
G04 APERTURE END LIST*
D10*
X184554510Y-125400828D02*
X184554510Y-123900828D01*
X184554510Y-123900828D02*
X185411653Y-125400828D01*
X185411653Y-125400828D02*
X185411653Y-123900828D01*
X186768797Y-125400828D02*
X186768797Y-124615114D01*
X186768797Y-124615114D02*
X186697368Y-124472257D01*
X186697368Y-124472257D02*
X186554511Y-124400828D01*
X186554511Y-124400828D02*
X186268797Y-124400828D01*
X186268797Y-124400828D02*
X186125939Y-124472257D01*
X186768797Y-125329400D02*
X186625939Y-125400828D01*
X186625939Y-125400828D02*
X186268797Y-125400828D01*
X186268797Y-125400828D02*
X186125939Y-125329400D01*
X186125939Y-125329400D02*
X186054511Y-125186542D01*
X186054511Y-125186542D02*
X186054511Y-125043685D01*
X186054511Y-125043685D02*
X186125939Y-124900828D01*
X186125939Y-124900828D02*
X186268797Y-124829400D01*
X186268797Y-124829400D02*
X186625939Y-124829400D01*
X186625939Y-124829400D02*
X186768797Y-124757971D01*
X187268797Y-124400828D02*
X187840225Y-124400828D01*
X187483082Y-123900828D02*
X187483082Y-125186542D01*
X187483082Y-125186542D02*
X187554511Y-125329400D01*
X187554511Y-125329400D02*
X187697368Y-125400828D01*
X187697368Y-125400828D02*
X187840225Y-125400828D01*
X188983083Y-125400828D02*
X188983083Y-124615114D01*
X188983083Y-124615114D02*
X188911654Y-124472257D01*
X188911654Y-124472257D02*
X188768797Y-124400828D01*
X188768797Y-124400828D02*
X188483083Y-124400828D01*
X188483083Y-124400828D02*
X188340225Y-124472257D01*
X188983083Y-125329400D02*
X188840225Y-125400828D01*
X188840225Y-125400828D02*
X188483083Y-125400828D01*
X188483083Y-125400828D02*
X188340225Y-125329400D01*
X188340225Y-125329400D02*
X188268797Y-125186542D01*
X188268797Y-125186542D02*
X188268797Y-125043685D01*
X188268797Y-125043685D02*
X188340225Y-124900828D01*
X188340225Y-124900828D02*
X188483083Y-124829400D01*
X188483083Y-124829400D02*
X188840225Y-124829400D01*
X188840225Y-124829400D02*
X188983083Y-124757971D01*
X189625940Y-125329400D02*
X189768797Y-125400828D01*
X189768797Y-125400828D02*
X190054511Y-125400828D01*
X190054511Y-125400828D02*
X190197368Y-125329400D01*
X190197368Y-125329400D02*
X190268797Y-125186542D01*
X190268797Y-125186542D02*
X190268797Y-125115114D01*
X190268797Y-125115114D02*
X190197368Y-124972257D01*
X190197368Y-124972257D02*
X190054511Y-124900828D01*
X190054511Y-124900828D02*
X189840226Y-124900828D01*
X189840226Y-124900828D02*
X189697368Y-124829400D01*
X189697368Y-124829400D02*
X189625940Y-124686542D01*
X189625940Y-124686542D02*
X189625940Y-124615114D01*
X189625940Y-124615114D02*
X189697368Y-124472257D01*
X189697368Y-124472257D02*
X189840226Y-124400828D01*
X189840226Y-124400828D02*
X190054511Y-124400828D01*
X190054511Y-124400828D02*
X190197368Y-124472257D01*
X190911654Y-125400828D02*
X190911654Y-123900828D01*
X191554512Y-125400828D02*
X191554512Y-124615114D01*
X191554512Y-124615114D02*
X191483083Y-124472257D01*
X191483083Y-124472257D02*
X191340226Y-124400828D01*
X191340226Y-124400828D02*
X191125940Y-124400828D01*
X191125940Y-124400828D02*
X190983083Y-124472257D01*
X190983083Y-124472257D02*
X190911654Y-124543685D01*
X192911655Y-125400828D02*
X192911655Y-124615114D01*
X192911655Y-124615114D02*
X192840226Y-124472257D01*
X192840226Y-124472257D02*
X192697369Y-124400828D01*
X192697369Y-124400828D02*
X192411655Y-124400828D01*
X192411655Y-124400828D02*
X192268797Y-124472257D01*
X192911655Y-125329400D02*
X192768797Y-125400828D01*
X192768797Y-125400828D02*
X192411655Y-125400828D01*
X192411655Y-125400828D02*
X192268797Y-125329400D01*
X192268797Y-125329400D02*
X192197369Y-125186542D01*
X192197369Y-125186542D02*
X192197369Y-125043685D01*
X192197369Y-125043685D02*
X192268797Y-124900828D01*
X192268797Y-124900828D02*
X192411655Y-124829400D01*
X192411655Y-124829400D02*
X192768797Y-124829400D01*
X192768797Y-124829400D02*
X192911655Y-124757971D01*
X194768797Y-124615114D02*
X195268797Y-124615114D01*
X195483083Y-125400828D02*
X194768797Y-125400828D01*
X194768797Y-125400828D02*
X194768797Y-123900828D01*
X194768797Y-123900828D02*
X195483083Y-123900828D01*
X196125940Y-125400828D02*
X196125940Y-124400828D01*
X196125940Y-124543685D02*
X196197369Y-124472257D01*
X196197369Y-124472257D02*
X196340226Y-124400828D01*
X196340226Y-124400828D02*
X196554512Y-124400828D01*
X196554512Y-124400828D02*
X196697369Y-124472257D01*
X196697369Y-124472257D02*
X196768798Y-124615114D01*
X196768798Y-124615114D02*
X196768798Y-125400828D01*
X196768798Y-124615114D02*
X196840226Y-124472257D01*
X196840226Y-124472257D02*
X196983083Y-124400828D01*
X196983083Y-124400828D02*
X197197369Y-124400828D01*
X197197369Y-124400828D02*
X197340226Y-124472257D01*
X197340226Y-124472257D02*
X197411655Y-124615114D01*
X197411655Y-124615114D02*
X197411655Y-125400828D01*
X198768798Y-125400828D02*
X198768798Y-124615114D01*
X198768798Y-124615114D02*
X198697369Y-124472257D01*
X198697369Y-124472257D02*
X198554512Y-124400828D01*
X198554512Y-124400828D02*
X198268798Y-124400828D01*
X198268798Y-124400828D02*
X198125940Y-124472257D01*
X198768798Y-125329400D02*
X198625940Y-125400828D01*
X198625940Y-125400828D02*
X198268798Y-125400828D01*
X198268798Y-125400828D02*
X198125940Y-125329400D01*
X198125940Y-125329400D02*
X198054512Y-125186542D01*
X198054512Y-125186542D02*
X198054512Y-125043685D01*
X198054512Y-125043685D02*
X198125940Y-124900828D01*
X198125940Y-124900828D02*
X198268798Y-124829400D01*
X198268798Y-124829400D02*
X198625940Y-124829400D01*
X198625940Y-124829400D02*
X198768798Y-124757971D01*
X199483083Y-124400828D02*
X199483083Y-125400828D01*
X199483083Y-124543685D02*
X199554512Y-124472257D01*
X199554512Y-124472257D02*
X199697369Y-124400828D01*
X199697369Y-124400828D02*
X199911655Y-124400828D01*
X199911655Y-124400828D02*
X200054512Y-124472257D01*
X200054512Y-124472257D02*
X200125941Y-124615114D01*
X200125941Y-124615114D02*
X200125941Y-125400828D01*
X201983083Y-123900828D02*
X201983083Y-125115114D01*
X201983083Y-125115114D02*
X202054512Y-125257971D01*
X202054512Y-125257971D02*
X202125941Y-125329400D01*
X202125941Y-125329400D02*
X202268798Y-125400828D01*
X202268798Y-125400828D02*
X202554512Y-125400828D01*
X202554512Y-125400828D02*
X202697369Y-125329400D01*
X202697369Y-125329400D02*
X202768798Y-125257971D01*
X202768798Y-125257971D02*
X202840226Y-125115114D01*
X202840226Y-125115114D02*
X202840226Y-123900828D01*
X203554512Y-125400828D02*
X203554512Y-124400828D01*
X203554512Y-124543685D02*
X203625941Y-124472257D01*
X203625941Y-124472257D02*
X203768798Y-124400828D01*
X203768798Y-124400828D02*
X203983084Y-124400828D01*
X203983084Y-124400828D02*
X204125941Y-124472257D01*
X204125941Y-124472257D02*
X204197370Y-124615114D01*
X204197370Y-124615114D02*
X204197370Y-125400828D01*
X204197370Y-124615114D02*
X204268798Y-124472257D01*
X204268798Y-124472257D02*
X204411655Y-124400828D01*
X204411655Y-124400828D02*
X204625941Y-124400828D01*
X204625941Y-124400828D02*
X204768798Y-124472257D01*
X204768798Y-124472257D02*
X204840227Y-124615114D01*
X204840227Y-124615114D02*
X204840227Y-125400828D01*
X206197370Y-125400828D02*
X206197370Y-124615114D01*
X206197370Y-124615114D02*
X206125941Y-124472257D01*
X206125941Y-124472257D02*
X205983084Y-124400828D01*
X205983084Y-124400828D02*
X205697370Y-124400828D01*
X205697370Y-124400828D02*
X205554512Y-124472257D01*
X206197370Y-125329400D02*
X206054512Y-125400828D01*
X206054512Y-125400828D02*
X205697370Y-125400828D01*
X205697370Y-125400828D02*
X205554512Y-125329400D01*
X205554512Y-125329400D02*
X205483084Y-125186542D01*
X205483084Y-125186542D02*
X205483084Y-125043685D01*
X205483084Y-125043685D02*
X205554512Y-124900828D01*
X205554512Y-124900828D02*
X205697370Y-124829400D01*
X205697370Y-124829400D02*
X206054512Y-124829400D01*
X206054512Y-124829400D02*
X206197370Y-124757971D01*
X206911655Y-125400828D02*
X206911655Y-124400828D01*
X206911655Y-124686542D02*
X206983084Y-124543685D01*
X206983084Y-124543685D02*
X207054513Y-124472257D01*
X207054513Y-124472257D02*
X207197370Y-124400828D01*
X207197370Y-124400828D02*
X207340227Y-124400828D01*
D11*
X148666666Y-97474819D02*
X148666666Y-98189104D01*
X148666666Y-98189104D02*
X148619047Y-98331961D01*
X148619047Y-98331961D02*
X148523809Y-98427200D01*
X148523809Y-98427200D02*
X148380952Y-98474819D01*
X148380952Y-98474819D02*
X148285714Y-98474819D01*
X149047619Y-97474819D02*
X149714285Y-97474819D01*
X149714285Y-97474819D02*
X149285714Y-98474819D01*
X119158095Y-93054819D02*
X119158095Y-93864342D01*
X119158095Y-93864342D02*
X119205714Y-93959580D01*
X119205714Y-93959580D02*
X119253333Y-94007200D01*
X119253333Y-94007200D02*
X119348571Y-94054819D01*
X119348571Y-94054819D02*
X119539047Y-94054819D01*
X119539047Y-94054819D02*
X119634285Y-94007200D01*
X119634285Y-94007200D02*
X119681904Y-93959580D01*
X119681904Y-93959580D02*
X119729523Y-93864342D01*
X119729523Y-93864342D02*
X119729523Y-93054819D01*
X120634285Y-93054819D02*
X120443809Y-93054819D01*
X120443809Y-93054819D02*
X120348571Y-93102438D01*
X120348571Y-93102438D02*
X120300952Y-93150057D01*
X120300952Y-93150057D02*
X120205714Y-93292914D01*
X120205714Y-93292914D02*
X120158095Y-93483390D01*
X120158095Y-93483390D02*
X120158095Y-93864342D01*
X120158095Y-93864342D02*
X120205714Y-93959580D01*
X120205714Y-93959580D02*
X120253333Y-94007200D01*
X120253333Y-94007200D02*
X120348571Y-94054819D01*
X120348571Y-94054819D02*
X120539047Y-94054819D01*
X120539047Y-94054819D02*
X120634285Y-94007200D01*
X120634285Y-94007200D02*
X120681904Y-93959580D01*
X120681904Y-93959580D02*
X120729523Y-93864342D01*
X120729523Y-93864342D02*
X120729523Y-93626247D01*
X120729523Y-93626247D02*
X120681904Y-93531009D01*
X120681904Y-93531009D02*
X120634285Y-93483390D01*
X120634285Y-93483390D02*
X120539047Y-93435771D01*
X120539047Y-93435771D02*
X120348571Y-93435771D01*
X120348571Y-93435771D02*
X120253333Y-93483390D01*
X120253333Y-93483390D02*
X120205714Y-93531009D01*
X120205714Y-93531009D02*
X120158095Y-93626247D01*
X138875714Y-113654819D02*
X138875714Y-112654819D01*
X138875714Y-112654819D02*
X139113809Y-112654819D01*
X139113809Y-112654819D02*
X139256666Y-112702438D01*
X139256666Y-112702438D02*
X139351904Y-112797676D01*
X139351904Y-112797676D02*
X139399523Y-112892914D01*
X139399523Y-112892914D02*
X139447142Y-113083390D01*
X139447142Y-113083390D02*
X139447142Y-113226247D01*
X139447142Y-113226247D02*
X139399523Y-113416723D01*
X139399523Y-113416723D02*
X139351904Y-113511961D01*
X139351904Y-113511961D02*
X139256666Y-113607200D01*
X139256666Y-113607200D02*
X139113809Y-113654819D01*
X139113809Y-113654819D02*
X138875714Y-113654819D01*
X139828095Y-112750057D02*
X139875714Y-112702438D01*
X139875714Y-112702438D02*
X139970952Y-112654819D01*
X139970952Y-112654819D02*
X140209047Y-112654819D01*
X140209047Y-112654819D02*
X140304285Y-112702438D01*
X140304285Y-112702438D02*
X140351904Y-112750057D01*
X140351904Y-112750057D02*
X140399523Y-112845295D01*
X140399523Y-112845295D02*
X140399523Y-112940533D01*
X140399523Y-112940533D02*
X140351904Y-113083390D01*
X140351904Y-113083390D02*
X139780476Y-113654819D01*
X139780476Y-113654819D02*
X140399523Y-113654819D01*
X140732857Y-112654819D02*
X141351904Y-112654819D01*
X141351904Y-112654819D02*
X141018571Y-113035771D01*
X141018571Y-113035771D02*
X141161428Y-113035771D01*
X141161428Y-113035771D02*
X141256666Y-113083390D01*
X141256666Y-113083390D02*
X141304285Y-113131009D01*
X141304285Y-113131009D02*
X141351904Y-113226247D01*
X141351904Y-113226247D02*
X141351904Y-113464342D01*
X141351904Y-113464342D02*
X141304285Y-113559580D01*
X141304285Y-113559580D02*
X141256666Y-113607200D01*
X141256666Y-113607200D02*
X141161428Y-113654819D01*
X141161428Y-113654819D02*
X140875714Y-113654819D01*
X140875714Y-113654819D02*
X140780476Y-113607200D01*
X140780476Y-113607200D02*
X140732857Y-113559580D01*
X225838095Y-119704819D02*
X225838095Y-118704819D01*
X225838095Y-119181009D02*
X226409523Y-119181009D01*
X226409523Y-119704819D02*
X226409523Y-118704819D01*
X226790476Y-118704819D02*
X227409523Y-118704819D01*
X227409523Y-118704819D02*
X227076190Y-119085771D01*
X227076190Y-119085771D02*
X227219047Y-119085771D01*
X227219047Y-119085771D02*
X227314285Y-119133390D01*
X227314285Y-119133390D02*
X227361904Y-119181009D01*
X227361904Y-119181009D02*
X227409523Y-119276247D01*
X227409523Y-119276247D02*
X227409523Y-119514342D01*
X227409523Y-119514342D02*
X227361904Y-119609580D01*
X227361904Y-119609580D02*
X227314285Y-119657200D01*
X227314285Y-119657200D02*
X227219047Y-119704819D01*
X227219047Y-119704819D02*
X226933333Y-119704819D01*
X226933333Y-119704819D02*
X226838095Y-119657200D01*
X226838095Y-119657200D02*
X226790476Y-119609580D01*
X217975714Y-67894819D02*
X217975714Y-66894819D01*
X217975714Y-66894819D02*
X218213809Y-66894819D01*
X218213809Y-66894819D02*
X218356666Y-66942438D01*
X218356666Y-66942438D02*
X218451904Y-67037676D01*
X218451904Y-67037676D02*
X218499523Y-67132914D01*
X218499523Y-67132914D02*
X218547142Y-67323390D01*
X218547142Y-67323390D02*
X218547142Y-67466247D01*
X218547142Y-67466247D02*
X218499523Y-67656723D01*
X218499523Y-67656723D02*
X218451904Y-67751961D01*
X218451904Y-67751961D02*
X218356666Y-67847200D01*
X218356666Y-67847200D02*
X218213809Y-67894819D01*
X218213809Y-67894819D02*
X217975714Y-67894819D01*
X219499523Y-67894819D02*
X218928095Y-67894819D01*
X219213809Y-67894819D02*
X219213809Y-66894819D01*
X219213809Y-66894819D02*
X219118571Y-67037676D01*
X219118571Y-67037676D02*
X219023333Y-67132914D01*
X219023333Y-67132914D02*
X218928095Y-67180533D01*
X220356666Y-67228152D02*
X220356666Y-67894819D01*
X220118571Y-66847200D02*
X219880476Y-67561485D01*
X219880476Y-67561485D02*
X220499523Y-67561485D01*
X169603333Y-58864819D02*
X169270000Y-58388628D01*
X169031905Y-58864819D02*
X169031905Y-57864819D01*
X169031905Y-57864819D02*
X169412857Y-57864819D01*
X169412857Y-57864819D02*
X169508095Y-57912438D01*
X169508095Y-57912438D02*
X169555714Y-57960057D01*
X169555714Y-57960057D02*
X169603333Y-58055295D01*
X169603333Y-58055295D02*
X169603333Y-58198152D01*
X169603333Y-58198152D02*
X169555714Y-58293390D01*
X169555714Y-58293390D02*
X169508095Y-58341009D01*
X169508095Y-58341009D02*
X169412857Y-58388628D01*
X169412857Y-58388628D02*
X169031905Y-58388628D01*
X170079524Y-58864819D02*
X170270000Y-58864819D01*
X170270000Y-58864819D02*
X170365238Y-58817200D01*
X170365238Y-58817200D02*
X170412857Y-58769580D01*
X170412857Y-58769580D02*
X170508095Y-58626723D01*
X170508095Y-58626723D02*
X170555714Y-58436247D01*
X170555714Y-58436247D02*
X170555714Y-58055295D01*
X170555714Y-58055295D02*
X170508095Y-57960057D01*
X170508095Y-57960057D02*
X170460476Y-57912438D01*
X170460476Y-57912438D02*
X170365238Y-57864819D01*
X170365238Y-57864819D02*
X170174762Y-57864819D01*
X170174762Y-57864819D02*
X170079524Y-57912438D01*
X170079524Y-57912438D02*
X170031905Y-57960057D01*
X170031905Y-57960057D02*
X169984286Y-58055295D01*
X169984286Y-58055295D02*
X169984286Y-58293390D01*
X169984286Y-58293390D02*
X170031905Y-58388628D01*
X170031905Y-58388628D02*
X170079524Y-58436247D01*
X170079524Y-58436247D02*
X170174762Y-58483866D01*
X170174762Y-58483866D02*
X170365238Y-58483866D01*
X170365238Y-58483866D02*
X170460476Y-58436247D01*
X170460476Y-58436247D02*
X170508095Y-58388628D01*
X170508095Y-58388628D02*
X170555714Y-58293390D01*
X107448095Y-55784819D02*
X107448095Y-56594342D01*
X107448095Y-56594342D02*
X107495714Y-56689580D01*
X107495714Y-56689580D02*
X107543333Y-56737200D01*
X107543333Y-56737200D02*
X107638571Y-56784819D01*
X107638571Y-56784819D02*
X107829047Y-56784819D01*
X107829047Y-56784819D02*
X107924285Y-56737200D01*
X107924285Y-56737200D02*
X107971904Y-56689580D01*
X107971904Y-56689580D02*
X108019523Y-56594342D01*
X108019523Y-56594342D02*
X108019523Y-55784819D01*
X108448095Y-55880057D02*
X108495714Y-55832438D01*
X108495714Y-55832438D02*
X108590952Y-55784819D01*
X108590952Y-55784819D02*
X108829047Y-55784819D01*
X108829047Y-55784819D02*
X108924285Y-55832438D01*
X108924285Y-55832438D02*
X108971904Y-55880057D01*
X108971904Y-55880057D02*
X109019523Y-55975295D01*
X109019523Y-55975295D02*
X109019523Y-56070533D01*
X109019523Y-56070533D02*
X108971904Y-56213390D01*
X108971904Y-56213390D02*
X108400476Y-56784819D01*
X108400476Y-56784819D02*
X109019523Y-56784819D01*
X83108333Y-64134819D02*
X82775000Y-63658628D01*
X82536905Y-64134819D02*
X82536905Y-63134819D01*
X82536905Y-63134819D02*
X82917857Y-63134819D01*
X82917857Y-63134819D02*
X83013095Y-63182438D01*
X83013095Y-63182438D02*
X83060714Y-63230057D01*
X83060714Y-63230057D02*
X83108333Y-63325295D01*
X83108333Y-63325295D02*
X83108333Y-63468152D01*
X83108333Y-63468152D02*
X83060714Y-63563390D01*
X83060714Y-63563390D02*
X83013095Y-63611009D01*
X83013095Y-63611009D02*
X82917857Y-63658628D01*
X82917857Y-63658628D02*
X82536905Y-63658628D01*
X83489286Y-63230057D02*
X83536905Y-63182438D01*
X83536905Y-63182438D02*
X83632143Y-63134819D01*
X83632143Y-63134819D02*
X83870238Y-63134819D01*
X83870238Y-63134819D02*
X83965476Y-63182438D01*
X83965476Y-63182438D02*
X84013095Y-63230057D01*
X84013095Y-63230057D02*
X84060714Y-63325295D01*
X84060714Y-63325295D02*
X84060714Y-63420533D01*
X84060714Y-63420533D02*
X84013095Y-63563390D01*
X84013095Y-63563390D02*
X83441667Y-64134819D01*
X83441667Y-64134819D02*
X84060714Y-64134819D01*
X130391905Y-56894819D02*
X130391905Y-55894819D01*
X130391905Y-55894819D02*
X130630000Y-55894819D01*
X130630000Y-55894819D02*
X130772857Y-55942438D01*
X130772857Y-55942438D02*
X130868095Y-56037676D01*
X130868095Y-56037676D02*
X130915714Y-56132914D01*
X130915714Y-56132914D02*
X130963333Y-56323390D01*
X130963333Y-56323390D02*
X130963333Y-56466247D01*
X130963333Y-56466247D02*
X130915714Y-56656723D01*
X130915714Y-56656723D02*
X130868095Y-56751961D01*
X130868095Y-56751961D02*
X130772857Y-56847200D01*
X130772857Y-56847200D02*
X130630000Y-56894819D01*
X130630000Y-56894819D02*
X130391905Y-56894819D01*
X131868095Y-55894819D02*
X131391905Y-55894819D01*
X131391905Y-55894819D02*
X131344286Y-56371009D01*
X131344286Y-56371009D02*
X131391905Y-56323390D01*
X131391905Y-56323390D02*
X131487143Y-56275771D01*
X131487143Y-56275771D02*
X131725238Y-56275771D01*
X131725238Y-56275771D02*
X131820476Y-56323390D01*
X131820476Y-56323390D02*
X131868095Y-56371009D01*
X131868095Y-56371009D02*
X131915714Y-56466247D01*
X131915714Y-56466247D02*
X131915714Y-56704342D01*
X131915714Y-56704342D02*
X131868095Y-56799580D01*
X131868095Y-56799580D02*
X131820476Y-56847200D01*
X131820476Y-56847200D02*
X131725238Y-56894819D01*
X131725238Y-56894819D02*
X131487143Y-56894819D01*
X131487143Y-56894819D02*
X131391905Y-56847200D01*
X131391905Y-56847200D02*
X131344286Y-56799580D01*
X82708333Y-77084819D02*
X82375000Y-76608628D01*
X82136905Y-77084819D02*
X82136905Y-76084819D01*
X82136905Y-76084819D02*
X82517857Y-76084819D01*
X82517857Y-76084819D02*
X82613095Y-76132438D01*
X82613095Y-76132438D02*
X82660714Y-76180057D01*
X82660714Y-76180057D02*
X82708333Y-76275295D01*
X82708333Y-76275295D02*
X82708333Y-76418152D01*
X82708333Y-76418152D02*
X82660714Y-76513390D01*
X82660714Y-76513390D02*
X82613095Y-76561009D01*
X82613095Y-76561009D02*
X82517857Y-76608628D01*
X82517857Y-76608628D02*
X82136905Y-76608628D01*
X83565476Y-76418152D02*
X83565476Y-77084819D01*
X83327381Y-76037200D02*
X83089286Y-76751485D01*
X83089286Y-76751485D02*
X83708333Y-76751485D01*
X171265714Y-82764819D02*
X171265714Y-81764819D01*
X171265714Y-81764819D02*
X171503809Y-81764819D01*
X171503809Y-81764819D02*
X171646666Y-81812438D01*
X171646666Y-81812438D02*
X171741904Y-81907676D01*
X171741904Y-81907676D02*
X171789523Y-82002914D01*
X171789523Y-82002914D02*
X171837142Y-82193390D01*
X171837142Y-82193390D02*
X171837142Y-82336247D01*
X171837142Y-82336247D02*
X171789523Y-82526723D01*
X171789523Y-82526723D02*
X171741904Y-82621961D01*
X171741904Y-82621961D02*
X171646666Y-82717200D01*
X171646666Y-82717200D02*
X171503809Y-82764819D01*
X171503809Y-82764819D02*
X171265714Y-82764819D01*
X172789523Y-82764819D02*
X172218095Y-82764819D01*
X172503809Y-82764819D02*
X172503809Y-81764819D01*
X172503809Y-81764819D02*
X172408571Y-81907676D01*
X172408571Y-81907676D02*
X172313333Y-82002914D01*
X172313333Y-82002914D02*
X172218095Y-82050533D01*
X173170476Y-81860057D02*
X173218095Y-81812438D01*
X173218095Y-81812438D02*
X173313333Y-81764819D01*
X173313333Y-81764819D02*
X173551428Y-81764819D01*
X173551428Y-81764819D02*
X173646666Y-81812438D01*
X173646666Y-81812438D02*
X173694285Y-81860057D01*
X173694285Y-81860057D02*
X173741904Y-81955295D01*
X173741904Y-81955295D02*
X173741904Y-82050533D01*
X173741904Y-82050533D02*
X173694285Y-82193390D01*
X173694285Y-82193390D02*
X173122857Y-82764819D01*
X173122857Y-82764819D02*
X173741904Y-82764819D01*
X178665714Y-68564819D02*
X178665714Y-67564819D01*
X178665714Y-67564819D02*
X178903809Y-67564819D01*
X178903809Y-67564819D02*
X179046666Y-67612438D01*
X179046666Y-67612438D02*
X179141904Y-67707676D01*
X179141904Y-67707676D02*
X179189523Y-67802914D01*
X179189523Y-67802914D02*
X179237142Y-67993390D01*
X179237142Y-67993390D02*
X179237142Y-68136247D01*
X179237142Y-68136247D02*
X179189523Y-68326723D01*
X179189523Y-68326723D02*
X179141904Y-68421961D01*
X179141904Y-68421961D02*
X179046666Y-68517200D01*
X179046666Y-68517200D02*
X178903809Y-68564819D01*
X178903809Y-68564819D02*
X178665714Y-68564819D01*
X180189523Y-68564819D02*
X179618095Y-68564819D01*
X179903809Y-68564819D02*
X179903809Y-67564819D01*
X179903809Y-67564819D02*
X179808571Y-67707676D01*
X179808571Y-67707676D02*
X179713333Y-67802914D01*
X179713333Y-67802914D02*
X179618095Y-67850533D01*
X180808571Y-67564819D02*
X180903809Y-67564819D01*
X180903809Y-67564819D02*
X180999047Y-67612438D01*
X180999047Y-67612438D02*
X181046666Y-67660057D01*
X181046666Y-67660057D02*
X181094285Y-67755295D01*
X181094285Y-67755295D02*
X181141904Y-67945771D01*
X181141904Y-67945771D02*
X181141904Y-68183866D01*
X181141904Y-68183866D02*
X181094285Y-68374342D01*
X181094285Y-68374342D02*
X181046666Y-68469580D01*
X181046666Y-68469580D02*
X180999047Y-68517200D01*
X180999047Y-68517200D02*
X180903809Y-68564819D01*
X180903809Y-68564819D02*
X180808571Y-68564819D01*
X180808571Y-68564819D02*
X180713333Y-68517200D01*
X180713333Y-68517200D02*
X180665714Y-68469580D01*
X180665714Y-68469580D02*
X180618095Y-68374342D01*
X180618095Y-68374342D02*
X180570476Y-68183866D01*
X180570476Y-68183866D02*
X180570476Y-67945771D01*
X180570476Y-67945771D02*
X180618095Y-67755295D01*
X180618095Y-67755295D02*
X180665714Y-67660057D01*
X180665714Y-67660057D02*
X180713333Y-67612438D01*
X180713333Y-67612438D02*
X180808571Y-67564819D01*
X71446666Y-99074819D02*
X71446666Y-99789104D01*
X71446666Y-99789104D02*
X71399047Y-99931961D01*
X71399047Y-99931961D02*
X71303809Y-100027200D01*
X71303809Y-100027200D02*
X71160952Y-100074819D01*
X71160952Y-100074819D02*
X71065714Y-100074819D01*
X72399047Y-99074819D02*
X71922857Y-99074819D01*
X71922857Y-99074819D02*
X71875238Y-99551009D01*
X71875238Y-99551009D02*
X71922857Y-99503390D01*
X71922857Y-99503390D02*
X72018095Y-99455771D01*
X72018095Y-99455771D02*
X72256190Y-99455771D01*
X72256190Y-99455771D02*
X72351428Y-99503390D01*
X72351428Y-99503390D02*
X72399047Y-99551009D01*
X72399047Y-99551009D02*
X72446666Y-99646247D01*
X72446666Y-99646247D02*
X72446666Y-99884342D01*
X72446666Y-99884342D02*
X72399047Y-99979580D01*
X72399047Y-99979580D02*
X72351428Y-100027200D01*
X72351428Y-100027200D02*
X72256190Y-100074819D01*
X72256190Y-100074819D02*
X72018095Y-100074819D01*
X72018095Y-100074819D02*
X71922857Y-100027200D01*
X71922857Y-100027200D02*
X71875238Y-99979580D01*
X156968095Y-57924819D02*
X156968095Y-58734342D01*
X156968095Y-58734342D02*
X157015714Y-58829580D01*
X157015714Y-58829580D02*
X157063333Y-58877200D01*
X157063333Y-58877200D02*
X157158571Y-58924819D01*
X157158571Y-58924819D02*
X157349047Y-58924819D01*
X157349047Y-58924819D02*
X157444285Y-58877200D01*
X157444285Y-58877200D02*
X157491904Y-58829580D01*
X157491904Y-58829580D02*
X157539523Y-58734342D01*
X157539523Y-58734342D02*
X157539523Y-57924819D01*
X157920476Y-57924819D02*
X158539523Y-57924819D01*
X158539523Y-57924819D02*
X158206190Y-58305771D01*
X158206190Y-58305771D02*
X158349047Y-58305771D01*
X158349047Y-58305771D02*
X158444285Y-58353390D01*
X158444285Y-58353390D02*
X158491904Y-58401009D01*
X158491904Y-58401009D02*
X158539523Y-58496247D01*
X158539523Y-58496247D02*
X158539523Y-58734342D01*
X158539523Y-58734342D02*
X158491904Y-58829580D01*
X158491904Y-58829580D02*
X158444285Y-58877200D01*
X158444285Y-58877200D02*
X158349047Y-58924819D01*
X158349047Y-58924819D02*
X158063333Y-58924819D01*
X158063333Y-58924819D02*
X157968095Y-58877200D01*
X157968095Y-58877200D02*
X157920476Y-58829580D01*
X99183333Y-56509580D02*
X99135714Y-56557200D01*
X99135714Y-56557200D02*
X98992857Y-56604819D01*
X98992857Y-56604819D02*
X98897619Y-56604819D01*
X98897619Y-56604819D02*
X98754762Y-56557200D01*
X98754762Y-56557200D02*
X98659524Y-56461961D01*
X98659524Y-56461961D02*
X98611905Y-56366723D01*
X98611905Y-56366723D02*
X98564286Y-56176247D01*
X98564286Y-56176247D02*
X98564286Y-56033390D01*
X98564286Y-56033390D02*
X98611905Y-55842914D01*
X98611905Y-55842914D02*
X98659524Y-55747676D01*
X98659524Y-55747676D02*
X98754762Y-55652438D01*
X98754762Y-55652438D02*
X98897619Y-55604819D01*
X98897619Y-55604819D02*
X98992857Y-55604819D01*
X98992857Y-55604819D02*
X99135714Y-55652438D01*
X99135714Y-55652438D02*
X99183333Y-55700057D01*
X99564286Y-55700057D02*
X99611905Y-55652438D01*
X99611905Y-55652438D02*
X99707143Y-55604819D01*
X99707143Y-55604819D02*
X99945238Y-55604819D01*
X99945238Y-55604819D02*
X100040476Y-55652438D01*
X100040476Y-55652438D02*
X100088095Y-55700057D01*
X100088095Y-55700057D02*
X100135714Y-55795295D01*
X100135714Y-55795295D02*
X100135714Y-55890533D01*
X100135714Y-55890533D02*
X100088095Y-56033390D01*
X100088095Y-56033390D02*
X99516667Y-56604819D01*
X99516667Y-56604819D02*
X100135714Y-56604819D01*
X208157142Y-104754819D02*
X207823809Y-104278628D01*
X207585714Y-104754819D02*
X207585714Y-103754819D01*
X207585714Y-103754819D02*
X207966666Y-103754819D01*
X207966666Y-103754819D02*
X208061904Y-103802438D01*
X208061904Y-103802438D02*
X208109523Y-103850057D01*
X208109523Y-103850057D02*
X208157142Y-103945295D01*
X208157142Y-103945295D02*
X208157142Y-104088152D01*
X208157142Y-104088152D02*
X208109523Y-104183390D01*
X208109523Y-104183390D02*
X208061904Y-104231009D01*
X208061904Y-104231009D02*
X207966666Y-104278628D01*
X207966666Y-104278628D02*
X207585714Y-104278628D01*
X208490476Y-103754819D02*
X209109523Y-103754819D01*
X209109523Y-103754819D02*
X208776190Y-104135771D01*
X208776190Y-104135771D02*
X208919047Y-104135771D01*
X208919047Y-104135771D02*
X209014285Y-104183390D01*
X209014285Y-104183390D02*
X209061904Y-104231009D01*
X209061904Y-104231009D02*
X209109523Y-104326247D01*
X209109523Y-104326247D02*
X209109523Y-104564342D01*
X209109523Y-104564342D02*
X209061904Y-104659580D01*
X209061904Y-104659580D02*
X209014285Y-104707200D01*
X209014285Y-104707200D02*
X208919047Y-104754819D01*
X208919047Y-104754819D02*
X208633333Y-104754819D01*
X208633333Y-104754819D02*
X208538095Y-104707200D01*
X208538095Y-104707200D02*
X208490476Y-104659580D01*
X210061904Y-104754819D02*
X209490476Y-104754819D01*
X209776190Y-104754819D02*
X209776190Y-103754819D01*
X209776190Y-103754819D02*
X209680952Y-103897676D01*
X209680952Y-103897676D02*
X209585714Y-103992914D01*
X209585714Y-103992914D02*
X209490476Y-104040533D01*
X138475714Y-104054819D02*
X138475714Y-103054819D01*
X138475714Y-103054819D02*
X138713809Y-103054819D01*
X138713809Y-103054819D02*
X138856666Y-103102438D01*
X138856666Y-103102438D02*
X138951904Y-103197676D01*
X138951904Y-103197676D02*
X138999523Y-103292914D01*
X138999523Y-103292914D02*
X139047142Y-103483390D01*
X139047142Y-103483390D02*
X139047142Y-103626247D01*
X139047142Y-103626247D02*
X138999523Y-103816723D01*
X138999523Y-103816723D02*
X138951904Y-103911961D01*
X138951904Y-103911961D02*
X138856666Y-104007200D01*
X138856666Y-104007200D02*
X138713809Y-104054819D01*
X138713809Y-104054819D02*
X138475714Y-104054819D01*
X139428095Y-103150057D02*
X139475714Y-103102438D01*
X139475714Y-103102438D02*
X139570952Y-103054819D01*
X139570952Y-103054819D02*
X139809047Y-103054819D01*
X139809047Y-103054819D02*
X139904285Y-103102438D01*
X139904285Y-103102438D02*
X139951904Y-103150057D01*
X139951904Y-103150057D02*
X139999523Y-103245295D01*
X139999523Y-103245295D02*
X139999523Y-103340533D01*
X139999523Y-103340533D02*
X139951904Y-103483390D01*
X139951904Y-103483390D02*
X139380476Y-104054819D01*
X139380476Y-104054819D02*
X139999523Y-104054819D01*
X140380476Y-103150057D02*
X140428095Y-103102438D01*
X140428095Y-103102438D02*
X140523333Y-103054819D01*
X140523333Y-103054819D02*
X140761428Y-103054819D01*
X140761428Y-103054819D02*
X140856666Y-103102438D01*
X140856666Y-103102438D02*
X140904285Y-103150057D01*
X140904285Y-103150057D02*
X140951904Y-103245295D01*
X140951904Y-103245295D02*
X140951904Y-103340533D01*
X140951904Y-103340533D02*
X140904285Y-103483390D01*
X140904285Y-103483390D02*
X140332857Y-104054819D01*
X140332857Y-104054819D02*
X140951904Y-104054819D01*
X134055714Y-117494819D02*
X134055714Y-116494819D01*
X134055714Y-116494819D02*
X134293809Y-116494819D01*
X134293809Y-116494819D02*
X134436666Y-116542438D01*
X134436666Y-116542438D02*
X134531904Y-116637676D01*
X134531904Y-116637676D02*
X134579523Y-116732914D01*
X134579523Y-116732914D02*
X134627142Y-116923390D01*
X134627142Y-116923390D02*
X134627142Y-117066247D01*
X134627142Y-117066247D02*
X134579523Y-117256723D01*
X134579523Y-117256723D02*
X134531904Y-117351961D01*
X134531904Y-117351961D02*
X134436666Y-117447200D01*
X134436666Y-117447200D02*
X134293809Y-117494819D01*
X134293809Y-117494819D02*
X134055714Y-117494819D01*
X135008095Y-116590057D02*
X135055714Y-116542438D01*
X135055714Y-116542438D02*
X135150952Y-116494819D01*
X135150952Y-116494819D02*
X135389047Y-116494819D01*
X135389047Y-116494819D02*
X135484285Y-116542438D01*
X135484285Y-116542438D02*
X135531904Y-116590057D01*
X135531904Y-116590057D02*
X135579523Y-116685295D01*
X135579523Y-116685295D02*
X135579523Y-116780533D01*
X135579523Y-116780533D02*
X135531904Y-116923390D01*
X135531904Y-116923390D02*
X134960476Y-117494819D01*
X134960476Y-117494819D02*
X135579523Y-117494819D01*
X136436666Y-116828152D02*
X136436666Y-117494819D01*
X136198571Y-116447200D02*
X135960476Y-117161485D01*
X135960476Y-117161485D02*
X136579523Y-117161485D01*
X79390476Y-85274819D02*
X79390476Y-85989104D01*
X79390476Y-85989104D02*
X79342857Y-86131961D01*
X79342857Y-86131961D02*
X79247619Y-86227200D01*
X79247619Y-86227200D02*
X79104762Y-86274819D01*
X79104762Y-86274819D02*
X79009524Y-86274819D01*
X80390476Y-86274819D02*
X79819048Y-86274819D01*
X80104762Y-86274819D02*
X80104762Y-85274819D01*
X80104762Y-85274819D02*
X80009524Y-85417676D01*
X80009524Y-85417676D02*
X79914286Y-85512914D01*
X79914286Y-85512914D02*
X79819048Y-85560533D01*
X81009524Y-85274819D02*
X81104762Y-85274819D01*
X81104762Y-85274819D02*
X81200000Y-85322438D01*
X81200000Y-85322438D02*
X81247619Y-85370057D01*
X81247619Y-85370057D02*
X81295238Y-85465295D01*
X81295238Y-85465295D02*
X81342857Y-85655771D01*
X81342857Y-85655771D02*
X81342857Y-85893866D01*
X81342857Y-85893866D02*
X81295238Y-86084342D01*
X81295238Y-86084342D02*
X81247619Y-86179580D01*
X81247619Y-86179580D02*
X81200000Y-86227200D01*
X81200000Y-86227200D02*
X81104762Y-86274819D01*
X81104762Y-86274819D02*
X81009524Y-86274819D01*
X81009524Y-86274819D02*
X80914286Y-86227200D01*
X80914286Y-86227200D02*
X80866667Y-86179580D01*
X80866667Y-86179580D02*
X80819048Y-86084342D01*
X80819048Y-86084342D02*
X80771429Y-85893866D01*
X80771429Y-85893866D02*
X80771429Y-85655771D01*
X80771429Y-85655771D02*
X80819048Y-85465295D01*
X80819048Y-85465295D02*
X80866667Y-85370057D01*
X80866667Y-85370057D02*
X80914286Y-85322438D01*
X80914286Y-85322438D02*
X81009524Y-85274819D01*
X93217142Y-100284819D02*
X92883809Y-99808628D01*
X92645714Y-100284819D02*
X92645714Y-99284819D01*
X92645714Y-99284819D02*
X93026666Y-99284819D01*
X93026666Y-99284819D02*
X93121904Y-99332438D01*
X93121904Y-99332438D02*
X93169523Y-99380057D01*
X93169523Y-99380057D02*
X93217142Y-99475295D01*
X93217142Y-99475295D02*
X93217142Y-99618152D01*
X93217142Y-99618152D02*
X93169523Y-99713390D01*
X93169523Y-99713390D02*
X93121904Y-99761009D01*
X93121904Y-99761009D02*
X93026666Y-99808628D01*
X93026666Y-99808628D02*
X92645714Y-99808628D01*
X94169523Y-100284819D02*
X93598095Y-100284819D01*
X93883809Y-100284819D02*
X93883809Y-99284819D01*
X93883809Y-99284819D02*
X93788571Y-99427676D01*
X93788571Y-99427676D02*
X93693333Y-99522914D01*
X93693333Y-99522914D02*
X93598095Y-99570533D01*
X94740952Y-99713390D02*
X94645714Y-99665771D01*
X94645714Y-99665771D02*
X94598095Y-99618152D01*
X94598095Y-99618152D02*
X94550476Y-99522914D01*
X94550476Y-99522914D02*
X94550476Y-99475295D01*
X94550476Y-99475295D02*
X94598095Y-99380057D01*
X94598095Y-99380057D02*
X94645714Y-99332438D01*
X94645714Y-99332438D02*
X94740952Y-99284819D01*
X94740952Y-99284819D02*
X94931428Y-99284819D01*
X94931428Y-99284819D02*
X95026666Y-99332438D01*
X95026666Y-99332438D02*
X95074285Y-99380057D01*
X95074285Y-99380057D02*
X95121904Y-99475295D01*
X95121904Y-99475295D02*
X95121904Y-99522914D01*
X95121904Y-99522914D02*
X95074285Y-99618152D01*
X95074285Y-99618152D02*
X95026666Y-99665771D01*
X95026666Y-99665771D02*
X94931428Y-99713390D01*
X94931428Y-99713390D02*
X94740952Y-99713390D01*
X94740952Y-99713390D02*
X94645714Y-99761009D01*
X94645714Y-99761009D02*
X94598095Y-99808628D01*
X94598095Y-99808628D02*
X94550476Y-99903866D01*
X94550476Y-99903866D02*
X94550476Y-100094342D01*
X94550476Y-100094342D02*
X94598095Y-100189580D01*
X94598095Y-100189580D02*
X94645714Y-100237200D01*
X94645714Y-100237200D02*
X94740952Y-100284819D01*
X94740952Y-100284819D02*
X94931428Y-100284819D01*
X94931428Y-100284819D02*
X95026666Y-100237200D01*
X95026666Y-100237200D02*
X95074285Y-100189580D01*
X95074285Y-100189580D02*
X95121904Y-100094342D01*
X95121904Y-100094342D02*
X95121904Y-99903866D01*
X95121904Y-99903866D02*
X95074285Y-99808628D01*
X95074285Y-99808628D02*
X95026666Y-99761009D01*
X95026666Y-99761009D02*
X94931428Y-99713390D01*
X178435714Y-110744819D02*
X178435714Y-109744819D01*
X178435714Y-109744819D02*
X178673809Y-109744819D01*
X178673809Y-109744819D02*
X178816666Y-109792438D01*
X178816666Y-109792438D02*
X178911904Y-109887676D01*
X178911904Y-109887676D02*
X178959523Y-109982914D01*
X178959523Y-109982914D02*
X179007142Y-110173390D01*
X179007142Y-110173390D02*
X179007142Y-110316247D01*
X179007142Y-110316247D02*
X178959523Y-110506723D01*
X178959523Y-110506723D02*
X178911904Y-110601961D01*
X178911904Y-110601961D02*
X178816666Y-110697200D01*
X178816666Y-110697200D02*
X178673809Y-110744819D01*
X178673809Y-110744819D02*
X178435714Y-110744819D01*
X179388095Y-109840057D02*
X179435714Y-109792438D01*
X179435714Y-109792438D02*
X179530952Y-109744819D01*
X179530952Y-109744819D02*
X179769047Y-109744819D01*
X179769047Y-109744819D02*
X179864285Y-109792438D01*
X179864285Y-109792438D02*
X179911904Y-109840057D01*
X179911904Y-109840057D02*
X179959523Y-109935295D01*
X179959523Y-109935295D02*
X179959523Y-110030533D01*
X179959523Y-110030533D02*
X179911904Y-110173390D01*
X179911904Y-110173390D02*
X179340476Y-110744819D01*
X179340476Y-110744819D02*
X179959523Y-110744819D01*
X180292857Y-109744819D02*
X180959523Y-109744819D01*
X180959523Y-109744819D02*
X180530952Y-110744819D01*
X138675714Y-94454819D02*
X138675714Y-93454819D01*
X138675714Y-93454819D02*
X138913809Y-93454819D01*
X138913809Y-93454819D02*
X139056666Y-93502438D01*
X139056666Y-93502438D02*
X139151904Y-93597676D01*
X139151904Y-93597676D02*
X139199523Y-93692914D01*
X139199523Y-93692914D02*
X139247142Y-93883390D01*
X139247142Y-93883390D02*
X139247142Y-94026247D01*
X139247142Y-94026247D02*
X139199523Y-94216723D01*
X139199523Y-94216723D02*
X139151904Y-94311961D01*
X139151904Y-94311961D02*
X139056666Y-94407200D01*
X139056666Y-94407200D02*
X138913809Y-94454819D01*
X138913809Y-94454819D02*
X138675714Y-94454819D01*
X139628095Y-93550057D02*
X139675714Y-93502438D01*
X139675714Y-93502438D02*
X139770952Y-93454819D01*
X139770952Y-93454819D02*
X140009047Y-93454819D01*
X140009047Y-93454819D02*
X140104285Y-93502438D01*
X140104285Y-93502438D02*
X140151904Y-93550057D01*
X140151904Y-93550057D02*
X140199523Y-93645295D01*
X140199523Y-93645295D02*
X140199523Y-93740533D01*
X140199523Y-93740533D02*
X140151904Y-93883390D01*
X140151904Y-93883390D02*
X139580476Y-94454819D01*
X139580476Y-94454819D02*
X140199523Y-94454819D01*
X141151904Y-94454819D02*
X140580476Y-94454819D01*
X140866190Y-94454819D02*
X140866190Y-93454819D01*
X140866190Y-93454819D02*
X140770952Y-93597676D01*
X140770952Y-93597676D02*
X140675714Y-93692914D01*
X140675714Y-93692914D02*
X140580476Y-93740533D01*
X123191905Y-80294819D02*
X123191905Y-79294819D01*
X123191905Y-79294819D02*
X123430000Y-79294819D01*
X123430000Y-79294819D02*
X123572857Y-79342438D01*
X123572857Y-79342438D02*
X123668095Y-79437676D01*
X123668095Y-79437676D02*
X123715714Y-79532914D01*
X123715714Y-79532914D02*
X123763333Y-79723390D01*
X123763333Y-79723390D02*
X123763333Y-79866247D01*
X123763333Y-79866247D02*
X123715714Y-80056723D01*
X123715714Y-80056723D02*
X123668095Y-80151961D01*
X123668095Y-80151961D02*
X123572857Y-80247200D01*
X123572857Y-80247200D02*
X123430000Y-80294819D01*
X123430000Y-80294819D02*
X123191905Y-80294819D01*
X124334762Y-79723390D02*
X124239524Y-79675771D01*
X124239524Y-79675771D02*
X124191905Y-79628152D01*
X124191905Y-79628152D02*
X124144286Y-79532914D01*
X124144286Y-79532914D02*
X124144286Y-79485295D01*
X124144286Y-79485295D02*
X124191905Y-79390057D01*
X124191905Y-79390057D02*
X124239524Y-79342438D01*
X124239524Y-79342438D02*
X124334762Y-79294819D01*
X124334762Y-79294819D02*
X124525238Y-79294819D01*
X124525238Y-79294819D02*
X124620476Y-79342438D01*
X124620476Y-79342438D02*
X124668095Y-79390057D01*
X124668095Y-79390057D02*
X124715714Y-79485295D01*
X124715714Y-79485295D02*
X124715714Y-79532914D01*
X124715714Y-79532914D02*
X124668095Y-79628152D01*
X124668095Y-79628152D02*
X124620476Y-79675771D01*
X124620476Y-79675771D02*
X124525238Y-79723390D01*
X124525238Y-79723390D02*
X124334762Y-79723390D01*
X124334762Y-79723390D02*
X124239524Y-79771009D01*
X124239524Y-79771009D02*
X124191905Y-79818628D01*
X124191905Y-79818628D02*
X124144286Y-79913866D01*
X124144286Y-79913866D02*
X124144286Y-80104342D01*
X124144286Y-80104342D02*
X124191905Y-80199580D01*
X124191905Y-80199580D02*
X124239524Y-80247200D01*
X124239524Y-80247200D02*
X124334762Y-80294819D01*
X124334762Y-80294819D02*
X124525238Y-80294819D01*
X124525238Y-80294819D02*
X124620476Y-80247200D01*
X124620476Y-80247200D02*
X124668095Y-80199580D01*
X124668095Y-80199580D02*
X124715714Y-80104342D01*
X124715714Y-80104342D02*
X124715714Y-79913866D01*
X124715714Y-79913866D02*
X124668095Y-79818628D01*
X124668095Y-79818628D02*
X124620476Y-79771009D01*
X124620476Y-79771009D02*
X124525238Y-79723390D01*
X139828095Y-64124819D02*
X139828095Y-64934342D01*
X139828095Y-64934342D02*
X139875714Y-65029580D01*
X139875714Y-65029580D02*
X139923333Y-65077200D01*
X139923333Y-65077200D02*
X140018571Y-65124819D01*
X140018571Y-65124819D02*
X140209047Y-65124819D01*
X140209047Y-65124819D02*
X140304285Y-65077200D01*
X140304285Y-65077200D02*
X140351904Y-65029580D01*
X140351904Y-65029580D02*
X140399523Y-64934342D01*
X140399523Y-64934342D02*
X140399523Y-64124819D01*
X140923333Y-65124819D02*
X141113809Y-65124819D01*
X141113809Y-65124819D02*
X141209047Y-65077200D01*
X141209047Y-65077200D02*
X141256666Y-65029580D01*
X141256666Y-65029580D02*
X141351904Y-64886723D01*
X141351904Y-64886723D02*
X141399523Y-64696247D01*
X141399523Y-64696247D02*
X141399523Y-64315295D01*
X141399523Y-64315295D02*
X141351904Y-64220057D01*
X141351904Y-64220057D02*
X141304285Y-64172438D01*
X141304285Y-64172438D02*
X141209047Y-64124819D01*
X141209047Y-64124819D02*
X141018571Y-64124819D01*
X141018571Y-64124819D02*
X140923333Y-64172438D01*
X140923333Y-64172438D02*
X140875714Y-64220057D01*
X140875714Y-64220057D02*
X140828095Y-64315295D01*
X140828095Y-64315295D02*
X140828095Y-64553390D01*
X140828095Y-64553390D02*
X140875714Y-64648628D01*
X140875714Y-64648628D02*
X140923333Y-64696247D01*
X140923333Y-64696247D02*
X141018571Y-64743866D01*
X141018571Y-64743866D02*
X141209047Y-64743866D01*
X141209047Y-64743866D02*
X141304285Y-64696247D01*
X141304285Y-64696247D02*
X141351904Y-64648628D01*
X141351904Y-64648628D02*
X141399523Y-64553390D01*
X142990476Y-54054819D02*
X142990476Y-54769104D01*
X142990476Y-54769104D02*
X142942857Y-54911961D01*
X142942857Y-54911961D02*
X142847619Y-55007200D01*
X142847619Y-55007200D02*
X142704762Y-55054819D01*
X142704762Y-55054819D02*
X142609524Y-55054819D01*
X143990476Y-55054819D02*
X143419048Y-55054819D01*
X143704762Y-55054819D02*
X143704762Y-54054819D01*
X143704762Y-54054819D02*
X143609524Y-54197676D01*
X143609524Y-54197676D02*
X143514286Y-54292914D01*
X143514286Y-54292914D02*
X143419048Y-54340533D01*
X144942857Y-55054819D02*
X144371429Y-55054819D01*
X144657143Y-55054819D02*
X144657143Y-54054819D01*
X144657143Y-54054819D02*
X144561905Y-54197676D01*
X144561905Y-54197676D02*
X144466667Y-54292914D01*
X144466667Y-54292914D02*
X144371429Y-54340533D01*
X130591905Y-66694819D02*
X130591905Y-65694819D01*
X130591905Y-65694819D02*
X130830000Y-65694819D01*
X130830000Y-65694819D02*
X130972857Y-65742438D01*
X130972857Y-65742438D02*
X131068095Y-65837676D01*
X131068095Y-65837676D02*
X131115714Y-65932914D01*
X131115714Y-65932914D02*
X131163333Y-66123390D01*
X131163333Y-66123390D02*
X131163333Y-66266247D01*
X131163333Y-66266247D02*
X131115714Y-66456723D01*
X131115714Y-66456723D02*
X131068095Y-66551961D01*
X131068095Y-66551961D02*
X130972857Y-66647200D01*
X130972857Y-66647200D02*
X130830000Y-66694819D01*
X130830000Y-66694819D02*
X130591905Y-66694819D01*
X132020476Y-65694819D02*
X131830000Y-65694819D01*
X131830000Y-65694819D02*
X131734762Y-65742438D01*
X131734762Y-65742438D02*
X131687143Y-65790057D01*
X131687143Y-65790057D02*
X131591905Y-65932914D01*
X131591905Y-65932914D02*
X131544286Y-66123390D01*
X131544286Y-66123390D02*
X131544286Y-66504342D01*
X131544286Y-66504342D02*
X131591905Y-66599580D01*
X131591905Y-66599580D02*
X131639524Y-66647200D01*
X131639524Y-66647200D02*
X131734762Y-66694819D01*
X131734762Y-66694819D02*
X131925238Y-66694819D01*
X131925238Y-66694819D02*
X132020476Y-66647200D01*
X132020476Y-66647200D02*
X132068095Y-66599580D01*
X132068095Y-66599580D02*
X132115714Y-66504342D01*
X132115714Y-66504342D02*
X132115714Y-66266247D01*
X132115714Y-66266247D02*
X132068095Y-66171009D01*
X132068095Y-66171009D02*
X132020476Y-66123390D01*
X132020476Y-66123390D02*
X131925238Y-66075771D01*
X131925238Y-66075771D02*
X131734762Y-66075771D01*
X131734762Y-66075771D02*
X131639524Y-66123390D01*
X131639524Y-66123390D02*
X131591905Y-66171009D01*
X131591905Y-66171009D02*
X131544286Y-66266247D01*
X178665714Y-78564819D02*
X178665714Y-77564819D01*
X178665714Y-77564819D02*
X178903809Y-77564819D01*
X178903809Y-77564819D02*
X179046666Y-77612438D01*
X179046666Y-77612438D02*
X179141904Y-77707676D01*
X179141904Y-77707676D02*
X179189523Y-77802914D01*
X179189523Y-77802914D02*
X179237142Y-77993390D01*
X179237142Y-77993390D02*
X179237142Y-78136247D01*
X179237142Y-78136247D02*
X179189523Y-78326723D01*
X179189523Y-78326723D02*
X179141904Y-78421961D01*
X179141904Y-78421961D02*
X179046666Y-78517200D01*
X179046666Y-78517200D02*
X178903809Y-78564819D01*
X178903809Y-78564819D02*
X178665714Y-78564819D01*
X180189523Y-78564819D02*
X179618095Y-78564819D01*
X179903809Y-78564819D02*
X179903809Y-77564819D01*
X179903809Y-77564819D02*
X179808571Y-77707676D01*
X179808571Y-77707676D02*
X179713333Y-77802914D01*
X179713333Y-77802914D02*
X179618095Y-77850533D01*
X181141904Y-78564819D02*
X180570476Y-78564819D01*
X180856190Y-78564819D02*
X180856190Y-77564819D01*
X180856190Y-77564819D02*
X180760952Y-77707676D01*
X180760952Y-77707676D02*
X180665714Y-77802914D01*
X180665714Y-77802914D02*
X180570476Y-77850533D01*
X61783333Y-57109580D02*
X61735714Y-57157200D01*
X61735714Y-57157200D02*
X61592857Y-57204819D01*
X61592857Y-57204819D02*
X61497619Y-57204819D01*
X61497619Y-57204819D02*
X61354762Y-57157200D01*
X61354762Y-57157200D02*
X61259524Y-57061961D01*
X61259524Y-57061961D02*
X61211905Y-56966723D01*
X61211905Y-56966723D02*
X61164286Y-56776247D01*
X61164286Y-56776247D02*
X61164286Y-56633390D01*
X61164286Y-56633390D02*
X61211905Y-56442914D01*
X61211905Y-56442914D02*
X61259524Y-56347676D01*
X61259524Y-56347676D02*
X61354762Y-56252438D01*
X61354762Y-56252438D02*
X61497619Y-56204819D01*
X61497619Y-56204819D02*
X61592857Y-56204819D01*
X61592857Y-56204819D02*
X61735714Y-56252438D01*
X61735714Y-56252438D02*
X61783333Y-56300057D01*
X62735714Y-57204819D02*
X62164286Y-57204819D01*
X62450000Y-57204819D02*
X62450000Y-56204819D01*
X62450000Y-56204819D02*
X62354762Y-56347676D01*
X62354762Y-56347676D02*
X62259524Y-56442914D01*
X62259524Y-56442914D02*
X62164286Y-56490533D01*
X195968095Y-90194819D02*
X195968095Y-91004342D01*
X195968095Y-91004342D02*
X196015714Y-91099580D01*
X196015714Y-91099580D02*
X196063333Y-91147200D01*
X196063333Y-91147200D02*
X196158571Y-91194819D01*
X196158571Y-91194819D02*
X196349047Y-91194819D01*
X196349047Y-91194819D02*
X196444285Y-91147200D01*
X196444285Y-91147200D02*
X196491904Y-91099580D01*
X196491904Y-91099580D02*
X196539523Y-91004342D01*
X196539523Y-91004342D02*
X196539523Y-90194819D01*
X197158571Y-90623390D02*
X197063333Y-90575771D01*
X197063333Y-90575771D02*
X197015714Y-90528152D01*
X197015714Y-90528152D02*
X196968095Y-90432914D01*
X196968095Y-90432914D02*
X196968095Y-90385295D01*
X196968095Y-90385295D02*
X197015714Y-90290057D01*
X197015714Y-90290057D02*
X197063333Y-90242438D01*
X197063333Y-90242438D02*
X197158571Y-90194819D01*
X197158571Y-90194819D02*
X197349047Y-90194819D01*
X197349047Y-90194819D02*
X197444285Y-90242438D01*
X197444285Y-90242438D02*
X197491904Y-90290057D01*
X197491904Y-90290057D02*
X197539523Y-90385295D01*
X197539523Y-90385295D02*
X197539523Y-90432914D01*
X197539523Y-90432914D02*
X197491904Y-90528152D01*
X197491904Y-90528152D02*
X197444285Y-90575771D01*
X197444285Y-90575771D02*
X197349047Y-90623390D01*
X197349047Y-90623390D02*
X197158571Y-90623390D01*
X197158571Y-90623390D02*
X197063333Y-90671009D01*
X197063333Y-90671009D02*
X197015714Y-90718628D01*
X197015714Y-90718628D02*
X196968095Y-90813866D01*
X196968095Y-90813866D02*
X196968095Y-91004342D01*
X196968095Y-91004342D02*
X197015714Y-91099580D01*
X197015714Y-91099580D02*
X197063333Y-91147200D01*
X197063333Y-91147200D02*
X197158571Y-91194819D01*
X197158571Y-91194819D02*
X197349047Y-91194819D01*
X197349047Y-91194819D02*
X197444285Y-91147200D01*
X197444285Y-91147200D02*
X197491904Y-91099580D01*
X197491904Y-91099580D02*
X197539523Y-91004342D01*
X197539523Y-91004342D02*
X197539523Y-90813866D01*
X197539523Y-90813866D02*
X197491904Y-90718628D01*
X197491904Y-90718628D02*
X197444285Y-90671009D01*
X197444285Y-90671009D02*
X197349047Y-90623390D01*
X120773333Y-75284819D02*
X120440000Y-74808628D01*
X120201905Y-75284819D02*
X120201905Y-74284819D01*
X120201905Y-74284819D02*
X120582857Y-74284819D01*
X120582857Y-74284819D02*
X120678095Y-74332438D01*
X120678095Y-74332438D02*
X120725714Y-74380057D01*
X120725714Y-74380057D02*
X120773333Y-74475295D01*
X120773333Y-74475295D02*
X120773333Y-74618152D01*
X120773333Y-74618152D02*
X120725714Y-74713390D01*
X120725714Y-74713390D02*
X120678095Y-74761009D01*
X120678095Y-74761009D02*
X120582857Y-74808628D01*
X120582857Y-74808628D02*
X120201905Y-74808628D01*
X121344762Y-74713390D02*
X121249524Y-74665771D01*
X121249524Y-74665771D02*
X121201905Y-74618152D01*
X121201905Y-74618152D02*
X121154286Y-74522914D01*
X121154286Y-74522914D02*
X121154286Y-74475295D01*
X121154286Y-74475295D02*
X121201905Y-74380057D01*
X121201905Y-74380057D02*
X121249524Y-74332438D01*
X121249524Y-74332438D02*
X121344762Y-74284819D01*
X121344762Y-74284819D02*
X121535238Y-74284819D01*
X121535238Y-74284819D02*
X121630476Y-74332438D01*
X121630476Y-74332438D02*
X121678095Y-74380057D01*
X121678095Y-74380057D02*
X121725714Y-74475295D01*
X121725714Y-74475295D02*
X121725714Y-74522914D01*
X121725714Y-74522914D02*
X121678095Y-74618152D01*
X121678095Y-74618152D02*
X121630476Y-74665771D01*
X121630476Y-74665771D02*
X121535238Y-74713390D01*
X121535238Y-74713390D02*
X121344762Y-74713390D01*
X121344762Y-74713390D02*
X121249524Y-74761009D01*
X121249524Y-74761009D02*
X121201905Y-74808628D01*
X121201905Y-74808628D02*
X121154286Y-74903866D01*
X121154286Y-74903866D02*
X121154286Y-75094342D01*
X121154286Y-75094342D02*
X121201905Y-75189580D01*
X121201905Y-75189580D02*
X121249524Y-75237200D01*
X121249524Y-75237200D02*
X121344762Y-75284819D01*
X121344762Y-75284819D02*
X121535238Y-75284819D01*
X121535238Y-75284819D02*
X121630476Y-75237200D01*
X121630476Y-75237200D02*
X121678095Y-75189580D01*
X121678095Y-75189580D02*
X121725714Y-75094342D01*
X121725714Y-75094342D02*
X121725714Y-74903866D01*
X121725714Y-74903866D02*
X121678095Y-74808628D01*
X121678095Y-74808628D02*
X121630476Y-74761009D01*
X121630476Y-74761009D02*
X121535238Y-74713390D01*
X168847142Y-71354819D02*
X168513809Y-70878628D01*
X168275714Y-71354819D02*
X168275714Y-70354819D01*
X168275714Y-70354819D02*
X168656666Y-70354819D01*
X168656666Y-70354819D02*
X168751904Y-70402438D01*
X168751904Y-70402438D02*
X168799523Y-70450057D01*
X168799523Y-70450057D02*
X168847142Y-70545295D01*
X168847142Y-70545295D02*
X168847142Y-70688152D01*
X168847142Y-70688152D02*
X168799523Y-70783390D01*
X168799523Y-70783390D02*
X168751904Y-70831009D01*
X168751904Y-70831009D02*
X168656666Y-70878628D01*
X168656666Y-70878628D02*
X168275714Y-70878628D01*
X169799523Y-71354819D02*
X169228095Y-71354819D01*
X169513809Y-71354819D02*
X169513809Y-70354819D01*
X169513809Y-70354819D02*
X169418571Y-70497676D01*
X169418571Y-70497676D02*
X169323333Y-70592914D01*
X169323333Y-70592914D02*
X169228095Y-70640533D01*
X170751904Y-71354819D02*
X170180476Y-71354819D01*
X170466190Y-71354819D02*
X170466190Y-70354819D01*
X170466190Y-70354819D02*
X170370952Y-70497676D01*
X170370952Y-70497676D02*
X170275714Y-70592914D01*
X170275714Y-70592914D02*
X170180476Y-70640533D01*
X207477142Y-71084819D02*
X207143809Y-70608628D01*
X206905714Y-71084819D02*
X206905714Y-70084819D01*
X206905714Y-70084819D02*
X207286666Y-70084819D01*
X207286666Y-70084819D02*
X207381904Y-70132438D01*
X207381904Y-70132438D02*
X207429523Y-70180057D01*
X207429523Y-70180057D02*
X207477142Y-70275295D01*
X207477142Y-70275295D02*
X207477142Y-70418152D01*
X207477142Y-70418152D02*
X207429523Y-70513390D01*
X207429523Y-70513390D02*
X207381904Y-70561009D01*
X207381904Y-70561009D02*
X207286666Y-70608628D01*
X207286666Y-70608628D02*
X206905714Y-70608628D01*
X208429523Y-71084819D02*
X207858095Y-71084819D01*
X208143809Y-71084819D02*
X208143809Y-70084819D01*
X208143809Y-70084819D02*
X208048571Y-70227676D01*
X208048571Y-70227676D02*
X207953333Y-70322914D01*
X207953333Y-70322914D02*
X207858095Y-70370533D01*
X209334285Y-70084819D02*
X208858095Y-70084819D01*
X208858095Y-70084819D02*
X208810476Y-70561009D01*
X208810476Y-70561009D02*
X208858095Y-70513390D01*
X208858095Y-70513390D02*
X208953333Y-70465771D01*
X208953333Y-70465771D02*
X209191428Y-70465771D01*
X209191428Y-70465771D02*
X209286666Y-70513390D01*
X209286666Y-70513390D02*
X209334285Y-70561009D01*
X209334285Y-70561009D02*
X209381904Y-70656247D01*
X209381904Y-70656247D02*
X209381904Y-70894342D01*
X209381904Y-70894342D02*
X209334285Y-70989580D01*
X209334285Y-70989580D02*
X209286666Y-71037200D01*
X209286666Y-71037200D02*
X209191428Y-71084819D01*
X209191428Y-71084819D02*
X208953333Y-71084819D01*
X208953333Y-71084819D02*
X208858095Y-71037200D01*
X208858095Y-71037200D02*
X208810476Y-70989580D01*
X207557142Y-58484819D02*
X207223809Y-58008628D01*
X206985714Y-58484819D02*
X206985714Y-57484819D01*
X206985714Y-57484819D02*
X207366666Y-57484819D01*
X207366666Y-57484819D02*
X207461904Y-57532438D01*
X207461904Y-57532438D02*
X207509523Y-57580057D01*
X207509523Y-57580057D02*
X207557142Y-57675295D01*
X207557142Y-57675295D02*
X207557142Y-57818152D01*
X207557142Y-57818152D02*
X207509523Y-57913390D01*
X207509523Y-57913390D02*
X207461904Y-57961009D01*
X207461904Y-57961009D02*
X207366666Y-58008628D01*
X207366666Y-58008628D02*
X206985714Y-58008628D01*
X208509523Y-58484819D02*
X207938095Y-58484819D01*
X208223809Y-58484819D02*
X208223809Y-57484819D01*
X208223809Y-57484819D02*
X208128571Y-57627676D01*
X208128571Y-57627676D02*
X208033333Y-57722914D01*
X208033333Y-57722914D02*
X207938095Y-57770533D01*
X208842857Y-57484819D02*
X209461904Y-57484819D01*
X209461904Y-57484819D02*
X209128571Y-57865771D01*
X209128571Y-57865771D02*
X209271428Y-57865771D01*
X209271428Y-57865771D02*
X209366666Y-57913390D01*
X209366666Y-57913390D02*
X209414285Y-57961009D01*
X209414285Y-57961009D02*
X209461904Y-58056247D01*
X209461904Y-58056247D02*
X209461904Y-58294342D01*
X209461904Y-58294342D02*
X209414285Y-58389580D01*
X209414285Y-58389580D02*
X209366666Y-58437200D01*
X209366666Y-58437200D02*
X209271428Y-58484819D01*
X209271428Y-58484819D02*
X208985714Y-58484819D01*
X208985714Y-58484819D02*
X208890476Y-58437200D01*
X208890476Y-58437200D02*
X208842857Y-58389580D01*
X217975714Y-77494819D02*
X217975714Y-76494819D01*
X217975714Y-76494819D02*
X218213809Y-76494819D01*
X218213809Y-76494819D02*
X218356666Y-76542438D01*
X218356666Y-76542438D02*
X218451904Y-76637676D01*
X218451904Y-76637676D02*
X218499523Y-76732914D01*
X218499523Y-76732914D02*
X218547142Y-76923390D01*
X218547142Y-76923390D02*
X218547142Y-77066247D01*
X218547142Y-77066247D02*
X218499523Y-77256723D01*
X218499523Y-77256723D02*
X218451904Y-77351961D01*
X218451904Y-77351961D02*
X218356666Y-77447200D01*
X218356666Y-77447200D02*
X218213809Y-77494819D01*
X218213809Y-77494819D02*
X217975714Y-77494819D01*
X219499523Y-77494819D02*
X218928095Y-77494819D01*
X219213809Y-77494819D02*
X219213809Y-76494819D01*
X219213809Y-76494819D02*
X219118571Y-76637676D01*
X219118571Y-76637676D02*
X219023333Y-76732914D01*
X219023333Y-76732914D02*
X218928095Y-76780533D01*
X220404285Y-76494819D02*
X219928095Y-76494819D01*
X219928095Y-76494819D02*
X219880476Y-76971009D01*
X219880476Y-76971009D02*
X219928095Y-76923390D01*
X219928095Y-76923390D02*
X220023333Y-76875771D01*
X220023333Y-76875771D02*
X220261428Y-76875771D01*
X220261428Y-76875771D02*
X220356666Y-76923390D01*
X220356666Y-76923390D02*
X220404285Y-76971009D01*
X220404285Y-76971009D02*
X220451904Y-77066247D01*
X220451904Y-77066247D02*
X220451904Y-77304342D01*
X220451904Y-77304342D02*
X220404285Y-77399580D01*
X220404285Y-77399580D02*
X220356666Y-77447200D01*
X220356666Y-77447200D02*
X220261428Y-77494819D01*
X220261428Y-77494819D02*
X220023333Y-77494819D01*
X220023333Y-77494819D02*
X219928095Y-77447200D01*
X219928095Y-77447200D02*
X219880476Y-77399580D01*
X131437142Y-112284819D02*
X131103809Y-111808628D01*
X130865714Y-112284819D02*
X130865714Y-111284819D01*
X130865714Y-111284819D02*
X131246666Y-111284819D01*
X131246666Y-111284819D02*
X131341904Y-111332438D01*
X131341904Y-111332438D02*
X131389523Y-111380057D01*
X131389523Y-111380057D02*
X131437142Y-111475295D01*
X131437142Y-111475295D02*
X131437142Y-111618152D01*
X131437142Y-111618152D02*
X131389523Y-111713390D01*
X131389523Y-111713390D02*
X131341904Y-111761009D01*
X131341904Y-111761009D02*
X131246666Y-111808628D01*
X131246666Y-111808628D02*
X130865714Y-111808628D01*
X131818095Y-111380057D02*
X131865714Y-111332438D01*
X131865714Y-111332438D02*
X131960952Y-111284819D01*
X131960952Y-111284819D02*
X132199047Y-111284819D01*
X132199047Y-111284819D02*
X132294285Y-111332438D01*
X132294285Y-111332438D02*
X132341904Y-111380057D01*
X132341904Y-111380057D02*
X132389523Y-111475295D01*
X132389523Y-111475295D02*
X132389523Y-111570533D01*
X132389523Y-111570533D02*
X132341904Y-111713390D01*
X132341904Y-111713390D02*
X131770476Y-112284819D01*
X131770476Y-112284819D02*
X132389523Y-112284819D01*
X133246666Y-111618152D02*
X133246666Y-112284819D01*
X133008571Y-111237200D02*
X132770476Y-111951485D01*
X132770476Y-111951485D02*
X133389523Y-111951485D01*
X168847142Y-65154819D02*
X168513809Y-64678628D01*
X168275714Y-65154819D02*
X168275714Y-64154819D01*
X168275714Y-64154819D02*
X168656666Y-64154819D01*
X168656666Y-64154819D02*
X168751904Y-64202438D01*
X168751904Y-64202438D02*
X168799523Y-64250057D01*
X168799523Y-64250057D02*
X168847142Y-64345295D01*
X168847142Y-64345295D02*
X168847142Y-64488152D01*
X168847142Y-64488152D02*
X168799523Y-64583390D01*
X168799523Y-64583390D02*
X168751904Y-64631009D01*
X168751904Y-64631009D02*
X168656666Y-64678628D01*
X168656666Y-64678628D02*
X168275714Y-64678628D01*
X169799523Y-65154819D02*
X169228095Y-65154819D01*
X169513809Y-65154819D02*
X169513809Y-64154819D01*
X169513809Y-64154819D02*
X169418571Y-64297676D01*
X169418571Y-64297676D02*
X169323333Y-64392914D01*
X169323333Y-64392914D02*
X169228095Y-64440533D01*
X170418571Y-64154819D02*
X170513809Y-64154819D01*
X170513809Y-64154819D02*
X170609047Y-64202438D01*
X170609047Y-64202438D02*
X170656666Y-64250057D01*
X170656666Y-64250057D02*
X170704285Y-64345295D01*
X170704285Y-64345295D02*
X170751904Y-64535771D01*
X170751904Y-64535771D02*
X170751904Y-64773866D01*
X170751904Y-64773866D02*
X170704285Y-64964342D01*
X170704285Y-64964342D02*
X170656666Y-65059580D01*
X170656666Y-65059580D02*
X170609047Y-65107200D01*
X170609047Y-65107200D02*
X170513809Y-65154819D01*
X170513809Y-65154819D02*
X170418571Y-65154819D01*
X170418571Y-65154819D02*
X170323333Y-65107200D01*
X170323333Y-65107200D02*
X170275714Y-65059580D01*
X170275714Y-65059580D02*
X170228095Y-64964342D01*
X170228095Y-64964342D02*
X170180476Y-64773866D01*
X170180476Y-64773866D02*
X170180476Y-64535771D01*
X170180476Y-64535771D02*
X170228095Y-64345295D01*
X170228095Y-64345295D02*
X170275714Y-64250057D01*
X170275714Y-64250057D02*
X170323333Y-64202438D01*
X170323333Y-64202438D02*
X170418571Y-64154819D01*
X218035714Y-91354819D02*
X218035714Y-90354819D01*
X218035714Y-90354819D02*
X218273809Y-90354819D01*
X218273809Y-90354819D02*
X218416666Y-90402438D01*
X218416666Y-90402438D02*
X218511904Y-90497676D01*
X218511904Y-90497676D02*
X218559523Y-90592914D01*
X218559523Y-90592914D02*
X218607142Y-90783390D01*
X218607142Y-90783390D02*
X218607142Y-90926247D01*
X218607142Y-90926247D02*
X218559523Y-91116723D01*
X218559523Y-91116723D02*
X218511904Y-91211961D01*
X218511904Y-91211961D02*
X218416666Y-91307200D01*
X218416666Y-91307200D02*
X218273809Y-91354819D01*
X218273809Y-91354819D02*
X218035714Y-91354819D01*
X218988095Y-90450057D02*
X219035714Y-90402438D01*
X219035714Y-90402438D02*
X219130952Y-90354819D01*
X219130952Y-90354819D02*
X219369047Y-90354819D01*
X219369047Y-90354819D02*
X219464285Y-90402438D01*
X219464285Y-90402438D02*
X219511904Y-90450057D01*
X219511904Y-90450057D02*
X219559523Y-90545295D01*
X219559523Y-90545295D02*
X219559523Y-90640533D01*
X219559523Y-90640533D02*
X219511904Y-90783390D01*
X219511904Y-90783390D02*
X218940476Y-91354819D01*
X218940476Y-91354819D02*
X219559523Y-91354819D01*
X220035714Y-91354819D02*
X220226190Y-91354819D01*
X220226190Y-91354819D02*
X220321428Y-91307200D01*
X220321428Y-91307200D02*
X220369047Y-91259580D01*
X220369047Y-91259580D02*
X220464285Y-91116723D01*
X220464285Y-91116723D02*
X220511904Y-90926247D01*
X220511904Y-90926247D02*
X220511904Y-90545295D01*
X220511904Y-90545295D02*
X220464285Y-90450057D01*
X220464285Y-90450057D02*
X220416666Y-90402438D01*
X220416666Y-90402438D02*
X220321428Y-90354819D01*
X220321428Y-90354819D02*
X220130952Y-90354819D01*
X220130952Y-90354819D02*
X220035714Y-90402438D01*
X220035714Y-90402438D02*
X219988095Y-90450057D01*
X219988095Y-90450057D02*
X219940476Y-90545295D01*
X219940476Y-90545295D02*
X219940476Y-90783390D01*
X219940476Y-90783390D02*
X219988095Y-90878628D01*
X219988095Y-90878628D02*
X220035714Y-90926247D01*
X220035714Y-90926247D02*
X220130952Y-90973866D01*
X220130952Y-90973866D02*
X220321428Y-90973866D01*
X220321428Y-90973866D02*
X220416666Y-90926247D01*
X220416666Y-90926247D02*
X220464285Y-90878628D01*
X220464285Y-90878628D02*
X220511904Y-90783390D01*
X168817142Y-105134819D02*
X168483809Y-104658628D01*
X168245714Y-105134819D02*
X168245714Y-104134819D01*
X168245714Y-104134819D02*
X168626666Y-104134819D01*
X168626666Y-104134819D02*
X168721904Y-104182438D01*
X168721904Y-104182438D02*
X168769523Y-104230057D01*
X168769523Y-104230057D02*
X168817142Y-104325295D01*
X168817142Y-104325295D02*
X168817142Y-104468152D01*
X168817142Y-104468152D02*
X168769523Y-104563390D01*
X168769523Y-104563390D02*
X168721904Y-104611009D01*
X168721904Y-104611009D02*
X168626666Y-104658628D01*
X168626666Y-104658628D02*
X168245714Y-104658628D01*
X169198095Y-104230057D02*
X169245714Y-104182438D01*
X169245714Y-104182438D02*
X169340952Y-104134819D01*
X169340952Y-104134819D02*
X169579047Y-104134819D01*
X169579047Y-104134819D02*
X169674285Y-104182438D01*
X169674285Y-104182438D02*
X169721904Y-104230057D01*
X169721904Y-104230057D02*
X169769523Y-104325295D01*
X169769523Y-104325295D02*
X169769523Y-104420533D01*
X169769523Y-104420533D02*
X169721904Y-104563390D01*
X169721904Y-104563390D02*
X169150476Y-105134819D01*
X169150476Y-105134819D02*
X169769523Y-105134819D01*
X170102857Y-104134819D02*
X170769523Y-104134819D01*
X170769523Y-104134819D02*
X170340952Y-105134819D01*
X81138095Y-93254819D02*
X81138095Y-94064342D01*
X81138095Y-94064342D02*
X81185714Y-94159580D01*
X81185714Y-94159580D02*
X81233333Y-94207200D01*
X81233333Y-94207200D02*
X81328571Y-94254819D01*
X81328571Y-94254819D02*
X81519047Y-94254819D01*
X81519047Y-94254819D02*
X81614285Y-94207200D01*
X81614285Y-94207200D02*
X81661904Y-94159580D01*
X81661904Y-94159580D02*
X81709523Y-94064342D01*
X81709523Y-94064342D02*
X81709523Y-93254819D01*
X82661904Y-93254819D02*
X82185714Y-93254819D01*
X82185714Y-93254819D02*
X82138095Y-93731009D01*
X82138095Y-93731009D02*
X82185714Y-93683390D01*
X82185714Y-93683390D02*
X82280952Y-93635771D01*
X82280952Y-93635771D02*
X82519047Y-93635771D01*
X82519047Y-93635771D02*
X82614285Y-93683390D01*
X82614285Y-93683390D02*
X82661904Y-93731009D01*
X82661904Y-93731009D02*
X82709523Y-93826247D01*
X82709523Y-93826247D02*
X82709523Y-94064342D01*
X82709523Y-94064342D02*
X82661904Y-94159580D01*
X82661904Y-94159580D02*
X82614285Y-94207200D01*
X82614285Y-94207200D02*
X82519047Y-94254819D01*
X82519047Y-94254819D02*
X82280952Y-94254819D01*
X82280952Y-94254819D02*
X82185714Y-94207200D01*
X82185714Y-94207200D02*
X82138095Y-94159580D01*
X131237142Y-106284819D02*
X130903809Y-105808628D01*
X130665714Y-106284819D02*
X130665714Y-105284819D01*
X130665714Y-105284819D02*
X131046666Y-105284819D01*
X131046666Y-105284819D02*
X131141904Y-105332438D01*
X131141904Y-105332438D02*
X131189523Y-105380057D01*
X131189523Y-105380057D02*
X131237142Y-105475295D01*
X131237142Y-105475295D02*
X131237142Y-105618152D01*
X131237142Y-105618152D02*
X131189523Y-105713390D01*
X131189523Y-105713390D02*
X131141904Y-105761009D01*
X131141904Y-105761009D02*
X131046666Y-105808628D01*
X131046666Y-105808628D02*
X130665714Y-105808628D01*
X131618095Y-105380057D02*
X131665714Y-105332438D01*
X131665714Y-105332438D02*
X131760952Y-105284819D01*
X131760952Y-105284819D02*
X131999047Y-105284819D01*
X131999047Y-105284819D02*
X132094285Y-105332438D01*
X132094285Y-105332438D02*
X132141904Y-105380057D01*
X132141904Y-105380057D02*
X132189523Y-105475295D01*
X132189523Y-105475295D02*
X132189523Y-105570533D01*
X132189523Y-105570533D02*
X132141904Y-105713390D01*
X132141904Y-105713390D02*
X131570476Y-106284819D01*
X131570476Y-106284819D02*
X132189523Y-106284819D01*
X132522857Y-105284819D02*
X133141904Y-105284819D01*
X133141904Y-105284819D02*
X132808571Y-105665771D01*
X132808571Y-105665771D02*
X132951428Y-105665771D01*
X132951428Y-105665771D02*
X133046666Y-105713390D01*
X133046666Y-105713390D02*
X133094285Y-105761009D01*
X133094285Y-105761009D02*
X133141904Y-105856247D01*
X133141904Y-105856247D02*
X133141904Y-106094342D01*
X133141904Y-106094342D02*
X133094285Y-106189580D01*
X133094285Y-106189580D02*
X133046666Y-106237200D01*
X133046666Y-106237200D02*
X132951428Y-106284819D01*
X132951428Y-106284819D02*
X132665714Y-106284819D01*
X132665714Y-106284819D02*
X132570476Y-106237200D01*
X132570476Y-106237200D02*
X132522857Y-106189580D01*
X195168095Y-56924819D02*
X195168095Y-57734342D01*
X195168095Y-57734342D02*
X195215714Y-57829580D01*
X195215714Y-57829580D02*
X195263333Y-57877200D01*
X195263333Y-57877200D02*
X195358571Y-57924819D01*
X195358571Y-57924819D02*
X195549047Y-57924819D01*
X195549047Y-57924819D02*
X195644285Y-57877200D01*
X195644285Y-57877200D02*
X195691904Y-57829580D01*
X195691904Y-57829580D02*
X195739523Y-57734342D01*
X195739523Y-57734342D02*
X195739523Y-56924819D01*
X196644285Y-57258152D02*
X196644285Y-57924819D01*
X196406190Y-56877200D02*
X196168095Y-57591485D01*
X196168095Y-57591485D02*
X196787142Y-57591485D01*
X55038095Y-120104819D02*
X55038095Y-119104819D01*
X55038095Y-119581009D02*
X55609523Y-119581009D01*
X55609523Y-120104819D02*
X55609523Y-119104819D01*
X56514285Y-119438152D02*
X56514285Y-120104819D01*
X56276190Y-119057200D02*
X56038095Y-119771485D01*
X56038095Y-119771485D02*
X56657142Y-119771485D01*
X138383333Y-56909580D02*
X138335714Y-56957200D01*
X138335714Y-56957200D02*
X138192857Y-57004819D01*
X138192857Y-57004819D02*
X138097619Y-57004819D01*
X138097619Y-57004819D02*
X137954762Y-56957200D01*
X137954762Y-56957200D02*
X137859524Y-56861961D01*
X137859524Y-56861961D02*
X137811905Y-56766723D01*
X137811905Y-56766723D02*
X137764286Y-56576247D01*
X137764286Y-56576247D02*
X137764286Y-56433390D01*
X137764286Y-56433390D02*
X137811905Y-56242914D01*
X137811905Y-56242914D02*
X137859524Y-56147676D01*
X137859524Y-56147676D02*
X137954762Y-56052438D01*
X137954762Y-56052438D02*
X138097619Y-56004819D01*
X138097619Y-56004819D02*
X138192857Y-56004819D01*
X138192857Y-56004819D02*
X138335714Y-56052438D01*
X138335714Y-56052438D02*
X138383333Y-56100057D01*
X138859524Y-57004819D02*
X139050000Y-57004819D01*
X139050000Y-57004819D02*
X139145238Y-56957200D01*
X139145238Y-56957200D02*
X139192857Y-56909580D01*
X139192857Y-56909580D02*
X139288095Y-56766723D01*
X139288095Y-56766723D02*
X139335714Y-56576247D01*
X139335714Y-56576247D02*
X139335714Y-56195295D01*
X139335714Y-56195295D02*
X139288095Y-56100057D01*
X139288095Y-56100057D02*
X139240476Y-56052438D01*
X139240476Y-56052438D02*
X139145238Y-56004819D01*
X139145238Y-56004819D02*
X138954762Y-56004819D01*
X138954762Y-56004819D02*
X138859524Y-56052438D01*
X138859524Y-56052438D02*
X138811905Y-56100057D01*
X138811905Y-56100057D02*
X138764286Y-56195295D01*
X138764286Y-56195295D02*
X138764286Y-56433390D01*
X138764286Y-56433390D02*
X138811905Y-56528628D01*
X138811905Y-56528628D02*
X138859524Y-56576247D01*
X138859524Y-56576247D02*
X138954762Y-56623866D01*
X138954762Y-56623866D02*
X139145238Y-56623866D01*
X139145238Y-56623866D02*
X139240476Y-56576247D01*
X139240476Y-56576247D02*
X139288095Y-56528628D01*
X139288095Y-56528628D02*
X139335714Y-56433390D01*
X131317142Y-93994819D02*
X130983809Y-93518628D01*
X130745714Y-93994819D02*
X130745714Y-92994819D01*
X130745714Y-92994819D02*
X131126666Y-92994819D01*
X131126666Y-92994819D02*
X131221904Y-93042438D01*
X131221904Y-93042438D02*
X131269523Y-93090057D01*
X131269523Y-93090057D02*
X131317142Y-93185295D01*
X131317142Y-93185295D02*
X131317142Y-93328152D01*
X131317142Y-93328152D02*
X131269523Y-93423390D01*
X131269523Y-93423390D02*
X131221904Y-93471009D01*
X131221904Y-93471009D02*
X131126666Y-93518628D01*
X131126666Y-93518628D02*
X130745714Y-93518628D01*
X131698095Y-93090057D02*
X131745714Y-93042438D01*
X131745714Y-93042438D02*
X131840952Y-92994819D01*
X131840952Y-92994819D02*
X132079047Y-92994819D01*
X132079047Y-92994819D02*
X132174285Y-93042438D01*
X132174285Y-93042438D02*
X132221904Y-93090057D01*
X132221904Y-93090057D02*
X132269523Y-93185295D01*
X132269523Y-93185295D02*
X132269523Y-93280533D01*
X132269523Y-93280533D02*
X132221904Y-93423390D01*
X132221904Y-93423390D02*
X131650476Y-93994819D01*
X131650476Y-93994819D02*
X132269523Y-93994819D01*
X133221904Y-93994819D02*
X132650476Y-93994819D01*
X132936190Y-93994819D02*
X132936190Y-92994819D01*
X132936190Y-92994819D02*
X132840952Y-93137676D01*
X132840952Y-93137676D02*
X132745714Y-93232914D01*
X132745714Y-93232914D02*
X132650476Y-93280533D01*
X168817142Y-98934819D02*
X168483809Y-98458628D01*
X168245714Y-98934819D02*
X168245714Y-97934819D01*
X168245714Y-97934819D02*
X168626666Y-97934819D01*
X168626666Y-97934819D02*
X168721904Y-97982438D01*
X168721904Y-97982438D02*
X168769523Y-98030057D01*
X168769523Y-98030057D02*
X168817142Y-98125295D01*
X168817142Y-98125295D02*
X168817142Y-98268152D01*
X168817142Y-98268152D02*
X168769523Y-98363390D01*
X168769523Y-98363390D02*
X168721904Y-98411009D01*
X168721904Y-98411009D02*
X168626666Y-98458628D01*
X168626666Y-98458628D02*
X168245714Y-98458628D01*
X169198095Y-98030057D02*
X169245714Y-97982438D01*
X169245714Y-97982438D02*
X169340952Y-97934819D01*
X169340952Y-97934819D02*
X169579047Y-97934819D01*
X169579047Y-97934819D02*
X169674285Y-97982438D01*
X169674285Y-97982438D02*
X169721904Y-98030057D01*
X169721904Y-98030057D02*
X169769523Y-98125295D01*
X169769523Y-98125295D02*
X169769523Y-98220533D01*
X169769523Y-98220533D02*
X169721904Y-98363390D01*
X169721904Y-98363390D02*
X169150476Y-98934819D01*
X169150476Y-98934819D02*
X169769523Y-98934819D01*
X170626666Y-97934819D02*
X170436190Y-97934819D01*
X170436190Y-97934819D02*
X170340952Y-97982438D01*
X170340952Y-97982438D02*
X170293333Y-98030057D01*
X170293333Y-98030057D02*
X170198095Y-98172914D01*
X170198095Y-98172914D02*
X170150476Y-98363390D01*
X170150476Y-98363390D02*
X170150476Y-98744342D01*
X170150476Y-98744342D02*
X170198095Y-98839580D01*
X170198095Y-98839580D02*
X170245714Y-98887200D01*
X170245714Y-98887200D02*
X170340952Y-98934819D01*
X170340952Y-98934819D02*
X170531428Y-98934819D01*
X170531428Y-98934819D02*
X170626666Y-98887200D01*
X170626666Y-98887200D02*
X170674285Y-98839580D01*
X170674285Y-98839580D02*
X170721904Y-98744342D01*
X170721904Y-98744342D02*
X170721904Y-98506247D01*
X170721904Y-98506247D02*
X170674285Y-98411009D01*
X170674285Y-98411009D02*
X170626666Y-98363390D01*
X170626666Y-98363390D02*
X170531428Y-98315771D01*
X170531428Y-98315771D02*
X170340952Y-98315771D01*
X170340952Y-98315771D02*
X170245714Y-98363390D01*
X170245714Y-98363390D02*
X170198095Y-98411009D01*
X170198095Y-98411009D02*
X170150476Y-98506247D01*
X178435714Y-101544819D02*
X178435714Y-100544819D01*
X178435714Y-100544819D02*
X178673809Y-100544819D01*
X178673809Y-100544819D02*
X178816666Y-100592438D01*
X178816666Y-100592438D02*
X178911904Y-100687676D01*
X178911904Y-100687676D02*
X178959523Y-100782914D01*
X178959523Y-100782914D02*
X179007142Y-100973390D01*
X179007142Y-100973390D02*
X179007142Y-101116247D01*
X179007142Y-101116247D02*
X178959523Y-101306723D01*
X178959523Y-101306723D02*
X178911904Y-101401961D01*
X178911904Y-101401961D02*
X178816666Y-101497200D01*
X178816666Y-101497200D02*
X178673809Y-101544819D01*
X178673809Y-101544819D02*
X178435714Y-101544819D01*
X179388095Y-100640057D02*
X179435714Y-100592438D01*
X179435714Y-100592438D02*
X179530952Y-100544819D01*
X179530952Y-100544819D02*
X179769047Y-100544819D01*
X179769047Y-100544819D02*
X179864285Y-100592438D01*
X179864285Y-100592438D02*
X179911904Y-100640057D01*
X179911904Y-100640057D02*
X179959523Y-100735295D01*
X179959523Y-100735295D02*
X179959523Y-100830533D01*
X179959523Y-100830533D02*
X179911904Y-100973390D01*
X179911904Y-100973390D02*
X179340476Y-101544819D01*
X179340476Y-101544819D02*
X179959523Y-101544819D01*
X180816666Y-100544819D02*
X180626190Y-100544819D01*
X180626190Y-100544819D02*
X180530952Y-100592438D01*
X180530952Y-100592438D02*
X180483333Y-100640057D01*
X180483333Y-100640057D02*
X180388095Y-100782914D01*
X180388095Y-100782914D02*
X180340476Y-100973390D01*
X180340476Y-100973390D02*
X180340476Y-101354342D01*
X180340476Y-101354342D02*
X180388095Y-101449580D01*
X180388095Y-101449580D02*
X180435714Y-101497200D01*
X180435714Y-101497200D02*
X180530952Y-101544819D01*
X180530952Y-101544819D02*
X180721428Y-101544819D01*
X180721428Y-101544819D02*
X180816666Y-101497200D01*
X180816666Y-101497200D02*
X180864285Y-101449580D01*
X180864285Y-101449580D02*
X180911904Y-101354342D01*
X180911904Y-101354342D02*
X180911904Y-101116247D01*
X180911904Y-101116247D02*
X180864285Y-101021009D01*
X180864285Y-101021009D02*
X180816666Y-100973390D01*
X180816666Y-100973390D02*
X180721428Y-100925771D01*
X180721428Y-100925771D02*
X180530952Y-100925771D01*
X180530952Y-100925771D02*
X180435714Y-100973390D01*
X180435714Y-100973390D02*
X180388095Y-101021009D01*
X180388095Y-101021009D02*
X180340476Y-101116247D01*
X120773333Y-62684819D02*
X120440000Y-62208628D01*
X120201905Y-62684819D02*
X120201905Y-61684819D01*
X120201905Y-61684819D02*
X120582857Y-61684819D01*
X120582857Y-61684819D02*
X120678095Y-61732438D01*
X120678095Y-61732438D02*
X120725714Y-61780057D01*
X120725714Y-61780057D02*
X120773333Y-61875295D01*
X120773333Y-61875295D02*
X120773333Y-62018152D01*
X120773333Y-62018152D02*
X120725714Y-62113390D01*
X120725714Y-62113390D02*
X120678095Y-62161009D01*
X120678095Y-62161009D02*
X120582857Y-62208628D01*
X120582857Y-62208628D02*
X120201905Y-62208628D01*
X121630476Y-61684819D02*
X121440000Y-61684819D01*
X121440000Y-61684819D02*
X121344762Y-61732438D01*
X121344762Y-61732438D02*
X121297143Y-61780057D01*
X121297143Y-61780057D02*
X121201905Y-61922914D01*
X121201905Y-61922914D02*
X121154286Y-62113390D01*
X121154286Y-62113390D02*
X121154286Y-62494342D01*
X121154286Y-62494342D02*
X121201905Y-62589580D01*
X121201905Y-62589580D02*
X121249524Y-62637200D01*
X121249524Y-62637200D02*
X121344762Y-62684819D01*
X121344762Y-62684819D02*
X121535238Y-62684819D01*
X121535238Y-62684819D02*
X121630476Y-62637200D01*
X121630476Y-62637200D02*
X121678095Y-62589580D01*
X121678095Y-62589580D02*
X121725714Y-62494342D01*
X121725714Y-62494342D02*
X121725714Y-62256247D01*
X121725714Y-62256247D02*
X121678095Y-62161009D01*
X121678095Y-62161009D02*
X121630476Y-62113390D01*
X121630476Y-62113390D02*
X121535238Y-62065771D01*
X121535238Y-62065771D02*
X121344762Y-62065771D01*
X121344762Y-62065771D02*
X121249524Y-62113390D01*
X121249524Y-62113390D02*
X121201905Y-62161009D01*
X121201905Y-62161009D02*
X121154286Y-62256247D01*
X168497142Y-92244819D02*
X168163809Y-91768628D01*
X167925714Y-92244819D02*
X167925714Y-91244819D01*
X167925714Y-91244819D02*
X168306666Y-91244819D01*
X168306666Y-91244819D02*
X168401904Y-91292438D01*
X168401904Y-91292438D02*
X168449523Y-91340057D01*
X168449523Y-91340057D02*
X168497142Y-91435295D01*
X168497142Y-91435295D02*
X168497142Y-91578152D01*
X168497142Y-91578152D02*
X168449523Y-91673390D01*
X168449523Y-91673390D02*
X168401904Y-91721009D01*
X168401904Y-91721009D02*
X168306666Y-91768628D01*
X168306666Y-91768628D02*
X167925714Y-91768628D01*
X168878095Y-91340057D02*
X168925714Y-91292438D01*
X168925714Y-91292438D02*
X169020952Y-91244819D01*
X169020952Y-91244819D02*
X169259047Y-91244819D01*
X169259047Y-91244819D02*
X169354285Y-91292438D01*
X169354285Y-91292438D02*
X169401904Y-91340057D01*
X169401904Y-91340057D02*
X169449523Y-91435295D01*
X169449523Y-91435295D02*
X169449523Y-91530533D01*
X169449523Y-91530533D02*
X169401904Y-91673390D01*
X169401904Y-91673390D02*
X168830476Y-92244819D01*
X168830476Y-92244819D02*
X169449523Y-92244819D01*
X170354285Y-91244819D02*
X169878095Y-91244819D01*
X169878095Y-91244819D02*
X169830476Y-91721009D01*
X169830476Y-91721009D02*
X169878095Y-91673390D01*
X169878095Y-91673390D02*
X169973333Y-91625771D01*
X169973333Y-91625771D02*
X170211428Y-91625771D01*
X170211428Y-91625771D02*
X170306666Y-91673390D01*
X170306666Y-91673390D02*
X170354285Y-91721009D01*
X170354285Y-91721009D02*
X170401904Y-91816247D01*
X170401904Y-91816247D02*
X170401904Y-92054342D01*
X170401904Y-92054342D02*
X170354285Y-92149580D01*
X170354285Y-92149580D02*
X170306666Y-92197200D01*
X170306666Y-92197200D02*
X170211428Y-92244819D01*
X170211428Y-92244819D02*
X169973333Y-92244819D01*
X169973333Y-92244819D02*
X169878095Y-92197200D01*
X169878095Y-92197200D02*
X169830476Y-92149580D01*
X179401905Y-58754819D02*
X179401905Y-57754819D01*
X179401905Y-57754819D02*
X179640000Y-57754819D01*
X179640000Y-57754819D02*
X179782857Y-57802438D01*
X179782857Y-57802438D02*
X179878095Y-57897676D01*
X179878095Y-57897676D02*
X179925714Y-57992914D01*
X179925714Y-57992914D02*
X179973333Y-58183390D01*
X179973333Y-58183390D02*
X179973333Y-58326247D01*
X179973333Y-58326247D02*
X179925714Y-58516723D01*
X179925714Y-58516723D02*
X179878095Y-58611961D01*
X179878095Y-58611961D02*
X179782857Y-58707200D01*
X179782857Y-58707200D02*
X179640000Y-58754819D01*
X179640000Y-58754819D02*
X179401905Y-58754819D01*
X180449524Y-58754819D02*
X180640000Y-58754819D01*
X180640000Y-58754819D02*
X180735238Y-58707200D01*
X180735238Y-58707200D02*
X180782857Y-58659580D01*
X180782857Y-58659580D02*
X180878095Y-58516723D01*
X180878095Y-58516723D02*
X180925714Y-58326247D01*
X180925714Y-58326247D02*
X180925714Y-57945295D01*
X180925714Y-57945295D02*
X180878095Y-57850057D01*
X180878095Y-57850057D02*
X180830476Y-57802438D01*
X180830476Y-57802438D02*
X180735238Y-57754819D01*
X180735238Y-57754819D02*
X180544762Y-57754819D01*
X180544762Y-57754819D02*
X180449524Y-57802438D01*
X180449524Y-57802438D02*
X180401905Y-57850057D01*
X180401905Y-57850057D02*
X180354286Y-57945295D01*
X180354286Y-57945295D02*
X180354286Y-58183390D01*
X180354286Y-58183390D02*
X180401905Y-58278628D01*
X180401905Y-58278628D02*
X180449524Y-58326247D01*
X180449524Y-58326247D02*
X180544762Y-58373866D01*
X180544762Y-58373866D02*
X180735238Y-58373866D01*
X180735238Y-58373866D02*
X180830476Y-58326247D01*
X180830476Y-58326247D02*
X180878095Y-58278628D01*
X180878095Y-58278628D02*
X180925714Y-58183390D01*
X55638095Y-49904819D02*
X55638095Y-48904819D01*
X55638095Y-49381009D02*
X56209523Y-49381009D01*
X56209523Y-49904819D02*
X56209523Y-48904819D01*
X57209523Y-49904819D02*
X56638095Y-49904819D01*
X56923809Y-49904819D02*
X56923809Y-48904819D01*
X56923809Y-48904819D02*
X56828571Y-49047676D01*
X56828571Y-49047676D02*
X56733333Y-49142914D01*
X56733333Y-49142914D02*
X56638095Y-49190533D01*
X62356667Y-94017200D02*
X62499524Y-94064819D01*
X62499524Y-94064819D02*
X62737619Y-94064819D01*
X62737619Y-94064819D02*
X62832857Y-94017200D01*
X62832857Y-94017200D02*
X62880476Y-93969580D01*
X62880476Y-93969580D02*
X62928095Y-93874342D01*
X62928095Y-93874342D02*
X62928095Y-93779104D01*
X62928095Y-93779104D02*
X62880476Y-93683866D01*
X62880476Y-93683866D02*
X62832857Y-93636247D01*
X62832857Y-93636247D02*
X62737619Y-93588628D01*
X62737619Y-93588628D02*
X62547143Y-93541009D01*
X62547143Y-93541009D02*
X62451905Y-93493390D01*
X62451905Y-93493390D02*
X62404286Y-93445771D01*
X62404286Y-93445771D02*
X62356667Y-93350533D01*
X62356667Y-93350533D02*
X62356667Y-93255295D01*
X62356667Y-93255295D02*
X62404286Y-93160057D01*
X62404286Y-93160057D02*
X62451905Y-93112438D01*
X62451905Y-93112438D02*
X62547143Y-93064819D01*
X62547143Y-93064819D02*
X62785238Y-93064819D01*
X62785238Y-93064819D02*
X62928095Y-93112438D01*
X63261429Y-93064819D02*
X63499524Y-94064819D01*
X63499524Y-94064819D02*
X63690000Y-93350533D01*
X63690000Y-93350533D02*
X63880476Y-94064819D01*
X63880476Y-94064819D02*
X64118572Y-93064819D01*
X64451905Y-93160057D02*
X64499524Y-93112438D01*
X64499524Y-93112438D02*
X64594762Y-93064819D01*
X64594762Y-93064819D02*
X64832857Y-93064819D01*
X64832857Y-93064819D02*
X64928095Y-93112438D01*
X64928095Y-93112438D02*
X64975714Y-93160057D01*
X64975714Y-93160057D02*
X65023333Y-93255295D01*
X65023333Y-93255295D02*
X65023333Y-93350533D01*
X65023333Y-93350533D02*
X64975714Y-93493390D01*
X64975714Y-93493390D02*
X64404286Y-94064819D01*
X64404286Y-94064819D02*
X65023333Y-94064819D01*
X93297142Y-94194819D02*
X92963809Y-93718628D01*
X92725714Y-94194819D02*
X92725714Y-93194819D01*
X92725714Y-93194819D02*
X93106666Y-93194819D01*
X93106666Y-93194819D02*
X93201904Y-93242438D01*
X93201904Y-93242438D02*
X93249523Y-93290057D01*
X93249523Y-93290057D02*
X93297142Y-93385295D01*
X93297142Y-93385295D02*
X93297142Y-93528152D01*
X93297142Y-93528152D02*
X93249523Y-93623390D01*
X93249523Y-93623390D02*
X93201904Y-93671009D01*
X93201904Y-93671009D02*
X93106666Y-93718628D01*
X93106666Y-93718628D02*
X92725714Y-93718628D01*
X94249523Y-94194819D02*
X93678095Y-94194819D01*
X93963809Y-94194819D02*
X93963809Y-93194819D01*
X93963809Y-93194819D02*
X93868571Y-93337676D01*
X93868571Y-93337676D02*
X93773333Y-93432914D01*
X93773333Y-93432914D02*
X93678095Y-93480533D01*
X94582857Y-93194819D02*
X95249523Y-93194819D01*
X95249523Y-93194819D02*
X94820952Y-94194819D01*
X210975714Y-81894819D02*
X210975714Y-80894819D01*
X210975714Y-80894819D02*
X211213809Y-80894819D01*
X211213809Y-80894819D02*
X211356666Y-80942438D01*
X211356666Y-80942438D02*
X211451904Y-81037676D01*
X211451904Y-81037676D02*
X211499523Y-81132914D01*
X211499523Y-81132914D02*
X211547142Y-81323390D01*
X211547142Y-81323390D02*
X211547142Y-81466247D01*
X211547142Y-81466247D02*
X211499523Y-81656723D01*
X211499523Y-81656723D02*
X211451904Y-81751961D01*
X211451904Y-81751961D02*
X211356666Y-81847200D01*
X211356666Y-81847200D02*
X211213809Y-81894819D01*
X211213809Y-81894819D02*
X210975714Y-81894819D01*
X212499523Y-81894819D02*
X211928095Y-81894819D01*
X212213809Y-81894819D02*
X212213809Y-80894819D01*
X212213809Y-80894819D02*
X212118571Y-81037676D01*
X212118571Y-81037676D02*
X212023333Y-81132914D01*
X212023333Y-81132914D02*
X211928095Y-81180533D01*
X213356666Y-80894819D02*
X213166190Y-80894819D01*
X213166190Y-80894819D02*
X213070952Y-80942438D01*
X213070952Y-80942438D02*
X213023333Y-80990057D01*
X213023333Y-80990057D02*
X212928095Y-81132914D01*
X212928095Y-81132914D02*
X212880476Y-81323390D01*
X212880476Y-81323390D02*
X212880476Y-81704342D01*
X212880476Y-81704342D02*
X212928095Y-81799580D01*
X212928095Y-81799580D02*
X212975714Y-81847200D01*
X212975714Y-81847200D02*
X213070952Y-81894819D01*
X213070952Y-81894819D02*
X213261428Y-81894819D01*
X213261428Y-81894819D02*
X213356666Y-81847200D01*
X213356666Y-81847200D02*
X213404285Y-81799580D01*
X213404285Y-81799580D02*
X213451904Y-81704342D01*
X213451904Y-81704342D02*
X213451904Y-81466247D01*
X213451904Y-81466247D02*
X213404285Y-81371009D01*
X213404285Y-81371009D02*
X213356666Y-81323390D01*
X213356666Y-81323390D02*
X213261428Y-81275771D01*
X213261428Y-81275771D02*
X213070952Y-81275771D01*
X213070952Y-81275771D02*
X212975714Y-81323390D01*
X212975714Y-81323390D02*
X212928095Y-81371009D01*
X212928095Y-81371009D02*
X212880476Y-81466247D01*
X186126666Y-96924819D02*
X186126666Y-97639104D01*
X186126666Y-97639104D02*
X186079047Y-97781961D01*
X186079047Y-97781961D02*
X185983809Y-97877200D01*
X185983809Y-97877200D02*
X185840952Y-97924819D01*
X185840952Y-97924819D02*
X185745714Y-97924819D01*
X186745714Y-97353390D02*
X186650476Y-97305771D01*
X186650476Y-97305771D02*
X186602857Y-97258152D01*
X186602857Y-97258152D02*
X186555238Y-97162914D01*
X186555238Y-97162914D02*
X186555238Y-97115295D01*
X186555238Y-97115295D02*
X186602857Y-97020057D01*
X186602857Y-97020057D02*
X186650476Y-96972438D01*
X186650476Y-96972438D02*
X186745714Y-96924819D01*
X186745714Y-96924819D02*
X186936190Y-96924819D01*
X186936190Y-96924819D02*
X187031428Y-96972438D01*
X187031428Y-96972438D02*
X187079047Y-97020057D01*
X187079047Y-97020057D02*
X187126666Y-97115295D01*
X187126666Y-97115295D02*
X187126666Y-97162914D01*
X187126666Y-97162914D02*
X187079047Y-97258152D01*
X187079047Y-97258152D02*
X187031428Y-97305771D01*
X187031428Y-97305771D02*
X186936190Y-97353390D01*
X186936190Y-97353390D02*
X186745714Y-97353390D01*
X186745714Y-97353390D02*
X186650476Y-97401009D01*
X186650476Y-97401009D02*
X186602857Y-97448628D01*
X186602857Y-97448628D02*
X186555238Y-97543866D01*
X186555238Y-97543866D02*
X186555238Y-97734342D01*
X186555238Y-97734342D02*
X186602857Y-97829580D01*
X186602857Y-97829580D02*
X186650476Y-97877200D01*
X186650476Y-97877200D02*
X186745714Y-97924819D01*
X186745714Y-97924819D02*
X186936190Y-97924819D01*
X186936190Y-97924819D02*
X187031428Y-97877200D01*
X187031428Y-97877200D02*
X187079047Y-97829580D01*
X187079047Y-97829580D02*
X187126666Y-97734342D01*
X187126666Y-97734342D02*
X187126666Y-97543866D01*
X187126666Y-97543866D02*
X187079047Y-97448628D01*
X187079047Y-97448628D02*
X187031428Y-97401009D01*
X187031428Y-97401009D02*
X186936190Y-97353390D01*
X207357142Y-77084819D02*
X207023809Y-76608628D01*
X206785714Y-77084819D02*
X206785714Y-76084819D01*
X206785714Y-76084819D02*
X207166666Y-76084819D01*
X207166666Y-76084819D02*
X207261904Y-76132438D01*
X207261904Y-76132438D02*
X207309523Y-76180057D01*
X207309523Y-76180057D02*
X207357142Y-76275295D01*
X207357142Y-76275295D02*
X207357142Y-76418152D01*
X207357142Y-76418152D02*
X207309523Y-76513390D01*
X207309523Y-76513390D02*
X207261904Y-76561009D01*
X207261904Y-76561009D02*
X207166666Y-76608628D01*
X207166666Y-76608628D02*
X206785714Y-76608628D01*
X208309523Y-77084819D02*
X207738095Y-77084819D01*
X208023809Y-77084819D02*
X208023809Y-76084819D01*
X208023809Y-76084819D02*
X207928571Y-76227676D01*
X207928571Y-76227676D02*
X207833333Y-76322914D01*
X207833333Y-76322914D02*
X207738095Y-76370533D01*
X209166666Y-76084819D02*
X208976190Y-76084819D01*
X208976190Y-76084819D02*
X208880952Y-76132438D01*
X208880952Y-76132438D02*
X208833333Y-76180057D01*
X208833333Y-76180057D02*
X208738095Y-76322914D01*
X208738095Y-76322914D02*
X208690476Y-76513390D01*
X208690476Y-76513390D02*
X208690476Y-76894342D01*
X208690476Y-76894342D02*
X208738095Y-76989580D01*
X208738095Y-76989580D02*
X208785714Y-77037200D01*
X208785714Y-77037200D02*
X208880952Y-77084819D01*
X208880952Y-77084819D02*
X209071428Y-77084819D01*
X209071428Y-77084819D02*
X209166666Y-77037200D01*
X209166666Y-77037200D02*
X209214285Y-76989580D01*
X209214285Y-76989580D02*
X209261904Y-76894342D01*
X209261904Y-76894342D02*
X209261904Y-76656247D01*
X209261904Y-76656247D02*
X209214285Y-76561009D01*
X209214285Y-76561009D02*
X209166666Y-76513390D01*
X209166666Y-76513390D02*
X209071428Y-76465771D01*
X209071428Y-76465771D02*
X208880952Y-76465771D01*
X208880952Y-76465771D02*
X208785714Y-76513390D01*
X208785714Y-76513390D02*
X208738095Y-76561009D01*
X208738095Y-76561009D02*
X208690476Y-76656247D01*
X127277142Y-88884819D02*
X126943809Y-88408628D01*
X126705714Y-88884819D02*
X126705714Y-87884819D01*
X126705714Y-87884819D02*
X127086666Y-87884819D01*
X127086666Y-87884819D02*
X127181904Y-87932438D01*
X127181904Y-87932438D02*
X127229523Y-87980057D01*
X127229523Y-87980057D02*
X127277142Y-88075295D01*
X127277142Y-88075295D02*
X127277142Y-88218152D01*
X127277142Y-88218152D02*
X127229523Y-88313390D01*
X127229523Y-88313390D02*
X127181904Y-88361009D01*
X127181904Y-88361009D02*
X127086666Y-88408628D01*
X127086666Y-88408628D02*
X126705714Y-88408628D01*
X127610476Y-87884819D02*
X128229523Y-87884819D01*
X128229523Y-87884819D02*
X127896190Y-88265771D01*
X127896190Y-88265771D02*
X128039047Y-88265771D01*
X128039047Y-88265771D02*
X128134285Y-88313390D01*
X128134285Y-88313390D02*
X128181904Y-88361009D01*
X128181904Y-88361009D02*
X128229523Y-88456247D01*
X128229523Y-88456247D02*
X128229523Y-88694342D01*
X128229523Y-88694342D02*
X128181904Y-88789580D01*
X128181904Y-88789580D02*
X128134285Y-88837200D01*
X128134285Y-88837200D02*
X128039047Y-88884819D01*
X128039047Y-88884819D02*
X127753333Y-88884819D01*
X127753333Y-88884819D02*
X127658095Y-88837200D01*
X127658095Y-88837200D02*
X127610476Y-88789580D01*
X128562857Y-87884819D02*
X129181904Y-87884819D01*
X129181904Y-87884819D02*
X128848571Y-88265771D01*
X128848571Y-88265771D02*
X128991428Y-88265771D01*
X128991428Y-88265771D02*
X129086666Y-88313390D01*
X129086666Y-88313390D02*
X129134285Y-88361009D01*
X129134285Y-88361009D02*
X129181904Y-88456247D01*
X129181904Y-88456247D02*
X129181904Y-88694342D01*
X129181904Y-88694342D02*
X129134285Y-88789580D01*
X129134285Y-88789580D02*
X129086666Y-88837200D01*
X129086666Y-88837200D02*
X128991428Y-88884819D01*
X128991428Y-88884819D02*
X128705714Y-88884819D01*
X128705714Y-88884819D02*
X128610476Y-88837200D01*
X128610476Y-88837200D02*
X128562857Y-88789580D01*
X208357142Y-111354819D02*
X208023809Y-110878628D01*
X207785714Y-111354819D02*
X207785714Y-110354819D01*
X207785714Y-110354819D02*
X208166666Y-110354819D01*
X208166666Y-110354819D02*
X208261904Y-110402438D01*
X208261904Y-110402438D02*
X208309523Y-110450057D01*
X208309523Y-110450057D02*
X208357142Y-110545295D01*
X208357142Y-110545295D02*
X208357142Y-110688152D01*
X208357142Y-110688152D02*
X208309523Y-110783390D01*
X208309523Y-110783390D02*
X208261904Y-110831009D01*
X208261904Y-110831009D02*
X208166666Y-110878628D01*
X208166666Y-110878628D02*
X207785714Y-110878628D01*
X208690476Y-110354819D02*
X209309523Y-110354819D01*
X209309523Y-110354819D02*
X208976190Y-110735771D01*
X208976190Y-110735771D02*
X209119047Y-110735771D01*
X209119047Y-110735771D02*
X209214285Y-110783390D01*
X209214285Y-110783390D02*
X209261904Y-110831009D01*
X209261904Y-110831009D02*
X209309523Y-110926247D01*
X209309523Y-110926247D02*
X209309523Y-111164342D01*
X209309523Y-111164342D02*
X209261904Y-111259580D01*
X209261904Y-111259580D02*
X209214285Y-111307200D01*
X209214285Y-111307200D02*
X209119047Y-111354819D01*
X209119047Y-111354819D02*
X208833333Y-111354819D01*
X208833333Y-111354819D02*
X208738095Y-111307200D01*
X208738095Y-111307200D02*
X208690476Y-111259580D01*
X209690476Y-110450057D02*
X209738095Y-110402438D01*
X209738095Y-110402438D02*
X209833333Y-110354819D01*
X209833333Y-110354819D02*
X210071428Y-110354819D01*
X210071428Y-110354819D02*
X210166666Y-110402438D01*
X210166666Y-110402438D02*
X210214285Y-110450057D01*
X210214285Y-110450057D02*
X210261904Y-110545295D01*
X210261904Y-110545295D02*
X210261904Y-110640533D01*
X210261904Y-110640533D02*
X210214285Y-110783390D01*
X210214285Y-110783390D02*
X209642857Y-111354819D01*
X209642857Y-111354819D02*
X210261904Y-111354819D01*
X168647142Y-77554819D02*
X168313809Y-77078628D01*
X168075714Y-77554819D02*
X168075714Y-76554819D01*
X168075714Y-76554819D02*
X168456666Y-76554819D01*
X168456666Y-76554819D02*
X168551904Y-76602438D01*
X168551904Y-76602438D02*
X168599523Y-76650057D01*
X168599523Y-76650057D02*
X168647142Y-76745295D01*
X168647142Y-76745295D02*
X168647142Y-76888152D01*
X168647142Y-76888152D02*
X168599523Y-76983390D01*
X168599523Y-76983390D02*
X168551904Y-77031009D01*
X168551904Y-77031009D02*
X168456666Y-77078628D01*
X168456666Y-77078628D02*
X168075714Y-77078628D01*
X169599523Y-77554819D02*
X169028095Y-77554819D01*
X169313809Y-77554819D02*
X169313809Y-76554819D01*
X169313809Y-76554819D02*
X169218571Y-76697676D01*
X169218571Y-76697676D02*
X169123333Y-76792914D01*
X169123333Y-76792914D02*
X169028095Y-76840533D01*
X169980476Y-76650057D02*
X170028095Y-76602438D01*
X170028095Y-76602438D02*
X170123333Y-76554819D01*
X170123333Y-76554819D02*
X170361428Y-76554819D01*
X170361428Y-76554819D02*
X170456666Y-76602438D01*
X170456666Y-76602438D02*
X170504285Y-76650057D01*
X170504285Y-76650057D02*
X170551904Y-76745295D01*
X170551904Y-76745295D02*
X170551904Y-76840533D01*
X170551904Y-76840533D02*
X170504285Y-76983390D01*
X170504285Y-76983390D02*
X169932857Y-77554819D01*
X169932857Y-77554819D02*
X170551904Y-77554819D01*
X70623095Y-56594819D02*
X70623095Y-57404342D01*
X70623095Y-57404342D02*
X70670714Y-57499580D01*
X70670714Y-57499580D02*
X70718333Y-57547200D01*
X70718333Y-57547200D02*
X70813571Y-57594819D01*
X70813571Y-57594819D02*
X71004047Y-57594819D01*
X71004047Y-57594819D02*
X71099285Y-57547200D01*
X71099285Y-57547200D02*
X71146904Y-57499580D01*
X71146904Y-57499580D02*
X71194523Y-57404342D01*
X71194523Y-57404342D02*
X71194523Y-56594819D01*
X72194523Y-57594819D02*
X71623095Y-57594819D01*
X71908809Y-57594819D02*
X71908809Y-56594819D01*
X71908809Y-56594819D02*
X71813571Y-56737676D01*
X71813571Y-56737676D02*
X71718333Y-56832914D01*
X71718333Y-56832914D02*
X71623095Y-56880533D01*
X85391905Y-81784819D02*
X85391905Y-80784819D01*
X85391905Y-80784819D02*
X85630000Y-80784819D01*
X85630000Y-80784819D02*
X85772857Y-80832438D01*
X85772857Y-80832438D02*
X85868095Y-80927676D01*
X85868095Y-80927676D02*
X85915714Y-81022914D01*
X85915714Y-81022914D02*
X85963333Y-81213390D01*
X85963333Y-81213390D02*
X85963333Y-81356247D01*
X85963333Y-81356247D02*
X85915714Y-81546723D01*
X85915714Y-81546723D02*
X85868095Y-81641961D01*
X85868095Y-81641961D02*
X85772857Y-81737200D01*
X85772857Y-81737200D02*
X85630000Y-81784819D01*
X85630000Y-81784819D02*
X85391905Y-81784819D01*
X86820476Y-81118152D02*
X86820476Y-81784819D01*
X86582381Y-80737200D02*
X86344286Y-81451485D01*
X86344286Y-81451485D02*
X86963333Y-81451485D01*
X226438095Y-50904819D02*
X226438095Y-49904819D01*
X226438095Y-50381009D02*
X227009523Y-50381009D01*
X227009523Y-50904819D02*
X227009523Y-49904819D01*
X227438095Y-50000057D02*
X227485714Y-49952438D01*
X227485714Y-49952438D02*
X227580952Y-49904819D01*
X227580952Y-49904819D02*
X227819047Y-49904819D01*
X227819047Y-49904819D02*
X227914285Y-49952438D01*
X227914285Y-49952438D02*
X227961904Y-50000057D01*
X227961904Y-50000057D02*
X228009523Y-50095295D01*
X228009523Y-50095295D02*
X228009523Y-50190533D01*
X228009523Y-50190533D02*
X227961904Y-50333390D01*
X227961904Y-50333390D02*
X227390476Y-50904819D01*
X227390476Y-50904819D02*
X228009523Y-50904819D01*
X121093333Y-56684819D02*
X120760000Y-56208628D01*
X120521905Y-56684819D02*
X120521905Y-55684819D01*
X120521905Y-55684819D02*
X120902857Y-55684819D01*
X120902857Y-55684819D02*
X120998095Y-55732438D01*
X120998095Y-55732438D02*
X121045714Y-55780057D01*
X121045714Y-55780057D02*
X121093333Y-55875295D01*
X121093333Y-55875295D02*
X121093333Y-56018152D01*
X121093333Y-56018152D02*
X121045714Y-56113390D01*
X121045714Y-56113390D02*
X120998095Y-56161009D01*
X120998095Y-56161009D02*
X120902857Y-56208628D01*
X120902857Y-56208628D02*
X120521905Y-56208628D01*
X121998095Y-55684819D02*
X121521905Y-55684819D01*
X121521905Y-55684819D02*
X121474286Y-56161009D01*
X121474286Y-56161009D02*
X121521905Y-56113390D01*
X121521905Y-56113390D02*
X121617143Y-56065771D01*
X121617143Y-56065771D02*
X121855238Y-56065771D01*
X121855238Y-56065771D02*
X121950476Y-56113390D01*
X121950476Y-56113390D02*
X121998095Y-56161009D01*
X121998095Y-56161009D02*
X122045714Y-56256247D01*
X122045714Y-56256247D02*
X122045714Y-56494342D01*
X122045714Y-56494342D02*
X121998095Y-56589580D01*
X121998095Y-56589580D02*
X121950476Y-56637200D01*
X121950476Y-56637200D02*
X121855238Y-56684819D01*
X121855238Y-56684819D02*
X121617143Y-56684819D01*
X121617143Y-56684819D02*
X121521905Y-56637200D01*
X121521905Y-56637200D02*
X121474286Y-56589580D01*
X109866666Y-98874819D02*
X109866666Y-99589104D01*
X109866666Y-99589104D02*
X109819047Y-99731961D01*
X109819047Y-99731961D02*
X109723809Y-99827200D01*
X109723809Y-99827200D02*
X109580952Y-99874819D01*
X109580952Y-99874819D02*
X109485714Y-99874819D01*
X110771428Y-98874819D02*
X110580952Y-98874819D01*
X110580952Y-98874819D02*
X110485714Y-98922438D01*
X110485714Y-98922438D02*
X110438095Y-98970057D01*
X110438095Y-98970057D02*
X110342857Y-99112914D01*
X110342857Y-99112914D02*
X110295238Y-99303390D01*
X110295238Y-99303390D02*
X110295238Y-99684342D01*
X110295238Y-99684342D02*
X110342857Y-99779580D01*
X110342857Y-99779580D02*
X110390476Y-99827200D01*
X110390476Y-99827200D02*
X110485714Y-99874819D01*
X110485714Y-99874819D02*
X110676190Y-99874819D01*
X110676190Y-99874819D02*
X110771428Y-99827200D01*
X110771428Y-99827200D02*
X110819047Y-99779580D01*
X110819047Y-99779580D02*
X110866666Y-99684342D01*
X110866666Y-99684342D02*
X110866666Y-99446247D01*
X110866666Y-99446247D02*
X110819047Y-99351009D01*
X110819047Y-99351009D02*
X110771428Y-99303390D01*
X110771428Y-99303390D02*
X110676190Y-99255771D01*
X110676190Y-99255771D02*
X110485714Y-99255771D01*
X110485714Y-99255771D02*
X110390476Y-99303390D01*
X110390476Y-99303390D02*
X110342857Y-99351009D01*
X110342857Y-99351009D02*
X110295238Y-99446247D01*
X217975714Y-111164819D02*
X217975714Y-110164819D01*
X217975714Y-110164819D02*
X218213809Y-110164819D01*
X218213809Y-110164819D02*
X218356666Y-110212438D01*
X218356666Y-110212438D02*
X218451904Y-110307676D01*
X218451904Y-110307676D02*
X218499523Y-110402914D01*
X218499523Y-110402914D02*
X218547142Y-110593390D01*
X218547142Y-110593390D02*
X218547142Y-110736247D01*
X218547142Y-110736247D02*
X218499523Y-110926723D01*
X218499523Y-110926723D02*
X218451904Y-111021961D01*
X218451904Y-111021961D02*
X218356666Y-111117200D01*
X218356666Y-111117200D02*
X218213809Y-111164819D01*
X218213809Y-111164819D02*
X217975714Y-111164819D01*
X218880476Y-110164819D02*
X219499523Y-110164819D01*
X219499523Y-110164819D02*
X219166190Y-110545771D01*
X219166190Y-110545771D02*
X219309047Y-110545771D01*
X219309047Y-110545771D02*
X219404285Y-110593390D01*
X219404285Y-110593390D02*
X219451904Y-110641009D01*
X219451904Y-110641009D02*
X219499523Y-110736247D01*
X219499523Y-110736247D02*
X219499523Y-110974342D01*
X219499523Y-110974342D02*
X219451904Y-111069580D01*
X219451904Y-111069580D02*
X219404285Y-111117200D01*
X219404285Y-111117200D02*
X219309047Y-111164819D01*
X219309047Y-111164819D02*
X219023333Y-111164819D01*
X219023333Y-111164819D02*
X218928095Y-111117200D01*
X218928095Y-111117200D02*
X218880476Y-111069580D01*
X220451904Y-111164819D02*
X219880476Y-111164819D01*
X220166190Y-111164819D02*
X220166190Y-110164819D01*
X220166190Y-110164819D02*
X220070952Y-110307676D01*
X220070952Y-110307676D02*
X219975714Y-110402914D01*
X219975714Y-110402914D02*
X219880476Y-110450533D01*
X92526905Y-67544819D02*
X92526905Y-66544819D01*
X92526905Y-66544819D02*
X92765000Y-66544819D01*
X92765000Y-66544819D02*
X92907857Y-66592438D01*
X92907857Y-66592438D02*
X93003095Y-66687676D01*
X93003095Y-66687676D02*
X93050714Y-66782914D01*
X93050714Y-66782914D02*
X93098333Y-66973390D01*
X93098333Y-66973390D02*
X93098333Y-67116247D01*
X93098333Y-67116247D02*
X93050714Y-67306723D01*
X93050714Y-67306723D02*
X93003095Y-67401961D01*
X93003095Y-67401961D02*
X92907857Y-67497200D01*
X92907857Y-67497200D02*
X92765000Y-67544819D01*
X92765000Y-67544819D02*
X92526905Y-67544819D01*
X93479286Y-66640057D02*
X93526905Y-66592438D01*
X93526905Y-66592438D02*
X93622143Y-66544819D01*
X93622143Y-66544819D02*
X93860238Y-66544819D01*
X93860238Y-66544819D02*
X93955476Y-66592438D01*
X93955476Y-66592438D02*
X94003095Y-66640057D01*
X94003095Y-66640057D02*
X94050714Y-66735295D01*
X94050714Y-66735295D02*
X94050714Y-66830533D01*
X94050714Y-66830533D02*
X94003095Y-66973390D01*
X94003095Y-66973390D02*
X93431667Y-67544819D01*
X93431667Y-67544819D02*
X94050714Y-67544819D01*
X102635714Y-112694819D02*
X102635714Y-111694819D01*
X102635714Y-111694819D02*
X102873809Y-111694819D01*
X102873809Y-111694819D02*
X103016666Y-111742438D01*
X103016666Y-111742438D02*
X103111904Y-111837676D01*
X103111904Y-111837676D02*
X103159523Y-111932914D01*
X103159523Y-111932914D02*
X103207142Y-112123390D01*
X103207142Y-112123390D02*
X103207142Y-112266247D01*
X103207142Y-112266247D02*
X103159523Y-112456723D01*
X103159523Y-112456723D02*
X103111904Y-112551961D01*
X103111904Y-112551961D02*
X103016666Y-112647200D01*
X103016666Y-112647200D02*
X102873809Y-112694819D01*
X102873809Y-112694819D02*
X102635714Y-112694819D01*
X104159523Y-112694819D02*
X103588095Y-112694819D01*
X103873809Y-112694819D02*
X103873809Y-111694819D01*
X103873809Y-111694819D02*
X103778571Y-111837676D01*
X103778571Y-111837676D02*
X103683333Y-111932914D01*
X103683333Y-111932914D02*
X103588095Y-111980533D01*
X104635714Y-112694819D02*
X104826190Y-112694819D01*
X104826190Y-112694819D02*
X104921428Y-112647200D01*
X104921428Y-112647200D02*
X104969047Y-112599580D01*
X104969047Y-112599580D02*
X105064285Y-112456723D01*
X105064285Y-112456723D02*
X105111904Y-112266247D01*
X105111904Y-112266247D02*
X105111904Y-111885295D01*
X105111904Y-111885295D02*
X105064285Y-111790057D01*
X105064285Y-111790057D02*
X105016666Y-111742438D01*
X105016666Y-111742438D02*
X104921428Y-111694819D01*
X104921428Y-111694819D02*
X104730952Y-111694819D01*
X104730952Y-111694819D02*
X104635714Y-111742438D01*
X104635714Y-111742438D02*
X104588095Y-111790057D01*
X104588095Y-111790057D02*
X104540476Y-111885295D01*
X104540476Y-111885295D02*
X104540476Y-112123390D01*
X104540476Y-112123390D02*
X104588095Y-112218628D01*
X104588095Y-112218628D02*
X104635714Y-112266247D01*
X104635714Y-112266247D02*
X104730952Y-112313866D01*
X104730952Y-112313866D02*
X104921428Y-112313866D01*
X104921428Y-112313866D02*
X105016666Y-112266247D01*
X105016666Y-112266247D02*
X105064285Y-112218628D01*
X105064285Y-112218628D02*
X105111904Y-112123390D01*
X171235714Y-116344819D02*
X171235714Y-115344819D01*
X171235714Y-115344819D02*
X171473809Y-115344819D01*
X171473809Y-115344819D02*
X171616666Y-115392438D01*
X171616666Y-115392438D02*
X171711904Y-115487676D01*
X171711904Y-115487676D02*
X171759523Y-115582914D01*
X171759523Y-115582914D02*
X171807142Y-115773390D01*
X171807142Y-115773390D02*
X171807142Y-115916247D01*
X171807142Y-115916247D02*
X171759523Y-116106723D01*
X171759523Y-116106723D02*
X171711904Y-116201961D01*
X171711904Y-116201961D02*
X171616666Y-116297200D01*
X171616666Y-116297200D02*
X171473809Y-116344819D01*
X171473809Y-116344819D02*
X171235714Y-116344819D01*
X172188095Y-115440057D02*
X172235714Y-115392438D01*
X172235714Y-115392438D02*
X172330952Y-115344819D01*
X172330952Y-115344819D02*
X172569047Y-115344819D01*
X172569047Y-115344819D02*
X172664285Y-115392438D01*
X172664285Y-115392438D02*
X172711904Y-115440057D01*
X172711904Y-115440057D02*
X172759523Y-115535295D01*
X172759523Y-115535295D02*
X172759523Y-115630533D01*
X172759523Y-115630533D02*
X172711904Y-115773390D01*
X172711904Y-115773390D02*
X172140476Y-116344819D01*
X172140476Y-116344819D02*
X172759523Y-116344819D01*
X173330952Y-115773390D02*
X173235714Y-115725771D01*
X173235714Y-115725771D02*
X173188095Y-115678152D01*
X173188095Y-115678152D02*
X173140476Y-115582914D01*
X173140476Y-115582914D02*
X173140476Y-115535295D01*
X173140476Y-115535295D02*
X173188095Y-115440057D01*
X173188095Y-115440057D02*
X173235714Y-115392438D01*
X173235714Y-115392438D02*
X173330952Y-115344819D01*
X173330952Y-115344819D02*
X173521428Y-115344819D01*
X173521428Y-115344819D02*
X173616666Y-115392438D01*
X173616666Y-115392438D02*
X173664285Y-115440057D01*
X173664285Y-115440057D02*
X173711904Y-115535295D01*
X173711904Y-115535295D02*
X173711904Y-115582914D01*
X173711904Y-115582914D02*
X173664285Y-115678152D01*
X173664285Y-115678152D02*
X173616666Y-115725771D01*
X173616666Y-115725771D02*
X173521428Y-115773390D01*
X173521428Y-115773390D02*
X173330952Y-115773390D01*
X173330952Y-115773390D02*
X173235714Y-115821009D01*
X173235714Y-115821009D02*
X173188095Y-115868628D01*
X173188095Y-115868628D02*
X173140476Y-115963866D01*
X173140476Y-115963866D02*
X173140476Y-116154342D01*
X173140476Y-116154342D02*
X173188095Y-116249580D01*
X173188095Y-116249580D02*
X173235714Y-116297200D01*
X173235714Y-116297200D02*
X173330952Y-116344819D01*
X173330952Y-116344819D02*
X173521428Y-116344819D01*
X173521428Y-116344819D02*
X173616666Y-116297200D01*
X173616666Y-116297200D02*
X173664285Y-116249580D01*
X173664285Y-116249580D02*
X173711904Y-116154342D01*
X173711904Y-116154342D02*
X173711904Y-115963866D01*
X173711904Y-115963866D02*
X173664285Y-115868628D01*
X173664285Y-115868628D02*
X173616666Y-115821009D01*
X173616666Y-115821009D02*
X173521428Y-115773390D01*
X149583333Y-57109580D02*
X149535714Y-57157200D01*
X149535714Y-57157200D02*
X149392857Y-57204819D01*
X149392857Y-57204819D02*
X149297619Y-57204819D01*
X149297619Y-57204819D02*
X149154762Y-57157200D01*
X149154762Y-57157200D02*
X149059524Y-57061961D01*
X149059524Y-57061961D02*
X149011905Y-56966723D01*
X149011905Y-56966723D02*
X148964286Y-56776247D01*
X148964286Y-56776247D02*
X148964286Y-56633390D01*
X148964286Y-56633390D02*
X149011905Y-56442914D01*
X149011905Y-56442914D02*
X149059524Y-56347676D01*
X149059524Y-56347676D02*
X149154762Y-56252438D01*
X149154762Y-56252438D02*
X149297619Y-56204819D01*
X149297619Y-56204819D02*
X149392857Y-56204819D01*
X149392857Y-56204819D02*
X149535714Y-56252438D01*
X149535714Y-56252438D02*
X149583333Y-56300057D01*
X149916667Y-56204819D02*
X150535714Y-56204819D01*
X150535714Y-56204819D02*
X150202381Y-56585771D01*
X150202381Y-56585771D02*
X150345238Y-56585771D01*
X150345238Y-56585771D02*
X150440476Y-56633390D01*
X150440476Y-56633390D02*
X150488095Y-56681009D01*
X150488095Y-56681009D02*
X150535714Y-56776247D01*
X150535714Y-56776247D02*
X150535714Y-57014342D01*
X150535714Y-57014342D02*
X150488095Y-57109580D01*
X150488095Y-57109580D02*
X150440476Y-57157200D01*
X150440476Y-57157200D02*
X150345238Y-57204819D01*
X150345238Y-57204819D02*
X150059524Y-57204819D01*
X150059524Y-57204819D02*
X149964286Y-57157200D01*
X149964286Y-57157200D02*
X149916667Y-57109580D01*
X210835714Y-116564819D02*
X210835714Y-115564819D01*
X210835714Y-115564819D02*
X211073809Y-115564819D01*
X211073809Y-115564819D02*
X211216666Y-115612438D01*
X211216666Y-115612438D02*
X211311904Y-115707676D01*
X211311904Y-115707676D02*
X211359523Y-115802914D01*
X211359523Y-115802914D02*
X211407142Y-115993390D01*
X211407142Y-115993390D02*
X211407142Y-116136247D01*
X211407142Y-116136247D02*
X211359523Y-116326723D01*
X211359523Y-116326723D02*
X211311904Y-116421961D01*
X211311904Y-116421961D02*
X211216666Y-116517200D01*
X211216666Y-116517200D02*
X211073809Y-116564819D01*
X211073809Y-116564819D02*
X210835714Y-116564819D01*
X211740476Y-115564819D02*
X212359523Y-115564819D01*
X212359523Y-115564819D02*
X212026190Y-115945771D01*
X212026190Y-115945771D02*
X212169047Y-115945771D01*
X212169047Y-115945771D02*
X212264285Y-115993390D01*
X212264285Y-115993390D02*
X212311904Y-116041009D01*
X212311904Y-116041009D02*
X212359523Y-116136247D01*
X212359523Y-116136247D02*
X212359523Y-116374342D01*
X212359523Y-116374342D02*
X212311904Y-116469580D01*
X212311904Y-116469580D02*
X212264285Y-116517200D01*
X212264285Y-116517200D02*
X212169047Y-116564819D01*
X212169047Y-116564819D02*
X211883333Y-116564819D01*
X211883333Y-116564819D02*
X211788095Y-116517200D01*
X211788095Y-116517200D02*
X211740476Y-116469580D01*
X212740476Y-115660057D02*
X212788095Y-115612438D01*
X212788095Y-115612438D02*
X212883333Y-115564819D01*
X212883333Y-115564819D02*
X213121428Y-115564819D01*
X213121428Y-115564819D02*
X213216666Y-115612438D01*
X213216666Y-115612438D02*
X213264285Y-115660057D01*
X213264285Y-115660057D02*
X213311904Y-115755295D01*
X213311904Y-115755295D02*
X213311904Y-115850533D01*
X213311904Y-115850533D02*
X213264285Y-115993390D01*
X213264285Y-115993390D02*
X212692857Y-116564819D01*
X212692857Y-116564819D02*
X213311904Y-116564819D01*
X208157142Y-98354819D02*
X207823809Y-97878628D01*
X207585714Y-98354819D02*
X207585714Y-97354819D01*
X207585714Y-97354819D02*
X207966666Y-97354819D01*
X207966666Y-97354819D02*
X208061904Y-97402438D01*
X208061904Y-97402438D02*
X208109523Y-97450057D01*
X208109523Y-97450057D02*
X208157142Y-97545295D01*
X208157142Y-97545295D02*
X208157142Y-97688152D01*
X208157142Y-97688152D02*
X208109523Y-97783390D01*
X208109523Y-97783390D02*
X208061904Y-97831009D01*
X208061904Y-97831009D02*
X207966666Y-97878628D01*
X207966666Y-97878628D02*
X207585714Y-97878628D01*
X208490476Y-97354819D02*
X209109523Y-97354819D01*
X209109523Y-97354819D02*
X208776190Y-97735771D01*
X208776190Y-97735771D02*
X208919047Y-97735771D01*
X208919047Y-97735771D02*
X209014285Y-97783390D01*
X209014285Y-97783390D02*
X209061904Y-97831009D01*
X209061904Y-97831009D02*
X209109523Y-97926247D01*
X209109523Y-97926247D02*
X209109523Y-98164342D01*
X209109523Y-98164342D02*
X209061904Y-98259580D01*
X209061904Y-98259580D02*
X209014285Y-98307200D01*
X209014285Y-98307200D02*
X208919047Y-98354819D01*
X208919047Y-98354819D02*
X208633333Y-98354819D01*
X208633333Y-98354819D02*
X208538095Y-98307200D01*
X208538095Y-98307200D02*
X208490476Y-98259580D01*
X209728571Y-97354819D02*
X209823809Y-97354819D01*
X209823809Y-97354819D02*
X209919047Y-97402438D01*
X209919047Y-97402438D02*
X209966666Y-97450057D01*
X209966666Y-97450057D02*
X210014285Y-97545295D01*
X210014285Y-97545295D02*
X210061904Y-97735771D01*
X210061904Y-97735771D02*
X210061904Y-97973866D01*
X210061904Y-97973866D02*
X210014285Y-98164342D01*
X210014285Y-98164342D02*
X209966666Y-98259580D01*
X209966666Y-98259580D02*
X209919047Y-98307200D01*
X209919047Y-98307200D02*
X209823809Y-98354819D01*
X209823809Y-98354819D02*
X209728571Y-98354819D01*
X209728571Y-98354819D02*
X209633333Y-98307200D01*
X209633333Y-98307200D02*
X209585714Y-98259580D01*
X209585714Y-98259580D02*
X209538095Y-98164342D01*
X209538095Y-98164342D02*
X209490476Y-97973866D01*
X209490476Y-97973866D02*
X209490476Y-97735771D01*
X209490476Y-97735771D02*
X209538095Y-97545295D01*
X209538095Y-97545295D02*
X209585714Y-97450057D01*
X209585714Y-97450057D02*
X209633333Y-97402438D01*
X209633333Y-97402438D02*
X209728571Y-97354819D01*
X62356667Y-85217200D02*
X62499524Y-85264819D01*
X62499524Y-85264819D02*
X62737619Y-85264819D01*
X62737619Y-85264819D02*
X62832857Y-85217200D01*
X62832857Y-85217200D02*
X62880476Y-85169580D01*
X62880476Y-85169580D02*
X62928095Y-85074342D01*
X62928095Y-85074342D02*
X62928095Y-84979104D01*
X62928095Y-84979104D02*
X62880476Y-84883866D01*
X62880476Y-84883866D02*
X62832857Y-84836247D01*
X62832857Y-84836247D02*
X62737619Y-84788628D01*
X62737619Y-84788628D02*
X62547143Y-84741009D01*
X62547143Y-84741009D02*
X62451905Y-84693390D01*
X62451905Y-84693390D02*
X62404286Y-84645771D01*
X62404286Y-84645771D02*
X62356667Y-84550533D01*
X62356667Y-84550533D02*
X62356667Y-84455295D01*
X62356667Y-84455295D02*
X62404286Y-84360057D01*
X62404286Y-84360057D02*
X62451905Y-84312438D01*
X62451905Y-84312438D02*
X62547143Y-84264819D01*
X62547143Y-84264819D02*
X62785238Y-84264819D01*
X62785238Y-84264819D02*
X62928095Y-84312438D01*
X63261429Y-84264819D02*
X63499524Y-85264819D01*
X63499524Y-85264819D02*
X63690000Y-84550533D01*
X63690000Y-84550533D02*
X63880476Y-85264819D01*
X63880476Y-85264819D02*
X64118572Y-84264819D01*
X65023333Y-85264819D02*
X64451905Y-85264819D01*
X64737619Y-85264819D02*
X64737619Y-84264819D01*
X64737619Y-84264819D02*
X64642381Y-84407676D01*
X64642381Y-84407676D02*
X64547143Y-84502914D01*
X64547143Y-84502914D02*
X64451905Y-84550533D01*
X72193333Y-92269580D02*
X72145714Y-92317200D01*
X72145714Y-92317200D02*
X72002857Y-92364819D01*
X72002857Y-92364819D02*
X71907619Y-92364819D01*
X71907619Y-92364819D02*
X71764762Y-92317200D01*
X71764762Y-92317200D02*
X71669524Y-92221961D01*
X71669524Y-92221961D02*
X71621905Y-92126723D01*
X71621905Y-92126723D02*
X71574286Y-91936247D01*
X71574286Y-91936247D02*
X71574286Y-91793390D01*
X71574286Y-91793390D02*
X71621905Y-91602914D01*
X71621905Y-91602914D02*
X71669524Y-91507676D01*
X71669524Y-91507676D02*
X71764762Y-91412438D01*
X71764762Y-91412438D02*
X71907619Y-91364819D01*
X71907619Y-91364819D02*
X72002857Y-91364819D01*
X72002857Y-91364819D02*
X72145714Y-91412438D01*
X72145714Y-91412438D02*
X72193333Y-91460057D01*
X73098095Y-91364819D02*
X72621905Y-91364819D01*
X72621905Y-91364819D02*
X72574286Y-91841009D01*
X72574286Y-91841009D02*
X72621905Y-91793390D01*
X72621905Y-91793390D02*
X72717143Y-91745771D01*
X72717143Y-91745771D02*
X72955238Y-91745771D01*
X72955238Y-91745771D02*
X73050476Y-91793390D01*
X73050476Y-91793390D02*
X73098095Y-91841009D01*
X73098095Y-91841009D02*
X73145714Y-91936247D01*
X73145714Y-91936247D02*
X73145714Y-92174342D01*
X73145714Y-92174342D02*
X73098095Y-92269580D01*
X73098095Y-92269580D02*
X73050476Y-92317200D01*
X73050476Y-92317200D02*
X72955238Y-92364819D01*
X72955238Y-92364819D02*
X72717143Y-92364819D01*
X72717143Y-92364819D02*
X72621905Y-92317200D01*
X72621905Y-92317200D02*
X72574286Y-92269580D01*
X82908333Y-70334819D02*
X82575000Y-69858628D01*
X82336905Y-70334819D02*
X82336905Y-69334819D01*
X82336905Y-69334819D02*
X82717857Y-69334819D01*
X82717857Y-69334819D02*
X82813095Y-69382438D01*
X82813095Y-69382438D02*
X82860714Y-69430057D01*
X82860714Y-69430057D02*
X82908333Y-69525295D01*
X82908333Y-69525295D02*
X82908333Y-69668152D01*
X82908333Y-69668152D02*
X82860714Y-69763390D01*
X82860714Y-69763390D02*
X82813095Y-69811009D01*
X82813095Y-69811009D02*
X82717857Y-69858628D01*
X82717857Y-69858628D02*
X82336905Y-69858628D01*
X83241667Y-69334819D02*
X83860714Y-69334819D01*
X83860714Y-69334819D02*
X83527381Y-69715771D01*
X83527381Y-69715771D02*
X83670238Y-69715771D01*
X83670238Y-69715771D02*
X83765476Y-69763390D01*
X83765476Y-69763390D02*
X83813095Y-69811009D01*
X83813095Y-69811009D02*
X83860714Y-69906247D01*
X83860714Y-69906247D02*
X83860714Y-70144342D01*
X83860714Y-70144342D02*
X83813095Y-70239580D01*
X83813095Y-70239580D02*
X83765476Y-70287200D01*
X83765476Y-70287200D02*
X83670238Y-70334819D01*
X83670238Y-70334819D02*
X83384524Y-70334819D01*
X83384524Y-70334819D02*
X83289286Y-70287200D01*
X83289286Y-70287200D02*
X83241667Y-70239580D01*
X92526905Y-78494819D02*
X92526905Y-77494819D01*
X92526905Y-77494819D02*
X92765000Y-77494819D01*
X92765000Y-77494819D02*
X92907857Y-77542438D01*
X92907857Y-77542438D02*
X93003095Y-77637676D01*
X93003095Y-77637676D02*
X93050714Y-77732914D01*
X93050714Y-77732914D02*
X93098333Y-77923390D01*
X93098333Y-77923390D02*
X93098333Y-78066247D01*
X93098333Y-78066247D02*
X93050714Y-78256723D01*
X93050714Y-78256723D02*
X93003095Y-78351961D01*
X93003095Y-78351961D02*
X92907857Y-78447200D01*
X92907857Y-78447200D02*
X92765000Y-78494819D01*
X92765000Y-78494819D02*
X92526905Y-78494819D01*
X93431667Y-77494819D02*
X94050714Y-77494819D01*
X94050714Y-77494819D02*
X93717381Y-77875771D01*
X93717381Y-77875771D02*
X93860238Y-77875771D01*
X93860238Y-77875771D02*
X93955476Y-77923390D01*
X93955476Y-77923390D02*
X94003095Y-77971009D01*
X94003095Y-77971009D02*
X94050714Y-78066247D01*
X94050714Y-78066247D02*
X94050714Y-78304342D01*
X94050714Y-78304342D02*
X94003095Y-78399580D01*
X94003095Y-78399580D02*
X93955476Y-78447200D01*
X93955476Y-78447200D02*
X93860238Y-78494819D01*
X93860238Y-78494819D02*
X93574524Y-78494819D01*
X93574524Y-78494819D02*
X93479286Y-78447200D01*
X93479286Y-78447200D02*
X93431667Y-78399580D01*
X178235714Y-92144819D02*
X178235714Y-91144819D01*
X178235714Y-91144819D02*
X178473809Y-91144819D01*
X178473809Y-91144819D02*
X178616666Y-91192438D01*
X178616666Y-91192438D02*
X178711904Y-91287676D01*
X178711904Y-91287676D02*
X178759523Y-91382914D01*
X178759523Y-91382914D02*
X178807142Y-91573390D01*
X178807142Y-91573390D02*
X178807142Y-91716247D01*
X178807142Y-91716247D02*
X178759523Y-91906723D01*
X178759523Y-91906723D02*
X178711904Y-92001961D01*
X178711904Y-92001961D02*
X178616666Y-92097200D01*
X178616666Y-92097200D02*
X178473809Y-92144819D01*
X178473809Y-92144819D02*
X178235714Y-92144819D01*
X179188095Y-91240057D02*
X179235714Y-91192438D01*
X179235714Y-91192438D02*
X179330952Y-91144819D01*
X179330952Y-91144819D02*
X179569047Y-91144819D01*
X179569047Y-91144819D02*
X179664285Y-91192438D01*
X179664285Y-91192438D02*
X179711904Y-91240057D01*
X179711904Y-91240057D02*
X179759523Y-91335295D01*
X179759523Y-91335295D02*
X179759523Y-91430533D01*
X179759523Y-91430533D02*
X179711904Y-91573390D01*
X179711904Y-91573390D02*
X179140476Y-92144819D01*
X179140476Y-92144819D02*
X179759523Y-92144819D01*
X180664285Y-91144819D02*
X180188095Y-91144819D01*
X180188095Y-91144819D02*
X180140476Y-91621009D01*
X180140476Y-91621009D02*
X180188095Y-91573390D01*
X180188095Y-91573390D02*
X180283333Y-91525771D01*
X180283333Y-91525771D02*
X180521428Y-91525771D01*
X180521428Y-91525771D02*
X180616666Y-91573390D01*
X180616666Y-91573390D02*
X180664285Y-91621009D01*
X180664285Y-91621009D02*
X180711904Y-91716247D01*
X180711904Y-91716247D02*
X180711904Y-91954342D01*
X180711904Y-91954342D02*
X180664285Y-92049580D01*
X180664285Y-92049580D02*
X180616666Y-92097200D01*
X180616666Y-92097200D02*
X180521428Y-92144819D01*
X180521428Y-92144819D02*
X180283333Y-92144819D01*
X180283333Y-92144819D02*
X180188095Y-92097200D01*
X180188095Y-92097200D02*
X180140476Y-92049580D01*
X112016667Y-80107200D02*
X112159524Y-80154819D01*
X112159524Y-80154819D02*
X112397619Y-80154819D01*
X112397619Y-80154819D02*
X112492857Y-80107200D01*
X112492857Y-80107200D02*
X112540476Y-80059580D01*
X112540476Y-80059580D02*
X112588095Y-79964342D01*
X112588095Y-79964342D02*
X112588095Y-79869104D01*
X112588095Y-79869104D02*
X112540476Y-79773866D01*
X112540476Y-79773866D02*
X112492857Y-79726247D01*
X112492857Y-79726247D02*
X112397619Y-79678628D01*
X112397619Y-79678628D02*
X112207143Y-79631009D01*
X112207143Y-79631009D02*
X112111905Y-79583390D01*
X112111905Y-79583390D02*
X112064286Y-79535771D01*
X112064286Y-79535771D02*
X112016667Y-79440533D01*
X112016667Y-79440533D02*
X112016667Y-79345295D01*
X112016667Y-79345295D02*
X112064286Y-79250057D01*
X112064286Y-79250057D02*
X112111905Y-79202438D01*
X112111905Y-79202438D02*
X112207143Y-79154819D01*
X112207143Y-79154819D02*
X112445238Y-79154819D01*
X112445238Y-79154819D02*
X112588095Y-79202438D01*
X112921429Y-79154819D02*
X113159524Y-80154819D01*
X113159524Y-80154819D02*
X113350000Y-79440533D01*
X113350000Y-79440533D02*
X113540476Y-80154819D01*
X113540476Y-80154819D02*
X113778572Y-79154819D01*
X114588095Y-79488152D02*
X114588095Y-80154819D01*
X114350000Y-79107200D02*
X114111905Y-79821485D01*
X114111905Y-79821485D02*
X114730952Y-79821485D01*
X196783333Y-83909580D02*
X196735714Y-83957200D01*
X196735714Y-83957200D02*
X196592857Y-84004819D01*
X196592857Y-84004819D02*
X196497619Y-84004819D01*
X196497619Y-84004819D02*
X196354762Y-83957200D01*
X196354762Y-83957200D02*
X196259524Y-83861961D01*
X196259524Y-83861961D02*
X196211905Y-83766723D01*
X196211905Y-83766723D02*
X196164286Y-83576247D01*
X196164286Y-83576247D02*
X196164286Y-83433390D01*
X196164286Y-83433390D02*
X196211905Y-83242914D01*
X196211905Y-83242914D02*
X196259524Y-83147676D01*
X196259524Y-83147676D02*
X196354762Y-83052438D01*
X196354762Y-83052438D02*
X196497619Y-83004819D01*
X196497619Y-83004819D02*
X196592857Y-83004819D01*
X196592857Y-83004819D02*
X196735714Y-83052438D01*
X196735714Y-83052438D02*
X196783333Y-83100057D01*
X197354762Y-83433390D02*
X197259524Y-83385771D01*
X197259524Y-83385771D02*
X197211905Y-83338152D01*
X197211905Y-83338152D02*
X197164286Y-83242914D01*
X197164286Y-83242914D02*
X197164286Y-83195295D01*
X197164286Y-83195295D02*
X197211905Y-83100057D01*
X197211905Y-83100057D02*
X197259524Y-83052438D01*
X197259524Y-83052438D02*
X197354762Y-83004819D01*
X197354762Y-83004819D02*
X197545238Y-83004819D01*
X197545238Y-83004819D02*
X197640476Y-83052438D01*
X197640476Y-83052438D02*
X197688095Y-83100057D01*
X197688095Y-83100057D02*
X197735714Y-83195295D01*
X197735714Y-83195295D02*
X197735714Y-83242914D01*
X197735714Y-83242914D02*
X197688095Y-83338152D01*
X197688095Y-83338152D02*
X197640476Y-83385771D01*
X197640476Y-83385771D02*
X197545238Y-83433390D01*
X197545238Y-83433390D02*
X197354762Y-83433390D01*
X197354762Y-83433390D02*
X197259524Y-83481009D01*
X197259524Y-83481009D02*
X197211905Y-83528628D01*
X197211905Y-83528628D02*
X197164286Y-83623866D01*
X197164286Y-83623866D02*
X197164286Y-83814342D01*
X197164286Y-83814342D02*
X197211905Y-83909580D01*
X197211905Y-83909580D02*
X197259524Y-83957200D01*
X197259524Y-83957200D02*
X197354762Y-84004819D01*
X197354762Y-84004819D02*
X197545238Y-84004819D01*
X197545238Y-84004819D02*
X197640476Y-83957200D01*
X197640476Y-83957200D02*
X197688095Y-83909580D01*
X197688095Y-83909580D02*
X197735714Y-83814342D01*
X197735714Y-83814342D02*
X197735714Y-83623866D01*
X197735714Y-83623866D02*
X197688095Y-83528628D01*
X197688095Y-83528628D02*
X197640476Y-83481009D01*
X197640476Y-83481009D02*
X197545238Y-83433390D01*
X217975714Y-101564819D02*
X217975714Y-100564819D01*
X217975714Y-100564819D02*
X218213809Y-100564819D01*
X218213809Y-100564819D02*
X218356666Y-100612438D01*
X218356666Y-100612438D02*
X218451904Y-100707676D01*
X218451904Y-100707676D02*
X218499523Y-100802914D01*
X218499523Y-100802914D02*
X218547142Y-100993390D01*
X218547142Y-100993390D02*
X218547142Y-101136247D01*
X218547142Y-101136247D02*
X218499523Y-101326723D01*
X218499523Y-101326723D02*
X218451904Y-101421961D01*
X218451904Y-101421961D02*
X218356666Y-101517200D01*
X218356666Y-101517200D02*
X218213809Y-101564819D01*
X218213809Y-101564819D02*
X217975714Y-101564819D01*
X218880476Y-100564819D02*
X219499523Y-100564819D01*
X219499523Y-100564819D02*
X219166190Y-100945771D01*
X219166190Y-100945771D02*
X219309047Y-100945771D01*
X219309047Y-100945771D02*
X219404285Y-100993390D01*
X219404285Y-100993390D02*
X219451904Y-101041009D01*
X219451904Y-101041009D02*
X219499523Y-101136247D01*
X219499523Y-101136247D02*
X219499523Y-101374342D01*
X219499523Y-101374342D02*
X219451904Y-101469580D01*
X219451904Y-101469580D02*
X219404285Y-101517200D01*
X219404285Y-101517200D02*
X219309047Y-101564819D01*
X219309047Y-101564819D02*
X219023333Y-101564819D01*
X219023333Y-101564819D02*
X218928095Y-101517200D01*
X218928095Y-101517200D02*
X218880476Y-101469580D01*
X220118571Y-100564819D02*
X220213809Y-100564819D01*
X220213809Y-100564819D02*
X220309047Y-100612438D01*
X220309047Y-100612438D02*
X220356666Y-100660057D01*
X220356666Y-100660057D02*
X220404285Y-100755295D01*
X220404285Y-100755295D02*
X220451904Y-100945771D01*
X220451904Y-100945771D02*
X220451904Y-101183866D01*
X220451904Y-101183866D02*
X220404285Y-101374342D01*
X220404285Y-101374342D02*
X220356666Y-101469580D01*
X220356666Y-101469580D02*
X220309047Y-101517200D01*
X220309047Y-101517200D02*
X220213809Y-101564819D01*
X220213809Y-101564819D02*
X220118571Y-101564819D01*
X220118571Y-101564819D02*
X220023333Y-101517200D01*
X220023333Y-101517200D02*
X219975714Y-101469580D01*
X219975714Y-101469580D02*
X219928095Y-101374342D01*
X219928095Y-101374342D02*
X219880476Y-101183866D01*
X219880476Y-101183866D02*
X219880476Y-100945771D01*
X219880476Y-100945771D02*
X219928095Y-100755295D01*
X219928095Y-100755295D02*
X219975714Y-100660057D01*
X219975714Y-100660057D02*
X220023333Y-100612438D01*
X220023333Y-100612438D02*
X220118571Y-100564819D01*
X149186666Y-63664819D02*
X149186666Y-64379104D01*
X149186666Y-64379104D02*
X149139047Y-64521961D01*
X149139047Y-64521961D02*
X149043809Y-64617200D01*
X149043809Y-64617200D02*
X148900952Y-64664819D01*
X148900952Y-64664819D02*
X148805714Y-64664819D01*
X149567619Y-63664819D02*
X150186666Y-63664819D01*
X150186666Y-63664819D02*
X149853333Y-64045771D01*
X149853333Y-64045771D02*
X149996190Y-64045771D01*
X149996190Y-64045771D02*
X150091428Y-64093390D01*
X150091428Y-64093390D02*
X150139047Y-64141009D01*
X150139047Y-64141009D02*
X150186666Y-64236247D01*
X150186666Y-64236247D02*
X150186666Y-64474342D01*
X150186666Y-64474342D02*
X150139047Y-64569580D01*
X150139047Y-64569580D02*
X150091428Y-64617200D01*
X150091428Y-64617200D02*
X149996190Y-64664819D01*
X149996190Y-64664819D02*
X149710476Y-64664819D01*
X149710476Y-64664819D02*
X149615238Y-64617200D01*
X149615238Y-64617200D02*
X149567619Y-64569580D01*
X61066666Y-61674819D02*
X61066666Y-62389104D01*
X61066666Y-62389104D02*
X61019047Y-62531961D01*
X61019047Y-62531961D02*
X60923809Y-62627200D01*
X60923809Y-62627200D02*
X60780952Y-62674819D01*
X60780952Y-62674819D02*
X60685714Y-62674819D01*
X62066666Y-62674819D02*
X61495238Y-62674819D01*
X61780952Y-62674819D02*
X61780952Y-61674819D01*
X61780952Y-61674819D02*
X61685714Y-61817676D01*
X61685714Y-61817676D02*
X61590476Y-61912914D01*
X61590476Y-61912914D02*
X61495238Y-61960533D01*
X157533333Y-85559580D02*
X157485714Y-85607200D01*
X157485714Y-85607200D02*
X157342857Y-85654819D01*
X157342857Y-85654819D02*
X157247619Y-85654819D01*
X157247619Y-85654819D02*
X157104762Y-85607200D01*
X157104762Y-85607200D02*
X157009524Y-85511961D01*
X157009524Y-85511961D02*
X156961905Y-85416723D01*
X156961905Y-85416723D02*
X156914286Y-85226247D01*
X156914286Y-85226247D02*
X156914286Y-85083390D01*
X156914286Y-85083390D02*
X156961905Y-84892914D01*
X156961905Y-84892914D02*
X157009524Y-84797676D01*
X157009524Y-84797676D02*
X157104762Y-84702438D01*
X157104762Y-84702438D02*
X157247619Y-84654819D01*
X157247619Y-84654819D02*
X157342857Y-84654819D01*
X157342857Y-84654819D02*
X157485714Y-84702438D01*
X157485714Y-84702438D02*
X157533333Y-84750057D01*
X157866667Y-84654819D02*
X158533333Y-84654819D01*
X158533333Y-84654819D02*
X158104762Y-85654819D01*
X156338095Y-91304819D02*
X156338095Y-92114342D01*
X156338095Y-92114342D02*
X156385714Y-92209580D01*
X156385714Y-92209580D02*
X156433333Y-92257200D01*
X156433333Y-92257200D02*
X156528571Y-92304819D01*
X156528571Y-92304819D02*
X156719047Y-92304819D01*
X156719047Y-92304819D02*
X156814285Y-92257200D01*
X156814285Y-92257200D02*
X156861904Y-92209580D01*
X156861904Y-92209580D02*
X156909523Y-92114342D01*
X156909523Y-92114342D02*
X156909523Y-91304819D01*
X157290476Y-91304819D02*
X157957142Y-91304819D01*
X157957142Y-91304819D02*
X157528571Y-92304819D01*
X129661905Y-76854819D02*
X129661905Y-75854819D01*
X129661905Y-75854819D02*
X129900000Y-75854819D01*
X129900000Y-75854819D02*
X130042857Y-75902438D01*
X130042857Y-75902438D02*
X130138095Y-75997676D01*
X130138095Y-75997676D02*
X130185714Y-76092914D01*
X130185714Y-76092914D02*
X130233333Y-76283390D01*
X130233333Y-76283390D02*
X130233333Y-76426247D01*
X130233333Y-76426247D02*
X130185714Y-76616723D01*
X130185714Y-76616723D02*
X130138095Y-76711961D01*
X130138095Y-76711961D02*
X130042857Y-76807200D01*
X130042857Y-76807200D02*
X129900000Y-76854819D01*
X129900000Y-76854819D02*
X129661905Y-76854819D01*
X130566667Y-75854819D02*
X131233333Y-75854819D01*
X131233333Y-75854819D02*
X130804762Y-76854819D01*
X92817142Y-112684819D02*
X92483809Y-112208628D01*
X92245714Y-112684819D02*
X92245714Y-111684819D01*
X92245714Y-111684819D02*
X92626666Y-111684819D01*
X92626666Y-111684819D02*
X92721904Y-111732438D01*
X92721904Y-111732438D02*
X92769523Y-111780057D01*
X92769523Y-111780057D02*
X92817142Y-111875295D01*
X92817142Y-111875295D02*
X92817142Y-112018152D01*
X92817142Y-112018152D02*
X92769523Y-112113390D01*
X92769523Y-112113390D02*
X92721904Y-112161009D01*
X92721904Y-112161009D02*
X92626666Y-112208628D01*
X92626666Y-112208628D02*
X92245714Y-112208628D01*
X93198095Y-111780057D02*
X93245714Y-111732438D01*
X93245714Y-111732438D02*
X93340952Y-111684819D01*
X93340952Y-111684819D02*
X93579047Y-111684819D01*
X93579047Y-111684819D02*
X93674285Y-111732438D01*
X93674285Y-111732438D02*
X93721904Y-111780057D01*
X93721904Y-111780057D02*
X93769523Y-111875295D01*
X93769523Y-111875295D02*
X93769523Y-111970533D01*
X93769523Y-111970533D02*
X93721904Y-112113390D01*
X93721904Y-112113390D02*
X93150476Y-112684819D01*
X93150476Y-112684819D02*
X93769523Y-112684819D01*
X94388571Y-111684819D02*
X94483809Y-111684819D01*
X94483809Y-111684819D02*
X94579047Y-111732438D01*
X94579047Y-111732438D02*
X94626666Y-111780057D01*
X94626666Y-111780057D02*
X94674285Y-111875295D01*
X94674285Y-111875295D02*
X94721904Y-112065771D01*
X94721904Y-112065771D02*
X94721904Y-112303866D01*
X94721904Y-112303866D02*
X94674285Y-112494342D01*
X94674285Y-112494342D02*
X94626666Y-112589580D01*
X94626666Y-112589580D02*
X94579047Y-112637200D01*
X94579047Y-112637200D02*
X94483809Y-112684819D01*
X94483809Y-112684819D02*
X94388571Y-112684819D01*
X94388571Y-112684819D02*
X94293333Y-112637200D01*
X94293333Y-112637200D02*
X94245714Y-112589580D01*
X94245714Y-112589580D02*
X94198095Y-112494342D01*
X94198095Y-112494342D02*
X94150476Y-112303866D01*
X94150476Y-112303866D02*
X94150476Y-112065771D01*
X94150476Y-112065771D02*
X94198095Y-111875295D01*
X94198095Y-111875295D02*
X94245714Y-111780057D01*
X94245714Y-111780057D02*
X94293333Y-111732438D01*
X94293333Y-111732438D02*
X94388571Y-111684819D01*
X131237142Y-100284819D02*
X130903809Y-99808628D01*
X130665714Y-100284819D02*
X130665714Y-99284819D01*
X130665714Y-99284819D02*
X131046666Y-99284819D01*
X131046666Y-99284819D02*
X131141904Y-99332438D01*
X131141904Y-99332438D02*
X131189523Y-99380057D01*
X131189523Y-99380057D02*
X131237142Y-99475295D01*
X131237142Y-99475295D02*
X131237142Y-99618152D01*
X131237142Y-99618152D02*
X131189523Y-99713390D01*
X131189523Y-99713390D02*
X131141904Y-99761009D01*
X131141904Y-99761009D02*
X131046666Y-99808628D01*
X131046666Y-99808628D02*
X130665714Y-99808628D01*
X131618095Y-99380057D02*
X131665714Y-99332438D01*
X131665714Y-99332438D02*
X131760952Y-99284819D01*
X131760952Y-99284819D02*
X131999047Y-99284819D01*
X131999047Y-99284819D02*
X132094285Y-99332438D01*
X132094285Y-99332438D02*
X132141904Y-99380057D01*
X132141904Y-99380057D02*
X132189523Y-99475295D01*
X132189523Y-99475295D02*
X132189523Y-99570533D01*
X132189523Y-99570533D02*
X132141904Y-99713390D01*
X132141904Y-99713390D02*
X131570476Y-100284819D01*
X131570476Y-100284819D02*
X132189523Y-100284819D01*
X132570476Y-99380057D02*
X132618095Y-99332438D01*
X132618095Y-99332438D02*
X132713333Y-99284819D01*
X132713333Y-99284819D02*
X132951428Y-99284819D01*
X132951428Y-99284819D02*
X133046666Y-99332438D01*
X133046666Y-99332438D02*
X133094285Y-99380057D01*
X133094285Y-99380057D02*
X133141904Y-99475295D01*
X133141904Y-99475295D02*
X133141904Y-99570533D01*
X133141904Y-99570533D02*
X133094285Y-99713390D01*
X133094285Y-99713390D02*
X132522857Y-100284819D01*
X132522857Y-100284819D02*
X133141904Y-100284819D01*
X61956667Y-102017200D02*
X62099524Y-102064819D01*
X62099524Y-102064819D02*
X62337619Y-102064819D01*
X62337619Y-102064819D02*
X62432857Y-102017200D01*
X62432857Y-102017200D02*
X62480476Y-101969580D01*
X62480476Y-101969580D02*
X62528095Y-101874342D01*
X62528095Y-101874342D02*
X62528095Y-101779104D01*
X62528095Y-101779104D02*
X62480476Y-101683866D01*
X62480476Y-101683866D02*
X62432857Y-101636247D01*
X62432857Y-101636247D02*
X62337619Y-101588628D01*
X62337619Y-101588628D02*
X62147143Y-101541009D01*
X62147143Y-101541009D02*
X62051905Y-101493390D01*
X62051905Y-101493390D02*
X62004286Y-101445771D01*
X62004286Y-101445771D02*
X61956667Y-101350533D01*
X61956667Y-101350533D02*
X61956667Y-101255295D01*
X61956667Y-101255295D02*
X62004286Y-101160057D01*
X62004286Y-101160057D02*
X62051905Y-101112438D01*
X62051905Y-101112438D02*
X62147143Y-101064819D01*
X62147143Y-101064819D02*
X62385238Y-101064819D01*
X62385238Y-101064819D02*
X62528095Y-101112438D01*
X62861429Y-101064819D02*
X63099524Y-102064819D01*
X63099524Y-102064819D02*
X63290000Y-101350533D01*
X63290000Y-101350533D02*
X63480476Y-102064819D01*
X63480476Y-102064819D02*
X63718572Y-101064819D01*
X64004286Y-101064819D02*
X64623333Y-101064819D01*
X64623333Y-101064819D02*
X64290000Y-101445771D01*
X64290000Y-101445771D02*
X64432857Y-101445771D01*
X64432857Y-101445771D02*
X64528095Y-101493390D01*
X64528095Y-101493390D02*
X64575714Y-101541009D01*
X64575714Y-101541009D02*
X64623333Y-101636247D01*
X64623333Y-101636247D02*
X64623333Y-101874342D01*
X64623333Y-101874342D02*
X64575714Y-101969580D01*
X64575714Y-101969580D02*
X64528095Y-102017200D01*
X64528095Y-102017200D02*
X64432857Y-102064819D01*
X64432857Y-102064819D02*
X64147143Y-102064819D01*
X64147143Y-102064819D02*
X64051905Y-102017200D01*
X64051905Y-102017200D02*
X64004286Y-101969580D01*
X186783333Y-57709580D02*
X186735714Y-57757200D01*
X186735714Y-57757200D02*
X186592857Y-57804819D01*
X186592857Y-57804819D02*
X186497619Y-57804819D01*
X186497619Y-57804819D02*
X186354762Y-57757200D01*
X186354762Y-57757200D02*
X186259524Y-57661961D01*
X186259524Y-57661961D02*
X186211905Y-57566723D01*
X186211905Y-57566723D02*
X186164286Y-57376247D01*
X186164286Y-57376247D02*
X186164286Y-57233390D01*
X186164286Y-57233390D02*
X186211905Y-57042914D01*
X186211905Y-57042914D02*
X186259524Y-56947676D01*
X186259524Y-56947676D02*
X186354762Y-56852438D01*
X186354762Y-56852438D02*
X186497619Y-56804819D01*
X186497619Y-56804819D02*
X186592857Y-56804819D01*
X186592857Y-56804819D02*
X186735714Y-56852438D01*
X186735714Y-56852438D02*
X186783333Y-56900057D01*
X187640476Y-57138152D02*
X187640476Y-57804819D01*
X187402381Y-56757200D02*
X187164286Y-57471485D01*
X187164286Y-57471485D02*
X187783333Y-57471485D01*
X207357142Y-64884819D02*
X207023809Y-64408628D01*
X206785714Y-64884819D02*
X206785714Y-63884819D01*
X206785714Y-63884819D02*
X207166666Y-63884819D01*
X207166666Y-63884819D02*
X207261904Y-63932438D01*
X207261904Y-63932438D02*
X207309523Y-63980057D01*
X207309523Y-63980057D02*
X207357142Y-64075295D01*
X207357142Y-64075295D02*
X207357142Y-64218152D01*
X207357142Y-64218152D02*
X207309523Y-64313390D01*
X207309523Y-64313390D02*
X207261904Y-64361009D01*
X207261904Y-64361009D02*
X207166666Y-64408628D01*
X207166666Y-64408628D02*
X206785714Y-64408628D01*
X208309523Y-64884819D02*
X207738095Y-64884819D01*
X208023809Y-64884819D02*
X208023809Y-63884819D01*
X208023809Y-63884819D02*
X207928571Y-64027676D01*
X207928571Y-64027676D02*
X207833333Y-64122914D01*
X207833333Y-64122914D02*
X207738095Y-64170533D01*
X209166666Y-64218152D02*
X209166666Y-64884819D01*
X208928571Y-63837200D02*
X208690476Y-64551485D01*
X208690476Y-64551485D02*
X209309523Y-64551485D01*
X83308333Y-57734819D02*
X82975000Y-57258628D01*
X82736905Y-57734819D02*
X82736905Y-56734819D01*
X82736905Y-56734819D02*
X83117857Y-56734819D01*
X83117857Y-56734819D02*
X83213095Y-56782438D01*
X83213095Y-56782438D02*
X83260714Y-56830057D01*
X83260714Y-56830057D02*
X83308333Y-56925295D01*
X83308333Y-56925295D02*
X83308333Y-57068152D01*
X83308333Y-57068152D02*
X83260714Y-57163390D01*
X83260714Y-57163390D02*
X83213095Y-57211009D01*
X83213095Y-57211009D02*
X83117857Y-57258628D01*
X83117857Y-57258628D02*
X82736905Y-57258628D01*
X84260714Y-57734819D02*
X83689286Y-57734819D01*
X83975000Y-57734819D02*
X83975000Y-56734819D01*
X83975000Y-56734819D02*
X83879762Y-56877676D01*
X83879762Y-56877676D02*
X83784524Y-56972914D01*
X83784524Y-56972914D02*
X83689286Y-57020533D01*
X217975714Y-58494819D02*
X217975714Y-57494819D01*
X217975714Y-57494819D02*
X218213809Y-57494819D01*
X218213809Y-57494819D02*
X218356666Y-57542438D01*
X218356666Y-57542438D02*
X218451904Y-57637676D01*
X218451904Y-57637676D02*
X218499523Y-57732914D01*
X218499523Y-57732914D02*
X218547142Y-57923390D01*
X218547142Y-57923390D02*
X218547142Y-58066247D01*
X218547142Y-58066247D02*
X218499523Y-58256723D01*
X218499523Y-58256723D02*
X218451904Y-58351961D01*
X218451904Y-58351961D02*
X218356666Y-58447200D01*
X218356666Y-58447200D02*
X218213809Y-58494819D01*
X218213809Y-58494819D02*
X217975714Y-58494819D01*
X219499523Y-58494819D02*
X218928095Y-58494819D01*
X219213809Y-58494819D02*
X219213809Y-57494819D01*
X219213809Y-57494819D02*
X219118571Y-57637676D01*
X219118571Y-57637676D02*
X219023333Y-57732914D01*
X219023333Y-57732914D02*
X218928095Y-57780533D01*
X219832857Y-57494819D02*
X220451904Y-57494819D01*
X220451904Y-57494819D02*
X220118571Y-57875771D01*
X220118571Y-57875771D02*
X220261428Y-57875771D01*
X220261428Y-57875771D02*
X220356666Y-57923390D01*
X220356666Y-57923390D02*
X220404285Y-57971009D01*
X220404285Y-57971009D02*
X220451904Y-58066247D01*
X220451904Y-58066247D02*
X220451904Y-58304342D01*
X220451904Y-58304342D02*
X220404285Y-58399580D01*
X220404285Y-58399580D02*
X220356666Y-58447200D01*
X220356666Y-58447200D02*
X220261428Y-58494819D01*
X220261428Y-58494819D02*
X219975714Y-58494819D01*
X219975714Y-58494819D02*
X219880476Y-58447200D01*
X219880476Y-58447200D02*
X219832857Y-58399580D01*
X102435714Y-103094819D02*
X102435714Y-102094819D01*
X102435714Y-102094819D02*
X102673809Y-102094819D01*
X102673809Y-102094819D02*
X102816666Y-102142438D01*
X102816666Y-102142438D02*
X102911904Y-102237676D01*
X102911904Y-102237676D02*
X102959523Y-102332914D01*
X102959523Y-102332914D02*
X103007142Y-102523390D01*
X103007142Y-102523390D02*
X103007142Y-102666247D01*
X103007142Y-102666247D02*
X102959523Y-102856723D01*
X102959523Y-102856723D02*
X102911904Y-102951961D01*
X102911904Y-102951961D02*
X102816666Y-103047200D01*
X102816666Y-103047200D02*
X102673809Y-103094819D01*
X102673809Y-103094819D02*
X102435714Y-103094819D01*
X103959523Y-103094819D02*
X103388095Y-103094819D01*
X103673809Y-103094819D02*
X103673809Y-102094819D01*
X103673809Y-102094819D02*
X103578571Y-102237676D01*
X103578571Y-102237676D02*
X103483333Y-102332914D01*
X103483333Y-102332914D02*
X103388095Y-102380533D01*
X104530952Y-102523390D02*
X104435714Y-102475771D01*
X104435714Y-102475771D02*
X104388095Y-102428152D01*
X104388095Y-102428152D02*
X104340476Y-102332914D01*
X104340476Y-102332914D02*
X104340476Y-102285295D01*
X104340476Y-102285295D02*
X104388095Y-102190057D01*
X104388095Y-102190057D02*
X104435714Y-102142438D01*
X104435714Y-102142438D02*
X104530952Y-102094819D01*
X104530952Y-102094819D02*
X104721428Y-102094819D01*
X104721428Y-102094819D02*
X104816666Y-102142438D01*
X104816666Y-102142438D02*
X104864285Y-102190057D01*
X104864285Y-102190057D02*
X104911904Y-102285295D01*
X104911904Y-102285295D02*
X104911904Y-102332914D01*
X104911904Y-102332914D02*
X104864285Y-102428152D01*
X104864285Y-102428152D02*
X104816666Y-102475771D01*
X104816666Y-102475771D02*
X104721428Y-102523390D01*
X104721428Y-102523390D02*
X104530952Y-102523390D01*
X104530952Y-102523390D02*
X104435714Y-102571009D01*
X104435714Y-102571009D02*
X104388095Y-102618628D01*
X104388095Y-102618628D02*
X104340476Y-102713866D01*
X104340476Y-102713866D02*
X104340476Y-102904342D01*
X104340476Y-102904342D02*
X104388095Y-102999580D01*
X104388095Y-102999580D02*
X104435714Y-103047200D01*
X104435714Y-103047200D02*
X104530952Y-103094819D01*
X104530952Y-103094819D02*
X104721428Y-103094819D01*
X104721428Y-103094819D02*
X104816666Y-103047200D01*
X104816666Y-103047200D02*
X104864285Y-102999580D01*
X104864285Y-102999580D02*
X104911904Y-102904342D01*
X104911904Y-102904342D02*
X104911904Y-102713866D01*
X104911904Y-102713866D02*
X104864285Y-102618628D01*
X104864285Y-102618628D02*
X104816666Y-102571009D01*
X104816666Y-102571009D02*
X104721428Y-102523390D01*
X208157142Y-91554819D02*
X207823809Y-91078628D01*
X207585714Y-91554819D02*
X207585714Y-90554819D01*
X207585714Y-90554819D02*
X207966666Y-90554819D01*
X207966666Y-90554819D02*
X208061904Y-90602438D01*
X208061904Y-90602438D02*
X208109523Y-90650057D01*
X208109523Y-90650057D02*
X208157142Y-90745295D01*
X208157142Y-90745295D02*
X208157142Y-90888152D01*
X208157142Y-90888152D02*
X208109523Y-90983390D01*
X208109523Y-90983390D02*
X208061904Y-91031009D01*
X208061904Y-91031009D02*
X207966666Y-91078628D01*
X207966666Y-91078628D02*
X207585714Y-91078628D01*
X208538095Y-90650057D02*
X208585714Y-90602438D01*
X208585714Y-90602438D02*
X208680952Y-90554819D01*
X208680952Y-90554819D02*
X208919047Y-90554819D01*
X208919047Y-90554819D02*
X209014285Y-90602438D01*
X209014285Y-90602438D02*
X209061904Y-90650057D01*
X209061904Y-90650057D02*
X209109523Y-90745295D01*
X209109523Y-90745295D02*
X209109523Y-90840533D01*
X209109523Y-90840533D02*
X209061904Y-90983390D01*
X209061904Y-90983390D02*
X208490476Y-91554819D01*
X208490476Y-91554819D02*
X209109523Y-91554819D01*
X209585714Y-91554819D02*
X209776190Y-91554819D01*
X209776190Y-91554819D02*
X209871428Y-91507200D01*
X209871428Y-91507200D02*
X209919047Y-91459580D01*
X209919047Y-91459580D02*
X210014285Y-91316723D01*
X210014285Y-91316723D02*
X210061904Y-91126247D01*
X210061904Y-91126247D02*
X210061904Y-90745295D01*
X210061904Y-90745295D02*
X210014285Y-90650057D01*
X210014285Y-90650057D02*
X209966666Y-90602438D01*
X209966666Y-90602438D02*
X209871428Y-90554819D01*
X209871428Y-90554819D02*
X209680952Y-90554819D01*
X209680952Y-90554819D02*
X209585714Y-90602438D01*
X209585714Y-90602438D02*
X209538095Y-90650057D01*
X209538095Y-90650057D02*
X209490476Y-90745295D01*
X209490476Y-90745295D02*
X209490476Y-90983390D01*
X209490476Y-90983390D02*
X209538095Y-91078628D01*
X209538095Y-91078628D02*
X209585714Y-91126247D01*
X209585714Y-91126247D02*
X209680952Y-91173866D01*
X209680952Y-91173866D02*
X209871428Y-91173866D01*
X209871428Y-91173866D02*
X209966666Y-91126247D01*
X209966666Y-91126247D02*
X210014285Y-91078628D01*
X210014285Y-91078628D02*
X210061904Y-90983390D01*
X120773333Y-68884819D02*
X120440000Y-68408628D01*
X120201905Y-68884819D02*
X120201905Y-67884819D01*
X120201905Y-67884819D02*
X120582857Y-67884819D01*
X120582857Y-67884819D02*
X120678095Y-67932438D01*
X120678095Y-67932438D02*
X120725714Y-67980057D01*
X120725714Y-67980057D02*
X120773333Y-68075295D01*
X120773333Y-68075295D02*
X120773333Y-68218152D01*
X120773333Y-68218152D02*
X120725714Y-68313390D01*
X120725714Y-68313390D02*
X120678095Y-68361009D01*
X120678095Y-68361009D02*
X120582857Y-68408628D01*
X120582857Y-68408628D02*
X120201905Y-68408628D01*
X121106667Y-67884819D02*
X121773333Y-67884819D01*
X121773333Y-67884819D02*
X121344762Y-68884819D01*
X168857142Y-111334819D02*
X168523809Y-110858628D01*
X168285714Y-111334819D02*
X168285714Y-110334819D01*
X168285714Y-110334819D02*
X168666666Y-110334819D01*
X168666666Y-110334819D02*
X168761904Y-110382438D01*
X168761904Y-110382438D02*
X168809523Y-110430057D01*
X168809523Y-110430057D02*
X168857142Y-110525295D01*
X168857142Y-110525295D02*
X168857142Y-110668152D01*
X168857142Y-110668152D02*
X168809523Y-110763390D01*
X168809523Y-110763390D02*
X168761904Y-110811009D01*
X168761904Y-110811009D02*
X168666666Y-110858628D01*
X168666666Y-110858628D02*
X168285714Y-110858628D01*
X169238095Y-110430057D02*
X169285714Y-110382438D01*
X169285714Y-110382438D02*
X169380952Y-110334819D01*
X169380952Y-110334819D02*
X169619047Y-110334819D01*
X169619047Y-110334819D02*
X169714285Y-110382438D01*
X169714285Y-110382438D02*
X169761904Y-110430057D01*
X169761904Y-110430057D02*
X169809523Y-110525295D01*
X169809523Y-110525295D02*
X169809523Y-110620533D01*
X169809523Y-110620533D02*
X169761904Y-110763390D01*
X169761904Y-110763390D02*
X169190476Y-111334819D01*
X169190476Y-111334819D02*
X169809523Y-111334819D01*
X170380952Y-110763390D02*
X170285714Y-110715771D01*
X170285714Y-110715771D02*
X170238095Y-110668152D01*
X170238095Y-110668152D02*
X170190476Y-110572914D01*
X170190476Y-110572914D02*
X170190476Y-110525295D01*
X170190476Y-110525295D02*
X170238095Y-110430057D01*
X170238095Y-110430057D02*
X170285714Y-110382438D01*
X170285714Y-110382438D02*
X170380952Y-110334819D01*
X170380952Y-110334819D02*
X170571428Y-110334819D01*
X170571428Y-110334819D02*
X170666666Y-110382438D01*
X170666666Y-110382438D02*
X170714285Y-110430057D01*
X170714285Y-110430057D02*
X170761904Y-110525295D01*
X170761904Y-110525295D02*
X170761904Y-110572914D01*
X170761904Y-110572914D02*
X170714285Y-110668152D01*
X170714285Y-110668152D02*
X170666666Y-110715771D01*
X170666666Y-110715771D02*
X170571428Y-110763390D01*
X170571428Y-110763390D02*
X170380952Y-110763390D01*
X170380952Y-110763390D02*
X170285714Y-110811009D01*
X170285714Y-110811009D02*
X170238095Y-110858628D01*
X170238095Y-110858628D02*
X170190476Y-110953866D01*
X170190476Y-110953866D02*
X170190476Y-111144342D01*
X170190476Y-111144342D02*
X170238095Y-111239580D01*
X170238095Y-111239580D02*
X170285714Y-111287200D01*
X170285714Y-111287200D02*
X170380952Y-111334819D01*
X170380952Y-111334819D02*
X170571428Y-111334819D01*
X170571428Y-111334819D02*
X170666666Y-111287200D01*
X170666666Y-111287200D02*
X170714285Y-111239580D01*
X170714285Y-111239580D02*
X170761904Y-111144342D01*
X170761904Y-111144342D02*
X170761904Y-110953866D01*
X170761904Y-110953866D02*
X170714285Y-110858628D01*
X170714285Y-110858628D02*
X170666666Y-110811009D01*
X170666666Y-110811009D02*
X170571428Y-110763390D01*
X186266666Y-62934819D02*
X186266666Y-63649104D01*
X186266666Y-63649104D02*
X186219047Y-63791961D01*
X186219047Y-63791961D02*
X186123809Y-63887200D01*
X186123809Y-63887200D02*
X185980952Y-63934819D01*
X185980952Y-63934819D02*
X185885714Y-63934819D01*
X187171428Y-63268152D02*
X187171428Y-63934819D01*
X186933333Y-62887200D02*
X186695238Y-63601485D01*
X186695238Y-63601485D02*
X187314285Y-63601485D01*
X95435714Y-117694819D02*
X95435714Y-116694819D01*
X95435714Y-116694819D02*
X95673809Y-116694819D01*
X95673809Y-116694819D02*
X95816666Y-116742438D01*
X95816666Y-116742438D02*
X95911904Y-116837676D01*
X95911904Y-116837676D02*
X95959523Y-116932914D01*
X95959523Y-116932914D02*
X96007142Y-117123390D01*
X96007142Y-117123390D02*
X96007142Y-117266247D01*
X96007142Y-117266247D02*
X95959523Y-117456723D01*
X95959523Y-117456723D02*
X95911904Y-117551961D01*
X95911904Y-117551961D02*
X95816666Y-117647200D01*
X95816666Y-117647200D02*
X95673809Y-117694819D01*
X95673809Y-117694819D02*
X95435714Y-117694819D01*
X96388095Y-116790057D02*
X96435714Y-116742438D01*
X96435714Y-116742438D02*
X96530952Y-116694819D01*
X96530952Y-116694819D02*
X96769047Y-116694819D01*
X96769047Y-116694819D02*
X96864285Y-116742438D01*
X96864285Y-116742438D02*
X96911904Y-116790057D01*
X96911904Y-116790057D02*
X96959523Y-116885295D01*
X96959523Y-116885295D02*
X96959523Y-116980533D01*
X96959523Y-116980533D02*
X96911904Y-117123390D01*
X96911904Y-117123390D02*
X96340476Y-117694819D01*
X96340476Y-117694819D02*
X96959523Y-117694819D01*
X97578571Y-116694819D02*
X97673809Y-116694819D01*
X97673809Y-116694819D02*
X97769047Y-116742438D01*
X97769047Y-116742438D02*
X97816666Y-116790057D01*
X97816666Y-116790057D02*
X97864285Y-116885295D01*
X97864285Y-116885295D02*
X97911904Y-117075771D01*
X97911904Y-117075771D02*
X97911904Y-117313866D01*
X97911904Y-117313866D02*
X97864285Y-117504342D01*
X97864285Y-117504342D02*
X97816666Y-117599580D01*
X97816666Y-117599580D02*
X97769047Y-117647200D01*
X97769047Y-117647200D02*
X97673809Y-117694819D01*
X97673809Y-117694819D02*
X97578571Y-117694819D01*
X97578571Y-117694819D02*
X97483333Y-117647200D01*
X97483333Y-117647200D02*
X97435714Y-117599580D01*
X97435714Y-117599580D02*
X97388095Y-117504342D01*
X97388095Y-117504342D02*
X97340476Y-117313866D01*
X97340476Y-117313866D02*
X97340476Y-117075771D01*
X97340476Y-117075771D02*
X97388095Y-116885295D01*
X97388095Y-116885295D02*
X97435714Y-116790057D01*
X97435714Y-116790057D02*
X97483333Y-116742438D01*
X97483333Y-116742438D02*
X97578571Y-116694819D01*
X93017142Y-106484819D02*
X92683809Y-106008628D01*
X92445714Y-106484819D02*
X92445714Y-105484819D01*
X92445714Y-105484819D02*
X92826666Y-105484819D01*
X92826666Y-105484819D02*
X92921904Y-105532438D01*
X92921904Y-105532438D02*
X92969523Y-105580057D01*
X92969523Y-105580057D02*
X93017142Y-105675295D01*
X93017142Y-105675295D02*
X93017142Y-105818152D01*
X93017142Y-105818152D02*
X92969523Y-105913390D01*
X92969523Y-105913390D02*
X92921904Y-105961009D01*
X92921904Y-105961009D02*
X92826666Y-106008628D01*
X92826666Y-106008628D02*
X92445714Y-106008628D01*
X93969523Y-106484819D02*
X93398095Y-106484819D01*
X93683809Y-106484819D02*
X93683809Y-105484819D01*
X93683809Y-105484819D02*
X93588571Y-105627676D01*
X93588571Y-105627676D02*
X93493333Y-105722914D01*
X93493333Y-105722914D02*
X93398095Y-105770533D01*
X94445714Y-106484819D02*
X94636190Y-106484819D01*
X94636190Y-106484819D02*
X94731428Y-106437200D01*
X94731428Y-106437200D02*
X94779047Y-106389580D01*
X94779047Y-106389580D02*
X94874285Y-106246723D01*
X94874285Y-106246723D02*
X94921904Y-106056247D01*
X94921904Y-106056247D02*
X94921904Y-105675295D01*
X94921904Y-105675295D02*
X94874285Y-105580057D01*
X94874285Y-105580057D02*
X94826666Y-105532438D01*
X94826666Y-105532438D02*
X94731428Y-105484819D01*
X94731428Y-105484819D02*
X94540952Y-105484819D01*
X94540952Y-105484819D02*
X94445714Y-105532438D01*
X94445714Y-105532438D02*
X94398095Y-105580057D01*
X94398095Y-105580057D02*
X94350476Y-105675295D01*
X94350476Y-105675295D02*
X94350476Y-105913390D01*
X94350476Y-105913390D02*
X94398095Y-106008628D01*
X94398095Y-106008628D02*
X94445714Y-106056247D01*
X94445714Y-106056247D02*
X94540952Y-106103866D01*
X94540952Y-106103866D02*
X94731428Y-106103866D01*
X94731428Y-106103866D02*
X94826666Y-106056247D01*
X94826666Y-106056247D02*
X94874285Y-106008628D01*
X94874285Y-106008628D02*
X94921904Y-105913390D01*
X92586905Y-57744819D02*
X92586905Y-56744819D01*
X92586905Y-56744819D02*
X92825000Y-56744819D01*
X92825000Y-56744819D02*
X92967857Y-56792438D01*
X92967857Y-56792438D02*
X93063095Y-56887676D01*
X93063095Y-56887676D02*
X93110714Y-56982914D01*
X93110714Y-56982914D02*
X93158333Y-57173390D01*
X93158333Y-57173390D02*
X93158333Y-57316247D01*
X93158333Y-57316247D02*
X93110714Y-57506723D01*
X93110714Y-57506723D02*
X93063095Y-57601961D01*
X93063095Y-57601961D02*
X92967857Y-57697200D01*
X92967857Y-57697200D02*
X92825000Y-57744819D01*
X92825000Y-57744819D02*
X92586905Y-57744819D01*
X94110714Y-57744819D02*
X93539286Y-57744819D01*
X93825000Y-57744819D02*
X93825000Y-56744819D01*
X93825000Y-56744819D02*
X93729762Y-56887676D01*
X93729762Y-56887676D02*
X93634524Y-56982914D01*
X93634524Y-56982914D02*
X93539286Y-57030533D01*
X102835714Y-93894819D02*
X102835714Y-92894819D01*
X102835714Y-92894819D02*
X103073809Y-92894819D01*
X103073809Y-92894819D02*
X103216666Y-92942438D01*
X103216666Y-92942438D02*
X103311904Y-93037676D01*
X103311904Y-93037676D02*
X103359523Y-93132914D01*
X103359523Y-93132914D02*
X103407142Y-93323390D01*
X103407142Y-93323390D02*
X103407142Y-93466247D01*
X103407142Y-93466247D02*
X103359523Y-93656723D01*
X103359523Y-93656723D02*
X103311904Y-93751961D01*
X103311904Y-93751961D02*
X103216666Y-93847200D01*
X103216666Y-93847200D02*
X103073809Y-93894819D01*
X103073809Y-93894819D02*
X102835714Y-93894819D01*
X104359523Y-93894819D02*
X103788095Y-93894819D01*
X104073809Y-93894819D02*
X104073809Y-92894819D01*
X104073809Y-92894819D02*
X103978571Y-93037676D01*
X103978571Y-93037676D02*
X103883333Y-93132914D01*
X103883333Y-93132914D02*
X103788095Y-93180533D01*
X104692857Y-92894819D02*
X105359523Y-92894819D01*
X105359523Y-92894819D02*
X104930952Y-93894819D01*
X99061666Y-61854819D02*
X99061666Y-62569104D01*
X99061666Y-62569104D02*
X99014047Y-62711961D01*
X99014047Y-62711961D02*
X98918809Y-62807200D01*
X98918809Y-62807200D02*
X98775952Y-62854819D01*
X98775952Y-62854819D02*
X98680714Y-62854819D01*
X99490238Y-61950057D02*
X99537857Y-61902438D01*
X99537857Y-61902438D02*
X99633095Y-61854819D01*
X99633095Y-61854819D02*
X99871190Y-61854819D01*
X99871190Y-61854819D02*
X99966428Y-61902438D01*
X99966428Y-61902438D02*
X100014047Y-61950057D01*
X100014047Y-61950057D02*
X100061666Y-62045295D01*
X100061666Y-62045295D02*
X100061666Y-62140533D01*
X100061666Y-62140533D02*
X100014047Y-62283390D01*
X100014047Y-62283390D02*
X99442619Y-62854819D01*
X99442619Y-62854819D02*
X100061666Y-62854819D01*
X116433333Y-90109580D02*
X116385714Y-90157200D01*
X116385714Y-90157200D02*
X116242857Y-90204819D01*
X116242857Y-90204819D02*
X116147619Y-90204819D01*
X116147619Y-90204819D02*
X116004762Y-90157200D01*
X116004762Y-90157200D02*
X115909524Y-90061961D01*
X115909524Y-90061961D02*
X115861905Y-89966723D01*
X115861905Y-89966723D02*
X115814286Y-89776247D01*
X115814286Y-89776247D02*
X115814286Y-89633390D01*
X115814286Y-89633390D02*
X115861905Y-89442914D01*
X115861905Y-89442914D02*
X115909524Y-89347676D01*
X115909524Y-89347676D02*
X116004762Y-89252438D01*
X116004762Y-89252438D02*
X116147619Y-89204819D01*
X116147619Y-89204819D02*
X116242857Y-89204819D01*
X116242857Y-89204819D02*
X116385714Y-89252438D01*
X116385714Y-89252438D02*
X116433333Y-89300057D01*
X117290476Y-89204819D02*
X117100000Y-89204819D01*
X117100000Y-89204819D02*
X117004762Y-89252438D01*
X117004762Y-89252438D02*
X116957143Y-89300057D01*
X116957143Y-89300057D02*
X116861905Y-89442914D01*
X116861905Y-89442914D02*
X116814286Y-89633390D01*
X116814286Y-89633390D02*
X116814286Y-90014342D01*
X116814286Y-90014342D02*
X116861905Y-90109580D01*
X116861905Y-90109580D02*
X116909524Y-90157200D01*
X116909524Y-90157200D02*
X117004762Y-90204819D01*
X117004762Y-90204819D02*
X117195238Y-90204819D01*
X117195238Y-90204819D02*
X117290476Y-90157200D01*
X117290476Y-90157200D02*
X117338095Y-90109580D01*
X117338095Y-90109580D02*
X117385714Y-90014342D01*
X117385714Y-90014342D02*
X117385714Y-89776247D01*
X117385714Y-89776247D02*
X117338095Y-89681009D01*
X117338095Y-89681009D02*
X117290476Y-89633390D01*
X117290476Y-89633390D02*
X117195238Y-89585771D01*
X117195238Y-89585771D02*
X117004762Y-89585771D01*
X117004762Y-89585771D02*
X116909524Y-89633390D01*
X116909524Y-89633390D02*
X116861905Y-89681009D01*
X116861905Y-89681009D02*
X116814286Y-89776247D01*
X61666666Y-76474819D02*
X61666666Y-77189104D01*
X61666666Y-77189104D02*
X61619047Y-77331961D01*
X61619047Y-77331961D02*
X61523809Y-77427200D01*
X61523809Y-77427200D02*
X61380952Y-77474819D01*
X61380952Y-77474819D02*
X61285714Y-77474819D01*
X62190476Y-77474819D02*
X62380952Y-77474819D01*
X62380952Y-77474819D02*
X62476190Y-77427200D01*
X62476190Y-77427200D02*
X62523809Y-77379580D01*
X62523809Y-77379580D02*
X62619047Y-77236723D01*
X62619047Y-77236723D02*
X62666666Y-77046247D01*
X62666666Y-77046247D02*
X62666666Y-76665295D01*
X62666666Y-76665295D02*
X62619047Y-76570057D01*
X62619047Y-76570057D02*
X62571428Y-76522438D01*
X62571428Y-76522438D02*
X62476190Y-76474819D01*
X62476190Y-76474819D02*
X62285714Y-76474819D01*
X62285714Y-76474819D02*
X62190476Y-76522438D01*
X62190476Y-76522438D02*
X62142857Y-76570057D01*
X62142857Y-76570057D02*
X62095238Y-76665295D01*
X62095238Y-76665295D02*
X62095238Y-76903390D01*
X62095238Y-76903390D02*
X62142857Y-76998628D01*
X62142857Y-76998628D02*
X62190476Y-77046247D01*
X62190476Y-77046247D02*
X62285714Y-77093866D01*
X62285714Y-77093866D02*
X62476190Y-77093866D01*
X62476190Y-77093866D02*
X62571428Y-77046247D01*
X62571428Y-77046247D02*
X62619047Y-76998628D01*
X62619047Y-76998628D02*
X62666666Y-76903390D01*
%TO.C,J7*%
D12*
X147620000Y-99020000D02*
X149000000Y-99020000D01*
X147620000Y-100400000D02*
X147620000Y-99020000D01*
X147620000Y-101670000D02*
X147620000Y-109400000D01*
X147620000Y-101670000D02*
X150380000Y-101670000D01*
X147620000Y-109400000D02*
X150380000Y-109400000D01*
X150380000Y-101670000D02*
X150380000Y-109400000D01*
%TO.C,U6*%
X117270000Y-94600000D02*
X117270000Y-115040000D01*
X117270000Y-115040000D02*
X122570000Y-115040000D01*
X118920000Y-94600000D02*
X117270000Y-94600000D01*
X122570000Y-94600000D02*
X120920000Y-94600000D01*
X122570000Y-115040000D02*
X122570000Y-94600000D01*
X120920000Y-94600000D02*
G75*
G02*
X118920000Y-94600000I-1000000J0D01*
G01*
%TO.C,D23*%
X140330000Y-116255000D02*
X140330000Y-119345000D01*
X140330000Y-116255170D02*
G75*
G02*
X145880000Y-117800000I2560000J-1544830D01*
G01*
X145880000Y-117800000D02*
G75*
G02*
X140330000Y-119344830I-2990000J0D01*
G01*
X145390000Y-117800000D02*
G75*
G02*
X140390000Y-117800000I-2500000J0D01*
G01*
X140390000Y-117800000D02*
G75*
G02*
X145390000Y-117800000I2500000J0D01*
G01*
%TO.C,D14*%
X216630000Y-69855000D02*
X216630000Y-72945000D01*
X216630000Y-69855170D02*
G75*
G02*
X222180000Y-71400000I2560000J-1544830D01*
G01*
X222180000Y-71400000D02*
G75*
G02*
X216630000Y-72944830I-2990000J0D01*
G01*
X221690000Y-71400000D02*
G75*
G02*
X216690000Y-71400000I-2500000J0D01*
G01*
X216690000Y-71400000D02*
G75*
G02*
X221690000Y-71400000I2500000J0D01*
G01*
%TO.C,R9*%
X165730000Y-60780000D02*
X166500000Y-60780000D01*
X173810000Y-60780000D02*
X173040000Y-60780000D01*
X166500000Y-59410000D02*
X173040000Y-59410000D01*
X173040000Y-62150000D01*
X166500000Y-62150000D01*
X166500000Y-59410000D01*
%TO.C,U2*%
X105560000Y-57330000D02*
X105560000Y-77770000D01*
X105560000Y-77770000D02*
X110860000Y-77770000D01*
X107210000Y-57330000D02*
X105560000Y-57330000D01*
X110860000Y-57330000D02*
X109210000Y-57330000D01*
X110860000Y-77770000D02*
X110860000Y-57330000D01*
X109210000Y-57330000D02*
G75*
G02*
X107210000Y-57330000I-1000000J0D01*
G01*
%TO.C,R2*%
X79235000Y-66050000D02*
X80005000Y-66050000D01*
X87315000Y-66050000D02*
X86545000Y-66050000D01*
X80005000Y-64680000D02*
X86545000Y-64680000D01*
X86545000Y-67420000D01*
X80005000Y-67420000D01*
X80005000Y-64680000D01*
%TO.C,D5*%
X128570000Y-58855000D02*
X128570000Y-61945000D01*
X128570000Y-58855170D02*
G75*
G02*
X134120000Y-60400000I2560000J-1544830D01*
G01*
X134120000Y-60400000D02*
G75*
G02*
X128570000Y-61944830I-2990000J0D01*
G01*
X133630000Y-60400000D02*
G75*
G02*
X128630000Y-60400000I-2500000J0D01*
G01*
X128630000Y-60400000D02*
G75*
G02*
X133630000Y-60400000I2500000J0D01*
G01*
%TO.C,R4*%
X78835000Y-79000000D02*
X79605000Y-79000000D01*
X86915000Y-79000000D02*
X86145000Y-79000000D01*
X79605000Y-77630000D02*
X86145000Y-77630000D01*
X86145000Y-80370000D01*
X79605000Y-80370000D01*
X79605000Y-77630000D01*
%TO.C,D12*%
X169920000Y-84725000D02*
X169920000Y-87815000D01*
X169920000Y-84725170D02*
G75*
G02*
X175470000Y-86270000I2560000J-1544830D01*
G01*
X175470000Y-86270000D02*
G75*
G02*
X169920000Y-87814830I-2990000J0D01*
G01*
X174980000Y-86270000D02*
G75*
G02*
X169980000Y-86270000I-2500000J0D01*
G01*
X169980000Y-86270000D02*
G75*
G02*
X174980000Y-86270000I2500000J0D01*
G01*
%TO.C,D10*%
X177320000Y-70525000D02*
X177320000Y-73615000D01*
X177320000Y-70525170D02*
G75*
G02*
X182870000Y-72070000I2560000J-1544830D01*
G01*
X182870000Y-72070000D02*
G75*
G02*
X177320000Y-73614830I-2990000J0D01*
G01*
X182380000Y-72070000D02*
G75*
G02*
X177380000Y-72070000I-2500000J0D01*
G01*
X177380000Y-72070000D02*
G75*
G02*
X182380000Y-72070000I2500000J0D01*
G01*
%TO.C,J5*%
X70400000Y-100620000D02*
X71780000Y-100620000D01*
X70400000Y-102000000D02*
X70400000Y-100620000D01*
X70400000Y-103270000D02*
X70400000Y-111000000D01*
X70400000Y-103270000D02*
X73160000Y-103270000D01*
X70400000Y-111000000D02*
X73160000Y-111000000D01*
X73160000Y-103270000D02*
X73160000Y-111000000D01*
%TO.C,U3*%
X155080000Y-59470000D02*
X155080000Y-79910000D01*
X155080000Y-79910000D02*
X160380000Y-79910000D01*
X156730000Y-59470000D02*
X155080000Y-59470000D01*
X160380000Y-59470000D02*
X158730000Y-59470000D01*
X160380000Y-79910000D02*
X160380000Y-59470000D01*
X158730000Y-59470000D02*
G75*
G02*
X156730000Y-59470000I-1000000J0D01*
G01*
%TO.C,C2*%
X97730000Y-57280000D02*
X100970000Y-57280000D01*
X97730000Y-57428000D02*
X97730000Y-57280000D01*
X97730000Y-59520000D02*
X97730000Y-59372000D01*
X100970000Y-57280000D02*
X100970000Y-57428000D01*
X100970000Y-59372000D02*
X100970000Y-59520000D01*
X100970000Y-59520000D02*
X97730000Y-59520000D01*
%TO.C,R31*%
X204760000Y-106670000D02*
X205530000Y-106670000D01*
X212840000Y-106670000D02*
X212070000Y-106670000D01*
X205530000Y-105300000D02*
X212070000Y-105300000D01*
X212070000Y-108040000D01*
X205530000Y-108040000D01*
X205530000Y-105300000D01*
%TO.C,D22*%
X139930000Y-106655000D02*
X139930000Y-109745000D01*
X139930000Y-106655170D02*
G75*
G02*
X145480000Y-108200000I2560000J-1544830D01*
G01*
X145480000Y-108200000D02*
G75*
G02*
X139930000Y-109744830I-2990000J0D01*
G01*
X144990000Y-108200000D02*
G75*
G02*
X139990000Y-108200000I-2500000J0D01*
G01*
X139990000Y-108200000D02*
G75*
G02*
X144990000Y-108200000I2500000J0D01*
G01*
%TO.C,D24*%
X132710000Y-119455000D02*
X132710000Y-122545000D01*
X132710000Y-119455170D02*
G75*
G02*
X138260000Y-121000000I2560000J-1544830D01*
G01*
X138260000Y-121000000D02*
G75*
G02*
X132710000Y-122544830I-2990000J0D01*
G01*
X137770000Y-121000000D02*
G75*
G02*
X132770000Y-121000000I-2500000J0D01*
G01*
X132770000Y-121000000D02*
G75*
G02*
X137770000Y-121000000I2500000J0D01*
G01*
%TO.C,J10*%
X78820000Y-86820000D02*
X80200000Y-86820000D01*
X78820000Y-88200000D02*
X78820000Y-86820000D01*
X78820000Y-89470000D02*
X78820000Y-89580000D01*
X78820000Y-89470000D02*
X81580000Y-89470000D01*
X78820000Y-89580000D02*
X81580000Y-89580000D01*
X81580000Y-89470000D02*
X81580000Y-89580000D01*
%TO.C,R18*%
X89820000Y-102200000D02*
X90590000Y-102200000D01*
X97900000Y-102200000D02*
X97130000Y-102200000D01*
X90590000Y-100830000D02*
X97130000Y-100830000D01*
X97130000Y-103570000D01*
X90590000Y-103570000D01*
X90590000Y-100830000D01*
%TO.C,D27*%
X177090000Y-112705000D02*
X177090000Y-115795000D01*
X177090000Y-112705170D02*
G75*
G02*
X182640000Y-114250000I2560000J-1544830D01*
G01*
X182640000Y-114250000D02*
G75*
G02*
X177090000Y-115794830I-2990000J0D01*
G01*
X182150000Y-114250000D02*
G75*
G02*
X177150000Y-114250000I-2500000J0D01*
G01*
X177150000Y-114250000D02*
G75*
G02*
X182150000Y-114250000I2500000J0D01*
G01*
%TO.C,D21*%
X140130000Y-97055000D02*
X140130000Y-100145000D01*
X140130000Y-97055170D02*
G75*
G02*
X145680000Y-98600000I2560000J-1544830D01*
G01*
X145680000Y-98600000D02*
G75*
G02*
X140130000Y-100144830I-2990000J0D01*
G01*
X145190000Y-98600000D02*
G75*
G02*
X140190000Y-98600000I-2500000J0D01*
G01*
X140190000Y-98600000D02*
G75*
G02*
X145190000Y-98600000I2500000J0D01*
G01*
%TO.C,D8*%
X121370000Y-82255000D02*
X121370000Y-85345000D01*
X121370000Y-82255170D02*
G75*
G02*
X126920000Y-83800000I2560000J-1544830D01*
G01*
X126920000Y-83800000D02*
G75*
G02*
X121370000Y-85344830I-2990000J0D01*
G01*
X126430000Y-83800000D02*
G75*
G02*
X121430000Y-83800000I-2500000J0D01*
G01*
X121430000Y-83800000D02*
G75*
G02*
X126430000Y-83800000I2500000J0D01*
G01*
%TO.C,U9*%
X137940000Y-65670000D02*
X137940000Y-91190000D01*
X137940000Y-91190000D02*
X143240000Y-91190000D01*
X139590000Y-65670000D02*
X137940000Y-65670000D01*
X143240000Y-65670000D02*
X141590000Y-65670000D01*
X143240000Y-91190000D02*
X143240000Y-65670000D01*
X141590000Y-65670000D02*
G75*
G02*
X139590000Y-65670000I-1000000J0D01*
G01*
%TO.C,J11*%
X142420000Y-56620000D02*
X143800000Y-56620000D01*
X142420000Y-58000000D02*
X142420000Y-56620000D01*
X142420000Y-59270000D02*
X142420000Y-61920000D01*
X142420000Y-59270000D02*
X145180000Y-59270000D01*
X142420000Y-61920000D02*
X145180000Y-61920000D01*
X145180000Y-59270000D02*
X145180000Y-61920000D01*
%TO.C,D6*%
X128770000Y-68655000D02*
X128770000Y-71745000D01*
X128770000Y-68655170D02*
G75*
G02*
X134320000Y-70200000I2560000J-1544830D01*
G01*
X134320000Y-70200000D02*
G75*
G02*
X128770000Y-71744830I-2990000J0D01*
G01*
X133830000Y-70200000D02*
G75*
G02*
X128830000Y-70200000I-2500000J0D01*
G01*
X128830000Y-70200000D02*
G75*
G02*
X133830000Y-70200000I2500000J0D01*
G01*
%TO.C,D11*%
X177320000Y-80525000D02*
X177320000Y-83615000D01*
X177320000Y-80525170D02*
G75*
G02*
X182870000Y-82070000I2560000J-1544830D01*
G01*
X182870000Y-82070000D02*
G75*
G02*
X177320000Y-83614830I-2990000J0D01*
G01*
X182380000Y-82070000D02*
G75*
G02*
X177380000Y-82070000I-2500000J0D01*
G01*
X177380000Y-82070000D02*
G75*
G02*
X182380000Y-82070000I2500000J0D01*
G01*
%TO.C,C1*%
X60330000Y-57880000D02*
X63570000Y-57880000D01*
X60330000Y-58028000D02*
X60330000Y-57880000D01*
X60330000Y-60120000D02*
X60330000Y-59972000D01*
X63570000Y-57880000D02*
X63570000Y-58028000D01*
X63570000Y-59972000D02*
X63570000Y-60120000D01*
X63570000Y-60120000D02*
X60330000Y-60120000D01*
%TO.C,U8*%
X194080000Y-91740000D02*
X194080000Y-112180000D01*
X194080000Y-112180000D02*
X199380000Y-112180000D01*
X195730000Y-91740000D02*
X194080000Y-91740000D01*
X199380000Y-91740000D02*
X197730000Y-91740000D01*
X199380000Y-112180000D02*
X199380000Y-91740000D01*
X197730000Y-91740000D02*
G75*
G02*
X195730000Y-91740000I-1000000J0D01*
G01*
%TO.C,R8*%
X116900000Y-77200000D02*
X117670000Y-77200000D01*
X124980000Y-77200000D02*
X124210000Y-77200000D01*
X117670000Y-75830000D02*
X124210000Y-75830000D01*
X124210000Y-78570000D01*
X117670000Y-78570000D01*
X117670000Y-75830000D01*
%TO.C,R11*%
X165450000Y-73270000D02*
X166220000Y-73270000D01*
X173530000Y-73270000D02*
X172760000Y-73270000D01*
X166220000Y-71900000D02*
X172760000Y-71900000D01*
X172760000Y-74640000D01*
X166220000Y-74640000D01*
X166220000Y-71900000D01*
%TO.C,R15*%
X204080000Y-73000000D02*
X204850000Y-73000000D01*
X212160000Y-73000000D02*
X211390000Y-73000000D01*
X204850000Y-71630000D02*
X211390000Y-71630000D01*
X211390000Y-74370000D01*
X204850000Y-74370000D01*
X204850000Y-71630000D01*
%TO.C,R13*%
X204160000Y-60400000D02*
X204930000Y-60400000D01*
X212240000Y-60400000D02*
X211470000Y-60400000D01*
X204930000Y-59030000D02*
X211470000Y-59030000D01*
X211470000Y-61770000D01*
X204930000Y-61770000D01*
X204930000Y-59030000D01*
%TO.C,D15*%
X216630000Y-79455000D02*
X216630000Y-82545000D01*
X216630000Y-79455170D02*
G75*
G02*
X222180000Y-81000000I2560000J-1544830D01*
G01*
X222180000Y-81000000D02*
G75*
G02*
X216630000Y-82544830I-2990000J0D01*
G01*
X221690000Y-81000000D02*
G75*
G02*
X216690000Y-81000000I-2500000J0D01*
G01*
X216690000Y-81000000D02*
G75*
G02*
X221690000Y-81000000I2500000J0D01*
G01*
%TO.C,R24*%
X128040000Y-114200000D02*
X128810000Y-114200000D01*
X136120000Y-114200000D02*
X135350000Y-114200000D01*
X128810000Y-112830000D02*
X135350000Y-112830000D01*
X135350000Y-115570000D01*
X128810000Y-115570000D01*
X128810000Y-112830000D01*
%TO.C,R10*%
X165450000Y-67070000D02*
X166220000Y-67070000D01*
X173530000Y-67070000D02*
X172760000Y-67070000D01*
X166220000Y-65700000D02*
X172760000Y-65700000D01*
X172760000Y-68440000D01*
X166220000Y-68440000D01*
X166220000Y-65700000D01*
%TO.C,D29*%
X216690000Y-93315000D02*
X216690000Y-96405000D01*
X216690000Y-93315170D02*
G75*
G02*
X222240000Y-94860000I2560000J-1544830D01*
G01*
X222240000Y-94860000D02*
G75*
G02*
X216690000Y-96404830I-2990000J0D01*
G01*
X221750000Y-94860000D02*
G75*
G02*
X216750000Y-94860000I-2500000J0D01*
G01*
X216750000Y-94860000D02*
G75*
G02*
X221750000Y-94860000I2500000J0D01*
G01*
%TO.C,R27*%
X165420000Y-107050000D02*
X166190000Y-107050000D01*
X173500000Y-107050000D02*
X172730000Y-107050000D01*
X166190000Y-105680000D02*
X172730000Y-105680000D01*
X172730000Y-108420000D01*
X166190000Y-108420000D01*
X166190000Y-105680000D01*
%TO.C,U5*%
X79250000Y-94800000D02*
X79250000Y-115240000D01*
X79250000Y-115240000D02*
X84550000Y-115240000D01*
X80900000Y-94800000D02*
X79250000Y-94800000D01*
X84550000Y-94800000D02*
X82900000Y-94800000D01*
X84550000Y-115240000D02*
X84550000Y-94800000D01*
X82900000Y-94800000D02*
G75*
G02*
X80900000Y-94800000I-1000000J0D01*
G01*
%TO.C,R23*%
X127840000Y-108200000D02*
X128610000Y-108200000D01*
X135920000Y-108200000D02*
X135150000Y-108200000D01*
X128610000Y-106830000D02*
X135150000Y-106830000D01*
X135150000Y-109570000D01*
X128610000Y-109570000D01*
X128610000Y-106830000D01*
%TO.C,U4*%
X193280000Y-58470000D02*
X193280000Y-78910000D01*
X193280000Y-78910000D02*
X198580000Y-78910000D01*
X194930000Y-58470000D02*
X193280000Y-58470000D01*
X198580000Y-58470000D02*
X196930000Y-58470000D01*
X198580000Y-78910000D02*
X198580000Y-58470000D01*
X196930000Y-58470000D02*
G75*
G02*
X194930000Y-58470000I-1000000J0D01*
G01*
%TO.C,C9*%
X136930000Y-57680000D02*
X140170000Y-57680000D01*
X136930000Y-57828000D02*
X136930000Y-57680000D01*
X136930000Y-59920000D02*
X136930000Y-59772000D01*
X140170000Y-57680000D02*
X140170000Y-57828000D01*
X140170000Y-59772000D02*
X140170000Y-59920000D01*
X140170000Y-59920000D02*
X136930000Y-59920000D01*
%TO.C,R21*%
X127920000Y-95910000D02*
X128690000Y-95910000D01*
X136000000Y-95910000D02*
X135230000Y-95910000D01*
X128690000Y-94540000D02*
X135230000Y-94540000D01*
X135230000Y-97280000D01*
X128690000Y-97280000D01*
X128690000Y-94540000D01*
%TO.C,R26*%
X165420000Y-100850000D02*
X166190000Y-100850000D01*
X173500000Y-100850000D02*
X172730000Y-100850000D01*
X166190000Y-99480000D02*
X172730000Y-99480000D01*
X172730000Y-102220000D01*
X166190000Y-102220000D01*
X166190000Y-99480000D01*
%TO.C,D26*%
X177090000Y-103505000D02*
X177090000Y-106595000D01*
X177090000Y-103505170D02*
G75*
G02*
X182640000Y-105050000I2560000J-1544830D01*
G01*
X182640000Y-105050000D02*
G75*
G02*
X177090000Y-106594830I-2990000J0D01*
G01*
X182150000Y-105050000D02*
G75*
G02*
X177150000Y-105050000I-2500000J0D01*
G01*
X177150000Y-105050000D02*
G75*
G02*
X182150000Y-105050000I2500000J0D01*
G01*
%TO.C,R6*%
X116900000Y-64600000D02*
X117670000Y-64600000D01*
X124980000Y-64600000D02*
X124210000Y-64600000D01*
X117670000Y-63230000D02*
X124210000Y-63230000D01*
X124210000Y-65970000D01*
X117670000Y-65970000D01*
X117670000Y-63230000D01*
%TO.C,R25*%
X165100000Y-94160000D02*
X165870000Y-94160000D01*
X173180000Y-94160000D02*
X172410000Y-94160000D01*
X165870000Y-92790000D02*
X172410000Y-92790000D01*
X172410000Y-95530000D01*
X165870000Y-95530000D01*
X165870000Y-92790000D01*
%TO.C,D9*%
X177580000Y-60715000D02*
X177580000Y-63805000D01*
X177580000Y-60715170D02*
G75*
G02*
X183130000Y-62260000I2560000J-1544830D01*
G01*
X183130000Y-62260000D02*
G75*
G02*
X177580000Y-63804830I-2990000J0D01*
G01*
X182640000Y-62260000D02*
G75*
G02*
X177640000Y-62260000I-2500000J0D01*
G01*
X177640000Y-62260000D02*
G75*
G02*
X182640000Y-62260000I2500000J0D01*
G01*
%TO.C,SW2*%
X57290000Y-94340000D02*
X66110000Y-94340000D01*
X57290000Y-94650000D02*
X57290000Y-94340000D01*
X57290000Y-98860000D02*
X57290000Y-98550000D01*
X59200000Y-93640000D02*
X59700000Y-94140000D01*
X59700000Y-94140000D02*
X60200000Y-93640000D01*
X60200000Y-93640000D02*
X59200000Y-93640000D01*
X66110000Y-94340000D02*
X66110000Y-94650000D01*
X66110000Y-98860000D02*
X57290000Y-98860000D01*
X66110000Y-98860000D02*
X66110000Y-98550000D01*
%TO.C,R17*%
X89900000Y-96110000D02*
X90670000Y-96110000D01*
X97980000Y-96110000D02*
X97210000Y-96110000D01*
X90670000Y-94740000D02*
X97210000Y-94740000D01*
X97210000Y-97480000D01*
X90670000Y-97480000D01*
X90670000Y-94740000D01*
%TO.C,D16*%
X209630000Y-83855000D02*
X209630000Y-86945000D01*
X209630000Y-83855170D02*
G75*
G02*
X215180000Y-85400000I2560000J-1544830D01*
G01*
X215180000Y-85400000D02*
G75*
G02*
X209630000Y-86944830I-2990000J0D01*
G01*
X214690000Y-85400000D02*
G75*
G02*
X209690000Y-85400000I-2500000J0D01*
G01*
X209690000Y-85400000D02*
G75*
G02*
X214690000Y-85400000I2500000J0D01*
G01*
%TO.C,J8*%
X185080000Y-98470000D02*
X186460000Y-98470000D01*
X185080000Y-99850000D02*
X185080000Y-98470000D01*
X185080000Y-101120000D02*
X185080000Y-108850000D01*
X185080000Y-101120000D02*
X187840000Y-101120000D01*
X185080000Y-108850000D02*
X187840000Y-108850000D01*
X187840000Y-101120000D02*
X187840000Y-108850000D01*
%TO.C,R16*%
X203960000Y-79000000D02*
X204730000Y-79000000D01*
X212040000Y-79000000D02*
X211270000Y-79000000D01*
X204730000Y-77630000D02*
X211270000Y-77630000D01*
X211270000Y-80370000D01*
X204730000Y-80370000D01*
X204730000Y-77630000D01*
%TO.C,R33*%
X123880000Y-90800000D02*
X124650000Y-90800000D01*
X131960000Y-90800000D02*
X131190000Y-90800000D01*
X124650000Y-89430000D02*
X131190000Y-89430000D01*
X131190000Y-92170000D01*
X124650000Y-92170000D01*
X124650000Y-89430000D01*
%TO.C,R32*%
X204960000Y-113270000D02*
X205730000Y-113270000D01*
X213040000Y-113270000D02*
X212270000Y-113270000D01*
X205730000Y-111900000D02*
X212270000Y-111900000D01*
X212270000Y-114640000D01*
X205730000Y-114640000D01*
X205730000Y-111900000D01*
%TO.C,R12*%
X165250000Y-79470000D02*
X166020000Y-79470000D01*
X173330000Y-79470000D02*
X172560000Y-79470000D01*
X166020000Y-78100000D02*
X172560000Y-78100000D01*
X172560000Y-80840000D01*
X166020000Y-80840000D01*
X166020000Y-78100000D01*
%TO.C,U1*%
X68735000Y-58140000D02*
X68735000Y-78580000D01*
X68735000Y-78580000D02*
X74035000Y-78580000D01*
X70385000Y-58140000D02*
X68735000Y-58140000D01*
X74035000Y-58140000D02*
X72385000Y-58140000D01*
X74035000Y-78580000D02*
X74035000Y-58140000D01*
X72385000Y-58140000D02*
G75*
G02*
X70385000Y-58140000I-1000000J0D01*
G01*
%TO.C,D4*%
X83570000Y-83745000D02*
X83570000Y-86835000D01*
X83570000Y-83745170D02*
G75*
G02*
X89120000Y-85290000I2560000J-1544830D01*
G01*
X89120000Y-85290000D02*
G75*
G02*
X83570000Y-86834830I-2990000J0D01*
G01*
X88630000Y-85290000D02*
G75*
G02*
X83630000Y-85290000I-2500000J0D01*
G01*
X83630000Y-85290000D02*
G75*
G02*
X88630000Y-85290000I2500000J0D01*
G01*
%TO.C,R5*%
X117220000Y-58600000D02*
X117990000Y-58600000D01*
X125300000Y-58600000D02*
X124530000Y-58600000D01*
X117990000Y-57230000D02*
X124530000Y-57230000D01*
X124530000Y-59970000D01*
X117990000Y-59970000D01*
X117990000Y-57230000D01*
%TO.C,J6*%
X108820000Y-100420000D02*
X110200000Y-100420000D01*
X108820000Y-101800000D02*
X108820000Y-100420000D01*
X108820000Y-103070000D02*
X108820000Y-110800000D01*
X108820000Y-103070000D02*
X111580000Y-103070000D01*
X108820000Y-110800000D02*
X111580000Y-110800000D01*
X111580000Y-103070000D02*
X111580000Y-110800000D01*
%TO.C,D31*%
X216630000Y-113125000D02*
X216630000Y-116215000D01*
X216630000Y-113125170D02*
G75*
G02*
X222180000Y-114670000I2560000J-1544830D01*
G01*
X222180000Y-114670000D02*
G75*
G02*
X216630000Y-116214830I-2990000J0D01*
G01*
X221690000Y-114670000D02*
G75*
G02*
X216690000Y-114670000I-2500000J0D01*
G01*
X216690000Y-114670000D02*
G75*
G02*
X221690000Y-114670000I2500000J0D01*
G01*
%TO.C,D2*%
X90705000Y-69505000D02*
X90705000Y-72595000D01*
X90705000Y-69505170D02*
G75*
G02*
X96255000Y-71050000I2560000J-1544830D01*
G01*
X96255000Y-71050000D02*
G75*
G02*
X90705000Y-72594830I-2990000J0D01*
G01*
X95765000Y-71050000D02*
G75*
G02*
X90765000Y-71050000I-2500000J0D01*
G01*
X90765000Y-71050000D02*
G75*
G02*
X95765000Y-71050000I2500000J0D01*
G01*
%TO.C,D19*%
X101290000Y-114655000D02*
X101290000Y-117745000D01*
X101290000Y-114655170D02*
G75*
G02*
X106840000Y-116200000I2560000J-1544830D01*
G01*
X106840000Y-116200000D02*
G75*
G02*
X101290000Y-117744830I-2990000J0D01*
G01*
X106350000Y-116200000D02*
G75*
G02*
X101350000Y-116200000I-2500000J0D01*
G01*
X101350000Y-116200000D02*
G75*
G02*
X106350000Y-116200000I2500000J0D01*
G01*
%TO.C,D28*%
X169890000Y-118305000D02*
X169890000Y-121395000D01*
X169890000Y-118305170D02*
G75*
G02*
X175440000Y-119850000I2560000J-1544830D01*
G01*
X175440000Y-119850000D02*
G75*
G02*
X169890000Y-121394830I-2990000J0D01*
G01*
X174950000Y-119850000D02*
G75*
G02*
X169950000Y-119850000I-2500000J0D01*
G01*
X169950000Y-119850000D02*
G75*
G02*
X174950000Y-119850000I2500000J0D01*
G01*
%TO.C,C3*%
X148130000Y-57880000D02*
X151370000Y-57880000D01*
X148130000Y-58028000D02*
X148130000Y-57880000D01*
X148130000Y-60120000D02*
X148130000Y-59972000D01*
X151370000Y-57880000D02*
X151370000Y-58028000D01*
X151370000Y-59972000D02*
X151370000Y-60120000D01*
X151370000Y-60120000D02*
X148130000Y-60120000D01*
%TO.C,D32*%
X209490000Y-118525000D02*
X209490000Y-121615000D01*
X209490000Y-118525170D02*
G75*
G02*
X215040000Y-120070000I2560000J-1544830D01*
G01*
X215040000Y-120070000D02*
G75*
G02*
X209490000Y-121614830I-2990000J0D01*
G01*
X214550000Y-120070000D02*
G75*
G02*
X209550000Y-120070000I-2500000J0D01*
G01*
X209550000Y-120070000D02*
G75*
G02*
X214550000Y-120070000I2500000J0D01*
G01*
%TO.C,R30*%
X204760000Y-100270000D02*
X205530000Y-100270000D01*
X212840000Y-100270000D02*
X212070000Y-100270000D01*
X205530000Y-98900000D02*
X212070000Y-98900000D01*
X212070000Y-101640000D01*
X205530000Y-101640000D01*
X205530000Y-98900000D01*
%TO.C,SW1*%
X57290000Y-85540000D02*
X66110000Y-85540000D01*
X57290000Y-85850000D02*
X57290000Y-85540000D01*
X57290000Y-90060000D02*
X57290000Y-89750000D01*
X59200000Y-84840000D02*
X59700000Y-85340000D01*
X59700000Y-85340000D02*
X60200000Y-84840000D01*
X60200000Y-84840000D02*
X59200000Y-84840000D01*
X66110000Y-85540000D02*
X66110000Y-85850000D01*
X66110000Y-90060000D02*
X57290000Y-90060000D01*
X66110000Y-90060000D02*
X66110000Y-89750000D01*
%TO.C,C5*%
X70740000Y-93040000D02*
X73980000Y-93040000D01*
X70740000Y-93188000D02*
X70740000Y-93040000D01*
X70740000Y-95280000D02*
X70740000Y-95132000D01*
X73980000Y-93040000D02*
X73980000Y-93188000D01*
X73980000Y-95132000D02*
X73980000Y-95280000D01*
X73980000Y-95280000D02*
X70740000Y-95280000D01*
%TO.C,R3*%
X79035000Y-72250000D02*
X79805000Y-72250000D01*
X87115000Y-72250000D02*
X86345000Y-72250000D01*
X79805000Y-70880000D02*
X86345000Y-70880000D01*
X86345000Y-73620000D01*
X79805000Y-73620000D01*
X79805000Y-70880000D01*
%TO.C,D3*%
X90705000Y-80455000D02*
X90705000Y-83545000D01*
X90705000Y-80455170D02*
G75*
G02*
X96255000Y-82000000I2560000J-1544830D01*
G01*
X96255000Y-82000000D02*
G75*
G02*
X90705000Y-83544830I-2990000J0D01*
G01*
X95765000Y-82000000D02*
G75*
G02*
X90765000Y-82000000I-2500000J0D01*
G01*
X90765000Y-82000000D02*
G75*
G02*
X95765000Y-82000000I2500000J0D01*
G01*
%TO.C,D25*%
X176890000Y-94105000D02*
X176890000Y-97195000D01*
X176890000Y-94105170D02*
G75*
G02*
X182440000Y-95650000I2560000J-1544830D01*
G01*
X182440000Y-95650000D02*
G75*
G02*
X176890000Y-97194830I-2990000J0D01*
G01*
X181950000Y-95650000D02*
G75*
G02*
X176950000Y-95650000I-2500000J0D01*
G01*
X176950000Y-95650000D02*
G75*
G02*
X181950000Y-95650000I2500000J0D01*
G01*
%TO.C,SW4*%
X109850000Y-83200000D02*
X109850000Y-84700000D01*
X111100000Y-87200000D02*
X115600000Y-87200000D01*
X115600000Y-80700000D02*
X111100000Y-80700000D01*
X116850000Y-84700000D02*
X116850000Y-83200000D01*
%TO.C,C8*%
X195330000Y-84680000D02*
X198570000Y-84680000D01*
X195330000Y-84828000D02*
X195330000Y-84680000D01*
X195330000Y-86920000D02*
X195330000Y-86772000D01*
X198570000Y-84680000D02*
X198570000Y-84828000D01*
X198570000Y-86772000D02*
X198570000Y-86920000D01*
X198570000Y-86920000D02*
X195330000Y-86920000D01*
%TO.C,D30*%
X216630000Y-103525000D02*
X216630000Y-106615000D01*
X216630000Y-103525170D02*
G75*
G02*
X222180000Y-105070000I2560000J-1544830D01*
G01*
X222180000Y-105070000D02*
G75*
G02*
X216630000Y-106614830I-2990000J0D01*
G01*
X221690000Y-105070000D02*
G75*
G02*
X216690000Y-105070000I-2500000J0D01*
G01*
X216690000Y-105070000D02*
G75*
G02*
X221690000Y-105070000I2500000J0D01*
G01*
%TO.C,J3*%
X148140000Y-65210000D02*
X149520000Y-65210000D01*
X148140000Y-66590000D02*
X148140000Y-65210000D01*
X148140000Y-67860000D02*
X148140000Y-75590000D01*
X148140000Y-67860000D02*
X150900000Y-67860000D01*
X148140000Y-75590000D02*
X150900000Y-75590000D01*
X150900000Y-67860000D02*
X150900000Y-75590000D01*
%TO.C,J1*%
X60020000Y-63220000D02*
X61400000Y-63220000D01*
X60020000Y-64600000D02*
X60020000Y-63220000D01*
X60020000Y-65870000D02*
X60020000Y-73600000D01*
X60020000Y-65870000D02*
X62780000Y-65870000D01*
X60020000Y-73600000D02*
X62780000Y-73600000D01*
X62780000Y-65870000D02*
X62780000Y-73600000D01*
%TO.C,C7*%
X155330000Y-86080000D02*
X158570000Y-86080000D01*
X155330000Y-86228000D02*
X155330000Y-86080000D01*
X155330000Y-88320000D02*
X155330000Y-88172000D01*
X158570000Y-86080000D02*
X158570000Y-86228000D01*
X158570000Y-88172000D02*
X158570000Y-88320000D01*
X158570000Y-88320000D02*
X155330000Y-88320000D01*
%TO.C,U7*%
X154450000Y-92850000D02*
X154450000Y-113290000D01*
X154450000Y-113290000D02*
X159750000Y-113290000D01*
X156100000Y-92850000D02*
X154450000Y-92850000D01*
X159750000Y-92850000D02*
X158100000Y-92850000D01*
X159750000Y-113290000D02*
X159750000Y-92850000D01*
X158100000Y-92850000D02*
G75*
G02*
X156100000Y-92850000I-1000000J0D01*
G01*
%TO.C,D7*%
X128370000Y-78855000D02*
X128370000Y-81945000D01*
X128370000Y-78855170D02*
G75*
G02*
X133920000Y-80400000I2560000J-1544830D01*
G01*
X133920000Y-80400000D02*
G75*
G02*
X128370000Y-81944830I-2990000J0D01*
G01*
X133430000Y-80400000D02*
G75*
G02*
X128430000Y-80400000I-2500000J0D01*
G01*
X128430000Y-80400000D02*
G75*
G02*
X133430000Y-80400000I2500000J0D01*
G01*
%TO.C,R20*%
X89420000Y-114600000D02*
X90190000Y-114600000D01*
X97500000Y-114600000D02*
X96730000Y-114600000D01*
X90190000Y-113230000D02*
X96730000Y-113230000D01*
X96730000Y-115970000D01*
X90190000Y-115970000D01*
X90190000Y-113230000D01*
%TO.C,R22*%
X127840000Y-102200000D02*
X128610000Y-102200000D01*
X135920000Y-102200000D02*
X135150000Y-102200000D01*
X128610000Y-100830000D02*
X135150000Y-100830000D01*
X135150000Y-103570000D01*
X128610000Y-103570000D01*
X128610000Y-100830000D01*
%TO.C,SW3*%
X56890000Y-102340000D02*
X65710000Y-102340000D01*
X56890000Y-102650000D02*
X56890000Y-102340000D01*
X56890000Y-106860000D02*
X56890000Y-106550000D01*
X58800000Y-101640000D02*
X59300000Y-102140000D01*
X59300000Y-102140000D02*
X59800000Y-101640000D01*
X59800000Y-101640000D02*
X58800000Y-101640000D01*
X65710000Y-102340000D02*
X65710000Y-102650000D01*
X65710000Y-106860000D02*
X56890000Y-106860000D01*
X65710000Y-106860000D02*
X65710000Y-106550000D01*
%TO.C,C4*%
X185330000Y-58480000D02*
X188570000Y-58480000D01*
X185330000Y-58628000D02*
X185330000Y-58480000D01*
X185330000Y-60720000D02*
X185330000Y-60572000D01*
X188570000Y-58480000D02*
X188570000Y-58628000D01*
X188570000Y-60572000D02*
X188570000Y-60720000D01*
X188570000Y-60720000D02*
X185330000Y-60720000D01*
%TO.C,R14*%
X203960000Y-66800000D02*
X204730000Y-66800000D01*
X212040000Y-66800000D02*
X211270000Y-66800000D01*
X204730000Y-65430000D02*
X211270000Y-65430000D01*
X211270000Y-68170000D01*
X204730000Y-68170000D01*
X204730000Y-65430000D01*
%TO.C,R1*%
X79435000Y-59650000D02*
X80205000Y-59650000D01*
X87515000Y-59650000D02*
X86745000Y-59650000D01*
X80205000Y-58280000D02*
X86745000Y-58280000D01*
X86745000Y-61020000D01*
X80205000Y-61020000D01*
X80205000Y-58280000D01*
%TO.C,D13*%
X216630000Y-60455000D02*
X216630000Y-63545000D01*
X216630000Y-60455170D02*
G75*
G02*
X222180000Y-62000000I2560000J-1544830D01*
G01*
X222180000Y-62000000D02*
G75*
G02*
X216630000Y-63544830I-2990000J0D01*
G01*
X221690000Y-62000000D02*
G75*
G02*
X216690000Y-62000000I-2500000J0D01*
G01*
X216690000Y-62000000D02*
G75*
G02*
X221690000Y-62000000I2500000J0D01*
G01*
%TO.C,D18*%
X101090000Y-105055000D02*
X101090000Y-108145000D01*
X101090000Y-105055170D02*
G75*
G02*
X106640000Y-106600000I2560000J-1544830D01*
G01*
X106640000Y-106600000D02*
G75*
G02*
X101090000Y-108144830I-2990000J0D01*
G01*
X106150000Y-106600000D02*
G75*
G02*
X101150000Y-106600000I-2500000J0D01*
G01*
X101150000Y-106600000D02*
G75*
G02*
X106150000Y-106600000I2500000J0D01*
G01*
%TO.C,R29*%
X204760000Y-93470000D02*
X205530000Y-93470000D01*
X212840000Y-93470000D02*
X212070000Y-93470000D01*
X205530000Y-92100000D02*
X212070000Y-92100000D01*
X212070000Y-94840000D01*
X205530000Y-94840000D01*
X205530000Y-92100000D01*
%TO.C,R7*%
X116900000Y-70800000D02*
X117670000Y-70800000D01*
X124980000Y-70800000D02*
X124210000Y-70800000D01*
X117670000Y-69430000D02*
X124210000Y-69430000D01*
X124210000Y-72170000D01*
X117670000Y-72170000D01*
X117670000Y-69430000D01*
%TO.C,R28*%
X165460000Y-113250000D02*
X166230000Y-113250000D01*
X173540000Y-113250000D02*
X172770000Y-113250000D01*
X166230000Y-111880000D02*
X172770000Y-111880000D01*
X172770000Y-114620000D01*
X166230000Y-114620000D01*
X166230000Y-111880000D01*
%TO.C,J4*%
X185220000Y-64480000D02*
X186600000Y-64480000D01*
X185220000Y-65860000D02*
X185220000Y-64480000D01*
X185220000Y-67130000D02*
X185220000Y-74860000D01*
X185220000Y-67130000D02*
X187980000Y-67130000D01*
X185220000Y-74860000D02*
X187980000Y-74860000D01*
X187980000Y-67130000D02*
X187980000Y-74860000D01*
%TO.C,D20*%
X94090000Y-119655000D02*
X94090000Y-122745000D01*
X94090000Y-119655170D02*
G75*
G02*
X99640000Y-121200000I2560000J-1544830D01*
G01*
X99640000Y-121200000D02*
G75*
G02*
X94090000Y-122744830I-2990000J0D01*
G01*
X99150000Y-121200000D02*
G75*
G02*
X94150000Y-121200000I-2500000J0D01*
G01*
X94150000Y-121200000D02*
G75*
G02*
X99150000Y-121200000I2500000J0D01*
G01*
%TO.C,R19*%
X89620000Y-108400000D02*
X90390000Y-108400000D01*
X97700000Y-108400000D02*
X96930000Y-108400000D01*
X90390000Y-107030000D02*
X96930000Y-107030000D01*
X96930000Y-109770000D01*
X90390000Y-109770000D01*
X90390000Y-107030000D01*
%TO.C,D1*%
X90765000Y-59705000D02*
X90765000Y-62795000D01*
X90765000Y-59705170D02*
G75*
G02*
X96315000Y-61250000I2560000J-1544830D01*
G01*
X96315000Y-61250000D02*
G75*
G02*
X90765000Y-62794830I-2990000J0D01*
G01*
X95825000Y-61250000D02*
G75*
G02*
X90825000Y-61250000I-2500000J0D01*
G01*
X90825000Y-61250000D02*
G75*
G02*
X95825000Y-61250000I2500000J0D01*
G01*
%TO.C,D17*%
X101490000Y-95855000D02*
X101490000Y-98945000D01*
X101490000Y-95855170D02*
G75*
G02*
X107040000Y-97400000I2560000J-1544830D01*
G01*
X107040000Y-97400000D02*
G75*
G02*
X101490000Y-98944830I-2990000J0D01*
G01*
X106550000Y-97400000D02*
G75*
G02*
X101550000Y-97400000I-2500000J0D01*
G01*
X101550000Y-97400000D02*
G75*
G02*
X106550000Y-97400000I2500000J0D01*
G01*
%TO.C,J2*%
X98015000Y-63400000D02*
X99395000Y-63400000D01*
X98015000Y-64780000D02*
X98015000Y-63400000D01*
X98015000Y-66050000D02*
X98015000Y-73780000D01*
X98015000Y-66050000D02*
X100775000Y-66050000D01*
X98015000Y-73780000D02*
X100775000Y-73780000D01*
X100775000Y-66050000D02*
X100775000Y-73780000D01*
%TO.C,C6*%
X114980000Y-90880000D02*
X118220000Y-90880000D01*
X114980000Y-91028000D02*
X114980000Y-90880000D01*
X114980000Y-93120000D02*
X114980000Y-92972000D01*
X118220000Y-90880000D02*
X118220000Y-91028000D01*
X118220000Y-92972000D02*
X118220000Y-93120000D01*
X118220000Y-93120000D02*
X114980000Y-93120000D01*
%TO.C,J9*%
X60620000Y-78020000D02*
X62000000Y-78020000D01*
X60620000Y-79400000D02*
X60620000Y-78020000D01*
X60620000Y-80670000D02*
X60620000Y-80780000D01*
X60620000Y-80670000D02*
X63380000Y-80670000D01*
X60620000Y-80780000D02*
X63380000Y-80780000D01*
X63380000Y-80670000D02*
X63380000Y-80780000D01*
%TD*%
M02*
