M48
; DRILL file KiCad 10.0.4 date 2026-07-15T22:36:49
; FORMAT={-:-/ absolute / metric / decimal}
; #@! TF.CreationDate,2026-07-15T22:36:49+05:00
; #@! TF.GenerationSoftware,Kicad,Pcbnew,10.0.4
; #@! TF.FileFunction,Plated,1,2,PTH
FMAT,2
METRIC
; #@! TA.AperFunction,Plated,PTH,ComponentDrill
T1C0.800
; #@! TA.AperFunction,Plated,PTH,ComponentDrill
T2C0.900
; #@! TA.AperFunction,Plated,PTH,ComponentDrill
T3C1.000
%
G90
G05
T1
X33.64Y-84.5
X33.72Y-90.6
X33.84Y-97.0
X34.0Y-78.45
X43.8Y-84.5
X43.88Y-90.6
X44.0Y-97.0
X44.16Y-78.45
X54.92Y-84.6
X54.92Y-96.8
X55.12Y-90.6
X55.32Y-78.35
X65.08Y-84.6
X65.08Y-96.8
X65.28Y-90.6
X65.48Y-78.35
X75.2Y-85.0
X75.2Y-97.6
X75.36Y-78.5
X75.36Y-91.2
X85.36Y-85.0
X85.36Y-97.6
X85.52Y-78.5
X85.52Y-91.2
X97.12Y-97.4
X97.32Y-78.0
X97.32Y-84.6
X97.32Y-91.0
X107.28Y-97.4
X107.48Y-78.0
X107.48Y-84.6
X107.48Y-91.0
X116.72Y-78.2
X116.92Y-91.8
X117.12Y-85.4
X117.12Y-98.0
X126.88Y-78.2
X127.08Y-91.8
X127.28Y-85.4
X127.28Y-98.0
X138.12Y-79.4
X138.24Y-85.8
X138.4Y-92.0
X138.8Y-98.8
X148.28Y-79.4
X148.4Y-85.8
X148.56Y-92.0
X148.96Y-98.8
X159.4Y-91.6
X159.6Y-85.8
X159.68Y-78.97
X159.8Y-98.4
X169.56Y-91.6
X169.76Y-85.8
X169.84Y-78.97
X169.96Y-98.4
X180.0Y-84.0
X180.2Y-90.0
X180.6Y-77.65
X180.6Y-96.6
X190.16Y-84.0
X190.36Y-90.0
X190.76Y-77.65
X190.76Y-96.6
T2
X48.325Y-69.4
X48.33Y-88.2
X48.525Y-78.8
X48.53Y-97.8
X50.865Y-69.4
X50.87Y-88.2
X51.065Y-78.8
X51.07Y-97.8
X68.4Y-68.95
X68.4Y-98.75
X68.8Y-78.75
X68.8Y-88.95
X70.94Y-68.95
X70.94Y-98.75
X71.34Y-78.75
X71.34Y-88.95
X90.02Y-78.8
X90.02Y-88.2
X90.02Y-98.0
X90.16Y-69.39
X92.56Y-78.8
X92.56Y-88.2
X92.56Y-98.0
X92.7Y-69.39
X110.66Y-70.48
X110.73Y-80.48
X110.93Y-100.08
X111.0Y-90.21
X113.2Y-70.48
X113.27Y-80.48
X113.47Y-100.08
X113.54Y-90.21
X131.485Y-80.26
X131.69Y-70.66
X131.69Y-90.26
X132.22Y-99.66
X134.025Y-80.26
X134.23Y-70.66
X134.23Y-90.26
X134.76Y-99.66
X152.46Y-71.2
X152.46Y-80.8
X152.72Y-90.0
X152.86Y-99.6
X155.0Y-71.2
X155.0Y-80.8
X155.26Y-90.0
X155.4Y-99.6
X174.13Y-90.2
X174.2Y-80.4
X174.27Y-71.13
X174.33Y-100.0
X176.67Y-90.2
X176.74Y-80.4
X176.81Y-71.13
X176.87Y-100.0
X194.395Y-70.8
X194.46Y-100.0
X194.66Y-80.2
X194.795Y-89.8
X196.935Y-70.8
X197.0Y-100.0
X197.2Y-80.2
X197.335Y-89.8
T3
X122.0Y-69.2
X204.4Y-88.4
X204.4Y-90.94
X204.4Y-93.48
X204.4Y-96.02
X204.6Y-68.8
X204.6Y-71.34
X204.6Y-73.88
X204.6Y-76.42
X213.8Y-69.0
X213.8Y-71.54
X213.8Y-74.08
X213.8Y-76.62
X214.8Y-87.6
X214.8Y-90.14
X214.8Y-92.68
X214.8Y-95.22
X223.0Y-88.2
X223.0Y-90.74
X223.0Y-93.28
X223.0Y-95.82
X223.4Y-68.8
X223.4Y-71.34
X223.4Y-73.88
X223.4Y-76.42
X232.2Y-88.2
X232.2Y-90.74
X232.2Y-93.28
X232.2Y-95.82
X233.0Y-68.8
X233.0Y-71.34
X233.0Y-73.88
X233.0Y-76.42
M30
