%TF.GenerationSoftware,KiCad,Pcbnew,10.0.4*%
%TF.CreationDate,2026-07-15T22:36:42+05:00*%
%TF.ProjectId,USR_LED_Board,5553525f-4c45-4445-9f42-6f6172642e6b,rev?*%
%TF.SameCoordinates,Original*%
%TF.FileFunction,Copper,L1,Top*%
%TF.FilePolarity,Positive*%
%FSLAX46Y46*%
G04 Gerber Fmt 4.6, Leading zero omitted, Abs format (unit mm)*
G04 Created by KiCad (PCBNEW 10.0.4) date 2026-07-15 22:36:42*
%MOMM*%
%LPD*%
G01*
G04 APERTURE LIST*
%TA.AperFunction,ComponentPad*%
%ADD10R,1.800000X1.800000*%
%TD*%
%TA.AperFunction,ComponentPad*%
%ADD11C,1.800000*%
%TD*%
%TA.AperFunction,ComponentPad*%
%ADD12C,1.700000*%
%TD*%
%TA.AperFunction,ComponentPad*%
%ADD13R,1.700000X1.700000*%
%TD*%
%TA.AperFunction,ComponentPad*%
%ADD14C,1.600000*%
%TD*%
%TA.AperFunction,Conductor*%
%ADD15C,0.200000*%
%TD*%
%TA.AperFunction,Conductor*%
%ADD16C,0.500000*%
%TD*%
G04 APERTURE END LIST*
D10*
%TO.P,D11,1,K_1*%
%TO.N,GND*%
X90020000Y-88200000D03*
D11*
%TO.P,D11,2,A_2*%
%TO.N,Net-(D11-A)*%
X92560000Y-88200000D03*
%TD*%
D12*
%TO.P,J5,4,Pin_4_4*%
%TO.N,Net-(J5-Pin_4)*%
X233000000Y-76420000D03*
%TO.P,J5,3,Pin_3_3*%
%TO.N,Net-(J5-Pin_3)*%
X233000000Y-73880000D03*
%TO.P,J5,2,Pin_2_2*%
%TO.N,Net-(J5-Pin_2)*%
X233000000Y-71340000D03*
D13*
%TO.P,J5,1,Pin_1_1*%
%TO.N,Net-(J5-Pin_1)*%
X233000000Y-68800000D03*
%TD*%
D12*
%TO.P,J1,4,Pin_4_4*%
%TO.N,Net-(J1-Pin_4)*%
X204600000Y-76420000D03*
%TO.P,J1,3,Pin_3_3*%
%TO.N,Net-(J1-Pin_3)*%
X204600000Y-73880000D03*
%TO.P,J1,2,Pin_2_2*%
%TO.N,Net-(J1-Pin_2)*%
X204600000Y-71340000D03*
D13*
%TO.P,J1,1,Pin_1_1*%
%TO.N,Net-(J1-Pin_1)*%
X204600000Y-68800000D03*
%TD*%
D14*
%TO.P,R4,2*%
%TO.N,Net-(D4-A)*%
X44000000Y-97000000D03*
%TO.P,R4,1*%
%TO.N,Net-(J1-Pin_4)*%
X33840000Y-97000000D03*
%TD*%
%TO.P,R1,2*%
%TO.N,Net-(D1-A)*%
X44160000Y-78450000D03*
%TO.P,R1,1*%
%TO.N,Net-(J1-Pin_1)*%
X34000000Y-78450000D03*
%TD*%
%TO.P,R2,2*%
%TO.N,Net-(D2-A)*%
X43800000Y-84500000D03*
%TO.P,R2,1*%
%TO.N,Net-(J1-Pin_2)*%
X33640000Y-84500000D03*
%TD*%
D11*
%TO.P,D1,2,A_2*%
%TO.N,Net-(D1-A)*%
X50865000Y-69400000D03*
D10*
%TO.P,D1,1,K_1*%
%TO.N,GND*%
X48325000Y-69400000D03*
%TD*%
D12*
%TO.P,J3,4,Pin_4_4*%
%TO.N,Net-(J3-Pin_4)*%
X213800000Y-76620000D03*
%TO.P,J3,3,Pin_3_3*%
%TO.N,Net-(J3-Pin_3)*%
X213800000Y-74080000D03*
%TO.P,J3,2,Pin_2_2*%
%TO.N,Net-(J3-Pin_2)*%
X213800000Y-71540000D03*
D13*
%TO.P,J3,1,Pin_1_1*%
%TO.N,Net-(J3-Pin_1)*%
X213800000Y-69000000D03*
%TD*%
D11*
%TO.P,D4,2,A_2*%
%TO.N,Net-(D4-A)*%
X51070000Y-97800000D03*
D10*
%TO.P,D4,1,K_1*%
%TO.N,GND*%
X48530000Y-97800000D03*
%TD*%
D11*
%TO.P,D2,2,A_2*%
%TO.N,Net-(D2-A)*%
X51065000Y-78800000D03*
D10*
%TO.P,D2,1,K_1*%
%TO.N,GND*%
X48525000Y-78800000D03*
%TD*%
D14*
%TO.P,R3,2*%
%TO.N,Net-(D3-A)*%
X43880000Y-90600000D03*
%TO.P,R3,1*%
%TO.N,Net-(J1-Pin_3)*%
X33720000Y-90600000D03*
%TD*%
D11*
%TO.P,D3,2,A_2*%
%TO.N,Net-(D3-A)*%
X50870000Y-88200000D03*
D10*
%TO.P,D3,1,K_1*%
%TO.N,GND*%
X48330000Y-88200000D03*
%TD*%
D14*
%TO.P,R5,2*%
%TO.N,Net-(D5-A)*%
X65480000Y-78350000D03*
%TO.P,R5,1*%
%TO.N,Net-(J3-Pin_1)*%
X55320000Y-78350000D03*
%TD*%
D11*
%TO.P,D7,2,A_2*%
%TO.N,Net-(D7-A)*%
X71340000Y-88950000D03*
D10*
%TO.P,D7,1,K_1*%
%TO.N,GND*%
X68800000Y-88950000D03*
%TD*%
D11*
%TO.P,D5,2,A_2*%
%TO.N,Net-(D5-A)*%
X70940000Y-68950000D03*
D10*
%TO.P,D5,1,K_1*%
%TO.N,GND*%
X68400000Y-68950000D03*
%TD*%
D14*
%TO.P,R8,2*%
%TO.N,Net-(D8-A)*%
X65080000Y-96800000D03*
%TO.P,R8,1*%
%TO.N,Net-(J3-Pin_4)*%
X54920000Y-96800000D03*
%TD*%
%TO.P,R7,2*%
%TO.N,Net-(D7-A)*%
X65280000Y-90600000D03*
%TO.P,R7,1*%
%TO.N,Net-(J3-Pin_3)*%
X55120000Y-90600000D03*
%TD*%
%TO.P,R6,2*%
%TO.N,Net-(D6-A)*%
X65080000Y-84600000D03*
%TO.P,R6,1*%
%TO.N,Net-(J3-Pin_2)*%
X54920000Y-84600000D03*
%TD*%
D11*
%TO.P,D8,2,A_2*%
%TO.N,Net-(D8-A)*%
X70940000Y-98750000D03*
D10*
%TO.P,D8,1,K_1*%
%TO.N,GND*%
X68400000Y-98750000D03*
%TD*%
D11*
%TO.P,D6,2,A_2*%
%TO.N,Net-(D6-A)*%
X71340000Y-78750000D03*
D10*
%TO.P,D6,1,K_1*%
%TO.N,GND*%
X68800000Y-78750000D03*
%TD*%
D12*
%TO.P,J4,4,Pin_4_4*%
%TO.N,Net-(J4-Pin_4)*%
X223400000Y-76420000D03*
%TO.P,J4,3,Pin_3_3*%
%TO.N,Net-(J4-Pin_3)*%
X223400000Y-73880000D03*
%TO.P,J4,2,Pin_2_2*%
%TO.N,Net-(J4-Pin_2)*%
X223400000Y-71340000D03*
D13*
%TO.P,J4,1,Pin_1_1*%
%TO.N,Net-(J4-Pin_1)*%
X223400000Y-68800000D03*
%TD*%
D11*
%TO.P,D9,2,A_2*%
%TO.N,Net-(D9-A)*%
X92700000Y-69390000D03*
D10*
%TO.P,D9,1,K_1*%
%TO.N,GND*%
X90160000Y-69390000D03*
%TD*%
D11*
%TO.P,D12,2,A_2*%
%TO.N,Net-(D12-A)*%
X92560000Y-98000000D03*
D10*
%TO.P,D12,1,K_1*%
%TO.N,GND*%
X90020000Y-98000000D03*
%TD*%
D14*
%TO.P,R12,2*%
%TO.N,Net-(D12-A)*%
X85360000Y-97600000D03*
%TO.P,R12,1*%
%TO.N,Net-(J4-Pin_4)*%
X75200000Y-97600000D03*
%TD*%
D11*
%TO.P,D10,2,A_2*%
%TO.N,Net-(D10-A)*%
X92560000Y-78800000D03*
D10*
%TO.P,D10,1,K_1*%
%TO.N,GND*%
X90020000Y-78800000D03*
%TD*%
D14*
%TO.P,R10,2*%
%TO.N,Net-(D10-A)*%
X85360000Y-85000000D03*
%TO.P,R10,1*%
%TO.N,Net-(J4-Pin_2)*%
X75200000Y-85000000D03*
%TD*%
%TO.P,R9,2*%
%TO.N,Net-(D9-A)*%
X85520000Y-78500000D03*
%TO.P,R9,1*%
%TO.N,Net-(J4-Pin_1)*%
X75360000Y-78500000D03*
%TD*%
%TO.P,R11,2*%
%TO.N,Net-(D11-A)*%
X85520000Y-91200000D03*
%TO.P,R11,1*%
%TO.N,Net-(J4-Pin_3)*%
X75360000Y-91200000D03*
%TD*%
D12*
%TO.P,J6,4,Pin_4_4*%
%TO.N,Net-(J6-Pin_4)*%
X232200000Y-95820000D03*
%TO.P,J6,3,Pin_3_3*%
%TO.N,Net-(J6-Pin_3)*%
X232200000Y-93280000D03*
%TO.P,J6,2,Pin_2_2*%
%TO.N,Net-(J6-Pin_2)*%
X232200000Y-90740000D03*
D13*
%TO.P,J6,1,Pin_1_1*%
%TO.N,Net-(J6-Pin_1)*%
X232200000Y-88200000D03*
%TD*%
D12*
%TO.P,J7,4,Pin_4_4*%
%TO.N,Net-(J7-Pin_4)*%
X223000000Y-95820000D03*
%TO.P,J7,3,Pin_3_3*%
%TO.N,Net-(J7-Pin_3)*%
X223000000Y-93280000D03*
%TO.P,J7,2,Pin_2_2*%
%TO.N,Net-(J7-Pin_2)*%
X223000000Y-90740000D03*
D13*
%TO.P,J7,1,Pin_1_1*%
%TO.N,Net-(J7-Pin_1)*%
X223000000Y-88200000D03*
%TD*%
D12*
%TO.P,J8,4,Pin_4_4*%
%TO.N,Net-(J8-Pin_4)*%
X214800000Y-95220000D03*
%TO.P,J8,3,Pin_3_3*%
%TO.N,Net-(J8-Pin_3)*%
X214800000Y-92680000D03*
%TO.P,J8,2,Pin_2_2*%
%TO.N,Net-(J8-Pin_2)*%
X214800000Y-90140000D03*
D13*
%TO.P,J8,1,Pin_1_1*%
%TO.N,Net-(J8-Pin_1)*%
X214800000Y-87600000D03*
%TD*%
D12*
%TO.P,J9,4,Pin_4_4*%
%TO.N,Net-(J9-Pin_4)*%
X204400000Y-96020000D03*
%TO.P,J9,3,Pin_3_3*%
%TO.N,Net-(J9-Pin_3)*%
X204400000Y-93480000D03*
%TO.P,J9,2,Pin_2_2*%
%TO.N,Net-(J9-Pin_2)*%
X204400000Y-90940000D03*
D13*
%TO.P,J9,1,Pin_1_1*%
%TO.N,Net-(J9-Pin_1)*%
X204400000Y-88400000D03*
%TD*%
D14*
%TO.P,R14,1*%
%TO.N,Net-(J5-Pin_2)*%
X97320000Y-84600000D03*
%TO.P,R14,2*%
%TO.N,Net-(D14-A)*%
X107480000Y-84600000D03*
%TD*%
%TO.P,R28,1*%
%TO.N,Net-(J8-Pin_4)*%
X159800000Y-98400000D03*
%TO.P,R28,2*%
%TO.N,Net-(D28-A)*%
X169960000Y-98400000D03*
%TD*%
D10*
%TO.P,D29,1,K_1*%
%TO.N,GND*%
X194395000Y-70800000D03*
D11*
%TO.P,D29,2,A_2*%
%TO.N,Net-(D29-A)*%
X196935000Y-70800000D03*
%TD*%
D14*
%TO.P,R24,1*%
%TO.N,Net-(J7-Pin_4)*%
X138800000Y-98800000D03*
%TO.P,R24,2*%
%TO.N,Net-(D24-A)*%
X148960000Y-98800000D03*
%TD*%
D10*
%TO.P,D14,1,K_1*%
%TO.N,GND*%
X110730000Y-80480000D03*
D11*
%TO.P,D14,2,A_2*%
%TO.N,Net-(D14-A)*%
X113270000Y-80480000D03*
%TD*%
D14*
%TO.P,R18,1*%
%TO.N,Net-(J6-Pin_2)*%
X117120000Y-85400000D03*
%TO.P,R18,2*%
%TO.N,Net-(D18-A)*%
X127280000Y-85400000D03*
%TD*%
%TO.P,R21,1*%
%TO.N,Net-(J7-Pin_1)*%
X138120000Y-79400000D03*
%TO.P,R21,2*%
%TO.N,Net-(D21-A)*%
X148280000Y-79400000D03*
%TD*%
D10*
%TO.P,D21,1,K_1*%
%TO.N,GND*%
X152460000Y-71200000D03*
D11*
%TO.P,D21,2,A_2*%
%TO.N,Net-(D21-A)*%
X155000000Y-71200000D03*
%TD*%
D10*
%TO.P,D18,1,K_1*%
%TO.N,GND*%
X131485000Y-80260000D03*
D11*
%TO.P,D18,2,A_2*%
%TO.N,Net-(D18-A)*%
X134025000Y-80260000D03*
%TD*%
D10*
%TO.P,D28,1,K_1*%
%TO.N,GND*%
X174330000Y-100000000D03*
D11*
%TO.P,D28,2,A_2*%
%TO.N,Net-(D28-A)*%
X176870000Y-100000000D03*
%TD*%
D10*
%TO.P,D32,1,K_1*%
%TO.N,GND*%
X194460000Y-100000000D03*
D11*
%TO.P,D32,2,A_2*%
%TO.N,Net-(D32-A)*%
X197000000Y-100000000D03*
%TD*%
D14*
%TO.P,R15,1*%
%TO.N,Net-(J5-Pin_3)*%
X97320000Y-91000000D03*
%TO.P,R15,2*%
%TO.N,Net-(D15-A)*%
X107480000Y-91000000D03*
%TD*%
%TO.P,R23,1*%
%TO.N,Net-(J7-Pin_3)*%
X138400000Y-92000000D03*
%TO.P,R23,2*%
%TO.N,Net-(D23-A)*%
X148560000Y-92000000D03*
%TD*%
D10*
%TO.P,D16,1,K_1*%
%TO.N,GND*%
X110930000Y-100080000D03*
D11*
%TO.P,D16,2,A_2*%
%TO.N,Net-(D16-A)*%
X113470000Y-100080000D03*
%TD*%
D10*
%TO.P,D27,1,K_1*%
%TO.N,GND*%
X174130000Y-90200000D03*
D11*
%TO.P,D27,2,A_2*%
%TO.N,Net-(D27-A)*%
X176670000Y-90200000D03*
%TD*%
D10*
%TO.P,D15,1,K_1*%
%TO.N,GND*%
X111000000Y-90210000D03*
D11*
%TO.P,D15,2,A_2*%
%TO.N,Net-(D15-A)*%
X113540000Y-90210000D03*
%TD*%
D14*
%TO.P,R26,1*%
%TO.N,Net-(J8-Pin_2)*%
X159600000Y-85800000D03*
%TO.P,R26,2*%
%TO.N,Net-(D26-A)*%
X169760000Y-85800000D03*
%TD*%
%TO.P,R25,1*%
%TO.N,Net-(J8-Pin_1)*%
X159680000Y-78970000D03*
%TO.P,R25,2*%
%TO.N,Net-(D25-A)*%
X169840000Y-78970000D03*
%TD*%
%TO.P,R29,1*%
%TO.N,Net-(J9-Pin_1)*%
X180600000Y-77650000D03*
%TO.P,R29,2*%
%TO.N,Net-(D29-A)*%
X190760000Y-77650000D03*
%TD*%
%TO.P,R16,1*%
%TO.N,Net-(J5-Pin_4)*%
X97120000Y-97400000D03*
%TO.P,R16,2*%
%TO.N,Net-(D16-A)*%
X107280000Y-97400000D03*
%TD*%
%TO.P,R19,1*%
%TO.N,Net-(J6-Pin_3)*%
X116920000Y-91800000D03*
%TO.P,R19,2*%
%TO.N,Net-(D19-A)*%
X127080000Y-91800000D03*
%TD*%
%TO.P,R17,1*%
%TO.N,Net-(J6-Pin_1)*%
X116720000Y-78200000D03*
%TO.P,R17,2*%
%TO.N,Net-(D17-A)*%
X126880000Y-78200000D03*
%TD*%
%TO.P,R31,1*%
%TO.N,Net-(J9-Pin_3)*%
X180200000Y-90000000D03*
%TO.P,R31,2*%
%TO.N,Net-(D31-A)*%
X190360000Y-90000000D03*
%TD*%
%TO.P,R13,1*%
%TO.N,Net-(J5-Pin_1)*%
X97320000Y-78000000D03*
%TO.P,R13,2*%
%TO.N,Net-(D13-A)*%
X107480000Y-78000000D03*
%TD*%
%TO.P,R32,1*%
%TO.N,Net-(J9-Pin_4)*%
X180600000Y-96600000D03*
%TO.P,R32,2*%
%TO.N,Net-(D32-A)*%
X190760000Y-96600000D03*
%TD*%
D10*
%TO.P,D17,1,K_1*%
%TO.N,GND*%
X131690000Y-70660000D03*
D11*
%TO.P,D17,2,A_2*%
%TO.N,Net-(D17-A)*%
X134230000Y-70660000D03*
%TD*%
D10*
%TO.P,D24,1,K_1*%
%TO.N,GND*%
X152860000Y-99600000D03*
D11*
%TO.P,D24,2,A_2*%
%TO.N,Net-(D24-A)*%
X155400000Y-99600000D03*
%TD*%
D10*
%TO.P,D25,1,K_1*%
%TO.N,GND*%
X174270000Y-71130000D03*
D11*
%TO.P,D25,2,A_2*%
%TO.N,Net-(D25-A)*%
X176810000Y-71130000D03*
%TD*%
D10*
%TO.P,D13,1,K_1*%
%TO.N,GND*%
X110660000Y-70480000D03*
D11*
%TO.P,D13,2,A_2*%
%TO.N,Net-(D13-A)*%
X113200000Y-70480000D03*
%TD*%
D14*
%TO.P,R22,1*%
%TO.N,Net-(J7-Pin_2)*%
X138240000Y-85800000D03*
%TO.P,R22,2*%
%TO.N,Net-(D22-A)*%
X148400000Y-85800000D03*
%TD*%
D13*
%TO.P,J2,1,Pin_1_1*%
%TO.N,GND*%
X122000000Y-69200000D03*
%TD*%
D10*
%TO.P,D31,1,K_1*%
%TO.N,GND*%
X194795000Y-89800000D03*
D11*
%TO.P,D31,2,A_2*%
%TO.N,Net-(D31-A)*%
X197335000Y-89800000D03*
%TD*%
D10*
%TO.P,D19,1,K_1*%
%TO.N,GND*%
X131690000Y-90260000D03*
D11*
%TO.P,D19,2,A_2*%
%TO.N,Net-(D19-A)*%
X134230000Y-90260000D03*
%TD*%
D10*
%TO.P,D26,1,K_1*%
%TO.N,GND*%
X174200000Y-80400000D03*
D11*
%TO.P,D26,2,A_2*%
%TO.N,Net-(D26-A)*%
X176740000Y-80400000D03*
%TD*%
D10*
%TO.P,D20,1,K_1*%
%TO.N,GND*%
X132220000Y-99660000D03*
D11*
%TO.P,D20,2,A_2*%
%TO.N,Net-(D20-A)*%
X134760000Y-99660000D03*
%TD*%
D14*
%TO.P,R20,1*%
%TO.N,Net-(J6-Pin_4)*%
X117120000Y-98000000D03*
%TO.P,R20,2*%
%TO.N,Net-(D20-A)*%
X127280000Y-98000000D03*
%TD*%
D10*
%TO.P,D23,1,K_1*%
%TO.N,GND*%
X152720000Y-90000000D03*
D11*
%TO.P,D23,2,A_2*%
%TO.N,Net-(D23-A)*%
X155260000Y-90000000D03*
%TD*%
D14*
%TO.P,R30,1*%
%TO.N,Net-(J9-Pin_2)*%
X180000000Y-84000000D03*
%TO.P,R30,2*%
%TO.N,Net-(D30-A)*%
X190160000Y-84000000D03*
%TD*%
D10*
%TO.P,D30,1,K_1*%
%TO.N,GND*%
X194660000Y-80200000D03*
D11*
%TO.P,D30,2,A_2*%
%TO.N,Net-(D30-A)*%
X197200000Y-80200000D03*
%TD*%
D14*
%TO.P,R27,1*%
%TO.N,Net-(J8-Pin_3)*%
X159400000Y-91600000D03*
%TO.P,R27,2*%
%TO.N,Net-(D27-A)*%
X169560000Y-91600000D03*
%TD*%
D10*
%TO.P,D22,1,K_1*%
%TO.N,GND*%
X152460000Y-80800000D03*
D11*
%TO.P,D22,2,A_2*%
%TO.N,Net-(D22-A)*%
X155000000Y-80800000D03*
%TD*%
%TO.N,Net-(D16-A)*%
D15*
X110790000Y-97400000D02*
X107280000Y-97400000D01*
%TO.N,Net-(J5-Pin_4)*%
X106940000Y-107220000D02*
X97120000Y-97400000D01*
X106940000Y-108300000D02*
X106940000Y-107220000D01*
%TO.N,Net-(D21-A)*%
X148280000Y-77920000D02*
X155000000Y-71200000D01*
X148280000Y-79400000D02*
X148280000Y-77920000D01*
%TO.N,Net-(D24-A)*%
X153800001Y-98000001D02*
X155400000Y-99600000D01*
X149759999Y-98000001D02*
X153800001Y-98000001D01*
X148960000Y-98800000D02*
X149759999Y-98000001D01*
%TO.N,Net-(J1-Pin_1)*%
X49199999Y-63250001D02*
X34000000Y-78450000D01*
X199050001Y-63250001D02*
X49199999Y-63250001D01*
X204600000Y-68800000D02*
X199050001Y-63250001D01*
%TO.N,Net-(J1-Pin_2)*%
X32340000Y-85800000D02*
X33640000Y-84500000D01*
X32340000Y-97621320D02*
X32340000Y-85800000D01*
X48618680Y-113900000D02*
X32340000Y-97621320D01*
X225362991Y-113900000D02*
X48618680Y-113900000D01*
X240150000Y-99112993D02*
X225362991Y-113900000D01*
X240150000Y-67993145D02*
X240150000Y-99112993D01*
X235806860Y-63650001D02*
X240150000Y-67993145D01*
X212289999Y-63650001D02*
X235806860Y-63650001D01*
X204600000Y-71340000D02*
X212289999Y-63650001D01*
%TO.N,Net-(J1-Pin_3)*%
X32740000Y-91580000D02*
X33720000Y-90600000D01*
X32740000Y-97455635D02*
X32740000Y-91580000D01*
X48784365Y-113500000D02*
X32740000Y-97455635D01*
X225197306Y-113500000D02*
X48784365Y-113500000D01*
X239750000Y-98947307D02*
X225197306Y-113500000D01*
X239750000Y-68158830D02*
X239750000Y-98947307D01*
X235641174Y-64050001D02*
X239750000Y-68158830D01*
X214429999Y-64050001D02*
X235641174Y-64050001D01*
X204600000Y-73880000D02*
X214429999Y-64050001D01*
%TO.N,Net-(J1-Pin_4)*%
X49940000Y-113100000D02*
X33840000Y-97000000D01*
X225031621Y-113100000D02*
X49940000Y-113100000D01*
X239350000Y-68324515D02*
X239350000Y-98781621D01*
X239350000Y-98781621D02*
X225031621Y-113100000D01*
X235475488Y-64450001D02*
X239350000Y-68324515D01*
X215749999Y-64450001D02*
X235475488Y-64450001D01*
X204600000Y-76420000D02*
X204600000Y-75600000D01*
X204600000Y-75600000D02*
X215749999Y-64450001D01*
%TO.N,Net-(J3-Pin_1)*%
X53020000Y-80650000D02*
X55320000Y-78350000D01*
X53020000Y-98220000D02*
X53020000Y-80650000D01*
X67500000Y-112700000D02*
X53020000Y-98220000D01*
X224865936Y-112700000D02*
X67500000Y-112700000D01*
X238950000Y-98615939D02*
X224865936Y-112700000D01*
X238950000Y-68490200D02*
X238950000Y-98615939D01*
X235309802Y-64850001D02*
X238950000Y-68490200D01*
X217949999Y-64850001D02*
X235309802Y-64850001D01*
X213800000Y-69000000D02*
X217949999Y-64850001D01*
%TO.N,Net-(J3-Pin_2)*%
X53420000Y-86100000D02*
X54920000Y-84600000D01*
X53420000Y-97421320D02*
X53420000Y-86100000D01*
X68298679Y-112300000D02*
X53420000Y-97421320D01*
X224700251Y-112300000D02*
X68298679Y-112300000D01*
X238550000Y-98450253D02*
X224700251Y-112300000D01*
X235144116Y-65250001D02*
X238550000Y-68655885D01*
X220089999Y-65250001D02*
X235144116Y-65250001D01*
X213800000Y-71540000D02*
X220089999Y-65250001D01*
X238550000Y-68655885D02*
X238550000Y-98450253D01*
%TO.N,Net-(J3-Pin_3)*%
X53820000Y-91900000D02*
X55120000Y-90600000D01*
X53820000Y-97255635D02*
X53820000Y-91900000D01*
X68464365Y-111900000D02*
X53820000Y-97255635D01*
X224534566Y-111900000D02*
X68464365Y-111900000D01*
X238150000Y-98284567D02*
X224534566Y-111900000D01*
X238150000Y-68821575D02*
X238150000Y-98284567D01*
X234978430Y-65650000D02*
X238150000Y-68821575D01*
X222230000Y-65650000D02*
X234978430Y-65650000D01*
X213800000Y-74080000D02*
X222230000Y-65650000D01*
%TO.N,Net-(D5-A)*%
X65480000Y-78350000D02*
X65480000Y-74410000D01*
X65480000Y-74410000D02*
X70940000Y-68950000D01*
%TO.N,Net-(J3-Pin_4)*%
X224368881Y-111500000D02*
X69100000Y-111500000D01*
X237750000Y-68987260D02*
X237750000Y-98118881D01*
X234812744Y-66050000D02*
X237750000Y-68987260D01*
X213800000Y-76100000D02*
X223850000Y-66050000D01*
X213800000Y-76620000D02*
X213800000Y-76100000D01*
X223850000Y-66050000D02*
X234812744Y-66050000D01*
X237750000Y-98118881D02*
X224368881Y-111500000D01*
X69100000Y-111500000D02*
X54400000Y-96800000D01*
%TO.N,Net-(J4-Pin_1)*%
X73300000Y-80560000D02*
X75360000Y-78500000D01*
X73300000Y-98387005D02*
X73300000Y-80560000D01*
X86012993Y-111100000D02*
X73300000Y-98387005D01*
X224203196Y-111100000D02*
X86012993Y-111100000D01*
X237350000Y-97953206D02*
X224203196Y-111100000D01*
X237350000Y-69152945D02*
X237350000Y-97953206D01*
X234647058Y-66450000D02*
X237350000Y-69152945D01*
X225750000Y-66450000D02*
X234647058Y-66450000D01*
X223400000Y-68800000D02*
X225750000Y-66450000D01*
%TO.N,Net-(J4-Pin_2)*%
X73700000Y-86500000D02*
X75200000Y-85000000D01*
X73700000Y-98221320D02*
X73700000Y-86500000D01*
X86178679Y-110700000D02*
X73700000Y-98221320D01*
X224037511Y-110700000D02*
X86178679Y-110700000D01*
X236950000Y-97787520D02*
X224037511Y-110700000D01*
X236950000Y-69318630D02*
X236950000Y-97787520D01*
X234481372Y-66850000D02*
X236950000Y-69318630D01*
X227890000Y-66850000D02*
X234481372Y-66850000D01*
X223400000Y-71340000D02*
X227890000Y-66850000D01*
%TO.N,Net-(J4-Pin_3)*%
X74100000Y-92460000D02*
X75360000Y-91200000D01*
X74100000Y-98055635D02*
X74100000Y-92460000D01*
X86344365Y-110300000D02*
X74100000Y-98055635D01*
X223871826Y-110300000D02*
X86344365Y-110300000D01*
X236550000Y-97621834D02*
X223871826Y-110300000D01*
X234315686Y-67250000D02*
X236550000Y-69484315D01*
X230030000Y-67250000D02*
X234315686Y-67250000D01*
X236550000Y-69484315D02*
X236550000Y-97621834D01*
X223400000Y-73880000D02*
X230030000Y-67250000D01*
%TO.N,Net-(J4-Pin_4)*%
X87500000Y-109900000D02*
X75200000Y-97600000D01*
X234150000Y-67650000D02*
X236150000Y-69650000D01*
X236150000Y-97456148D02*
X223706141Y-109900000D01*
X231850000Y-67650000D02*
X234150000Y-67650000D01*
X223706141Y-109900000D02*
X87500000Y-109900000D01*
X223400000Y-76420000D02*
X223400000Y-76100000D01*
X223400000Y-76100000D02*
X231850000Y-67650000D01*
X236150000Y-69650000D02*
X236150000Y-97456148D01*
%TO.N,Net-(J5-Pin_1)*%
X94800000Y-98847006D02*
X94800000Y-80930000D01*
X223540456Y-109500000D02*
X105452994Y-109500000D01*
X235750000Y-97290462D02*
X223540456Y-109500000D01*
X235750000Y-71550000D02*
X235750000Y-97290462D01*
X94800000Y-80930000D02*
X97680000Y-78050000D01*
X233000000Y-68800000D02*
X235750000Y-71550000D01*
X105452994Y-109500000D02*
X94800000Y-98847006D01*
%TO.N,Net-(J5-Pin_2)*%
X105618679Y-109100000D02*
X95200000Y-98681321D01*
X95200000Y-98681321D02*
X95200000Y-86720000D01*
X223374771Y-109100000D02*
X105618679Y-109100000D01*
X95200000Y-86720000D02*
X97320000Y-84600000D01*
X235350000Y-97124776D02*
X223374771Y-109100000D01*
X235350000Y-73690000D02*
X235350000Y-97124776D01*
X233000000Y-71340000D02*
X235350000Y-73690000D01*
%TO.N,Net-(J5-Pin_3)*%
X95600000Y-98515635D02*
X95600000Y-92720000D01*
X95600000Y-92720000D02*
X97320000Y-91000000D01*
X105784365Y-108700000D02*
X95600000Y-98515635D01*
X234950000Y-96959090D02*
X223209086Y-108700000D01*
X223209086Y-108700000D02*
X105784365Y-108700000D01*
X234950000Y-75830000D02*
X234950000Y-96959090D01*
X233000000Y-73880000D02*
X234950000Y-75830000D01*
%TO.N,GND*%
D16*
X94050000Y-84170000D02*
X90020000Y-88200000D01*
%TO.N,Net-(D11-A)*%
D15*
X89560000Y-91200000D02*
X92560000Y-88200000D01*
%TO.N,GND*%
D16*
X91370000Y-86850000D02*
X93119189Y-86850000D01*
X93910000Y-87640811D02*
X93910000Y-98559189D01*
X93119189Y-86850000D02*
X93910000Y-87640811D01*
X90020000Y-88200000D02*
X91370000Y-86850000D01*
X110540000Y-89750000D02*
X111000000Y-90210000D01*
X106962233Y-89750000D02*
X110540000Y-89750000D01*
X106230000Y-90482233D02*
X106962233Y-89750000D01*
X106230000Y-91517767D02*
X106230000Y-90482233D01*
X106962233Y-92250000D02*
X106230000Y-91517767D01*
X107549189Y-92250000D02*
X106962233Y-92250000D01*
X114820000Y-100639189D02*
X114820000Y-99520811D01*
X114820000Y-99520811D02*
X107549189Y-92250000D01*
X114029189Y-101430000D02*
X114820000Y-100639189D01*
X112280000Y-101430000D02*
X114029189Y-101430000D01*
X110930000Y-100080000D02*
X112280000Y-101430000D01*
X114670000Y-86540000D02*
X111000000Y-90210000D01*
X114670000Y-77360000D02*
X114670000Y-86540000D01*
X114260000Y-76950000D02*
X114670000Y-77360000D01*
X110730000Y-80480000D02*
X114260000Y-76950000D01*
X113759189Y-69130000D02*
X114550000Y-69920811D01*
X114550000Y-76660000D02*
X110730000Y-80480000D01*
X110660000Y-70480000D02*
X112010000Y-69130000D01*
X112010000Y-69130000D02*
X113759189Y-69130000D01*
X114550000Y-69920811D02*
X114550000Y-76660000D01*
%TO.N,Net-(D15-A)*%
D15*
X111950001Y-91799999D02*
X113540000Y-90210000D01*
X108279999Y-91799999D02*
X111950001Y-91799999D01*
X107480000Y-91000000D02*
X108279999Y-91799999D01*
%TO.N,Net-(D14-A)*%
X109150000Y-84600000D02*
X113270000Y-80480000D01*
X107480000Y-84600000D02*
X109150000Y-84600000D01*
%TO.N,Net-(D13-A)*%
X107840000Y-75840000D02*
X113200000Y-70480000D01*
X107840000Y-78050000D02*
X107840000Y-75840000D01*
%TO.N,Net-(J5-Pin_4)*%
X234550000Y-96793404D02*
X223043401Y-108300000D01*
X233000000Y-76420000D02*
X234550000Y-77970000D01*
X234550000Y-77970000D02*
X234550000Y-96793404D01*
X223043401Y-108300000D02*
X106940000Y-108300000D01*
%TO.N,Net-(J6-Pin_1)*%
X115220000Y-98787005D02*
X115220000Y-79700000D01*
X115220000Y-79700000D02*
X116720000Y-78200000D01*
X124332993Y-107900000D02*
X115220000Y-98787005D01*
X234150000Y-96627718D02*
X222877716Y-107900000D01*
X222877716Y-107900000D02*
X124332993Y-107900000D01*
X234150000Y-90150000D02*
X234150000Y-96627718D01*
X232200000Y-88200000D02*
X234150000Y-90150000D01*
%TO.N,Net-(J6-Pin_2)*%
X115620000Y-98621320D02*
X115620000Y-86900000D01*
X115620000Y-86900000D02*
X117120000Y-85400000D01*
X124498679Y-107500000D02*
X115620000Y-98621320D01*
X233750000Y-96462032D02*
X222712031Y-107500000D01*
X222712031Y-107500000D02*
X124498679Y-107500000D01*
X232200000Y-90740000D02*
X233750000Y-92290000D01*
X233750000Y-92290000D02*
X233750000Y-96462032D01*
%TO.N,Net-(J6-Pin_3)*%
X116920000Y-96644365D02*
X116920000Y-91800000D01*
X124664365Y-107100000D02*
X116020000Y-98455635D01*
X222546346Y-107100000D02*
X124664365Y-107100000D01*
X116020000Y-98455635D02*
X116020000Y-97544365D01*
X233350000Y-96296346D02*
X222546346Y-107100000D01*
X233350000Y-94430000D02*
X233350000Y-96296346D01*
X116020000Y-97544365D02*
X116920000Y-96644365D01*
X232200000Y-93280000D02*
X233350000Y-94430000D01*
%TO.N,Net-(J6-Pin_4)*%
X221320000Y-106700000D02*
X125820000Y-106700000D01*
X125820000Y-106700000D02*
X117120000Y-98000000D01*
X232200000Y-95820000D02*
X221320000Y-106700000D01*
%TO.N,Net-(J7-Pin_1)*%
X136800001Y-80719999D02*
X138120000Y-79400000D01*
X143612993Y-106300000D02*
X136800001Y-99487006D01*
X224950000Y-96627718D02*
X215277716Y-106300000D01*
X224950000Y-90150000D02*
X224950000Y-96627718D01*
X223000000Y-88200000D02*
X224950000Y-90150000D01*
X215277716Y-106300000D02*
X143612993Y-106300000D01*
X136800001Y-99487006D02*
X136800001Y-80719999D01*
%TO.N,Net-(J7-Pin_2)*%
X137200001Y-86839999D02*
X138240000Y-85800000D01*
X137200001Y-99321321D02*
X137200001Y-86839999D01*
X143778679Y-105900000D02*
X137200001Y-99321321D01*
X224550000Y-96462032D02*
X215112031Y-105900000D01*
X215112031Y-105900000D02*
X143778679Y-105900000D01*
X224550000Y-92290000D02*
X224550000Y-96462032D01*
X223000000Y-90740000D02*
X224550000Y-92290000D01*
%TO.N,Net-(J7-Pin_3)*%
X137600001Y-99155636D02*
X137600001Y-92799999D01*
X137600001Y-92799999D02*
X138400000Y-92000000D01*
X143944365Y-105500000D02*
X137600001Y-99155636D01*
X224150000Y-96296346D02*
X214946346Y-105500000D01*
X214946346Y-105500000D02*
X143944365Y-105500000D01*
X224150000Y-94430000D02*
X224150000Y-96296346D01*
X223000000Y-93280000D02*
X224150000Y-94430000D01*
X223000000Y-93400000D02*
X223200000Y-93600000D01*
X223000000Y-93280000D02*
X223000000Y-93400000D01*
%TO.N,Net-(J7-Pin_4)*%
X213720000Y-105100000D02*
X145100000Y-105100000D01*
X145100000Y-105100000D02*
X138800000Y-98800000D01*
X223000000Y-95820000D02*
X213720000Y-105100000D01*
%TO.N,Net-(J8-Pin_1)*%
X208077716Y-104700000D02*
X163412993Y-104700000D01*
X216750000Y-96027718D02*
X208077716Y-104700000D01*
X216750000Y-89550000D02*
X216750000Y-96027718D01*
X157900000Y-99187005D02*
X157900000Y-80750000D01*
X214800000Y-87600000D02*
X216750000Y-89550000D01*
X163412993Y-104700000D02*
X157900000Y-99187005D01*
X157900000Y-80750000D02*
X159680000Y-78970000D01*
%TO.N,Net-(J8-Pin_2)*%
X158300000Y-87100000D02*
X159600000Y-85800000D01*
X163578679Y-104300000D02*
X158300000Y-99021320D01*
X216350000Y-95862032D02*
X207912031Y-104300000D01*
X207912031Y-104300000D02*
X163578679Y-104300000D01*
X216350000Y-91690000D02*
X216350000Y-95862032D01*
X214800000Y-90140000D02*
X216350000Y-91690000D01*
X158300000Y-99021320D02*
X158300000Y-87100000D01*
%TO.N,Net-(J8-Pin_3)*%
X207746346Y-103900000D02*
X163744365Y-103900000D01*
X158700000Y-98855635D02*
X158700000Y-92300000D01*
X215950000Y-95696346D02*
X207746346Y-103900000D01*
X215950000Y-93830000D02*
X215950000Y-95696346D01*
X163744365Y-103900000D02*
X158700000Y-98855635D01*
X214800000Y-92680000D02*
X215950000Y-93830000D01*
X158700000Y-92300000D02*
X159400000Y-91600000D01*
%TO.N,Net-(J8-Pin_4)*%
X206520000Y-103500000D02*
X164900000Y-103500000D01*
X164900000Y-103500000D02*
X159800000Y-98400000D01*
X214800000Y-95220000D02*
X206520000Y-103500000D01*
%TO.N,Net-(J9-Pin_2)*%
X179100000Y-84900000D02*
X180000000Y-84000000D01*
X179100000Y-97221320D02*
X179100000Y-84900000D01*
X184978679Y-103100000D02*
X179100000Y-97221320D01*
X205950000Y-96662032D02*
X199512031Y-103100000D01*
X199512031Y-103100000D02*
X184978679Y-103100000D01*
X205950000Y-92490000D02*
X205950000Y-96662032D01*
X204400000Y-90940000D02*
X205950000Y-92490000D01*
%TO.N,Net-(J9-Pin_3)*%
X179500000Y-97055635D02*
X179500000Y-90700000D01*
X185144365Y-102700000D02*
X179500000Y-97055635D01*
X205550000Y-96496346D02*
X199346346Y-102700000D01*
X179500000Y-90700000D02*
X180200000Y-90000000D01*
X205550000Y-94630000D02*
X205550000Y-96496346D01*
X204400000Y-93480000D02*
X205550000Y-94630000D01*
X199346346Y-102700000D02*
X185144365Y-102700000D01*
%TO.N,Net-(J9-Pin_4)*%
X186300000Y-102300000D02*
X180600000Y-96600000D01*
X204400000Y-96020000D02*
X198120000Y-102300000D01*
X198120000Y-102300000D02*
X186300000Y-102300000D01*
%TO.N,Net-(J9-Pin_1)*%
X181399999Y-89339999D02*
X181399999Y-78449999D01*
X197787006Y-101900000D02*
X193960000Y-101900000D01*
X193960000Y-101900000D02*
X181399999Y-89339999D01*
X199235000Y-100452007D02*
X197787006Y-101900000D01*
X181399999Y-78449999D02*
X180600000Y-77650000D01*
X199235000Y-93565000D02*
X199235000Y-100452007D01*
X204400000Y-88400000D02*
X199235000Y-93565000D01*
%TO.N,GND*%
D16*
X197559189Y-101350000D02*
X195810000Y-101350000D01*
X195810000Y-101350000D02*
X194460000Y-100000000D01*
X197894189Y-88450000D02*
X198685000Y-89240811D01*
X196145000Y-88450000D02*
X197894189Y-88450000D01*
X198685000Y-89240811D02*
X198685000Y-100224189D01*
X198685000Y-100224189D02*
X197559189Y-101350000D01*
X194795000Y-89800000D02*
X196145000Y-88450000D01*
X197759189Y-78850000D02*
X198550000Y-79640811D01*
X196010000Y-78850000D02*
X197759189Y-78850000D01*
X198550000Y-79640811D02*
X198550000Y-86045000D01*
X194660000Y-80200000D02*
X196010000Y-78850000D01*
X198550000Y-86045000D02*
X194795000Y-89800000D01*
X197494189Y-69450000D02*
X198285000Y-70240811D01*
X198285000Y-76575000D02*
X194660000Y-80200000D01*
X195745000Y-69450000D02*
X197494189Y-69450000D01*
X194395000Y-70800000D02*
X195745000Y-69450000D01*
X198285000Y-70240811D02*
X198285000Y-76575000D01*
X193375000Y-69780000D02*
X194395000Y-70800000D01*
X175620000Y-69780000D02*
X193375000Y-69780000D01*
X174270000Y-71130000D02*
X175620000Y-69780000D01*
X156350000Y-70000000D02*
X156200000Y-69850000D01*
X152460000Y-80800000D02*
X156350000Y-76910000D01*
X156350000Y-76910000D02*
X156350000Y-70000000D01*
X153810000Y-69850000D02*
X156200000Y-69850000D01*
X155559189Y-79450000D02*
X153810000Y-79450000D01*
X156350000Y-80240811D02*
X155559189Y-79450000D01*
X156350000Y-86370000D02*
X156350000Y-80240811D01*
X153810000Y-79450000D02*
X152460000Y-80800000D01*
X152720000Y-90000000D02*
X156350000Y-86370000D01*
X154070000Y-88650000D02*
X152720000Y-90000000D01*
X155819189Y-88650000D02*
X154070000Y-88650000D01*
X156750000Y-100159189D02*
X156750000Y-89580811D01*
X155959189Y-100950000D02*
X156750000Y-100159189D01*
X154210000Y-100950000D02*
X155959189Y-100950000D01*
X156750000Y-89580811D02*
X155819189Y-88650000D01*
X152860000Y-99600000D02*
X154210000Y-100950000D01*
X175680000Y-101350000D02*
X174330000Y-100000000D01*
X177429189Y-101350000D02*
X175680000Y-101350000D01*
X178220000Y-89840811D02*
X178220000Y-100559189D01*
X175480000Y-88850000D02*
X177229189Y-88850000D01*
X177229189Y-88850000D02*
X178220000Y-89840811D01*
X174130000Y-90200000D02*
X175480000Y-88850000D01*
X178220000Y-100559189D02*
X177429189Y-101350000D01*
X178090000Y-86240000D02*
X174130000Y-90200000D01*
X178090000Y-79840811D02*
X178090000Y-86240000D01*
X175550000Y-79050000D02*
X177299189Y-79050000D01*
X177299189Y-79050000D02*
X178090000Y-79840811D01*
X174200000Y-80400000D02*
X175550000Y-79050000D01*
X178160000Y-70570811D02*
X178160000Y-76440000D01*
X177369189Y-69780000D02*
X178160000Y-70570811D01*
X175620000Y-69780000D02*
X177369189Y-69780000D01*
X178160000Y-76440000D02*
X174200000Y-80400000D01*
X156200000Y-69850000D02*
X172990000Y-69850000D01*
X152460000Y-71200000D02*
X153810000Y-69850000D01*
X172990000Y-69850000D02*
X174270000Y-71130000D01*
X150570000Y-69310000D02*
X152460000Y-71200000D01*
X131690000Y-70660000D02*
X133040000Y-69310000D01*
X133040000Y-69310000D02*
X150570000Y-69310000D01*
%TO.N,Net-(D22-A)*%
D15*
X150000000Y-85800000D02*
X155000000Y-80800000D01*
X148400000Y-85800000D02*
X150000000Y-85800000D01*
%TO.N,Net-(D30-A)*%
X193400000Y-84000000D02*
X197200000Y-80200000D01*
X190160000Y-84000000D02*
X193400000Y-84000000D01*
%TO.N,Net-(D27-A)*%
X175270000Y-91600000D02*
X176670000Y-90200000D01*
X169560000Y-91600000D02*
X175270000Y-91600000D01*
%TO.N,Net-(D26-A)*%
X171340000Y-85800000D02*
X176740000Y-80400000D01*
X169760000Y-85800000D02*
X171340000Y-85800000D01*
%TO.N,Net-(D31-A)*%
X196135000Y-91000000D02*
X197335000Y-89800000D01*
X191360000Y-91000000D02*
X196135000Y-91000000D01*
X190360000Y-90000000D02*
X191360000Y-91000000D01*
%TO.N,Net-(D32-A)*%
X193600000Y-96600000D02*
X197000000Y-100000000D01*
X190760000Y-96600000D02*
X193600000Y-96600000D01*
%TO.N,GND*%
D16*
X135580000Y-89700811D02*
X135580000Y-96300000D01*
X134789189Y-88910000D02*
X135580000Y-89700811D01*
X135580000Y-96300000D02*
X132220000Y-99660000D01*
X131690000Y-90260000D02*
X133040000Y-88910000D01*
X133040000Y-88910000D02*
X134789189Y-88910000D01*
X135580000Y-86370000D02*
X131690000Y-90260000D01*
X134789189Y-69310000D02*
X135580000Y-70100811D01*
X135580000Y-70100811D02*
X135580000Y-86370000D01*
X133040000Y-69310000D02*
X134789189Y-69310000D01*
X135580000Y-76165000D02*
X131485000Y-80260000D01*
X135580000Y-70100811D02*
X135580000Y-76165000D01*
X130030000Y-69000000D02*
X131690000Y-70660000D01*
X112140000Y-69000000D02*
X130030000Y-69000000D01*
X110660000Y-70480000D02*
X112140000Y-69000000D01*
X121930000Y-69130000D02*
X122000000Y-69200000D01*
X112010000Y-69130000D02*
X121930000Y-69130000D01*
X93910000Y-98559189D02*
X93119189Y-99350000D01*
X93119189Y-99350000D02*
X91370000Y-99350000D01*
X91370000Y-99350000D02*
X90020000Y-98000000D01*
X107780000Y-67600000D02*
X110660000Y-70480000D01*
X91950000Y-67600000D02*
X107780000Y-67600000D01*
X90160000Y-69390000D02*
X91950000Y-67600000D01*
X93259189Y-68040000D02*
X94050000Y-68830811D01*
X91510000Y-68040000D02*
X93259189Y-68040000D01*
X94050000Y-68830811D02*
X94050000Y-84170000D01*
X90160000Y-69390000D02*
X91510000Y-68040000D01*
X94050000Y-68830811D02*
X94050000Y-74770000D01*
X94050000Y-74770000D02*
X90020000Y-78800000D01*
X72690000Y-94460000D02*
X68400000Y-98750000D01*
X72690000Y-88390811D02*
X72690000Y-94460000D01*
X71899189Y-87600000D02*
X72690000Y-88390811D01*
X70150000Y-87600000D02*
X71899189Y-87600000D01*
X68800000Y-88950000D02*
X70150000Y-87600000D01*
X88370000Y-67600000D02*
X90160000Y-69390000D01*
X68400000Y-68950000D02*
X69750000Y-67600000D01*
X69750000Y-67600000D02*
X88370000Y-67600000D01*
X72690000Y-85060000D02*
X68800000Y-88950000D01*
X72690000Y-68790811D02*
X72690000Y-85060000D01*
X69750000Y-67600000D02*
X71499189Y-67600000D01*
X71499189Y-67600000D02*
X72690000Y-68790811D01*
X72290000Y-75260000D02*
X68800000Y-78750000D01*
X72290000Y-68390811D02*
X72290000Y-75260000D01*
X71499189Y-67600000D02*
X72290000Y-68390811D01*
X51629189Y-99150000D02*
X49880000Y-99150000D01*
X52420000Y-87840811D02*
X52420000Y-98359189D01*
X52420000Y-98359189D02*
X51629189Y-99150000D01*
X51429189Y-86850000D02*
X52420000Y-87840811D01*
X49880000Y-99150000D02*
X48530000Y-97800000D01*
X48330000Y-88200000D02*
X49680000Y-86850000D01*
X49680000Y-86850000D02*
X51429189Y-86850000D01*
X49675000Y-68050000D02*
X67500000Y-68050000D01*
X67500000Y-68050000D02*
X68400000Y-68950000D01*
X48325000Y-69400000D02*
X49675000Y-68050000D01*
X52415000Y-84115000D02*
X48330000Y-88200000D01*
X52415000Y-69040811D02*
X52415000Y-84115000D01*
X51424189Y-68050000D02*
X52415000Y-69040811D01*
X49675000Y-68050000D02*
X51424189Y-68050000D01*
X52215000Y-75110000D02*
X48525000Y-78800000D01*
X51424189Y-68050000D02*
X52215000Y-68840811D01*
X52215000Y-68840811D02*
X52215000Y-75110000D01*
%TO.N,Net-(D29-A)*%
D15*
X190760000Y-77250000D02*
X196935000Y-71075000D01*
X196935000Y-71075000D02*
X196935000Y-70800000D01*
%TO.N,Net-(D25-A)*%
X176810000Y-71470000D02*
X176810000Y-71130000D01*
X169710000Y-78570000D02*
X176810000Y-71470000D01*
%TO.N,Net-(D28-A)*%
X175000000Y-98400000D02*
X177000000Y-100400000D01*
X169960000Y-98400000D02*
X175000000Y-98400000D01*
%TO.N,Net-(D23-A)*%
X153660001Y-91599999D02*
X155260000Y-90000000D01*
X149019999Y-91599999D02*
X153660001Y-91599999D01*
%TO.N,Net-(D21-A)*%
X154940000Y-71200000D02*
X155000000Y-71200000D01*
%TO.N,Net-(D20-A)*%
X133560000Y-100860000D02*
X134760000Y-99660000D01*
X130140000Y-100860000D02*
X133560000Y-100860000D01*
X127280000Y-98000000D02*
X130140000Y-100860000D01*
%TO.N,Net-(D19-A)*%
X132690000Y-91800000D02*
X134230000Y-90260000D01*
X127080000Y-91800000D02*
X132690000Y-91800000D01*
%TO.N,Net-(D18-A)*%
X127280000Y-85400000D02*
X128885000Y-85400000D01*
X128885000Y-85400000D02*
X134025000Y-80260000D01*
%TO.N,Net-(D17-A)*%
X134230000Y-70850000D02*
X134230000Y-70660000D01*
X126880000Y-78200000D02*
X134230000Y-70850000D01*
%TO.N,Net-(D16-A)*%
X110790000Y-97400000D02*
X113470000Y-100080000D01*
%TO.N,Net-(D12-A)*%
X91360000Y-96800000D02*
X92560000Y-98000000D01*
X86160000Y-96800000D02*
X91360000Y-96800000D01*
X85360000Y-97600000D02*
X86160000Y-96800000D01*
%TO.N,Net-(D11-A)*%
X85520000Y-91200000D02*
X89560000Y-91200000D01*
%TO.N,Net-(D10-A)*%
X86360000Y-85000000D02*
X92560000Y-78800000D01*
X85360000Y-85000000D02*
X86360000Y-85000000D01*
%TO.N,Net-(D9-A)*%
X85520000Y-76570000D02*
X92700000Y-69390000D01*
X85520000Y-78500000D02*
X85520000Y-76570000D01*
%TO.N,Net-(D8-A)*%
X67200000Y-99950000D02*
X69740000Y-99950000D01*
X69740000Y-99950000D02*
X70940000Y-98750000D01*
X64560000Y-97310000D02*
X67200000Y-99950000D01*
X64560000Y-96800000D02*
X64560000Y-97310000D01*
%TO.N,Net-(D7-A)*%
X69690000Y-90600000D02*
X71340000Y-88950000D01*
X64760000Y-90600000D02*
X69690000Y-90600000D01*
%TO.N,Net-(D6-A)*%
X65490000Y-84600000D02*
X71340000Y-78750000D01*
X64560000Y-84600000D02*
X65490000Y-84600000D01*
%TO.N,Net-(D4-A)*%
X44799999Y-96200001D02*
X49470001Y-96200001D01*
X49470001Y-96200001D02*
X51070000Y-97800000D01*
X44000000Y-97000000D02*
X44799999Y-96200001D01*
%TO.N,Net-(D3-A)*%
X48470000Y-90600000D02*
X50870000Y-88200000D01*
X43880000Y-90600000D02*
X48470000Y-90600000D01*
%TO.N,Net-(D2-A)*%
X45365000Y-84500000D02*
X51065000Y-78800000D01*
X43800000Y-84500000D02*
X45365000Y-84500000D01*
%TO.N,Net-(D1-A)*%
X44160000Y-76105000D02*
X50865000Y-69400000D01*
X44160000Y-78450000D02*
X44160000Y-76105000D01*
%TD*%
M02*
