%TF.GenerationSoftware,KiCad,Pcbnew,10.0.4*%
%TF.CreationDate,2026-07-15T22:36:43+05:00*%
%TF.ProjectId,USR_LED_Board,5553525f-4c45-4445-9f42-6f6172642e6b,rev?*%
%TF.SameCoordinates,Original*%
%TF.FileFunction,Soldermask,Top*%
%TF.FilePolarity,Negative*%
%FSLAX46Y46*%
G04 Gerber Fmt 4.6, Leading zero omitted, Abs format (unit mm)*
G04 Created by KiCad (PCBNEW 10.0.4) date 2026-07-15 22:36:43*
%MOMM*%
%LPD*%
G01*
G04 APERTURE LIST*
%ADD10R,1.800000X1.800000*%
%ADD11C,1.800000*%
%ADD12C,1.700000*%
%ADD13R,1.700000X1.700000*%
%ADD14C,1.600000*%
%ADD15C,2.100000*%
G04 APERTURE END LIST*
D10*
%TO.C,D11*%
X90020000Y-88200000D03*
D11*
X92560000Y-88200000D03*
%TD*%
D12*
%TO.C,J5*%
X233000000Y-76420000D03*
X233000000Y-73880000D03*
X233000000Y-71340000D03*
D13*
X233000000Y-68800000D03*
%TD*%
D12*
%TO.C,J1*%
X204600000Y-76420000D03*
X204600000Y-73880000D03*
X204600000Y-71340000D03*
D13*
X204600000Y-68800000D03*
%TD*%
D14*
%TO.C,R4*%
X44000000Y-97000000D03*
X33840000Y-97000000D03*
%TD*%
%TO.C,R1*%
X44160000Y-78450000D03*
X34000000Y-78450000D03*
%TD*%
%TO.C,R2*%
X43800000Y-84500000D03*
X33640000Y-84500000D03*
%TD*%
D11*
%TO.C,D1*%
X50865000Y-69400000D03*
D10*
X48325000Y-69400000D03*
%TD*%
D12*
%TO.C,J3*%
X213800000Y-76620000D03*
X213800000Y-74080000D03*
X213800000Y-71540000D03*
D13*
X213800000Y-69000000D03*
%TD*%
D11*
%TO.C,D4*%
X51070000Y-97800000D03*
D10*
X48530000Y-97800000D03*
%TD*%
D11*
%TO.C,D2*%
X51065000Y-78800000D03*
D10*
X48525000Y-78800000D03*
%TD*%
D14*
%TO.C,R3*%
X43880000Y-90600000D03*
X33720000Y-90600000D03*
%TD*%
D11*
%TO.C,D3*%
X50870000Y-88200000D03*
D10*
X48330000Y-88200000D03*
%TD*%
D15*
%TO.C,H1*%
X34000000Y-66800000D03*
%TD*%
D14*
%TO.C,R5*%
X65480000Y-78350000D03*
X55320000Y-78350000D03*
%TD*%
D11*
%TO.C,D7*%
X71340000Y-88950000D03*
D10*
X68800000Y-88950000D03*
%TD*%
D11*
%TO.C,D5*%
X70940000Y-68950000D03*
D10*
X68400000Y-68950000D03*
%TD*%
D14*
%TO.C,R8*%
X65080000Y-96800000D03*
X54920000Y-96800000D03*
%TD*%
%TO.C,R7*%
X65280000Y-90600000D03*
X55120000Y-90600000D03*
%TD*%
%TO.C,R6*%
X65080000Y-84600000D03*
X54920000Y-84600000D03*
%TD*%
D11*
%TO.C,D8*%
X70940000Y-98750000D03*
D10*
X68400000Y-98750000D03*
%TD*%
D11*
%TO.C,D6*%
X71340000Y-78750000D03*
D10*
X68800000Y-78750000D03*
%TD*%
D12*
%TO.C,J4*%
X223400000Y-76420000D03*
X223400000Y-73880000D03*
X223400000Y-71340000D03*
D13*
X223400000Y-68800000D03*
%TD*%
D11*
%TO.C,D9*%
X92700000Y-69390000D03*
D10*
X90160000Y-69390000D03*
%TD*%
D11*
%TO.C,D12*%
X92560000Y-98000000D03*
D10*
X90020000Y-98000000D03*
%TD*%
D14*
%TO.C,R12*%
X85360000Y-97600000D03*
X75200000Y-97600000D03*
%TD*%
D11*
%TO.C,D10*%
X92560000Y-78800000D03*
D10*
X90020000Y-78800000D03*
%TD*%
D14*
%TO.C,R10*%
X85360000Y-85000000D03*
X75200000Y-85000000D03*
%TD*%
%TO.C,R9*%
X85520000Y-78500000D03*
X75360000Y-78500000D03*
%TD*%
%TO.C,R11*%
X85520000Y-91200000D03*
X75360000Y-91200000D03*
%TD*%
D12*
%TO.C,J6*%
X232200000Y-95820000D03*
X232200000Y-93280000D03*
X232200000Y-90740000D03*
D13*
X232200000Y-88200000D03*
%TD*%
D12*
%TO.C,J7*%
X223000000Y-95820000D03*
X223000000Y-93280000D03*
X223000000Y-90740000D03*
D13*
X223000000Y-88200000D03*
%TD*%
D12*
%TO.C,J8*%
X214800000Y-95220000D03*
X214800000Y-92680000D03*
X214800000Y-90140000D03*
D13*
X214800000Y-87600000D03*
%TD*%
D12*
%TO.C,J9*%
X204400000Y-96020000D03*
X204400000Y-93480000D03*
X204400000Y-90940000D03*
D13*
X204400000Y-88400000D03*
%TD*%
D14*
%TO.C,R14*%
X97320000Y-84600000D03*
X107480000Y-84600000D03*
%TD*%
%TO.C,R28*%
X159800000Y-98400000D03*
X169960000Y-98400000D03*
%TD*%
D10*
%TO.C,D29*%
X194395000Y-70800000D03*
D11*
X196935000Y-70800000D03*
%TD*%
D14*
%TO.C,R24*%
X138800000Y-98800000D03*
X148960000Y-98800000D03*
%TD*%
D10*
%TO.C,D14*%
X110730000Y-80480000D03*
D11*
X113270000Y-80480000D03*
%TD*%
D14*
%TO.C,R18*%
X117120000Y-85400000D03*
X127280000Y-85400000D03*
%TD*%
%TO.C,R21*%
X138120000Y-79400000D03*
X148280000Y-79400000D03*
%TD*%
D10*
%TO.C,D21*%
X152460000Y-71200000D03*
D11*
X155000000Y-71200000D03*
%TD*%
D10*
%TO.C,D18*%
X131485000Y-80260000D03*
D11*
X134025000Y-80260000D03*
%TD*%
D15*
%TO.C,H3*%
X243600000Y-111000000D03*
%TD*%
D10*
%TO.C,D28*%
X174330000Y-100000000D03*
D11*
X176870000Y-100000000D03*
%TD*%
D10*
%TO.C,D32*%
X194460000Y-100000000D03*
D11*
X197000000Y-100000000D03*
%TD*%
D14*
%TO.C,R15*%
X97320000Y-91000000D03*
X107480000Y-91000000D03*
%TD*%
%TO.C,R23*%
X138400000Y-92000000D03*
X148560000Y-92000000D03*
%TD*%
D10*
%TO.C,D16*%
X110930000Y-100080000D03*
D11*
X113470000Y-100080000D03*
%TD*%
D10*
%TO.C,D27*%
X174130000Y-90200000D03*
D11*
X176670000Y-90200000D03*
%TD*%
D10*
%TO.C,D15*%
X111000000Y-90210000D03*
D11*
X113540000Y-90210000D03*
%TD*%
D14*
%TO.C,R26*%
X159600000Y-85800000D03*
X169760000Y-85800000D03*
%TD*%
%TO.C,R25*%
X159680000Y-78970000D03*
X169840000Y-78970000D03*
%TD*%
%TO.C,R29*%
X180600000Y-77650000D03*
X190760000Y-77650000D03*
%TD*%
%TO.C,R16*%
X97120000Y-97400000D03*
X107280000Y-97400000D03*
%TD*%
%TO.C,R19*%
X116920000Y-91800000D03*
X127080000Y-91800000D03*
%TD*%
%TO.C,R17*%
X116720000Y-78200000D03*
X126880000Y-78200000D03*
%TD*%
%TO.C,R31*%
X180200000Y-90000000D03*
X190360000Y-90000000D03*
%TD*%
%TO.C,R13*%
X97320000Y-78000000D03*
X107480000Y-78000000D03*
%TD*%
%TO.C,R32*%
X180600000Y-96600000D03*
X190760000Y-96600000D03*
%TD*%
D10*
%TO.C,D17*%
X131690000Y-70660000D03*
D11*
X134230000Y-70660000D03*
%TD*%
D10*
%TO.C,D24*%
X152860000Y-99600000D03*
D11*
X155400000Y-99600000D03*
%TD*%
D10*
%TO.C,D25*%
X174270000Y-71130000D03*
D11*
X176810000Y-71130000D03*
%TD*%
D10*
%TO.C,D13*%
X110660000Y-70480000D03*
D11*
X113200000Y-70480000D03*
%TD*%
D15*
%TO.C,H4*%
X33600000Y-112200000D03*
%TD*%
D14*
%TO.C,R22*%
X138240000Y-85800000D03*
X148400000Y-85800000D03*
%TD*%
D13*
%TO.C,J2*%
X122000000Y-69200000D03*
%TD*%
D10*
%TO.C,D31*%
X194795000Y-89800000D03*
D11*
X197335000Y-89800000D03*
%TD*%
D10*
%TO.C,D19*%
X131690000Y-90260000D03*
D11*
X134230000Y-90260000D03*
%TD*%
D10*
%TO.C,D26*%
X174200000Y-80400000D03*
D11*
X176740000Y-80400000D03*
%TD*%
D10*
%TO.C,D20*%
X132220000Y-99660000D03*
D11*
X134760000Y-99660000D03*
%TD*%
D14*
%TO.C,R20*%
X117120000Y-98000000D03*
X127280000Y-98000000D03*
%TD*%
D10*
%TO.C,D23*%
X152720000Y-90000000D03*
D11*
X155260000Y-90000000D03*
%TD*%
D15*
%TO.C,H2*%
X244400000Y-66600000D03*
%TD*%
D14*
%TO.C,R30*%
X180000000Y-84000000D03*
X190160000Y-84000000D03*
%TD*%
D10*
%TO.C,D30*%
X194660000Y-80200000D03*
D11*
X197200000Y-80200000D03*
%TD*%
D14*
%TO.C,R27*%
X159400000Y-91600000D03*
X169560000Y-91600000D03*
%TD*%
D10*
%TO.C,D22*%
X152460000Y-80800000D03*
D11*
X155000000Y-80800000D03*
%TD*%
M02*
