%TF.GenerationSoftware,KiCad,Pcbnew,10.0.4*%
%TF.CreationDate,2026-07-15T22:36:43+05:00*%
%TF.ProjectId,USR_LED_Board,5553525f-4c45-4445-9f42-6f6172642e6b,rev?*%
%TF.SameCoordinates,Original*%
%TF.FileFunction,Legend,Top*%
%TF.FilePolarity,Positive*%
%FSLAX46Y46*%
G04 Gerber Fmt 4.6, Leading zero omitted, Abs format (unit mm)*
G04 Created by KiCad (PCBNEW 10.0.4) date 2026-07-15 22:36:43*
%MOMM*%
%LPD*%
G01*
G04 APERTURE LIST*
%ADD10C,0.100000*%
%ADD11C,0.150000*%
%ADD12C,0.120000*%
G04 APERTURE END LIST*
D10*
X227903884Y-114072419D02*
X227903884Y-113072419D01*
X227903884Y-113072419D02*
X228475312Y-114072419D01*
X228475312Y-114072419D02*
X228475312Y-113072419D01*
X229380074Y-114072419D02*
X229380074Y-113548609D01*
X229380074Y-113548609D02*
X229332455Y-113453371D01*
X229332455Y-113453371D02*
X229237217Y-113405752D01*
X229237217Y-113405752D02*
X229046741Y-113405752D01*
X229046741Y-113405752D02*
X228951503Y-113453371D01*
X229380074Y-114024800D02*
X229284836Y-114072419D01*
X229284836Y-114072419D02*
X229046741Y-114072419D01*
X229046741Y-114072419D02*
X228951503Y-114024800D01*
X228951503Y-114024800D02*
X228903884Y-113929561D01*
X228903884Y-113929561D02*
X228903884Y-113834323D01*
X228903884Y-113834323D02*
X228951503Y-113739085D01*
X228951503Y-113739085D02*
X229046741Y-113691466D01*
X229046741Y-113691466D02*
X229284836Y-113691466D01*
X229284836Y-113691466D02*
X229380074Y-113643847D01*
X229713408Y-113405752D02*
X230094360Y-113405752D01*
X229856265Y-113072419D02*
X229856265Y-113929561D01*
X229856265Y-113929561D02*
X229903884Y-114024800D01*
X229903884Y-114024800D02*
X229999122Y-114072419D01*
X229999122Y-114072419D02*
X230094360Y-114072419D01*
X230856265Y-114072419D02*
X230856265Y-113548609D01*
X230856265Y-113548609D02*
X230808646Y-113453371D01*
X230808646Y-113453371D02*
X230713408Y-113405752D01*
X230713408Y-113405752D02*
X230522932Y-113405752D01*
X230522932Y-113405752D02*
X230427694Y-113453371D01*
X230856265Y-114024800D02*
X230761027Y-114072419D01*
X230761027Y-114072419D02*
X230522932Y-114072419D01*
X230522932Y-114072419D02*
X230427694Y-114024800D01*
X230427694Y-114024800D02*
X230380075Y-113929561D01*
X230380075Y-113929561D02*
X230380075Y-113834323D01*
X230380075Y-113834323D02*
X230427694Y-113739085D01*
X230427694Y-113739085D02*
X230522932Y-113691466D01*
X230522932Y-113691466D02*
X230761027Y-113691466D01*
X230761027Y-113691466D02*
X230856265Y-113643847D01*
X231284837Y-114024800D02*
X231380075Y-114072419D01*
X231380075Y-114072419D02*
X231570551Y-114072419D01*
X231570551Y-114072419D02*
X231665789Y-114024800D01*
X231665789Y-114024800D02*
X231713408Y-113929561D01*
X231713408Y-113929561D02*
X231713408Y-113881942D01*
X231713408Y-113881942D02*
X231665789Y-113786704D01*
X231665789Y-113786704D02*
X231570551Y-113739085D01*
X231570551Y-113739085D02*
X231427694Y-113739085D01*
X231427694Y-113739085D02*
X231332456Y-113691466D01*
X231332456Y-113691466D02*
X231284837Y-113596228D01*
X231284837Y-113596228D02*
X231284837Y-113548609D01*
X231284837Y-113548609D02*
X231332456Y-113453371D01*
X231332456Y-113453371D02*
X231427694Y-113405752D01*
X231427694Y-113405752D02*
X231570551Y-113405752D01*
X231570551Y-113405752D02*
X231665789Y-113453371D01*
X232141980Y-114072419D02*
X232141980Y-113072419D01*
X232570551Y-114072419D02*
X232570551Y-113548609D01*
X232570551Y-113548609D02*
X232522932Y-113453371D01*
X232522932Y-113453371D02*
X232427694Y-113405752D01*
X232427694Y-113405752D02*
X232284837Y-113405752D01*
X232284837Y-113405752D02*
X232189599Y-113453371D01*
X232189599Y-113453371D02*
X232141980Y-113500990D01*
X233475313Y-114072419D02*
X233475313Y-113548609D01*
X233475313Y-113548609D02*
X233427694Y-113453371D01*
X233427694Y-113453371D02*
X233332456Y-113405752D01*
X233332456Y-113405752D02*
X233141980Y-113405752D01*
X233141980Y-113405752D02*
X233046742Y-113453371D01*
X233475313Y-114024800D02*
X233380075Y-114072419D01*
X233380075Y-114072419D02*
X233141980Y-114072419D01*
X233141980Y-114072419D02*
X233046742Y-114024800D01*
X233046742Y-114024800D02*
X232999123Y-113929561D01*
X232999123Y-113929561D02*
X232999123Y-113834323D01*
X232999123Y-113834323D02*
X233046742Y-113739085D01*
X233046742Y-113739085D02*
X233141980Y-113691466D01*
X233141980Y-113691466D02*
X233380075Y-113691466D01*
X233380075Y-113691466D02*
X233475313Y-113643847D01*
X234713409Y-113548609D02*
X235046742Y-113548609D01*
X235189599Y-114072419D02*
X234713409Y-114072419D01*
X234713409Y-114072419D02*
X234713409Y-113072419D01*
X234713409Y-113072419D02*
X235189599Y-113072419D01*
X235618171Y-114072419D02*
X235618171Y-113405752D01*
X235618171Y-113500990D02*
X235665790Y-113453371D01*
X235665790Y-113453371D02*
X235761028Y-113405752D01*
X235761028Y-113405752D02*
X235903885Y-113405752D01*
X235903885Y-113405752D02*
X235999123Y-113453371D01*
X235999123Y-113453371D02*
X236046742Y-113548609D01*
X236046742Y-113548609D02*
X236046742Y-114072419D01*
X236046742Y-113548609D02*
X236094361Y-113453371D01*
X236094361Y-113453371D02*
X236189599Y-113405752D01*
X236189599Y-113405752D02*
X236332456Y-113405752D01*
X236332456Y-113405752D02*
X236427695Y-113453371D01*
X236427695Y-113453371D02*
X236475314Y-113548609D01*
X236475314Y-113548609D02*
X236475314Y-114072419D01*
X237380075Y-114072419D02*
X237380075Y-113548609D01*
X237380075Y-113548609D02*
X237332456Y-113453371D01*
X237332456Y-113453371D02*
X237237218Y-113405752D01*
X237237218Y-113405752D02*
X237046742Y-113405752D01*
X237046742Y-113405752D02*
X236951504Y-113453371D01*
X237380075Y-114024800D02*
X237284837Y-114072419D01*
X237284837Y-114072419D02*
X237046742Y-114072419D01*
X237046742Y-114072419D02*
X236951504Y-114024800D01*
X236951504Y-114024800D02*
X236903885Y-113929561D01*
X236903885Y-113929561D02*
X236903885Y-113834323D01*
X236903885Y-113834323D02*
X236951504Y-113739085D01*
X236951504Y-113739085D02*
X237046742Y-113691466D01*
X237046742Y-113691466D02*
X237284837Y-113691466D01*
X237284837Y-113691466D02*
X237380075Y-113643847D01*
X237856266Y-113405752D02*
X237856266Y-114072419D01*
X237856266Y-113500990D02*
X237903885Y-113453371D01*
X237903885Y-113453371D02*
X237999123Y-113405752D01*
X237999123Y-113405752D02*
X238141980Y-113405752D01*
X238141980Y-113405752D02*
X238237218Y-113453371D01*
X238237218Y-113453371D02*
X238284837Y-113548609D01*
X238284837Y-113548609D02*
X238284837Y-114072419D01*
X239522933Y-113072419D02*
X239522933Y-113881942D01*
X239522933Y-113881942D02*
X239570552Y-113977180D01*
X239570552Y-113977180D02*
X239618171Y-114024800D01*
X239618171Y-114024800D02*
X239713409Y-114072419D01*
X239713409Y-114072419D02*
X239903885Y-114072419D01*
X239903885Y-114072419D02*
X239999123Y-114024800D01*
X239999123Y-114024800D02*
X240046742Y-113977180D01*
X240046742Y-113977180D02*
X240094361Y-113881942D01*
X240094361Y-113881942D02*
X240094361Y-113072419D01*
X240570552Y-114072419D02*
X240570552Y-113405752D01*
X240570552Y-113500990D02*
X240618171Y-113453371D01*
X240618171Y-113453371D02*
X240713409Y-113405752D01*
X240713409Y-113405752D02*
X240856266Y-113405752D01*
X240856266Y-113405752D02*
X240951504Y-113453371D01*
X240951504Y-113453371D02*
X240999123Y-113548609D01*
X240999123Y-113548609D02*
X240999123Y-114072419D01*
X240999123Y-113548609D02*
X241046742Y-113453371D01*
X241046742Y-113453371D02*
X241141980Y-113405752D01*
X241141980Y-113405752D02*
X241284837Y-113405752D01*
X241284837Y-113405752D02*
X241380076Y-113453371D01*
X241380076Y-113453371D02*
X241427695Y-113548609D01*
X241427695Y-113548609D02*
X241427695Y-114072419D01*
X242332456Y-114072419D02*
X242332456Y-113548609D01*
X242332456Y-113548609D02*
X242284837Y-113453371D01*
X242284837Y-113453371D02*
X242189599Y-113405752D01*
X242189599Y-113405752D02*
X241999123Y-113405752D01*
X241999123Y-113405752D02*
X241903885Y-113453371D01*
X242332456Y-114024800D02*
X242237218Y-114072419D01*
X242237218Y-114072419D02*
X241999123Y-114072419D01*
X241999123Y-114072419D02*
X241903885Y-114024800D01*
X241903885Y-114024800D02*
X241856266Y-113929561D01*
X241856266Y-113929561D02*
X241856266Y-113834323D01*
X241856266Y-113834323D02*
X241903885Y-113739085D01*
X241903885Y-113739085D02*
X241999123Y-113691466D01*
X241999123Y-113691466D02*
X242237218Y-113691466D01*
X242237218Y-113691466D02*
X242332456Y-113643847D01*
X242808647Y-114072419D02*
X242808647Y-113405752D01*
X242808647Y-113596228D02*
X242856266Y-113500990D01*
X242856266Y-113500990D02*
X242903885Y-113453371D01*
X242903885Y-113453371D02*
X242999123Y-113405752D01*
X242999123Y-113405752D02*
X243094361Y-113405752D01*
D11*
X90075714Y-84694819D02*
X90075714Y-83694819D01*
X90075714Y-83694819D02*
X90313809Y-83694819D01*
X90313809Y-83694819D02*
X90456666Y-83742438D01*
X90456666Y-83742438D02*
X90551904Y-83837676D01*
X90551904Y-83837676D02*
X90599523Y-83932914D01*
X90599523Y-83932914D02*
X90647142Y-84123390D01*
X90647142Y-84123390D02*
X90647142Y-84266247D01*
X90647142Y-84266247D02*
X90599523Y-84456723D01*
X90599523Y-84456723D02*
X90551904Y-84551961D01*
X90551904Y-84551961D02*
X90456666Y-84647200D01*
X90456666Y-84647200D02*
X90313809Y-84694819D01*
X90313809Y-84694819D02*
X90075714Y-84694819D01*
X91599523Y-84694819D02*
X91028095Y-84694819D01*
X91313809Y-84694819D02*
X91313809Y-83694819D01*
X91313809Y-83694819D02*
X91218571Y-83837676D01*
X91218571Y-83837676D02*
X91123333Y-83932914D01*
X91123333Y-83932914D02*
X91028095Y-83980533D01*
X92551904Y-84694819D02*
X91980476Y-84694819D01*
X92266190Y-84694819D02*
X92266190Y-83694819D01*
X92266190Y-83694819D02*
X92170952Y-83837676D01*
X92170952Y-83837676D02*
X92075714Y-83932914D01*
X92075714Y-83932914D02*
X91980476Y-83980533D01*
X232666666Y-65874819D02*
X232666666Y-66589104D01*
X232666666Y-66589104D02*
X232619047Y-66731961D01*
X232619047Y-66731961D02*
X232523809Y-66827200D01*
X232523809Y-66827200D02*
X232380952Y-66874819D01*
X232380952Y-66874819D02*
X232285714Y-66874819D01*
X233619047Y-65874819D02*
X233142857Y-65874819D01*
X233142857Y-65874819D02*
X233095238Y-66351009D01*
X233095238Y-66351009D02*
X233142857Y-66303390D01*
X233142857Y-66303390D02*
X233238095Y-66255771D01*
X233238095Y-66255771D02*
X233476190Y-66255771D01*
X233476190Y-66255771D02*
X233571428Y-66303390D01*
X233571428Y-66303390D02*
X233619047Y-66351009D01*
X233619047Y-66351009D02*
X233666666Y-66446247D01*
X233666666Y-66446247D02*
X233666666Y-66684342D01*
X233666666Y-66684342D02*
X233619047Y-66779580D01*
X233619047Y-66779580D02*
X233571428Y-66827200D01*
X233571428Y-66827200D02*
X233476190Y-66874819D01*
X233476190Y-66874819D02*
X233238095Y-66874819D01*
X233238095Y-66874819D02*
X233142857Y-66827200D01*
X233142857Y-66827200D02*
X233095238Y-66779580D01*
X204266666Y-65874819D02*
X204266666Y-66589104D01*
X204266666Y-66589104D02*
X204219047Y-66731961D01*
X204219047Y-66731961D02*
X204123809Y-66827200D01*
X204123809Y-66827200D02*
X203980952Y-66874819D01*
X203980952Y-66874819D02*
X203885714Y-66874819D01*
X205266666Y-66874819D02*
X204695238Y-66874819D01*
X204980952Y-66874819D02*
X204980952Y-65874819D01*
X204980952Y-65874819D02*
X204885714Y-66017676D01*
X204885714Y-66017676D02*
X204790476Y-66112914D01*
X204790476Y-66112914D02*
X204695238Y-66160533D01*
X38753333Y-95084819D02*
X38420000Y-94608628D01*
X38181905Y-95084819D02*
X38181905Y-94084819D01*
X38181905Y-94084819D02*
X38562857Y-94084819D01*
X38562857Y-94084819D02*
X38658095Y-94132438D01*
X38658095Y-94132438D02*
X38705714Y-94180057D01*
X38705714Y-94180057D02*
X38753333Y-94275295D01*
X38753333Y-94275295D02*
X38753333Y-94418152D01*
X38753333Y-94418152D02*
X38705714Y-94513390D01*
X38705714Y-94513390D02*
X38658095Y-94561009D01*
X38658095Y-94561009D02*
X38562857Y-94608628D01*
X38562857Y-94608628D02*
X38181905Y-94608628D01*
X39610476Y-94418152D02*
X39610476Y-95084819D01*
X39372381Y-94037200D02*
X39134286Y-94751485D01*
X39134286Y-94751485D02*
X39753333Y-94751485D01*
X38913333Y-76534819D02*
X38580000Y-76058628D01*
X38341905Y-76534819D02*
X38341905Y-75534819D01*
X38341905Y-75534819D02*
X38722857Y-75534819D01*
X38722857Y-75534819D02*
X38818095Y-75582438D01*
X38818095Y-75582438D02*
X38865714Y-75630057D01*
X38865714Y-75630057D02*
X38913333Y-75725295D01*
X38913333Y-75725295D02*
X38913333Y-75868152D01*
X38913333Y-75868152D02*
X38865714Y-75963390D01*
X38865714Y-75963390D02*
X38818095Y-76011009D01*
X38818095Y-76011009D02*
X38722857Y-76058628D01*
X38722857Y-76058628D02*
X38341905Y-76058628D01*
X39865714Y-76534819D02*
X39294286Y-76534819D01*
X39580000Y-76534819D02*
X39580000Y-75534819D01*
X39580000Y-75534819D02*
X39484762Y-75677676D01*
X39484762Y-75677676D02*
X39389524Y-75772914D01*
X39389524Y-75772914D02*
X39294286Y-75820533D01*
X38553333Y-82584819D02*
X38220000Y-82108628D01*
X37981905Y-82584819D02*
X37981905Y-81584819D01*
X37981905Y-81584819D02*
X38362857Y-81584819D01*
X38362857Y-81584819D02*
X38458095Y-81632438D01*
X38458095Y-81632438D02*
X38505714Y-81680057D01*
X38505714Y-81680057D02*
X38553333Y-81775295D01*
X38553333Y-81775295D02*
X38553333Y-81918152D01*
X38553333Y-81918152D02*
X38505714Y-82013390D01*
X38505714Y-82013390D02*
X38458095Y-82061009D01*
X38458095Y-82061009D02*
X38362857Y-82108628D01*
X38362857Y-82108628D02*
X37981905Y-82108628D01*
X38934286Y-81680057D02*
X38981905Y-81632438D01*
X38981905Y-81632438D02*
X39077143Y-81584819D01*
X39077143Y-81584819D02*
X39315238Y-81584819D01*
X39315238Y-81584819D02*
X39410476Y-81632438D01*
X39410476Y-81632438D02*
X39458095Y-81680057D01*
X39458095Y-81680057D02*
X39505714Y-81775295D01*
X39505714Y-81775295D02*
X39505714Y-81870533D01*
X39505714Y-81870533D02*
X39458095Y-82013390D01*
X39458095Y-82013390D02*
X38886667Y-82584819D01*
X38886667Y-82584819D02*
X39505714Y-82584819D01*
X48856905Y-65894819D02*
X48856905Y-64894819D01*
X48856905Y-64894819D02*
X49095000Y-64894819D01*
X49095000Y-64894819D02*
X49237857Y-64942438D01*
X49237857Y-64942438D02*
X49333095Y-65037676D01*
X49333095Y-65037676D02*
X49380714Y-65132914D01*
X49380714Y-65132914D02*
X49428333Y-65323390D01*
X49428333Y-65323390D02*
X49428333Y-65466247D01*
X49428333Y-65466247D02*
X49380714Y-65656723D01*
X49380714Y-65656723D02*
X49333095Y-65751961D01*
X49333095Y-65751961D02*
X49237857Y-65847200D01*
X49237857Y-65847200D02*
X49095000Y-65894819D01*
X49095000Y-65894819D02*
X48856905Y-65894819D01*
X50380714Y-65894819D02*
X49809286Y-65894819D01*
X50095000Y-65894819D02*
X50095000Y-64894819D01*
X50095000Y-64894819D02*
X49999762Y-65037676D01*
X49999762Y-65037676D02*
X49904524Y-65132914D01*
X49904524Y-65132914D02*
X49809286Y-65180533D01*
X213466666Y-66074819D02*
X213466666Y-66789104D01*
X213466666Y-66789104D02*
X213419047Y-66931961D01*
X213419047Y-66931961D02*
X213323809Y-67027200D01*
X213323809Y-67027200D02*
X213180952Y-67074819D01*
X213180952Y-67074819D02*
X213085714Y-67074819D01*
X213847619Y-66074819D02*
X214466666Y-66074819D01*
X214466666Y-66074819D02*
X214133333Y-66455771D01*
X214133333Y-66455771D02*
X214276190Y-66455771D01*
X214276190Y-66455771D02*
X214371428Y-66503390D01*
X214371428Y-66503390D02*
X214419047Y-66551009D01*
X214419047Y-66551009D02*
X214466666Y-66646247D01*
X214466666Y-66646247D02*
X214466666Y-66884342D01*
X214466666Y-66884342D02*
X214419047Y-66979580D01*
X214419047Y-66979580D02*
X214371428Y-67027200D01*
X214371428Y-67027200D02*
X214276190Y-67074819D01*
X214276190Y-67074819D02*
X213990476Y-67074819D01*
X213990476Y-67074819D02*
X213895238Y-67027200D01*
X213895238Y-67027200D02*
X213847619Y-66979580D01*
X49061905Y-94294819D02*
X49061905Y-93294819D01*
X49061905Y-93294819D02*
X49300000Y-93294819D01*
X49300000Y-93294819D02*
X49442857Y-93342438D01*
X49442857Y-93342438D02*
X49538095Y-93437676D01*
X49538095Y-93437676D02*
X49585714Y-93532914D01*
X49585714Y-93532914D02*
X49633333Y-93723390D01*
X49633333Y-93723390D02*
X49633333Y-93866247D01*
X49633333Y-93866247D02*
X49585714Y-94056723D01*
X49585714Y-94056723D02*
X49538095Y-94151961D01*
X49538095Y-94151961D02*
X49442857Y-94247200D01*
X49442857Y-94247200D02*
X49300000Y-94294819D01*
X49300000Y-94294819D02*
X49061905Y-94294819D01*
X50490476Y-93628152D02*
X50490476Y-94294819D01*
X50252381Y-93247200D02*
X50014286Y-93961485D01*
X50014286Y-93961485D02*
X50633333Y-93961485D01*
X49056905Y-75294819D02*
X49056905Y-74294819D01*
X49056905Y-74294819D02*
X49295000Y-74294819D01*
X49295000Y-74294819D02*
X49437857Y-74342438D01*
X49437857Y-74342438D02*
X49533095Y-74437676D01*
X49533095Y-74437676D02*
X49580714Y-74532914D01*
X49580714Y-74532914D02*
X49628333Y-74723390D01*
X49628333Y-74723390D02*
X49628333Y-74866247D01*
X49628333Y-74866247D02*
X49580714Y-75056723D01*
X49580714Y-75056723D02*
X49533095Y-75151961D01*
X49533095Y-75151961D02*
X49437857Y-75247200D01*
X49437857Y-75247200D02*
X49295000Y-75294819D01*
X49295000Y-75294819D02*
X49056905Y-75294819D01*
X50009286Y-74390057D02*
X50056905Y-74342438D01*
X50056905Y-74342438D02*
X50152143Y-74294819D01*
X50152143Y-74294819D02*
X50390238Y-74294819D01*
X50390238Y-74294819D02*
X50485476Y-74342438D01*
X50485476Y-74342438D02*
X50533095Y-74390057D01*
X50533095Y-74390057D02*
X50580714Y-74485295D01*
X50580714Y-74485295D02*
X50580714Y-74580533D01*
X50580714Y-74580533D02*
X50533095Y-74723390D01*
X50533095Y-74723390D02*
X49961667Y-75294819D01*
X49961667Y-75294819D02*
X50580714Y-75294819D01*
X38633333Y-88684819D02*
X38300000Y-88208628D01*
X38061905Y-88684819D02*
X38061905Y-87684819D01*
X38061905Y-87684819D02*
X38442857Y-87684819D01*
X38442857Y-87684819D02*
X38538095Y-87732438D01*
X38538095Y-87732438D02*
X38585714Y-87780057D01*
X38585714Y-87780057D02*
X38633333Y-87875295D01*
X38633333Y-87875295D02*
X38633333Y-88018152D01*
X38633333Y-88018152D02*
X38585714Y-88113390D01*
X38585714Y-88113390D02*
X38538095Y-88161009D01*
X38538095Y-88161009D02*
X38442857Y-88208628D01*
X38442857Y-88208628D02*
X38061905Y-88208628D01*
X38966667Y-87684819D02*
X39585714Y-87684819D01*
X39585714Y-87684819D02*
X39252381Y-88065771D01*
X39252381Y-88065771D02*
X39395238Y-88065771D01*
X39395238Y-88065771D02*
X39490476Y-88113390D01*
X39490476Y-88113390D02*
X39538095Y-88161009D01*
X39538095Y-88161009D02*
X39585714Y-88256247D01*
X39585714Y-88256247D02*
X39585714Y-88494342D01*
X39585714Y-88494342D02*
X39538095Y-88589580D01*
X39538095Y-88589580D02*
X39490476Y-88637200D01*
X39490476Y-88637200D02*
X39395238Y-88684819D01*
X39395238Y-88684819D02*
X39109524Y-88684819D01*
X39109524Y-88684819D02*
X39014286Y-88637200D01*
X39014286Y-88637200D02*
X38966667Y-88589580D01*
X48861905Y-84694819D02*
X48861905Y-83694819D01*
X48861905Y-83694819D02*
X49100000Y-83694819D01*
X49100000Y-83694819D02*
X49242857Y-83742438D01*
X49242857Y-83742438D02*
X49338095Y-83837676D01*
X49338095Y-83837676D02*
X49385714Y-83932914D01*
X49385714Y-83932914D02*
X49433333Y-84123390D01*
X49433333Y-84123390D02*
X49433333Y-84266247D01*
X49433333Y-84266247D02*
X49385714Y-84456723D01*
X49385714Y-84456723D02*
X49338095Y-84551961D01*
X49338095Y-84551961D02*
X49242857Y-84647200D01*
X49242857Y-84647200D02*
X49100000Y-84694819D01*
X49100000Y-84694819D02*
X48861905Y-84694819D01*
X49766667Y-83694819D02*
X50385714Y-83694819D01*
X50385714Y-83694819D02*
X50052381Y-84075771D01*
X50052381Y-84075771D02*
X50195238Y-84075771D01*
X50195238Y-84075771D02*
X50290476Y-84123390D01*
X50290476Y-84123390D02*
X50338095Y-84171009D01*
X50338095Y-84171009D02*
X50385714Y-84266247D01*
X50385714Y-84266247D02*
X50385714Y-84504342D01*
X50385714Y-84504342D02*
X50338095Y-84599580D01*
X50338095Y-84599580D02*
X50290476Y-84647200D01*
X50290476Y-84647200D02*
X50195238Y-84694819D01*
X50195238Y-84694819D02*
X49909524Y-84694819D01*
X49909524Y-84694819D02*
X49814286Y-84647200D01*
X49814286Y-84647200D02*
X49766667Y-84599580D01*
X33238095Y-64204819D02*
X33238095Y-63204819D01*
X33238095Y-63681009D02*
X33809523Y-63681009D01*
X33809523Y-64204819D02*
X33809523Y-63204819D01*
X34809523Y-64204819D02*
X34238095Y-64204819D01*
X34523809Y-64204819D02*
X34523809Y-63204819D01*
X34523809Y-63204819D02*
X34428571Y-63347676D01*
X34428571Y-63347676D02*
X34333333Y-63442914D01*
X34333333Y-63442914D02*
X34238095Y-63490533D01*
X60233333Y-76434819D02*
X59900000Y-75958628D01*
X59661905Y-76434819D02*
X59661905Y-75434819D01*
X59661905Y-75434819D02*
X60042857Y-75434819D01*
X60042857Y-75434819D02*
X60138095Y-75482438D01*
X60138095Y-75482438D02*
X60185714Y-75530057D01*
X60185714Y-75530057D02*
X60233333Y-75625295D01*
X60233333Y-75625295D02*
X60233333Y-75768152D01*
X60233333Y-75768152D02*
X60185714Y-75863390D01*
X60185714Y-75863390D02*
X60138095Y-75911009D01*
X60138095Y-75911009D02*
X60042857Y-75958628D01*
X60042857Y-75958628D02*
X59661905Y-75958628D01*
X61138095Y-75434819D02*
X60661905Y-75434819D01*
X60661905Y-75434819D02*
X60614286Y-75911009D01*
X60614286Y-75911009D02*
X60661905Y-75863390D01*
X60661905Y-75863390D02*
X60757143Y-75815771D01*
X60757143Y-75815771D02*
X60995238Y-75815771D01*
X60995238Y-75815771D02*
X61090476Y-75863390D01*
X61090476Y-75863390D02*
X61138095Y-75911009D01*
X61138095Y-75911009D02*
X61185714Y-76006247D01*
X61185714Y-76006247D02*
X61185714Y-76244342D01*
X61185714Y-76244342D02*
X61138095Y-76339580D01*
X61138095Y-76339580D02*
X61090476Y-76387200D01*
X61090476Y-76387200D02*
X60995238Y-76434819D01*
X60995238Y-76434819D02*
X60757143Y-76434819D01*
X60757143Y-76434819D02*
X60661905Y-76387200D01*
X60661905Y-76387200D02*
X60614286Y-76339580D01*
X69331905Y-85444819D02*
X69331905Y-84444819D01*
X69331905Y-84444819D02*
X69570000Y-84444819D01*
X69570000Y-84444819D02*
X69712857Y-84492438D01*
X69712857Y-84492438D02*
X69808095Y-84587676D01*
X69808095Y-84587676D02*
X69855714Y-84682914D01*
X69855714Y-84682914D02*
X69903333Y-84873390D01*
X69903333Y-84873390D02*
X69903333Y-85016247D01*
X69903333Y-85016247D02*
X69855714Y-85206723D01*
X69855714Y-85206723D02*
X69808095Y-85301961D01*
X69808095Y-85301961D02*
X69712857Y-85397200D01*
X69712857Y-85397200D02*
X69570000Y-85444819D01*
X69570000Y-85444819D02*
X69331905Y-85444819D01*
X70236667Y-84444819D02*
X70903333Y-84444819D01*
X70903333Y-84444819D02*
X70474762Y-85444819D01*
X68931905Y-65444819D02*
X68931905Y-64444819D01*
X68931905Y-64444819D02*
X69170000Y-64444819D01*
X69170000Y-64444819D02*
X69312857Y-64492438D01*
X69312857Y-64492438D02*
X69408095Y-64587676D01*
X69408095Y-64587676D02*
X69455714Y-64682914D01*
X69455714Y-64682914D02*
X69503333Y-64873390D01*
X69503333Y-64873390D02*
X69503333Y-65016247D01*
X69503333Y-65016247D02*
X69455714Y-65206723D01*
X69455714Y-65206723D02*
X69408095Y-65301961D01*
X69408095Y-65301961D02*
X69312857Y-65397200D01*
X69312857Y-65397200D02*
X69170000Y-65444819D01*
X69170000Y-65444819D02*
X68931905Y-65444819D01*
X70408095Y-64444819D02*
X69931905Y-64444819D01*
X69931905Y-64444819D02*
X69884286Y-64921009D01*
X69884286Y-64921009D02*
X69931905Y-64873390D01*
X69931905Y-64873390D02*
X70027143Y-64825771D01*
X70027143Y-64825771D02*
X70265238Y-64825771D01*
X70265238Y-64825771D02*
X70360476Y-64873390D01*
X70360476Y-64873390D02*
X70408095Y-64921009D01*
X70408095Y-64921009D02*
X70455714Y-65016247D01*
X70455714Y-65016247D02*
X70455714Y-65254342D01*
X70455714Y-65254342D02*
X70408095Y-65349580D01*
X70408095Y-65349580D02*
X70360476Y-65397200D01*
X70360476Y-65397200D02*
X70265238Y-65444819D01*
X70265238Y-65444819D02*
X70027143Y-65444819D01*
X70027143Y-65444819D02*
X69931905Y-65397200D01*
X69931905Y-65397200D02*
X69884286Y-65349580D01*
X59833333Y-94884819D02*
X59500000Y-94408628D01*
X59261905Y-94884819D02*
X59261905Y-93884819D01*
X59261905Y-93884819D02*
X59642857Y-93884819D01*
X59642857Y-93884819D02*
X59738095Y-93932438D01*
X59738095Y-93932438D02*
X59785714Y-93980057D01*
X59785714Y-93980057D02*
X59833333Y-94075295D01*
X59833333Y-94075295D02*
X59833333Y-94218152D01*
X59833333Y-94218152D02*
X59785714Y-94313390D01*
X59785714Y-94313390D02*
X59738095Y-94361009D01*
X59738095Y-94361009D02*
X59642857Y-94408628D01*
X59642857Y-94408628D02*
X59261905Y-94408628D01*
X60404762Y-94313390D02*
X60309524Y-94265771D01*
X60309524Y-94265771D02*
X60261905Y-94218152D01*
X60261905Y-94218152D02*
X60214286Y-94122914D01*
X60214286Y-94122914D02*
X60214286Y-94075295D01*
X60214286Y-94075295D02*
X60261905Y-93980057D01*
X60261905Y-93980057D02*
X60309524Y-93932438D01*
X60309524Y-93932438D02*
X60404762Y-93884819D01*
X60404762Y-93884819D02*
X60595238Y-93884819D01*
X60595238Y-93884819D02*
X60690476Y-93932438D01*
X60690476Y-93932438D02*
X60738095Y-93980057D01*
X60738095Y-93980057D02*
X60785714Y-94075295D01*
X60785714Y-94075295D02*
X60785714Y-94122914D01*
X60785714Y-94122914D02*
X60738095Y-94218152D01*
X60738095Y-94218152D02*
X60690476Y-94265771D01*
X60690476Y-94265771D02*
X60595238Y-94313390D01*
X60595238Y-94313390D02*
X60404762Y-94313390D01*
X60404762Y-94313390D02*
X60309524Y-94361009D01*
X60309524Y-94361009D02*
X60261905Y-94408628D01*
X60261905Y-94408628D02*
X60214286Y-94503866D01*
X60214286Y-94503866D02*
X60214286Y-94694342D01*
X60214286Y-94694342D02*
X60261905Y-94789580D01*
X60261905Y-94789580D02*
X60309524Y-94837200D01*
X60309524Y-94837200D02*
X60404762Y-94884819D01*
X60404762Y-94884819D02*
X60595238Y-94884819D01*
X60595238Y-94884819D02*
X60690476Y-94837200D01*
X60690476Y-94837200D02*
X60738095Y-94789580D01*
X60738095Y-94789580D02*
X60785714Y-94694342D01*
X60785714Y-94694342D02*
X60785714Y-94503866D01*
X60785714Y-94503866D02*
X60738095Y-94408628D01*
X60738095Y-94408628D02*
X60690476Y-94361009D01*
X60690476Y-94361009D02*
X60595238Y-94313390D01*
X60033333Y-88684819D02*
X59700000Y-88208628D01*
X59461905Y-88684819D02*
X59461905Y-87684819D01*
X59461905Y-87684819D02*
X59842857Y-87684819D01*
X59842857Y-87684819D02*
X59938095Y-87732438D01*
X59938095Y-87732438D02*
X59985714Y-87780057D01*
X59985714Y-87780057D02*
X60033333Y-87875295D01*
X60033333Y-87875295D02*
X60033333Y-88018152D01*
X60033333Y-88018152D02*
X59985714Y-88113390D01*
X59985714Y-88113390D02*
X59938095Y-88161009D01*
X59938095Y-88161009D02*
X59842857Y-88208628D01*
X59842857Y-88208628D02*
X59461905Y-88208628D01*
X60366667Y-87684819D02*
X61033333Y-87684819D01*
X61033333Y-87684819D02*
X60604762Y-88684819D01*
X59833333Y-82684819D02*
X59500000Y-82208628D01*
X59261905Y-82684819D02*
X59261905Y-81684819D01*
X59261905Y-81684819D02*
X59642857Y-81684819D01*
X59642857Y-81684819D02*
X59738095Y-81732438D01*
X59738095Y-81732438D02*
X59785714Y-81780057D01*
X59785714Y-81780057D02*
X59833333Y-81875295D01*
X59833333Y-81875295D02*
X59833333Y-82018152D01*
X59833333Y-82018152D02*
X59785714Y-82113390D01*
X59785714Y-82113390D02*
X59738095Y-82161009D01*
X59738095Y-82161009D02*
X59642857Y-82208628D01*
X59642857Y-82208628D02*
X59261905Y-82208628D01*
X60690476Y-81684819D02*
X60500000Y-81684819D01*
X60500000Y-81684819D02*
X60404762Y-81732438D01*
X60404762Y-81732438D02*
X60357143Y-81780057D01*
X60357143Y-81780057D02*
X60261905Y-81922914D01*
X60261905Y-81922914D02*
X60214286Y-82113390D01*
X60214286Y-82113390D02*
X60214286Y-82494342D01*
X60214286Y-82494342D02*
X60261905Y-82589580D01*
X60261905Y-82589580D02*
X60309524Y-82637200D01*
X60309524Y-82637200D02*
X60404762Y-82684819D01*
X60404762Y-82684819D02*
X60595238Y-82684819D01*
X60595238Y-82684819D02*
X60690476Y-82637200D01*
X60690476Y-82637200D02*
X60738095Y-82589580D01*
X60738095Y-82589580D02*
X60785714Y-82494342D01*
X60785714Y-82494342D02*
X60785714Y-82256247D01*
X60785714Y-82256247D02*
X60738095Y-82161009D01*
X60738095Y-82161009D02*
X60690476Y-82113390D01*
X60690476Y-82113390D02*
X60595238Y-82065771D01*
X60595238Y-82065771D02*
X60404762Y-82065771D01*
X60404762Y-82065771D02*
X60309524Y-82113390D01*
X60309524Y-82113390D02*
X60261905Y-82161009D01*
X60261905Y-82161009D02*
X60214286Y-82256247D01*
X68931905Y-95244819D02*
X68931905Y-94244819D01*
X68931905Y-94244819D02*
X69170000Y-94244819D01*
X69170000Y-94244819D02*
X69312857Y-94292438D01*
X69312857Y-94292438D02*
X69408095Y-94387676D01*
X69408095Y-94387676D02*
X69455714Y-94482914D01*
X69455714Y-94482914D02*
X69503333Y-94673390D01*
X69503333Y-94673390D02*
X69503333Y-94816247D01*
X69503333Y-94816247D02*
X69455714Y-95006723D01*
X69455714Y-95006723D02*
X69408095Y-95101961D01*
X69408095Y-95101961D02*
X69312857Y-95197200D01*
X69312857Y-95197200D02*
X69170000Y-95244819D01*
X69170000Y-95244819D02*
X68931905Y-95244819D01*
X70074762Y-94673390D02*
X69979524Y-94625771D01*
X69979524Y-94625771D02*
X69931905Y-94578152D01*
X69931905Y-94578152D02*
X69884286Y-94482914D01*
X69884286Y-94482914D02*
X69884286Y-94435295D01*
X69884286Y-94435295D02*
X69931905Y-94340057D01*
X69931905Y-94340057D02*
X69979524Y-94292438D01*
X69979524Y-94292438D02*
X70074762Y-94244819D01*
X70074762Y-94244819D02*
X70265238Y-94244819D01*
X70265238Y-94244819D02*
X70360476Y-94292438D01*
X70360476Y-94292438D02*
X70408095Y-94340057D01*
X70408095Y-94340057D02*
X70455714Y-94435295D01*
X70455714Y-94435295D02*
X70455714Y-94482914D01*
X70455714Y-94482914D02*
X70408095Y-94578152D01*
X70408095Y-94578152D02*
X70360476Y-94625771D01*
X70360476Y-94625771D02*
X70265238Y-94673390D01*
X70265238Y-94673390D02*
X70074762Y-94673390D01*
X70074762Y-94673390D02*
X69979524Y-94721009D01*
X69979524Y-94721009D02*
X69931905Y-94768628D01*
X69931905Y-94768628D02*
X69884286Y-94863866D01*
X69884286Y-94863866D02*
X69884286Y-95054342D01*
X69884286Y-95054342D02*
X69931905Y-95149580D01*
X69931905Y-95149580D02*
X69979524Y-95197200D01*
X69979524Y-95197200D02*
X70074762Y-95244819D01*
X70074762Y-95244819D02*
X70265238Y-95244819D01*
X70265238Y-95244819D02*
X70360476Y-95197200D01*
X70360476Y-95197200D02*
X70408095Y-95149580D01*
X70408095Y-95149580D02*
X70455714Y-95054342D01*
X70455714Y-95054342D02*
X70455714Y-94863866D01*
X70455714Y-94863866D02*
X70408095Y-94768628D01*
X70408095Y-94768628D02*
X70360476Y-94721009D01*
X70360476Y-94721009D02*
X70265238Y-94673390D01*
X69331905Y-75244819D02*
X69331905Y-74244819D01*
X69331905Y-74244819D02*
X69570000Y-74244819D01*
X69570000Y-74244819D02*
X69712857Y-74292438D01*
X69712857Y-74292438D02*
X69808095Y-74387676D01*
X69808095Y-74387676D02*
X69855714Y-74482914D01*
X69855714Y-74482914D02*
X69903333Y-74673390D01*
X69903333Y-74673390D02*
X69903333Y-74816247D01*
X69903333Y-74816247D02*
X69855714Y-75006723D01*
X69855714Y-75006723D02*
X69808095Y-75101961D01*
X69808095Y-75101961D02*
X69712857Y-75197200D01*
X69712857Y-75197200D02*
X69570000Y-75244819D01*
X69570000Y-75244819D02*
X69331905Y-75244819D01*
X70760476Y-74244819D02*
X70570000Y-74244819D01*
X70570000Y-74244819D02*
X70474762Y-74292438D01*
X70474762Y-74292438D02*
X70427143Y-74340057D01*
X70427143Y-74340057D02*
X70331905Y-74482914D01*
X70331905Y-74482914D02*
X70284286Y-74673390D01*
X70284286Y-74673390D02*
X70284286Y-75054342D01*
X70284286Y-75054342D02*
X70331905Y-75149580D01*
X70331905Y-75149580D02*
X70379524Y-75197200D01*
X70379524Y-75197200D02*
X70474762Y-75244819D01*
X70474762Y-75244819D02*
X70665238Y-75244819D01*
X70665238Y-75244819D02*
X70760476Y-75197200D01*
X70760476Y-75197200D02*
X70808095Y-75149580D01*
X70808095Y-75149580D02*
X70855714Y-75054342D01*
X70855714Y-75054342D02*
X70855714Y-74816247D01*
X70855714Y-74816247D02*
X70808095Y-74721009D01*
X70808095Y-74721009D02*
X70760476Y-74673390D01*
X70760476Y-74673390D02*
X70665238Y-74625771D01*
X70665238Y-74625771D02*
X70474762Y-74625771D01*
X70474762Y-74625771D02*
X70379524Y-74673390D01*
X70379524Y-74673390D02*
X70331905Y-74721009D01*
X70331905Y-74721009D02*
X70284286Y-74816247D01*
X223066666Y-65874819D02*
X223066666Y-66589104D01*
X223066666Y-66589104D02*
X223019047Y-66731961D01*
X223019047Y-66731961D02*
X222923809Y-66827200D01*
X222923809Y-66827200D02*
X222780952Y-66874819D01*
X222780952Y-66874819D02*
X222685714Y-66874819D01*
X223971428Y-66208152D02*
X223971428Y-66874819D01*
X223733333Y-65827200D02*
X223495238Y-66541485D01*
X223495238Y-66541485D02*
X224114285Y-66541485D01*
X90691905Y-65884819D02*
X90691905Y-64884819D01*
X90691905Y-64884819D02*
X90930000Y-64884819D01*
X90930000Y-64884819D02*
X91072857Y-64932438D01*
X91072857Y-64932438D02*
X91168095Y-65027676D01*
X91168095Y-65027676D02*
X91215714Y-65122914D01*
X91215714Y-65122914D02*
X91263333Y-65313390D01*
X91263333Y-65313390D02*
X91263333Y-65456247D01*
X91263333Y-65456247D02*
X91215714Y-65646723D01*
X91215714Y-65646723D02*
X91168095Y-65741961D01*
X91168095Y-65741961D02*
X91072857Y-65837200D01*
X91072857Y-65837200D02*
X90930000Y-65884819D01*
X90930000Y-65884819D02*
X90691905Y-65884819D01*
X91739524Y-65884819D02*
X91930000Y-65884819D01*
X91930000Y-65884819D02*
X92025238Y-65837200D01*
X92025238Y-65837200D02*
X92072857Y-65789580D01*
X92072857Y-65789580D02*
X92168095Y-65646723D01*
X92168095Y-65646723D02*
X92215714Y-65456247D01*
X92215714Y-65456247D02*
X92215714Y-65075295D01*
X92215714Y-65075295D02*
X92168095Y-64980057D01*
X92168095Y-64980057D02*
X92120476Y-64932438D01*
X92120476Y-64932438D02*
X92025238Y-64884819D01*
X92025238Y-64884819D02*
X91834762Y-64884819D01*
X91834762Y-64884819D02*
X91739524Y-64932438D01*
X91739524Y-64932438D02*
X91691905Y-64980057D01*
X91691905Y-64980057D02*
X91644286Y-65075295D01*
X91644286Y-65075295D02*
X91644286Y-65313390D01*
X91644286Y-65313390D02*
X91691905Y-65408628D01*
X91691905Y-65408628D02*
X91739524Y-65456247D01*
X91739524Y-65456247D02*
X91834762Y-65503866D01*
X91834762Y-65503866D02*
X92025238Y-65503866D01*
X92025238Y-65503866D02*
X92120476Y-65456247D01*
X92120476Y-65456247D02*
X92168095Y-65408628D01*
X92168095Y-65408628D02*
X92215714Y-65313390D01*
X90075714Y-94494819D02*
X90075714Y-93494819D01*
X90075714Y-93494819D02*
X90313809Y-93494819D01*
X90313809Y-93494819D02*
X90456666Y-93542438D01*
X90456666Y-93542438D02*
X90551904Y-93637676D01*
X90551904Y-93637676D02*
X90599523Y-93732914D01*
X90599523Y-93732914D02*
X90647142Y-93923390D01*
X90647142Y-93923390D02*
X90647142Y-94066247D01*
X90647142Y-94066247D02*
X90599523Y-94256723D01*
X90599523Y-94256723D02*
X90551904Y-94351961D01*
X90551904Y-94351961D02*
X90456666Y-94447200D01*
X90456666Y-94447200D02*
X90313809Y-94494819D01*
X90313809Y-94494819D02*
X90075714Y-94494819D01*
X91599523Y-94494819D02*
X91028095Y-94494819D01*
X91313809Y-94494819D02*
X91313809Y-93494819D01*
X91313809Y-93494819D02*
X91218571Y-93637676D01*
X91218571Y-93637676D02*
X91123333Y-93732914D01*
X91123333Y-93732914D02*
X91028095Y-93780533D01*
X91980476Y-93590057D02*
X92028095Y-93542438D01*
X92028095Y-93542438D02*
X92123333Y-93494819D01*
X92123333Y-93494819D02*
X92361428Y-93494819D01*
X92361428Y-93494819D02*
X92456666Y-93542438D01*
X92456666Y-93542438D02*
X92504285Y-93590057D01*
X92504285Y-93590057D02*
X92551904Y-93685295D01*
X92551904Y-93685295D02*
X92551904Y-93780533D01*
X92551904Y-93780533D02*
X92504285Y-93923390D01*
X92504285Y-93923390D02*
X91932857Y-94494819D01*
X91932857Y-94494819D02*
X92551904Y-94494819D01*
X79637142Y-95684819D02*
X79303809Y-95208628D01*
X79065714Y-95684819D02*
X79065714Y-94684819D01*
X79065714Y-94684819D02*
X79446666Y-94684819D01*
X79446666Y-94684819D02*
X79541904Y-94732438D01*
X79541904Y-94732438D02*
X79589523Y-94780057D01*
X79589523Y-94780057D02*
X79637142Y-94875295D01*
X79637142Y-94875295D02*
X79637142Y-95018152D01*
X79637142Y-95018152D02*
X79589523Y-95113390D01*
X79589523Y-95113390D02*
X79541904Y-95161009D01*
X79541904Y-95161009D02*
X79446666Y-95208628D01*
X79446666Y-95208628D02*
X79065714Y-95208628D01*
X80589523Y-95684819D02*
X80018095Y-95684819D01*
X80303809Y-95684819D02*
X80303809Y-94684819D01*
X80303809Y-94684819D02*
X80208571Y-94827676D01*
X80208571Y-94827676D02*
X80113333Y-94922914D01*
X80113333Y-94922914D02*
X80018095Y-94970533D01*
X80970476Y-94780057D02*
X81018095Y-94732438D01*
X81018095Y-94732438D02*
X81113333Y-94684819D01*
X81113333Y-94684819D02*
X81351428Y-94684819D01*
X81351428Y-94684819D02*
X81446666Y-94732438D01*
X81446666Y-94732438D02*
X81494285Y-94780057D01*
X81494285Y-94780057D02*
X81541904Y-94875295D01*
X81541904Y-94875295D02*
X81541904Y-94970533D01*
X81541904Y-94970533D02*
X81494285Y-95113390D01*
X81494285Y-95113390D02*
X80922857Y-95684819D01*
X80922857Y-95684819D02*
X81541904Y-95684819D01*
X90075714Y-75294819D02*
X90075714Y-74294819D01*
X90075714Y-74294819D02*
X90313809Y-74294819D01*
X90313809Y-74294819D02*
X90456666Y-74342438D01*
X90456666Y-74342438D02*
X90551904Y-74437676D01*
X90551904Y-74437676D02*
X90599523Y-74532914D01*
X90599523Y-74532914D02*
X90647142Y-74723390D01*
X90647142Y-74723390D02*
X90647142Y-74866247D01*
X90647142Y-74866247D02*
X90599523Y-75056723D01*
X90599523Y-75056723D02*
X90551904Y-75151961D01*
X90551904Y-75151961D02*
X90456666Y-75247200D01*
X90456666Y-75247200D02*
X90313809Y-75294819D01*
X90313809Y-75294819D02*
X90075714Y-75294819D01*
X91599523Y-75294819D02*
X91028095Y-75294819D01*
X91313809Y-75294819D02*
X91313809Y-74294819D01*
X91313809Y-74294819D02*
X91218571Y-74437676D01*
X91218571Y-74437676D02*
X91123333Y-74532914D01*
X91123333Y-74532914D02*
X91028095Y-74580533D01*
X92218571Y-74294819D02*
X92313809Y-74294819D01*
X92313809Y-74294819D02*
X92409047Y-74342438D01*
X92409047Y-74342438D02*
X92456666Y-74390057D01*
X92456666Y-74390057D02*
X92504285Y-74485295D01*
X92504285Y-74485295D02*
X92551904Y-74675771D01*
X92551904Y-74675771D02*
X92551904Y-74913866D01*
X92551904Y-74913866D02*
X92504285Y-75104342D01*
X92504285Y-75104342D02*
X92456666Y-75199580D01*
X92456666Y-75199580D02*
X92409047Y-75247200D01*
X92409047Y-75247200D02*
X92313809Y-75294819D01*
X92313809Y-75294819D02*
X92218571Y-75294819D01*
X92218571Y-75294819D02*
X92123333Y-75247200D01*
X92123333Y-75247200D02*
X92075714Y-75199580D01*
X92075714Y-75199580D02*
X92028095Y-75104342D01*
X92028095Y-75104342D02*
X91980476Y-74913866D01*
X91980476Y-74913866D02*
X91980476Y-74675771D01*
X91980476Y-74675771D02*
X92028095Y-74485295D01*
X92028095Y-74485295D02*
X92075714Y-74390057D01*
X92075714Y-74390057D02*
X92123333Y-74342438D01*
X92123333Y-74342438D02*
X92218571Y-74294819D01*
X79637142Y-83084819D02*
X79303809Y-82608628D01*
X79065714Y-83084819D02*
X79065714Y-82084819D01*
X79065714Y-82084819D02*
X79446666Y-82084819D01*
X79446666Y-82084819D02*
X79541904Y-82132438D01*
X79541904Y-82132438D02*
X79589523Y-82180057D01*
X79589523Y-82180057D02*
X79637142Y-82275295D01*
X79637142Y-82275295D02*
X79637142Y-82418152D01*
X79637142Y-82418152D02*
X79589523Y-82513390D01*
X79589523Y-82513390D02*
X79541904Y-82561009D01*
X79541904Y-82561009D02*
X79446666Y-82608628D01*
X79446666Y-82608628D02*
X79065714Y-82608628D01*
X80589523Y-83084819D02*
X80018095Y-83084819D01*
X80303809Y-83084819D02*
X80303809Y-82084819D01*
X80303809Y-82084819D02*
X80208571Y-82227676D01*
X80208571Y-82227676D02*
X80113333Y-82322914D01*
X80113333Y-82322914D02*
X80018095Y-82370533D01*
X81208571Y-82084819D02*
X81303809Y-82084819D01*
X81303809Y-82084819D02*
X81399047Y-82132438D01*
X81399047Y-82132438D02*
X81446666Y-82180057D01*
X81446666Y-82180057D02*
X81494285Y-82275295D01*
X81494285Y-82275295D02*
X81541904Y-82465771D01*
X81541904Y-82465771D02*
X81541904Y-82703866D01*
X81541904Y-82703866D02*
X81494285Y-82894342D01*
X81494285Y-82894342D02*
X81446666Y-82989580D01*
X81446666Y-82989580D02*
X81399047Y-83037200D01*
X81399047Y-83037200D02*
X81303809Y-83084819D01*
X81303809Y-83084819D02*
X81208571Y-83084819D01*
X81208571Y-83084819D02*
X81113333Y-83037200D01*
X81113333Y-83037200D02*
X81065714Y-82989580D01*
X81065714Y-82989580D02*
X81018095Y-82894342D01*
X81018095Y-82894342D02*
X80970476Y-82703866D01*
X80970476Y-82703866D02*
X80970476Y-82465771D01*
X80970476Y-82465771D02*
X81018095Y-82275295D01*
X81018095Y-82275295D02*
X81065714Y-82180057D01*
X81065714Y-82180057D02*
X81113333Y-82132438D01*
X81113333Y-82132438D02*
X81208571Y-82084819D01*
X80273333Y-76584819D02*
X79940000Y-76108628D01*
X79701905Y-76584819D02*
X79701905Y-75584819D01*
X79701905Y-75584819D02*
X80082857Y-75584819D01*
X80082857Y-75584819D02*
X80178095Y-75632438D01*
X80178095Y-75632438D02*
X80225714Y-75680057D01*
X80225714Y-75680057D02*
X80273333Y-75775295D01*
X80273333Y-75775295D02*
X80273333Y-75918152D01*
X80273333Y-75918152D02*
X80225714Y-76013390D01*
X80225714Y-76013390D02*
X80178095Y-76061009D01*
X80178095Y-76061009D02*
X80082857Y-76108628D01*
X80082857Y-76108628D02*
X79701905Y-76108628D01*
X80749524Y-76584819D02*
X80940000Y-76584819D01*
X80940000Y-76584819D02*
X81035238Y-76537200D01*
X81035238Y-76537200D02*
X81082857Y-76489580D01*
X81082857Y-76489580D02*
X81178095Y-76346723D01*
X81178095Y-76346723D02*
X81225714Y-76156247D01*
X81225714Y-76156247D02*
X81225714Y-75775295D01*
X81225714Y-75775295D02*
X81178095Y-75680057D01*
X81178095Y-75680057D02*
X81130476Y-75632438D01*
X81130476Y-75632438D02*
X81035238Y-75584819D01*
X81035238Y-75584819D02*
X80844762Y-75584819D01*
X80844762Y-75584819D02*
X80749524Y-75632438D01*
X80749524Y-75632438D02*
X80701905Y-75680057D01*
X80701905Y-75680057D02*
X80654286Y-75775295D01*
X80654286Y-75775295D02*
X80654286Y-76013390D01*
X80654286Y-76013390D02*
X80701905Y-76108628D01*
X80701905Y-76108628D02*
X80749524Y-76156247D01*
X80749524Y-76156247D02*
X80844762Y-76203866D01*
X80844762Y-76203866D02*
X81035238Y-76203866D01*
X81035238Y-76203866D02*
X81130476Y-76156247D01*
X81130476Y-76156247D02*
X81178095Y-76108628D01*
X81178095Y-76108628D02*
X81225714Y-76013390D01*
X79797142Y-89284819D02*
X79463809Y-88808628D01*
X79225714Y-89284819D02*
X79225714Y-88284819D01*
X79225714Y-88284819D02*
X79606666Y-88284819D01*
X79606666Y-88284819D02*
X79701904Y-88332438D01*
X79701904Y-88332438D02*
X79749523Y-88380057D01*
X79749523Y-88380057D02*
X79797142Y-88475295D01*
X79797142Y-88475295D02*
X79797142Y-88618152D01*
X79797142Y-88618152D02*
X79749523Y-88713390D01*
X79749523Y-88713390D02*
X79701904Y-88761009D01*
X79701904Y-88761009D02*
X79606666Y-88808628D01*
X79606666Y-88808628D02*
X79225714Y-88808628D01*
X80749523Y-89284819D02*
X80178095Y-89284819D01*
X80463809Y-89284819D02*
X80463809Y-88284819D01*
X80463809Y-88284819D02*
X80368571Y-88427676D01*
X80368571Y-88427676D02*
X80273333Y-88522914D01*
X80273333Y-88522914D02*
X80178095Y-88570533D01*
X81701904Y-89284819D02*
X81130476Y-89284819D01*
X81416190Y-89284819D02*
X81416190Y-88284819D01*
X81416190Y-88284819D02*
X81320952Y-88427676D01*
X81320952Y-88427676D02*
X81225714Y-88522914D01*
X81225714Y-88522914D02*
X81130476Y-88570533D01*
X231866666Y-85274819D02*
X231866666Y-85989104D01*
X231866666Y-85989104D02*
X231819047Y-86131961D01*
X231819047Y-86131961D02*
X231723809Y-86227200D01*
X231723809Y-86227200D02*
X231580952Y-86274819D01*
X231580952Y-86274819D02*
X231485714Y-86274819D01*
X232771428Y-85274819D02*
X232580952Y-85274819D01*
X232580952Y-85274819D02*
X232485714Y-85322438D01*
X232485714Y-85322438D02*
X232438095Y-85370057D01*
X232438095Y-85370057D02*
X232342857Y-85512914D01*
X232342857Y-85512914D02*
X232295238Y-85703390D01*
X232295238Y-85703390D02*
X232295238Y-86084342D01*
X232295238Y-86084342D02*
X232342857Y-86179580D01*
X232342857Y-86179580D02*
X232390476Y-86227200D01*
X232390476Y-86227200D02*
X232485714Y-86274819D01*
X232485714Y-86274819D02*
X232676190Y-86274819D01*
X232676190Y-86274819D02*
X232771428Y-86227200D01*
X232771428Y-86227200D02*
X232819047Y-86179580D01*
X232819047Y-86179580D02*
X232866666Y-86084342D01*
X232866666Y-86084342D02*
X232866666Y-85846247D01*
X232866666Y-85846247D02*
X232819047Y-85751009D01*
X232819047Y-85751009D02*
X232771428Y-85703390D01*
X232771428Y-85703390D02*
X232676190Y-85655771D01*
X232676190Y-85655771D02*
X232485714Y-85655771D01*
X232485714Y-85655771D02*
X232390476Y-85703390D01*
X232390476Y-85703390D02*
X232342857Y-85751009D01*
X232342857Y-85751009D02*
X232295238Y-85846247D01*
X222666666Y-85274819D02*
X222666666Y-85989104D01*
X222666666Y-85989104D02*
X222619047Y-86131961D01*
X222619047Y-86131961D02*
X222523809Y-86227200D01*
X222523809Y-86227200D02*
X222380952Y-86274819D01*
X222380952Y-86274819D02*
X222285714Y-86274819D01*
X223047619Y-85274819D02*
X223714285Y-85274819D01*
X223714285Y-85274819D02*
X223285714Y-86274819D01*
X214466666Y-84674819D02*
X214466666Y-85389104D01*
X214466666Y-85389104D02*
X214419047Y-85531961D01*
X214419047Y-85531961D02*
X214323809Y-85627200D01*
X214323809Y-85627200D02*
X214180952Y-85674819D01*
X214180952Y-85674819D02*
X214085714Y-85674819D01*
X215085714Y-85103390D02*
X214990476Y-85055771D01*
X214990476Y-85055771D02*
X214942857Y-85008152D01*
X214942857Y-85008152D02*
X214895238Y-84912914D01*
X214895238Y-84912914D02*
X214895238Y-84865295D01*
X214895238Y-84865295D02*
X214942857Y-84770057D01*
X214942857Y-84770057D02*
X214990476Y-84722438D01*
X214990476Y-84722438D02*
X215085714Y-84674819D01*
X215085714Y-84674819D02*
X215276190Y-84674819D01*
X215276190Y-84674819D02*
X215371428Y-84722438D01*
X215371428Y-84722438D02*
X215419047Y-84770057D01*
X215419047Y-84770057D02*
X215466666Y-84865295D01*
X215466666Y-84865295D02*
X215466666Y-84912914D01*
X215466666Y-84912914D02*
X215419047Y-85008152D01*
X215419047Y-85008152D02*
X215371428Y-85055771D01*
X215371428Y-85055771D02*
X215276190Y-85103390D01*
X215276190Y-85103390D02*
X215085714Y-85103390D01*
X215085714Y-85103390D02*
X214990476Y-85151009D01*
X214990476Y-85151009D02*
X214942857Y-85198628D01*
X214942857Y-85198628D02*
X214895238Y-85293866D01*
X214895238Y-85293866D02*
X214895238Y-85484342D01*
X214895238Y-85484342D02*
X214942857Y-85579580D01*
X214942857Y-85579580D02*
X214990476Y-85627200D01*
X214990476Y-85627200D02*
X215085714Y-85674819D01*
X215085714Y-85674819D02*
X215276190Y-85674819D01*
X215276190Y-85674819D02*
X215371428Y-85627200D01*
X215371428Y-85627200D02*
X215419047Y-85579580D01*
X215419047Y-85579580D02*
X215466666Y-85484342D01*
X215466666Y-85484342D02*
X215466666Y-85293866D01*
X215466666Y-85293866D02*
X215419047Y-85198628D01*
X215419047Y-85198628D02*
X215371428Y-85151009D01*
X215371428Y-85151009D02*
X215276190Y-85103390D01*
X204066666Y-85474819D02*
X204066666Y-86189104D01*
X204066666Y-86189104D02*
X204019047Y-86331961D01*
X204019047Y-86331961D02*
X203923809Y-86427200D01*
X203923809Y-86427200D02*
X203780952Y-86474819D01*
X203780952Y-86474819D02*
X203685714Y-86474819D01*
X204590476Y-86474819D02*
X204780952Y-86474819D01*
X204780952Y-86474819D02*
X204876190Y-86427200D01*
X204876190Y-86427200D02*
X204923809Y-86379580D01*
X204923809Y-86379580D02*
X205019047Y-86236723D01*
X205019047Y-86236723D02*
X205066666Y-86046247D01*
X205066666Y-86046247D02*
X205066666Y-85665295D01*
X205066666Y-85665295D02*
X205019047Y-85570057D01*
X205019047Y-85570057D02*
X204971428Y-85522438D01*
X204971428Y-85522438D02*
X204876190Y-85474819D01*
X204876190Y-85474819D02*
X204685714Y-85474819D01*
X204685714Y-85474819D02*
X204590476Y-85522438D01*
X204590476Y-85522438D02*
X204542857Y-85570057D01*
X204542857Y-85570057D02*
X204495238Y-85665295D01*
X204495238Y-85665295D02*
X204495238Y-85903390D01*
X204495238Y-85903390D02*
X204542857Y-85998628D01*
X204542857Y-85998628D02*
X204590476Y-86046247D01*
X204590476Y-86046247D02*
X204685714Y-86093866D01*
X204685714Y-86093866D02*
X204876190Y-86093866D01*
X204876190Y-86093866D02*
X204971428Y-86046247D01*
X204971428Y-86046247D02*
X205019047Y-85998628D01*
X205019047Y-85998628D02*
X205066666Y-85903390D01*
X101757142Y-82684819D02*
X101423809Y-82208628D01*
X101185714Y-82684819D02*
X101185714Y-81684819D01*
X101185714Y-81684819D02*
X101566666Y-81684819D01*
X101566666Y-81684819D02*
X101661904Y-81732438D01*
X101661904Y-81732438D02*
X101709523Y-81780057D01*
X101709523Y-81780057D02*
X101757142Y-81875295D01*
X101757142Y-81875295D02*
X101757142Y-82018152D01*
X101757142Y-82018152D02*
X101709523Y-82113390D01*
X101709523Y-82113390D02*
X101661904Y-82161009D01*
X101661904Y-82161009D02*
X101566666Y-82208628D01*
X101566666Y-82208628D02*
X101185714Y-82208628D01*
X102709523Y-82684819D02*
X102138095Y-82684819D01*
X102423809Y-82684819D02*
X102423809Y-81684819D01*
X102423809Y-81684819D02*
X102328571Y-81827676D01*
X102328571Y-81827676D02*
X102233333Y-81922914D01*
X102233333Y-81922914D02*
X102138095Y-81970533D01*
X103566666Y-82018152D02*
X103566666Y-82684819D01*
X103328571Y-81637200D02*
X103090476Y-82351485D01*
X103090476Y-82351485D02*
X103709523Y-82351485D01*
X164237142Y-96484819D02*
X163903809Y-96008628D01*
X163665714Y-96484819D02*
X163665714Y-95484819D01*
X163665714Y-95484819D02*
X164046666Y-95484819D01*
X164046666Y-95484819D02*
X164141904Y-95532438D01*
X164141904Y-95532438D02*
X164189523Y-95580057D01*
X164189523Y-95580057D02*
X164237142Y-95675295D01*
X164237142Y-95675295D02*
X164237142Y-95818152D01*
X164237142Y-95818152D02*
X164189523Y-95913390D01*
X164189523Y-95913390D02*
X164141904Y-95961009D01*
X164141904Y-95961009D02*
X164046666Y-96008628D01*
X164046666Y-96008628D02*
X163665714Y-96008628D01*
X164618095Y-95580057D02*
X164665714Y-95532438D01*
X164665714Y-95532438D02*
X164760952Y-95484819D01*
X164760952Y-95484819D02*
X164999047Y-95484819D01*
X164999047Y-95484819D02*
X165094285Y-95532438D01*
X165094285Y-95532438D02*
X165141904Y-95580057D01*
X165141904Y-95580057D02*
X165189523Y-95675295D01*
X165189523Y-95675295D02*
X165189523Y-95770533D01*
X165189523Y-95770533D02*
X165141904Y-95913390D01*
X165141904Y-95913390D02*
X164570476Y-96484819D01*
X164570476Y-96484819D02*
X165189523Y-96484819D01*
X165760952Y-95913390D02*
X165665714Y-95865771D01*
X165665714Y-95865771D02*
X165618095Y-95818152D01*
X165618095Y-95818152D02*
X165570476Y-95722914D01*
X165570476Y-95722914D02*
X165570476Y-95675295D01*
X165570476Y-95675295D02*
X165618095Y-95580057D01*
X165618095Y-95580057D02*
X165665714Y-95532438D01*
X165665714Y-95532438D02*
X165760952Y-95484819D01*
X165760952Y-95484819D02*
X165951428Y-95484819D01*
X165951428Y-95484819D02*
X166046666Y-95532438D01*
X166046666Y-95532438D02*
X166094285Y-95580057D01*
X166094285Y-95580057D02*
X166141904Y-95675295D01*
X166141904Y-95675295D02*
X166141904Y-95722914D01*
X166141904Y-95722914D02*
X166094285Y-95818152D01*
X166094285Y-95818152D02*
X166046666Y-95865771D01*
X166046666Y-95865771D02*
X165951428Y-95913390D01*
X165951428Y-95913390D02*
X165760952Y-95913390D01*
X165760952Y-95913390D02*
X165665714Y-95961009D01*
X165665714Y-95961009D02*
X165618095Y-96008628D01*
X165618095Y-96008628D02*
X165570476Y-96103866D01*
X165570476Y-96103866D02*
X165570476Y-96294342D01*
X165570476Y-96294342D02*
X165618095Y-96389580D01*
X165618095Y-96389580D02*
X165665714Y-96437200D01*
X165665714Y-96437200D02*
X165760952Y-96484819D01*
X165760952Y-96484819D02*
X165951428Y-96484819D01*
X165951428Y-96484819D02*
X166046666Y-96437200D01*
X166046666Y-96437200D02*
X166094285Y-96389580D01*
X166094285Y-96389580D02*
X166141904Y-96294342D01*
X166141904Y-96294342D02*
X166141904Y-96103866D01*
X166141904Y-96103866D02*
X166094285Y-96008628D01*
X166094285Y-96008628D02*
X166046666Y-95961009D01*
X166046666Y-95961009D02*
X165951428Y-95913390D01*
X194450714Y-67294819D02*
X194450714Y-66294819D01*
X194450714Y-66294819D02*
X194688809Y-66294819D01*
X194688809Y-66294819D02*
X194831666Y-66342438D01*
X194831666Y-66342438D02*
X194926904Y-66437676D01*
X194926904Y-66437676D02*
X194974523Y-66532914D01*
X194974523Y-66532914D02*
X195022142Y-66723390D01*
X195022142Y-66723390D02*
X195022142Y-66866247D01*
X195022142Y-66866247D02*
X194974523Y-67056723D01*
X194974523Y-67056723D02*
X194926904Y-67151961D01*
X194926904Y-67151961D02*
X194831666Y-67247200D01*
X194831666Y-67247200D02*
X194688809Y-67294819D01*
X194688809Y-67294819D02*
X194450714Y-67294819D01*
X195403095Y-66390057D02*
X195450714Y-66342438D01*
X195450714Y-66342438D02*
X195545952Y-66294819D01*
X195545952Y-66294819D02*
X195784047Y-66294819D01*
X195784047Y-66294819D02*
X195879285Y-66342438D01*
X195879285Y-66342438D02*
X195926904Y-66390057D01*
X195926904Y-66390057D02*
X195974523Y-66485295D01*
X195974523Y-66485295D02*
X195974523Y-66580533D01*
X195974523Y-66580533D02*
X195926904Y-66723390D01*
X195926904Y-66723390D02*
X195355476Y-67294819D01*
X195355476Y-67294819D02*
X195974523Y-67294819D01*
X196450714Y-67294819D02*
X196641190Y-67294819D01*
X196641190Y-67294819D02*
X196736428Y-67247200D01*
X196736428Y-67247200D02*
X196784047Y-67199580D01*
X196784047Y-67199580D02*
X196879285Y-67056723D01*
X196879285Y-67056723D02*
X196926904Y-66866247D01*
X196926904Y-66866247D02*
X196926904Y-66485295D01*
X196926904Y-66485295D02*
X196879285Y-66390057D01*
X196879285Y-66390057D02*
X196831666Y-66342438D01*
X196831666Y-66342438D02*
X196736428Y-66294819D01*
X196736428Y-66294819D02*
X196545952Y-66294819D01*
X196545952Y-66294819D02*
X196450714Y-66342438D01*
X196450714Y-66342438D02*
X196403095Y-66390057D01*
X196403095Y-66390057D02*
X196355476Y-66485295D01*
X196355476Y-66485295D02*
X196355476Y-66723390D01*
X196355476Y-66723390D02*
X196403095Y-66818628D01*
X196403095Y-66818628D02*
X196450714Y-66866247D01*
X196450714Y-66866247D02*
X196545952Y-66913866D01*
X196545952Y-66913866D02*
X196736428Y-66913866D01*
X196736428Y-66913866D02*
X196831666Y-66866247D01*
X196831666Y-66866247D02*
X196879285Y-66818628D01*
X196879285Y-66818628D02*
X196926904Y-66723390D01*
X143237142Y-96884819D02*
X142903809Y-96408628D01*
X142665714Y-96884819D02*
X142665714Y-95884819D01*
X142665714Y-95884819D02*
X143046666Y-95884819D01*
X143046666Y-95884819D02*
X143141904Y-95932438D01*
X143141904Y-95932438D02*
X143189523Y-95980057D01*
X143189523Y-95980057D02*
X143237142Y-96075295D01*
X143237142Y-96075295D02*
X143237142Y-96218152D01*
X143237142Y-96218152D02*
X143189523Y-96313390D01*
X143189523Y-96313390D02*
X143141904Y-96361009D01*
X143141904Y-96361009D02*
X143046666Y-96408628D01*
X143046666Y-96408628D02*
X142665714Y-96408628D01*
X143618095Y-95980057D02*
X143665714Y-95932438D01*
X143665714Y-95932438D02*
X143760952Y-95884819D01*
X143760952Y-95884819D02*
X143999047Y-95884819D01*
X143999047Y-95884819D02*
X144094285Y-95932438D01*
X144094285Y-95932438D02*
X144141904Y-95980057D01*
X144141904Y-95980057D02*
X144189523Y-96075295D01*
X144189523Y-96075295D02*
X144189523Y-96170533D01*
X144189523Y-96170533D02*
X144141904Y-96313390D01*
X144141904Y-96313390D02*
X143570476Y-96884819D01*
X143570476Y-96884819D02*
X144189523Y-96884819D01*
X145046666Y-96218152D02*
X145046666Y-96884819D01*
X144808571Y-95837200D02*
X144570476Y-96551485D01*
X144570476Y-96551485D02*
X145189523Y-96551485D01*
X110785714Y-76974819D02*
X110785714Y-75974819D01*
X110785714Y-75974819D02*
X111023809Y-75974819D01*
X111023809Y-75974819D02*
X111166666Y-76022438D01*
X111166666Y-76022438D02*
X111261904Y-76117676D01*
X111261904Y-76117676D02*
X111309523Y-76212914D01*
X111309523Y-76212914D02*
X111357142Y-76403390D01*
X111357142Y-76403390D02*
X111357142Y-76546247D01*
X111357142Y-76546247D02*
X111309523Y-76736723D01*
X111309523Y-76736723D02*
X111261904Y-76831961D01*
X111261904Y-76831961D02*
X111166666Y-76927200D01*
X111166666Y-76927200D02*
X111023809Y-76974819D01*
X111023809Y-76974819D02*
X110785714Y-76974819D01*
X112309523Y-76974819D02*
X111738095Y-76974819D01*
X112023809Y-76974819D02*
X112023809Y-75974819D01*
X112023809Y-75974819D02*
X111928571Y-76117676D01*
X111928571Y-76117676D02*
X111833333Y-76212914D01*
X111833333Y-76212914D02*
X111738095Y-76260533D01*
X113166666Y-76308152D02*
X113166666Y-76974819D01*
X112928571Y-75927200D02*
X112690476Y-76641485D01*
X112690476Y-76641485D02*
X113309523Y-76641485D01*
X121557142Y-83484819D02*
X121223809Y-83008628D01*
X120985714Y-83484819D02*
X120985714Y-82484819D01*
X120985714Y-82484819D02*
X121366666Y-82484819D01*
X121366666Y-82484819D02*
X121461904Y-82532438D01*
X121461904Y-82532438D02*
X121509523Y-82580057D01*
X121509523Y-82580057D02*
X121557142Y-82675295D01*
X121557142Y-82675295D02*
X121557142Y-82818152D01*
X121557142Y-82818152D02*
X121509523Y-82913390D01*
X121509523Y-82913390D02*
X121461904Y-82961009D01*
X121461904Y-82961009D02*
X121366666Y-83008628D01*
X121366666Y-83008628D02*
X120985714Y-83008628D01*
X122509523Y-83484819D02*
X121938095Y-83484819D01*
X122223809Y-83484819D02*
X122223809Y-82484819D01*
X122223809Y-82484819D02*
X122128571Y-82627676D01*
X122128571Y-82627676D02*
X122033333Y-82722914D01*
X122033333Y-82722914D02*
X121938095Y-82770533D01*
X123080952Y-82913390D02*
X122985714Y-82865771D01*
X122985714Y-82865771D02*
X122938095Y-82818152D01*
X122938095Y-82818152D02*
X122890476Y-82722914D01*
X122890476Y-82722914D02*
X122890476Y-82675295D01*
X122890476Y-82675295D02*
X122938095Y-82580057D01*
X122938095Y-82580057D02*
X122985714Y-82532438D01*
X122985714Y-82532438D02*
X123080952Y-82484819D01*
X123080952Y-82484819D02*
X123271428Y-82484819D01*
X123271428Y-82484819D02*
X123366666Y-82532438D01*
X123366666Y-82532438D02*
X123414285Y-82580057D01*
X123414285Y-82580057D02*
X123461904Y-82675295D01*
X123461904Y-82675295D02*
X123461904Y-82722914D01*
X123461904Y-82722914D02*
X123414285Y-82818152D01*
X123414285Y-82818152D02*
X123366666Y-82865771D01*
X123366666Y-82865771D02*
X123271428Y-82913390D01*
X123271428Y-82913390D02*
X123080952Y-82913390D01*
X123080952Y-82913390D02*
X122985714Y-82961009D01*
X122985714Y-82961009D02*
X122938095Y-83008628D01*
X122938095Y-83008628D02*
X122890476Y-83103866D01*
X122890476Y-83103866D02*
X122890476Y-83294342D01*
X122890476Y-83294342D02*
X122938095Y-83389580D01*
X122938095Y-83389580D02*
X122985714Y-83437200D01*
X122985714Y-83437200D02*
X123080952Y-83484819D01*
X123080952Y-83484819D02*
X123271428Y-83484819D01*
X123271428Y-83484819D02*
X123366666Y-83437200D01*
X123366666Y-83437200D02*
X123414285Y-83389580D01*
X123414285Y-83389580D02*
X123461904Y-83294342D01*
X123461904Y-83294342D02*
X123461904Y-83103866D01*
X123461904Y-83103866D02*
X123414285Y-83008628D01*
X123414285Y-83008628D02*
X123366666Y-82961009D01*
X123366666Y-82961009D02*
X123271428Y-82913390D01*
X142557142Y-77484819D02*
X142223809Y-77008628D01*
X141985714Y-77484819D02*
X141985714Y-76484819D01*
X141985714Y-76484819D02*
X142366666Y-76484819D01*
X142366666Y-76484819D02*
X142461904Y-76532438D01*
X142461904Y-76532438D02*
X142509523Y-76580057D01*
X142509523Y-76580057D02*
X142557142Y-76675295D01*
X142557142Y-76675295D02*
X142557142Y-76818152D01*
X142557142Y-76818152D02*
X142509523Y-76913390D01*
X142509523Y-76913390D02*
X142461904Y-76961009D01*
X142461904Y-76961009D02*
X142366666Y-77008628D01*
X142366666Y-77008628D02*
X141985714Y-77008628D01*
X142938095Y-76580057D02*
X142985714Y-76532438D01*
X142985714Y-76532438D02*
X143080952Y-76484819D01*
X143080952Y-76484819D02*
X143319047Y-76484819D01*
X143319047Y-76484819D02*
X143414285Y-76532438D01*
X143414285Y-76532438D02*
X143461904Y-76580057D01*
X143461904Y-76580057D02*
X143509523Y-76675295D01*
X143509523Y-76675295D02*
X143509523Y-76770533D01*
X143509523Y-76770533D02*
X143461904Y-76913390D01*
X143461904Y-76913390D02*
X142890476Y-77484819D01*
X142890476Y-77484819D02*
X143509523Y-77484819D01*
X144461904Y-77484819D02*
X143890476Y-77484819D01*
X144176190Y-77484819D02*
X144176190Y-76484819D01*
X144176190Y-76484819D02*
X144080952Y-76627676D01*
X144080952Y-76627676D02*
X143985714Y-76722914D01*
X143985714Y-76722914D02*
X143890476Y-76770533D01*
X152515714Y-67694819D02*
X152515714Y-66694819D01*
X152515714Y-66694819D02*
X152753809Y-66694819D01*
X152753809Y-66694819D02*
X152896666Y-66742438D01*
X152896666Y-66742438D02*
X152991904Y-66837676D01*
X152991904Y-66837676D02*
X153039523Y-66932914D01*
X153039523Y-66932914D02*
X153087142Y-67123390D01*
X153087142Y-67123390D02*
X153087142Y-67266247D01*
X153087142Y-67266247D02*
X153039523Y-67456723D01*
X153039523Y-67456723D02*
X152991904Y-67551961D01*
X152991904Y-67551961D02*
X152896666Y-67647200D01*
X152896666Y-67647200D02*
X152753809Y-67694819D01*
X152753809Y-67694819D02*
X152515714Y-67694819D01*
X153468095Y-66790057D02*
X153515714Y-66742438D01*
X153515714Y-66742438D02*
X153610952Y-66694819D01*
X153610952Y-66694819D02*
X153849047Y-66694819D01*
X153849047Y-66694819D02*
X153944285Y-66742438D01*
X153944285Y-66742438D02*
X153991904Y-66790057D01*
X153991904Y-66790057D02*
X154039523Y-66885295D01*
X154039523Y-66885295D02*
X154039523Y-66980533D01*
X154039523Y-66980533D02*
X153991904Y-67123390D01*
X153991904Y-67123390D02*
X153420476Y-67694819D01*
X153420476Y-67694819D02*
X154039523Y-67694819D01*
X154991904Y-67694819D02*
X154420476Y-67694819D01*
X154706190Y-67694819D02*
X154706190Y-66694819D01*
X154706190Y-66694819D02*
X154610952Y-66837676D01*
X154610952Y-66837676D02*
X154515714Y-66932914D01*
X154515714Y-66932914D02*
X154420476Y-66980533D01*
X131540714Y-76754819D02*
X131540714Y-75754819D01*
X131540714Y-75754819D02*
X131778809Y-75754819D01*
X131778809Y-75754819D02*
X131921666Y-75802438D01*
X131921666Y-75802438D02*
X132016904Y-75897676D01*
X132016904Y-75897676D02*
X132064523Y-75992914D01*
X132064523Y-75992914D02*
X132112142Y-76183390D01*
X132112142Y-76183390D02*
X132112142Y-76326247D01*
X132112142Y-76326247D02*
X132064523Y-76516723D01*
X132064523Y-76516723D02*
X132016904Y-76611961D01*
X132016904Y-76611961D02*
X131921666Y-76707200D01*
X131921666Y-76707200D02*
X131778809Y-76754819D01*
X131778809Y-76754819D02*
X131540714Y-76754819D01*
X133064523Y-76754819D02*
X132493095Y-76754819D01*
X132778809Y-76754819D02*
X132778809Y-75754819D01*
X132778809Y-75754819D02*
X132683571Y-75897676D01*
X132683571Y-75897676D02*
X132588333Y-75992914D01*
X132588333Y-75992914D02*
X132493095Y-76040533D01*
X133635952Y-76183390D02*
X133540714Y-76135771D01*
X133540714Y-76135771D02*
X133493095Y-76088152D01*
X133493095Y-76088152D02*
X133445476Y-75992914D01*
X133445476Y-75992914D02*
X133445476Y-75945295D01*
X133445476Y-75945295D02*
X133493095Y-75850057D01*
X133493095Y-75850057D02*
X133540714Y-75802438D01*
X133540714Y-75802438D02*
X133635952Y-75754819D01*
X133635952Y-75754819D02*
X133826428Y-75754819D01*
X133826428Y-75754819D02*
X133921666Y-75802438D01*
X133921666Y-75802438D02*
X133969285Y-75850057D01*
X133969285Y-75850057D02*
X134016904Y-75945295D01*
X134016904Y-75945295D02*
X134016904Y-75992914D01*
X134016904Y-75992914D02*
X133969285Y-76088152D01*
X133969285Y-76088152D02*
X133921666Y-76135771D01*
X133921666Y-76135771D02*
X133826428Y-76183390D01*
X133826428Y-76183390D02*
X133635952Y-76183390D01*
X133635952Y-76183390D02*
X133540714Y-76231009D01*
X133540714Y-76231009D02*
X133493095Y-76278628D01*
X133493095Y-76278628D02*
X133445476Y-76373866D01*
X133445476Y-76373866D02*
X133445476Y-76564342D01*
X133445476Y-76564342D02*
X133493095Y-76659580D01*
X133493095Y-76659580D02*
X133540714Y-76707200D01*
X133540714Y-76707200D02*
X133635952Y-76754819D01*
X133635952Y-76754819D02*
X133826428Y-76754819D01*
X133826428Y-76754819D02*
X133921666Y-76707200D01*
X133921666Y-76707200D02*
X133969285Y-76659580D01*
X133969285Y-76659580D02*
X134016904Y-76564342D01*
X134016904Y-76564342D02*
X134016904Y-76373866D01*
X134016904Y-76373866D02*
X133969285Y-76278628D01*
X133969285Y-76278628D02*
X133921666Y-76231009D01*
X133921666Y-76231009D02*
X133826428Y-76183390D01*
X242838095Y-108404819D02*
X242838095Y-107404819D01*
X242838095Y-107881009D02*
X243409523Y-107881009D01*
X243409523Y-108404819D02*
X243409523Y-107404819D01*
X243790476Y-107404819D02*
X244409523Y-107404819D01*
X244409523Y-107404819D02*
X244076190Y-107785771D01*
X244076190Y-107785771D02*
X244219047Y-107785771D01*
X244219047Y-107785771D02*
X244314285Y-107833390D01*
X244314285Y-107833390D02*
X244361904Y-107881009D01*
X244361904Y-107881009D02*
X244409523Y-107976247D01*
X244409523Y-107976247D02*
X244409523Y-108214342D01*
X244409523Y-108214342D02*
X244361904Y-108309580D01*
X244361904Y-108309580D02*
X244314285Y-108357200D01*
X244314285Y-108357200D02*
X244219047Y-108404819D01*
X244219047Y-108404819D02*
X243933333Y-108404819D01*
X243933333Y-108404819D02*
X243838095Y-108357200D01*
X243838095Y-108357200D02*
X243790476Y-108309580D01*
X174385714Y-96494819D02*
X174385714Y-95494819D01*
X174385714Y-95494819D02*
X174623809Y-95494819D01*
X174623809Y-95494819D02*
X174766666Y-95542438D01*
X174766666Y-95542438D02*
X174861904Y-95637676D01*
X174861904Y-95637676D02*
X174909523Y-95732914D01*
X174909523Y-95732914D02*
X174957142Y-95923390D01*
X174957142Y-95923390D02*
X174957142Y-96066247D01*
X174957142Y-96066247D02*
X174909523Y-96256723D01*
X174909523Y-96256723D02*
X174861904Y-96351961D01*
X174861904Y-96351961D02*
X174766666Y-96447200D01*
X174766666Y-96447200D02*
X174623809Y-96494819D01*
X174623809Y-96494819D02*
X174385714Y-96494819D01*
X175338095Y-95590057D02*
X175385714Y-95542438D01*
X175385714Y-95542438D02*
X175480952Y-95494819D01*
X175480952Y-95494819D02*
X175719047Y-95494819D01*
X175719047Y-95494819D02*
X175814285Y-95542438D01*
X175814285Y-95542438D02*
X175861904Y-95590057D01*
X175861904Y-95590057D02*
X175909523Y-95685295D01*
X175909523Y-95685295D02*
X175909523Y-95780533D01*
X175909523Y-95780533D02*
X175861904Y-95923390D01*
X175861904Y-95923390D02*
X175290476Y-96494819D01*
X175290476Y-96494819D02*
X175909523Y-96494819D01*
X176480952Y-95923390D02*
X176385714Y-95875771D01*
X176385714Y-95875771D02*
X176338095Y-95828152D01*
X176338095Y-95828152D02*
X176290476Y-95732914D01*
X176290476Y-95732914D02*
X176290476Y-95685295D01*
X176290476Y-95685295D02*
X176338095Y-95590057D01*
X176338095Y-95590057D02*
X176385714Y-95542438D01*
X176385714Y-95542438D02*
X176480952Y-95494819D01*
X176480952Y-95494819D02*
X176671428Y-95494819D01*
X176671428Y-95494819D02*
X176766666Y-95542438D01*
X176766666Y-95542438D02*
X176814285Y-95590057D01*
X176814285Y-95590057D02*
X176861904Y-95685295D01*
X176861904Y-95685295D02*
X176861904Y-95732914D01*
X176861904Y-95732914D02*
X176814285Y-95828152D01*
X176814285Y-95828152D02*
X176766666Y-95875771D01*
X176766666Y-95875771D02*
X176671428Y-95923390D01*
X176671428Y-95923390D02*
X176480952Y-95923390D01*
X176480952Y-95923390D02*
X176385714Y-95971009D01*
X176385714Y-95971009D02*
X176338095Y-96018628D01*
X176338095Y-96018628D02*
X176290476Y-96113866D01*
X176290476Y-96113866D02*
X176290476Y-96304342D01*
X176290476Y-96304342D02*
X176338095Y-96399580D01*
X176338095Y-96399580D02*
X176385714Y-96447200D01*
X176385714Y-96447200D02*
X176480952Y-96494819D01*
X176480952Y-96494819D02*
X176671428Y-96494819D01*
X176671428Y-96494819D02*
X176766666Y-96447200D01*
X176766666Y-96447200D02*
X176814285Y-96399580D01*
X176814285Y-96399580D02*
X176861904Y-96304342D01*
X176861904Y-96304342D02*
X176861904Y-96113866D01*
X176861904Y-96113866D02*
X176814285Y-96018628D01*
X176814285Y-96018628D02*
X176766666Y-95971009D01*
X176766666Y-95971009D02*
X176671428Y-95923390D01*
X194515714Y-96494819D02*
X194515714Y-95494819D01*
X194515714Y-95494819D02*
X194753809Y-95494819D01*
X194753809Y-95494819D02*
X194896666Y-95542438D01*
X194896666Y-95542438D02*
X194991904Y-95637676D01*
X194991904Y-95637676D02*
X195039523Y-95732914D01*
X195039523Y-95732914D02*
X195087142Y-95923390D01*
X195087142Y-95923390D02*
X195087142Y-96066247D01*
X195087142Y-96066247D02*
X195039523Y-96256723D01*
X195039523Y-96256723D02*
X194991904Y-96351961D01*
X194991904Y-96351961D02*
X194896666Y-96447200D01*
X194896666Y-96447200D02*
X194753809Y-96494819D01*
X194753809Y-96494819D02*
X194515714Y-96494819D01*
X195420476Y-95494819D02*
X196039523Y-95494819D01*
X196039523Y-95494819D02*
X195706190Y-95875771D01*
X195706190Y-95875771D02*
X195849047Y-95875771D01*
X195849047Y-95875771D02*
X195944285Y-95923390D01*
X195944285Y-95923390D02*
X195991904Y-95971009D01*
X195991904Y-95971009D02*
X196039523Y-96066247D01*
X196039523Y-96066247D02*
X196039523Y-96304342D01*
X196039523Y-96304342D02*
X195991904Y-96399580D01*
X195991904Y-96399580D02*
X195944285Y-96447200D01*
X195944285Y-96447200D02*
X195849047Y-96494819D01*
X195849047Y-96494819D02*
X195563333Y-96494819D01*
X195563333Y-96494819D02*
X195468095Y-96447200D01*
X195468095Y-96447200D02*
X195420476Y-96399580D01*
X196420476Y-95590057D02*
X196468095Y-95542438D01*
X196468095Y-95542438D02*
X196563333Y-95494819D01*
X196563333Y-95494819D02*
X196801428Y-95494819D01*
X196801428Y-95494819D02*
X196896666Y-95542438D01*
X196896666Y-95542438D02*
X196944285Y-95590057D01*
X196944285Y-95590057D02*
X196991904Y-95685295D01*
X196991904Y-95685295D02*
X196991904Y-95780533D01*
X196991904Y-95780533D02*
X196944285Y-95923390D01*
X196944285Y-95923390D02*
X196372857Y-96494819D01*
X196372857Y-96494819D02*
X196991904Y-96494819D01*
X101757142Y-89084819D02*
X101423809Y-88608628D01*
X101185714Y-89084819D02*
X101185714Y-88084819D01*
X101185714Y-88084819D02*
X101566666Y-88084819D01*
X101566666Y-88084819D02*
X101661904Y-88132438D01*
X101661904Y-88132438D02*
X101709523Y-88180057D01*
X101709523Y-88180057D02*
X101757142Y-88275295D01*
X101757142Y-88275295D02*
X101757142Y-88418152D01*
X101757142Y-88418152D02*
X101709523Y-88513390D01*
X101709523Y-88513390D02*
X101661904Y-88561009D01*
X101661904Y-88561009D02*
X101566666Y-88608628D01*
X101566666Y-88608628D02*
X101185714Y-88608628D01*
X102709523Y-89084819D02*
X102138095Y-89084819D01*
X102423809Y-89084819D02*
X102423809Y-88084819D01*
X102423809Y-88084819D02*
X102328571Y-88227676D01*
X102328571Y-88227676D02*
X102233333Y-88322914D01*
X102233333Y-88322914D02*
X102138095Y-88370533D01*
X103614285Y-88084819D02*
X103138095Y-88084819D01*
X103138095Y-88084819D02*
X103090476Y-88561009D01*
X103090476Y-88561009D02*
X103138095Y-88513390D01*
X103138095Y-88513390D02*
X103233333Y-88465771D01*
X103233333Y-88465771D02*
X103471428Y-88465771D01*
X103471428Y-88465771D02*
X103566666Y-88513390D01*
X103566666Y-88513390D02*
X103614285Y-88561009D01*
X103614285Y-88561009D02*
X103661904Y-88656247D01*
X103661904Y-88656247D02*
X103661904Y-88894342D01*
X103661904Y-88894342D02*
X103614285Y-88989580D01*
X103614285Y-88989580D02*
X103566666Y-89037200D01*
X103566666Y-89037200D02*
X103471428Y-89084819D01*
X103471428Y-89084819D02*
X103233333Y-89084819D01*
X103233333Y-89084819D02*
X103138095Y-89037200D01*
X103138095Y-89037200D02*
X103090476Y-88989580D01*
X142837142Y-90084819D02*
X142503809Y-89608628D01*
X142265714Y-90084819D02*
X142265714Y-89084819D01*
X142265714Y-89084819D02*
X142646666Y-89084819D01*
X142646666Y-89084819D02*
X142741904Y-89132438D01*
X142741904Y-89132438D02*
X142789523Y-89180057D01*
X142789523Y-89180057D02*
X142837142Y-89275295D01*
X142837142Y-89275295D02*
X142837142Y-89418152D01*
X142837142Y-89418152D02*
X142789523Y-89513390D01*
X142789523Y-89513390D02*
X142741904Y-89561009D01*
X142741904Y-89561009D02*
X142646666Y-89608628D01*
X142646666Y-89608628D02*
X142265714Y-89608628D01*
X143218095Y-89180057D02*
X143265714Y-89132438D01*
X143265714Y-89132438D02*
X143360952Y-89084819D01*
X143360952Y-89084819D02*
X143599047Y-89084819D01*
X143599047Y-89084819D02*
X143694285Y-89132438D01*
X143694285Y-89132438D02*
X143741904Y-89180057D01*
X143741904Y-89180057D02*
X143789523Y-89275295D01*
X143789523Y-89275295D02*
X143789523Y-89370533D01*
X143789523Y-89370533D02*
X143741904Y-89513390D01*
X143741904Y-89513390D02*
X143170476Y-90084819D01*
X143170476Y-90084819D02*
X143789523Y-90084819D01*
X144122857Y-89084819D02*
X144741904Y-89084819D01*
X144741904Y-89084819D02*
X144408571Y-89465771D01*
X144408571Y-89465771D02*
X144551428Y-89465771D01*
X144551428Y-89465771D02*
X144646666Y-89513390D01*
X144646666Y-89513390D02*
X144694285Y-89561009D01*
X144694285Y-89561009D02*
X144741904Y-89656247D01*
X144741904Y-89656247D02*
X144741904Y-89894342D01*
X144741904Y-89894342D02*
X144694285Y-89989580D01*
X144694285Y-89989580D02*
X144646666Y-90037200D01*
X144646666Y-90037200D02*
X144551428Y-90084819D01*
X144551428Y-90084819D02*
X144265714Y-90084819D01*
X144265714Y-90084819D02*
X144170476Y-90037200D01*
X144170476Y-90037200D02*
X144122857Y-89989580D01*
X110985714Y-96574819D02*
X110985714Y-95574819D01*
X110985714Y-95574819D02*
X111223809Y-95574819D01*
X111223809Y-95574819D02*
X111366666Y-95622438D01*
X111366666Y-95622438D02*
X111461904Y-95717676D01*
X111461904Y-95717676D02*
X111509523Y-95812914D01*
X111509523Y-95812914D02*
X111557142Y-96003390D01*
X111557142Y-96003390D02*
X111557142Y-96146247D01*
X111557142Y-96146247D02*
X111509523Y-96336723D01*
X111509523Y-96336723D02*
X111461904Y-96431961D01*
X111461904Y-96431961D02*
X111366666Y-96527200D01*
X111366666Y-96527200D02*
X111223809Y-96574819D01*
X111223809Y-96574819D02*
X110985714Y-96574819D01*
X112509523Y-96574819D02*
X111938095Y-96574819D01*
X112223809Y-96574819D02*
X112223809Y-95574819D01*
X112223809Y-95574819D02*
X112128571Y-95717676D01*
X112128571Y-95717676D02*
X112033333Y-95812914D01*
X112033333Y-95812914D02*
X111938095Y-95860533D01*
X113366666Y-95574819D02*
X113176190Y-95574819D01*
X113176190Y-95574819D02*
X113080952Y-95622438D01*
X113080952Y-95622438D02*
X113033333Y-95670057D01*
X113033333Y-95670057D02*
X112938095Y-95812914D01*
X112938095Y-95812914D02*
X112890476Y-96003390D01*
X112890476Y-96003390D02*
X112890476Y-96384342D01*
X112890476Y-96384342D02*
X112938095Y-96479580D01*
X112938095Y-96479580D02*
X112985714Y-96527200D01*
X112985714Y-96527200D02*
X113080952Y-96574819D01*
X113080952Y-96574819D02*
X113271428Y-96574819D01*
X113271428Y-96574819D02*
X113366666Y-96527200D01*
X113366666Y-96527200D02*
X113414285Y-96479580D01*
X113414285Y-96479580D02*
X113461904Y-96384342D01*
X113461904Y-96384342D02*
X113461904Y-96146247D01*
X113461904Y-96146247D02*
X113414285Y-96051009D01*
X113414285Y-96051009D02*
X113366666Y-96003390D01*
X113366666Y-96003390D02*
X113271428Y-95955771D01*
X113271428Y-95955771D02*
X113080952Y-95955771D01*
X113080952Y-95955771D02*
X112985714Y-96003390D01*
X112985714Y-96003390D02*
X112938095Y-96051009D01*
X112938095Y-96051009D02*
X112890476Y-96146247D01*
X174185714Y-86694819D02*
X174185714Y-85694819D01*
X174185714Y-85694819D02*
X174423809Y-85694819D01*
X174423809Y-85694819D02*
X174566666Y-85742438D01*
X174566666Y-85742438D02*
X174661904Y-85837676D01*
X174661904Y-85837676D02*
X174709523Y-85932914D01*
X174709523Y-85932914D02*
X174757142Y-86123390D01*
X174757142Y-86123390D02*
X174757142Y-86266247D01*
X174757142Y-86266247D02*
X174709523Y-86456723D01*
X174709523Y-86456723D02*
X174661904Y-86551961D01*
X174661904Y-86551961D02*
X174566666Y-86647200D01*
X174566666Y-86647200D02*
X174423809Y-86694819D01*
X174423809Y-86694819D02*
X174185714Y-86694819D01*
X175138095Y-85790057D02*
X175185714Y-85742438D01*
X175185714Y-85742438D02*
X175280952Y-85694819D01*
X175280952Y-85694819D02*
X175519047Y-85694819D01*
X175519047Y-85694819D02*
X175614285Y-85742438D01*
X175614285Y-85742438D02*
X175661904Y-85790057D01*
X175661904Y-85790057D02*
X175709523Y-85885295D01*
X175709523Y-85885295D02*
X175709523Y-85980533D01*
X175709523Y-85980533D02*
X175661904Y-86123390D01*
X175661904Y-86123390D02*
X175090476Y-86694819D01*
X175090476Y-86694819D02*
X175709523Y-86694819D01*
X176042857Y-85694819D02*
X176709523Y-85694819D01*
X176709523Y-85694819D02*
X176280952Y-86694819D01*
X111055714Y-86704819D02*
X111055714Y-85704819D01*
X111055714Y-85704819D02*
X111293809Y-85704819D01*
X111293809Y-85704819D02*
X111436666Y-85752438D01*
X111436666Y-85752438D02*
X111531904Y-85847676D01*
X111531904Y-85847676D02*
X111579523Y-85942914D01*
X111579523Y-85942914D02*
X111627142Y-86133390D01*
X111627142Y-86133390D02*
X111627142Y-86276247D01*
X111627142Y-86276247D02*
X111579523Y-86466723D01*
X111579523Y-86466723D02*
X111531904Y-86561961D01*
X111531904Y-86561961D02*
X111436666Y-86657200D01*
X111436666Y-86657200D02*
X111293809Y-86704819D01*
X111293809Y-86704819D02*
X111055714Y-86704819D01*
X112579523Y-86704819D02*
X112008095Y-86704819D01*
X112293809Y-86704819D02*
X112293809Y-85704819D01*
X112293809Y-85704819D02*
X112198571Y-85847676D01*
X112198571Y-85847676D02*
X112103333Y-85942914D01*
X112103333Y-85942914D02*
X112008095Y-85990533D01*
X113484285Y-85704819D02*
X113008095Y-85704819D01*
X113008095Y-85704819D02*
X112960476Y-86181009D01*
X112960476Y-86181009D02*
X113008095Y-86133390D01*
X113008095Y-86133390D02*
X113103333Y-86085771D01*
X113103333Y-86085771D02*
X113341428Y-86085771D01*
X113341428Y-86085771D02*
X113436666Y-86133390D01*
X113436666Y-86133390D02*
X113484285Y-86181009D01*
X113484285Y-86181009D02*
X113531904Y-86276247D01*
X113531904Y-86276247D02*
X113531904Y-86514342D01*
X113531904Y-86514342D02*
X113484285Y-86609580D01*
X113484285Y-86609580D02*
X113436666Y-86657200D01*
X113436666Y-86657200D02*
X113341428Y-86704819D01*
X113341428Y-86704819D02*
X113103333Y-86704819D01*
X113103333Y-86704819D02*
X113008095Y-86657200D01*
X113008095Y-86657200D02*
X112960476Y-86609580D01*
X164037142Y-83884819D02*
X163703809Y-83408628D01*
X163465714Y-83884819D02*
X163465714Y-82884819D01*
X163465714Y-82884819D02*
X163846666Y-82884819D01*
X163846666Y-82884819D02*
X163941904Y-82932438D01*
X163941904Y-82932438D02*
X163989523Y-82980057D01*
X163989523Y-82980057D02*
X164037142Y-83075295D01*
X164037142Y-83075295D02*
X164037142Y-83218152D01*
X164037142Y-83218152D02*
X163989523Y-83313390D01*
X163989523Y-83313390D02*
X163941904Y-83361009D01*
X163941904Y-83361009D02*
X163846666Y-83408628D01*
X163846666Y-83408628D02*
X163465714Y-83408628D01*
X164418095Y-82980057D02*
X164465714Y-82932438D01*
X164465714Y-82932438D02*
X164560952Y-82884819D01*
X164560952Y-82884819D02*
X164799047Y-82884819D01*
X164799047Y-82884819D02*
X164894285Y-82932438D01*
X164894285Y-82932438D02*
X164941904Y-82980057D01*
X164941904Y-82980057D02*
X164989523Y-83075295D01*
X164989523Y-83075295D02*
X164989523Y-83170533D01*
X164989523Y-83170533D02*
X164941904Y-83313390D01*
X164941904Y-83313390D02*
X164370476Y-83884819D01*
X164370476Y-83884819D02*
X164989523Y-83884819D01*
X165846666Y-82884819D02*
X165656190Y-82884819D01*
X165656190Y-82884819D02*
X165560952Y-82932438D01*
X165560952Y-82932438D02*
X165513333Y-82980057D01*
X165513333Y-82980057D02*
X165418095Y-83122914D01*
X165418095Y-83122914D02*
X165370476Y-83313390D01*
X165370476Y-83313390D02*
X165370476Y-83694342D01*
X165370476Y-83694342D02*
X165418095Y-83789580D01*
X165418095Y-83789580D02*
X165465714Y-83837200D01*
X165465714Y-83837200D02*
X165560952Y-83884819D01*
X165560952Y-83884819D02*
X165751428Y-83884819D01*
X165751428Y-83884819D02*
X165846666Y-83837200D01*
X165846666Y-83837200D02*
X165894285Y-83789580D01*
X165894285Y-83789580D02*
X165941904Y-83694342D01*
X165941904Y-83694342D02*
X165941904Y-83456247D01*
X165941904Y-83456247D02*
X165894285Y-83361009D01*
X165894285Y-83361009D02*
X165846666Y-83313390D01*
X165846666Y-83313390D02*
X165751428Y-83265771D01*
X165751428Y-83265771D02*
X165560952Y-83265771D01*
X165560952Y-83265771D02*
X165465714Y-83313390D01*
X165465714Y-83313390D02*
X165418095Y-83361009D01*
X165418095Y-83361009D02*
X165370476Y-83456247D01*
X164117142Y-77054819D02*
X163783809Y-76578628D01*
X163545714Y-77054819D02*
X163545714Y-76054819D01*
X163545714Y-76054819D02*
X163926666Y-76054819D01*
X163926666Y-76054819D02*
X164021904Y-76102438D01*
X164021904Y-76102438D02*
X164069523Y-76150057D01*
X164069523Y-76150057D02*
X164117142Y-76245295D01*
X164117142Y-76245295D02*
X164117142Y-76388152D01*
X164117142Y-76388152D02*
X164069523Y-76483390D01*
X164069523Y-76483390D02*
X164021904Y-76531009D01*
X164021904Y-76531009D02*
X163926666Y-76578628D01*
X163926666Y-76578628D02*
X163545714Y-76578628D01*
X164498095Y-76150057D02*
X164545714Y-76102438D01*
X164545714Y-76102438D02*
X164640952Y-76054819D01*
X164640952Y-76054819D02*
X164879047Y-76054819D01*
X164879047Y-76054819D02*
X164974285Y-76102438D01*
X164974285Y-76102438D02*
X165021904Y-76150057D01*
X165021904Y-76150057D02*
X165069523Y-76245295D01*
X165069523Y-76245295D02*
X165069523Y-76340533D01*
X165069523Y-76340533D02*
X165021904Y-76483390D01*
X165021904Y-76483390D02*
X164450476Y-77054819D01*
X164450476Y-77054819D02*
X165069523Y-77054819D01*
X165974285Y-76054819D02*
X165498095Y-76054819D01*
X165498095Y-76054819D02*
X165450476Y-76531009D01*
X165450476Y-76531009D02*
X165498095Y-76483390D01*
X165498095Y-76483390D02*
X165593333Y-76435771D01*
X165593333Y-76435771D02*
X165831428Y-76435771D01*
X165831428Y-76435771D02*
X165926666Y-76483390D01*
X165926666Y-76483390D02*
X165974285Y-76531009D01*
X165974285Y-76531009D02*
X166021904Y-76626247D01*
X166021904Y-76626247D02*
X166021904Y-76864342D01*
X166021904Y-76864342D02*
X165974285Y-76959580D01*
X165974285Y-76959580D02*
X165926666Y-77007200D01*
X165926666Y-77007200D02*
X165831428Y-77054819D01*
X165831428Y-77054819D02*
X165593333Y-77054819D01*
X165593333Y-77054819D02*
X165498095Y-77007200D01*
X165498095Y-77007200D02*
X165450476Y-76959580D01*
X184862142Y-75869819D02*
X184528809Y-75393628D01*
X184290714Y-75869819D02*
X184290714Y-74869819D01*
X184290714Y-74869819D02*
X184671666Y-74869819D01*
X184671666Y-74869819D02*
X184766904Y-74917438D01*
X184766904Y-74917438D02*
X184814523Y-74965057D01*
X184814523Y-74965057D02*
X184862142Y-75060295D01*
X184862142Y-75060295D02*
X184862142Y-75203152D01*
X184862142Y-75203152D02*
X184814523Y-75298390D01*
X184814523Y-75298390D02*
X184766904Y-75346009D01*
X184766904Y-75346009D02*
X184671666Y-75393628D01*
X184671666Y-75393628D02*
X184290714Y-75393628D01*
X185243095Y-74965057D02*
X185290714Y-74917438D01*
X185290714Y-74917438D02*
X185385952Y-74869819D01*
X185385952Y-74869819D02*
X185624047Y-74869819D01*
X185624047Y-74869819D02*
X185719285Y-74917438D01*
X185719285Y-74917438D02*
X185766904Y-74965057D01*
X185766904Y-74965057D02*
X185814523Y-75060295D01*
X185814523Y-75060295D02*
X185814523Y-75155533D01*
X185814523Y-75155533D02*
X185766904Y-75298390D01*
X185766904Y-75298390D02*
X185195476Y-75869819D01*
X185195476Y-75869819D02*
X185814523Y-75869819D01*
X186290714Y-75869819D02*
X186481190Y-75869819D01*
X186481190Y-75869819D02*
X186576428Y-75822200D01*
X186576428Y-75822200D02*
X186624047Y-75774580D01*
X186624047Y-75774580D02*
X186719285Y-75631723D01*
X186719285Y-75631723D02*
X186766904Y-75441247D01*
X186766904Y-75441247D02*
X186766904Y-75060295D01*
X186766904Y-75060295D02*
X186719285Y-74965057D01*
X186719285Y-74965057D02*
X186671666Y-74917438D01*
X186671666Y-74917438D02*
X186576428Y-74869819D01*
X186576428Y-74869819D02*
X186385952Y-74869819D01*
X186385952Y-74869819D02*
X186290714Y-74917438D01*
X186290714Y-74917438D02*
X186243095Y-74965057D01*
X186243095Y-74965057D02*
X186195476Y-75060295D01*
X186195476Y-75060295D02*
X186195476Y-75298390D01*
X186195476Y-75298390D02*
X186243095Y-75393628D01*
X186243095Y-75393628D02*
X186290714Y-75441247D01*
X186290714Y-75441247D02*
X186385952Y-75488866D01*
X186385952Y-75488866D02*
X186576428Y-75488866D01*
X186576428Y-75488866D02*
X186671666Y-75441247D01*
X186671666Y-75441247D02*
X186719285Y-75393628D01*
X186719285Y-75393628D02*
X186766904Y-75298390D01*
X101557142Y-95484819D02*
X101223809Y-95008628D01*
X100985714Y-95484819D02*
X100985714Y-94484819D01*
X100985714Y-94484819D02*
X101366666Y-94484819D01*
X101366666Y-94484819D02*
X101461904Y-94532438D01*
X101461904Y-94532438D02*
X101509523Y-94580057D01*
X101509523Y-94580057D02*
X101557142Y-94675295D01*
X101557142Y-94675295D02*
X101557142Y-94818152D01*
X101557142Y-94818152D02*
X101509523Y-94913390D01*
X101509523Y-94913390D02*
X101461904Y-94961009D01*
X101461904Y-94961009D02*
X101366666Y-95008628D01*
X101366666Y-95008628D02*
X100985714Y-95008628D01*
X102509523Y-95484819D02*
X101938095Y-95484819D01*
X102223809Y-95484819D02*
X102223809Y-94484819D01*
X102223809Y-94484819D02*
X102128571Y-94627676D01*
X102128571Y-94627676D02*
X102033333Y-94722914D01*
X102033333Y-94722914D02*
X101938095Y-94770533D01*
X103366666Y-94484819D02*
X103176190Y-94484819D01*
X103176190Y-94484819D02*
X103080952Y-94532438D01*
X103080952Y-94532438D02*
X103033333Y-94580057D01*
X103033333Y-94580057D02*
X102938095Y-94722914D01*
X102938095Y-94722914D02*
X102890476Y-94913390D01*
X102890476Y-94913390D02*
X102890476Y-95294342D01*
X102890476Y-95294342D02*
X102938095Y-95389580D01*
X102938095Y-95389580D02*
X102985714Y-95437200D01*
X102985714Y-95437200D02*
X103080952Y-95484819D01*
X103080952Y-95484819D02*
X103271428Y-95484819D01*
X103271428Y-95484819D02*
X103366666Y-95437200D01*
X103366666Y-95437200D02*
X103414285Y-95389580D01*
X103414285Y-95389580D02*
X103461904Y-95294342D01*
X103461904Y-95294342D02*
X103461904Y-95056247D01*
X103461904Y-95056247D02*
X103414285Y-94961009D01*
X103414285Y-94961009D02*
X103366666Y-94913390D01*
X103366666Y-94913390D02*
X103271428Y-94865771D01*
X103271428Y-94865771D02*
X103080952Y-94865771D01*
X103080952Y-94865771D02*
X102985714Y-94913390D01*
X102985714Y-94913390D02*
X102938095Y-94961009D01*
X102938095Y-94961009D02*
X102890476Y-95056247D01*
X121357142Y-89884819D02*
X121023809Y-89408628D01*
X120785714Y-89884819D02*
X120785714Y-88884819D01*
X120785714Y-88884819D02*
X121166666Y-88884819D01*
X121166666Y-88884819D02*
X121261904Y-88932438D01*
X121261904Y-88932438D02*
X121309523Y-88980057D01*
X121309523Y-88980057D02*
X121357142Y-89075295D01*
X121357142Y-89075295D02*
X121357142Y-89218152D01*
X121357142Y-89218152D02*
X121309523Y-89313390D01*
X121309523Y-89313390D02*
X121261904Y-89361009D01*
X121261904Y-89361009D02*
X121166666Y-89408628D01*
X121166666Y-89408628D02*
X120785714Y-89408628D01*
X122309523Y-89884819D02*
X121738095Y-89884819D01*
X122023809Y-89884819D02*
X122023809Y-88884819D01*
X122023809Y-88884819D02*
X121928571Y-89027676D01*
X121928571Y-89027676D02*
X121833333Y-89122914D01*
X121833333Y-89122914D02*
X121738095Y-89170533D01*
X122785714Y-89884819D02*
X122976190Y-89884819D01*
X122976190Y-89884819D02*
X123071428Y-89837200D01*
X123071428Y-89837200D02*
X123119047Y-89789580D01*
X123119047Y-89789580D02*
X123214285Y-89646723D01*
X123214285Y-89646723D02*
X123261904Y-89456247D01*
X123261904Y-89456247D02*
X123261904Y-89075295D01*
X123261904Y-89075295D02*
X123214285Y-88980057D01*
X123214285Y-88980057D02*
X123166666Y-88932438D01*
X123166666Y-88932438D02*
X123071428Y-88884819D01*
X123071428Y-88884819D02*
X122880952Y-88884819D01*
X122880952Y-88884819D02*
X122785714Y-88932438D01*
X122785714Y-88932438D02*
X122738095Y-88980057D01*
X122738095Y-88980057D02*
X122690476Y-89075295D01*
X122690476Y-89075295D02*
X122690476Y-89313390D01*
X122690476Y-89313390D02*
X122738095Y-89408628D01*
X122738095Y-89408628D02*
X122785714Y-89456247D01*
X122785714Y-89456247D02*
X122880952Y-89503866D01*
X122880952Y-89503866D02*
X123071428Y-89503866D01*
X123071428Y-89503866D02*
X123166666Y-89456247D01*
X123166666Y-89456247D02*
X123214285Y-89408628D01*
X123214285Y-89408628D02*
X123261904Y-89313390D01*
X121157142Y-76284819D02*
X120823809Y-75808628D01*
X120585714Y-76284819D02*
X120585714Y-75284819D01*
X120585714Y-75284819D02*
X120966666Y-75284819D01*
X120966666Y-75284819D02*
X121061904Y-75332438D01*
X121061904Y-75332438D02*
X121109523Y-75380057D01*
X121109523Y-75380057D02*
X121157142Y-75475295D01*
X121157142Y-75475295D02*
X121157142Y-75618152D01*
X121157142Y-75618152D02*
X121109523Y-75713390D01*
X121109523Y-75713390D02*
X121061904Y-75761009D01*
X121061904Y-75761009D02*
X120966666Y-75808628D01*
X120966666Y-75808628D02*
X120585714Y-75808628D01*
X122109523Y-76284819D02*
X121538095Y-76284819D01*
X121823809Y-76284819D02*
X121823809Y-75284819D01*
X121823809Y-75284819D02*
X121728571Y-75427676D01*
X121728571Y-75427676D02*
X121633333Y-75522914D01*
X121633333Y-75522914D02*
X121538095Y-75570533D01*
X122442857Y-75284819D02*
X123109523Y-75284819D01*
X123109523Y-75284819D02*
X122680952Y-76284819D01*
X184637142Y-88084819D02*
X184303809Y-87608628D01*
X184065714Y-88084819D02*
X184065714Y-87084819D01*
X184065714Y-87084819D02*
X184446666Y-87084819D01*
X184446666Y-87084819D02*
X184541904Y-87132438D01*
X184541904Y-87132438D02*
X184589523Y-87180057D01*
X184589523Y-87180057D02*
X184637142Y-87275295D01*
X184637142Y-87275295D02*
X184637142Y-87418152D01*
X184637142Y-87418152D02*
X184589523Y-87513390D01*
X184589523Y-87513390D02*
X184541904Y-87561009D01*
X184541904Y-87561009D02*
X184446666Y-87608628D01*
X184446666Y-87608628D02*
X184065714Y-87608628D01*
X184970476Y-87084819D02*
X185589523Y-87084819D01*
X185589523Y-87084819D02*
X185256190Y-87465771D01*
X185256190Y-87465771D02*
X185399047Y-87465771D01*
X185399047Y-87465771D02*
X185494285Y-87513390D01*
X185494285Y-87513390D02*
X185541904Y-87561009D01*
X185541904Y-87561009D02*
X185589523Y-87656247D01*
X185589523Y-87656247D02*
X185589523Y-87894342D01*
X185589523Y-87894342D02*
X185541904Y-87989580D01*
X185541904Y-87989580D02*
X185494285Y-88037200D01*
X185494285Y-88037200D02*
X185399047Y-88084819D01*
X185399047Y-88084819D02*
X185113333Y-88084819D01*
X185113333Y-88084819D02*
X185018095Y-88037200D01*
X185018095Y-88037200D02*
X184970476Y-87989580D01*
X186541904Y-88084819D02*
X185970476Y-88084819D01*
X186256190Y-88084819D02*
X186256190Y-87084819D01*
X186256190Y-87084819D02*
X186160952Y-87227676D01*
X186160952Y-87227676D02*
X186065714Y-87322914D01*
X186065714Y-87322914D02*
X185970476Y-87370533D01*
X101757142Y-76084819D02*
X101423809Y-75608628D01*
X101185714Y-76084819D02*
X101185714Y-75084819D01*
X101185714Y-75084819D02*
X101566666Y-75084819D01*
X101566666Y-75084819D02*
X101661904Y-75132438D01*
X101661904Y-75132438D02*
X101709523Y-75180057D01*
X101709523Y-75180057D02*
X101757142Y-75275295D01*
X101757142Y-75275295D02*
X101757142Y-75418152D01*
X101757142Y-75418152D02*
X101709523Y-75513390D01*
X101709523Y-75513390D02*
X101661904Y-75561009D01*
X101661904Y-75561009D02*
X101566666Y-75608628D01*
X101566666Y-75608628D02*
X101185714Y-75608628D01*
X102709523Y-76084819D02*
X102138095Y-76084819D01*
X102423809Y-76084819D02*
X102423809Y-75084819D01*
X102423809Y-75084819D02*
X102328571Y-75227676D01*
X102328571Y-75227676D02*
X102233333Y-75322914D01*
X102233333Y-75322914D02*
X102138095Y-75370533D01*
X103042857Y-75084819D02*
X103661904Y-75084819D01*
X103661904Y-75084819D02*
X103328571Y-75465771D01*
X103328571Y-75465771D02*
X103471428Y-75465771D01*
X103471428Y-75465771D02*
X103566666Y-75513390D01*
X103566666Y-75513390D02*
X103614285Y-75561009D01*
X103614285Y-75561009D02*
X103661904Y-75656247D01*
X103661904Y-75656247D02*
X103661904Y-75894342D01*
X103661904Y-75894342D02*
X103614285Y-75989580D01*
X103614285Y-75989580D02*
X103566666Y-76037200D01*
X103566666Y-76037200D02*
X103471428Y-76084819D01*
X103471428Y-76084819D02*
X103185714Y-76084819D01*
X103185714Y-76084819D02*
X103090476Y-76037200D01*
X103090476Y-76037200D02*
X103042857Y-75989580D01*
X185037142Y-94684819D02*
X184703809Y-94208628D01*
X184465714Y-94684819D02*
X184465714Y-93684819D01*
X184465714Y-93684819D02*
X184846666Y-93684819D01*
X184846666Y-93684819D02*
X184941904Y-93732438D01*
X184941904Y-93732438D02*
X184989523Y-93780057D01*
X184989523Y-93780057D02*
X185037142Y-93875295D01*
X185037142Y-93875295D02*
X185037142Y-94018152D01*
X185037142Y-94018152D02*
X184989523Y-94113390D01*
X184989523Y-94113390D02*
X184941904Y-94161009D01*
X184941904Y-94161009D02*
X184846666Y-94208628D01*
X184846666Y-94208628D02*
X184465714Y-94208628D01*
X185370476Y-93684819D02*
X185989523Y-93684819D01*
X185989523Y-93684819D02*
X185656190Y-94065771D01*
X185656190Y-94065771D02*
X185799047Y-94065771D01*
X185799047Y-94065771D02*
X185894285Y-94113390D01*
X185894285Y-94113390D02*
X185941904Y-94161009D01*
X185941904Y-94161009D02*
X185989523Y-94256247D01*
X185989523Y-94256247D02*
X185989523Y-94494342D01*
X185989523Y-94494342D02*
X185941904Y-94589580D01*
X185941904Y-94589580D02*
X185894285Y-94637200D01*
X185894285Y-94637200D02*
X185799047Y-94684819D01*
X185799047Y-94684819D02*
X185513333Y-94684819D01*
X185513333Y-94684819D02*
X185418095Y-94637200D01*
X185418095Y-94637200D02*
X185370476Y-94589580D01*
X186370476Y-93780057D02*
X186418095Y-93732438D01*
X186418095Y-93732438D02*
X186513333Y-93684819D01*
X186513333Y-93684819D02*
X186751428Y-93684819D01*
X186751428Y-93684819D02*
X186846666Y-93732438D01*
X186846666Y-93732438D02*
X186894285Y-93780057D01*
X186894285Y-93780057D02*
X186941904Y-93875295D01*
X186941904Y-93875295D02*
X186941904Y-93970533D01*
X186941904Y-93970533D02*
X186894285Y-94113390D01*
X186894285Y-94113390D02*
X186322857Y-94684819D01*
X186322857Y-94684819D02*
X186941904Y-94684819D01*
X131745714Y-67154819D02*
X131745714Y-66154819D01*
X131745714Y-66154819D02*
X131983809Y-66154819D01*
X131983809Y-66154819D02*
X132126666Y-66202438D01*
X132126666Y-66202438D02*
X132221904Y-66297676D01*
X132221904Y-66297676D02*
X132269523Y-66392914D01*
X132269523Y-66392914D02*
X132317142Y-66583390D01*
X132317142Y-66583390D02*
X132317142Y-66726247D01*
X132317142Y-66726247D02*
X132269523Y-66916723D01*
X132269523Y-66916723D02*
X132221904Y-67011961D01*
X132221904Y-67011961D02*
X132126666Y-67107200D01*
X132126666Y-67107200D02*
X131983809Y-67154819D01*
X131983809Y-67154819D02*
X131745714Y-67154819D01*
X133269523Y-67154819D02*
X132698095Y-67154819D01*
X132983809Y-67154819D02*
X132983809Y-66154819D01*
X132983809Y-66154819D02*
X132888571Y-66297676D01*
X132888571Y-66297676D02*
X132793333Y-66392914D01*
X132793333Y-66392914D02*
X132698095Y-66440533D01*
X133602857Y-66154819D02*
X134269523Y-66154819D01*
X134269523Y-66154819D02*
X133840952Y-67154819D01*
X152915714Y-96094819D02*
X152915714Y-95094819D01*
X152915714Y-95094819D02*
X153153809Y-95094819D01*
X153153809Y-95094819D02*
X153296666Y-95142438D01*
X153296666Y-95142438D02*
X153391904Y-95237676D01*
X153391904Y-95237676D02*
X153439523Y-95332914D01*
X153439523Y-95332914D02*
X153487142Y-95523390D01*
X153487142Y-95523390D02*
X153487142Y-95666247D01*
X153487142Y-95666247D02*
X153439523Y-95856723D01*
X153439523Y-95856723D02*
X153391904Y-95951961D01*
X153391904Y-95951961D02*
X153296666Y-96047200D01*
X153296666Y-96047200D02*
X153153809Y-96094819D01*
X153153809Y-96094819D02*
X152915714Y-96094819D01*
X153868095Y-95190057D02*
X153915714Y-95142438D01*
X153915714Y-95142438D02*
X154010952Y-95094819D01*
X154010952Y-95094819D02*
X154249047Y-95094819D01*
X154249047Y-95094819D02*
X154344285Y-95142438D01*
X154344285Y-95142438D02*
X154391904Y-95190057D01*
X154391904Y-95190057D02*
X154439523Y-95285295D01*
X154439523Y-95285295D02*
X154439523Y-95380533D01*
X154439523Y-95380533D02*
X154391904Y-95523390D01*
X154391904Y-95523390D02*
X153820476Y-96094819D01*
X153820476Y-96094819D02*
X154439523Y-96094819D01*
X155296666Y-95428152D02*
X155296666Y-96094819D01*
X155058571Y-95047200D02*
X154820476Y-95761485D01*
X154820476Y-95761485D02*
X155439523Y-95761485D01*
X174325714Y-67624819D02*
X174325714Y-66624819D01*
X174325714Y-66624819D02*
X174563809Y-66624819D01*
X174563809Y-66624819D02*
X174706666Y-66672438D01*
X174706666Y-66672438D02*
X174801904Y-66767676D01*
X174801904Y-66767676D02*
X174849523Y-66862914D01*
X174849523Y-66862914D02*
X174897142Y-67053390D01*
X174897142Y-67053390D02*
X174897142Y-67196247D01*
X174897142Y-67196247D02*
X174849523Y-67386723D01*
X174849523Y-67386723D02*
X174801904Y-67481961D01*
X174801904Y-67481961D02*
X174706666Y-67577200D01*
X174706666Y-67577200D02*
X174563809Y-67624819D01*
X174563809Y-67624819D02*
X174325714Y-67624819D01*
X175278095Y-66720057D02*
X175325714Y-66672438D01*
X175325714Y-66672438D02*
X175420952Y-66624819D01*
X175420952Y-66624819D02*
X175659047Y-66624819D01*
X175659047Y-66624819D02*
X175754285Y-66672438D01*
X175754285Y-66672438D02*
X175801904Y-66720057D01*
X175801904Y-66720057D02*
X175849523Y-66815295D01*
X175849523Y-66815295D02*
X175849523Y-66910533D01*
X175849523Y-66910533D02*
X175801904Y-67053390D01*
X175801904Y-67053390D02*
X175230476Y-67624819D01*
X175230476Y-67624819D02*
X175849523Y-67624819D01*
X176754285Y-66624819D02*
X176278095Y-66624819D01*
X176278095Y-66624819D02*
X176230476Y-67101009D01*
X176230476Y-67101009D02*
X176278095Y-67053390D01*
X176278095Y-67053390D02*
X176373333Y-67005771D01*
X176373333Y-67005771D02*
X176611428Y-67005771D01*
X176611428Y-67005771D02*
X176706666Y-67053390D01*
X176706666Y-67053390D02*
X176754285Y-67101009D01*
X176754285Y-67101009D02*
X176801904Y-67196247D01*
X176801904Y-67196247D02*
X176801904Y-67434342D01*
X176801904Y-67434342D02*
X176754285Y-67529580D01*
X176754285Y-67529580D02*
X176706666Y-67577200D01*
X176706666Y-67577200D02*
X176611428Y-67624819D01*
X176611428Y-67624819D02*
X176373333Y-67624819D01*
X176373333Y-67624819D02*
X176278095Y-67577200D01*
X176278095Y-67577200D02*
X176230476Y-67529580D01*
X110715714Y-66974819D02*
X110715714Y-65974819D01*
X110715714Y-65974819D02*
X110953809Y-65974819D01*
X110953809Y-65974819D02*
X111096666Y-66022438D01*
X111096666Y-66022438D02*
X111191904Y-66117676D01*
X111191904Y-66117676D02*
X111239523Y-66212914D01*
X111239523Y-66212914D02*
X111287142Y-66403390D01*
X111287142Y-66403390D02*
X111287142Y-66546247D01*
X111287142Y-66546247D02*
X111239523Y-66736723D01*
X111239523Y-66736723D02*
X111191904Y-66831961D01*
X111191904Y-66831961D02*
X111096666Y-66927200D01*
X111096666Y-66927200D02*
X110953809Y-66974819D01*
X110953809Y-66974819D02*
X110715714Y-66974819D01*
X112239523Y-66974819D02*
X111668095Y-66974819D01*
X111953809Y-66974819D02*
X111953809Y-65974819D01*
X111953809Y-65974819D02*
X111858571Y-66117676D01*
X111858571Y-66117676D02*
X111763333Y-66212914D01*
X111763333Y-66212914D02*
X111668095Y-66260533D01*
X112572857Y-65974819D02*
X113191904Y-65974819D01*
X113191904Y-65974819D02*
X112858571Y-66355771D01*
X112858571Y-66355771D02*
X113001428Y-66355771D01*
X113001428Y-66355771D02*
X113096666Y-66403390D01*
X113096666Y-66403390D02*
X113144285Y-66451009D01*
X113144285Y-66451009D02*
X113191904Y-66546247D01*
X113191904Y-66546247D02*
X113191904Y-66784342D01*
X113191904Y-66784342D02*
X113144285Y-66879580D01*
X113144285Y-66879580D02*
X113096666Y-66927200D01*
X113096666Y-66927200D02*
X113001428Y-66974819D01*
X113001428Y-66974819D02*
X112715714Y-66974819D01*
X112715714Y-66974819D02*
X112620476Y-66927200D01*
X112620476Y-66927200D02*
X112572857Y-66879580D01*
X32838095Y-109604819D02*
X32838095Y-108604819D01*
X32838095Y-109081009D02*
X33409523Y-109081009D01*
X33409523Y-109604819D02*
X33409523Y-108604819D01*
X34314285Y-108938152D02*
X34314285Y-109604819D01*
X34076190Y-108557200D02*
X33838095Y-109271485D01*
X33838095Y-109271485D02*
X34457142Y-109271485D01*
X142677142Y-83884819D02*
X142343809Y-83408628D01*
X142105714Y-83884819D02*
X142105714Y-82884819D01*
X142105714Y-82884819D02*
X142486666Y-82884819D01*
X142486666Y-82884819D02*
X142581904Y-82932438D01*
X142581904Y-82932438D02*
X142629523Y-82980057D01*
X142629523Y-82980057D02*
X142677142Y-83075295D01*
X142677142Y-83075295D02*
X142677142Y-83218152D01*
X142677142Y-83218152D02*
X142629523Y-83313390D01*
X142629523Y-83313390D02*
X142581904Y-83361009D01*
X142581904Y-83361009D02*
X142486666Y-83408628D01*
X142486666Y-83408628D02*
X142105714Y-83408628D01*
X143058095Y-82980057D02*
X143105714Y-82932438D01*
X143105714Y-82932438D02*
X143200952Y-82884819D01*
X143200952Y-82884819D02*
X143439047Y-82884819D01*
X143439047Y-82884819D02*
X143534285Y-82932438D01*
X143534285Y-82932438D02*
X143581904Y-82980057D01*
X143581904Y-82980057D02*
X143629523Y-83075295D01*
X143629523Y-83075295D02*
X143629523Y-83170533D01*
X143629523Y-83170533D02*
X143581904Y-83313390D01*
X143581904Y-83313390D02*
X143010476Y-83884819D01*
X143010476Y-83884819D02*
X143629523Y-83884819D01*
X144010476Y-82980057D02*
X144058095Y-82932438D01*
X144058095Y-82932438D02*
X144153333Y-82884819D01*
X144153333Y-82884819D02*
X144391428Y-82884819D01*
X144391428Y-82884819D02*
X144486666Y-82932438D01*
X144486666Y-82932438D02*
X144534285Y-82980057D01*
X144534285Y-82980057D02*
X144581904Y-83075295D01*
X144581904Y-83075295D02*
X144581904Y-83170533D01*
X144581904Y-83170533D02*
X144534285Y-83313390D01*
X144534285Y-83313390D02*
X143962857Y-83884819D01*
X143962857Y-83884819D02*
X144581904Y-83884819D01*
X121666666Y-66274819D02*
X121666666Y-66989104D01*
X121666666Y-66989104D02*
X121619047Y-67131961D01*
X121619047Y-67131961D02*
X121523809Y-67227200D01*
X121523809Y-67227200D02*
X121380952Y-67274819D01*
X121380952Y-67274819D02*
X121285714Y-67274819D01*
X122095238Y-66370057D02*
X122142857Y-66322438D01*
X122142857Y-66322438D02*
X122238095Y-66274819D01*
X122238095Y-66274819D02*
X122476190Y-66274819D01*
X122476190Y-66274819D02*
X122571428Y-66322438D01*
X122571428Y-66322438D02*
X122619047Y-66370057D01*
X122619047Y-66370057D02*
X122666666Y-66465295D01*
X122666666Y-66465295D02*
X122666666Y-66560533D01*
X122666666Y-66560533D02*
X122619047Y-66703390D01*
X122619047Y-66703390D02*
X122047619Y-67274819D01*
X122047619Y-67274819D02*
X122666666Y-67274819D01*
X194850714Y-86294819D02*
X194850714Y-85294819D01*
X194850714Y-85294819D02*
X195088809Y-85294819D01*
X195088809Y-85294819D02*
X195231666Y-85342438D01*
X195231666Y-85342438D02*
X195326904Y-85437676D01*
X195326904Y-85437676D02*
X195374523Y-85532914D01*
X195374523Y-85532914D02*
X195422142Y-85723390D01*
X195422142Y-85723390D02*
X195422142Y-85866247D01*
X195422142Y-85866247D02*
X195374523Y-86056723D01*
X195374523Y-86056723D02*
X195326904Y-86151961D01*
X195326904Y-86151961D02*
X195231666Y-86247200D01*
X195231666Y-86247200D02*
X195088809Y-86294819D01*
X195088809Y-86294819D02*
X194850714Y-86294819D01*
X195755476Y-85294819D02*
X196374523Y-85294819D01*
X196374523Y-85294819D02*
X196041190Y-85675771D01*
X196041190Y-85675771D02*
X196184047Y-85675771D01*
X196184047Y-85675771D02*
X196279285Y-85723390D01*
X196279285Y-85723390D02*
X196326904Y-85771009D01*
X196326904Y-85771009D02*
X196374523Y-85866247D01*
X196374523Y-85866247D02*
X196374523Y-86104342D01*
X196374523Y-86104342D02*
X196326904Y-86199580D01*
X196326904Y-86199580D02*
X196279285Y-86247200D01*
X196279285Y-86247200D02*
X196184047Y-86294819D01*
X196184047Y-86294819D02*
X195898333Y-86294819D01*
X195898333Y-86294819D02*
X195803095Y-86247200D01*
X195803095Y-86247200D02*
X195755476Y-86199580D01*
X197326904Y-86294819D02*
X196755476Y-86294819D01*
X197041190Y-86294819D02*
X197041190Y-85294819D01*
X197041190Y-85294819D02*
X196945952Y-85437676D01*
X196945952Y-85437676D02*
X196850714Y-85532914D01*
X196850714Y-85532914D02*
X196755476Y-85580533D01*
X131745714Y-86754819D02*
X131745714Y-85754819D01*
X131745714Y-85754819D02*
X131983809Y-85754819D01*
X131983809Y-85754819D02*
X132126666Y-85802438D01*
X132126666Y-85802438D02*
X132221904Y-85897676D01*
X132221904Y-85897676D02*
X132269523Y-85992914D01*
X132269523Y-85992914D02*
X132317142Y-86183390D01*
X132317142Y-86183390D02*
X132317142Y-86326247D01*
X132317142Y-86326247D02*
X132269523Y-86516723D01*
X132269523Y-86516723D02*
X132221904Y-86611961D01*
X132221904Y-86611961D02*
X132126666Y-86707200D01*
X132126666Y-86707200D02*
X131983809Y-86754819D01*
X131983809Y-86754819D02*
X131745714Y-86754819D01*
X133269523Y-86754819D02*
X132698095Y-86754819D01*
X132983809Y-86754819D02*
X132983809Y-85754819D01*
X132983809Y-85754819D02*
X132888571Y-85897676D01*
X132888571Y-85897676D02*
X132793333Y-85992914D01*
X132793333Y-85992914D02*
X132698095Y-86040533D01*
X133745714Y-86754819D02*
X133936190Y-86754819D01*
X133936190Y-86754819D02*
X134031428Y-86707200D01*
X134031428Y-86707200D02*
X134079047Y-86659580D01*
X134079047Y-86659580D02*
X134174285Y-86516723D01*
X134174285Y-86516723D02*
X134221904Y-86326247D01*
X134221904Y-86326247D02*
X134221904Y-85945295D01*
X134221904Y-85945295D02*
X134174285Y-85850057D01*
X134174285Y-85850057D02*
X134126666Y-85802438D01*
X134126666Y-85802438D02*
X134031428Y-85754819D01*
X134031428Y-85754819D02*
X133840952Y-85754819D01*
X133840952Y-85754819D02*
X133745714Y-85802438D01*
X133745714Y-85802438D02*
X133698095Y-85850057D01*
X133698095Y-85850057D02*
X133650476Y-85945295D01*
X133650476Y-85945295D02*
X133650476Y-86183390D01*
X133650476Y-86183390D02*
X133698095Y-86278628D01*
X133698095Y-86278628D02*
X133745714Y-86326247D01*
X133745714Y-86326247D02*
X133840952Y-86373866D01*
X133840952Y-86373866D02*
X134031428Y-86373866D01*
X134031428Y-86373866D02*
X134126666Y-86326247D01*
X134126666Y-86326247D02*
X134174285Y-86278628D01*
X134174285Y-86278628D02*
X134221904Y-86183390D01*
X174255714Y-76894819D02*
X174255714Y-75894819D01*
X174255714Y-75894819D02*
X174493809Y-75894819D01*
X174493809Y-75894819D02*
X174636666Y-75942438D01*
X174636666Y-75942438D02*
X174731904Y-76037676D01*
X174731904Y-76037676D02*
X174779523Y-76132914D01*
X174779523Y-76132914D02*
X174827142Y-76323390D01*
X174827142Y-76323390D02*
X174827142Y-76466247D01*
X174827142Y-76466247D02*
X174779523Y-76656723D01*
X174779523Y-76656723D02*
X174731904Y-76751961D01*
X174731904Y-76751961D02*
X174636666Y-76847200D01*
X174636666Y-76847200D02*
X174493809Y-76894819D01*
X174493809Y-76894819D02*
X174255714Y-76894819D01*
X175208095Y-75990057D02*
X175255714Y-75942438D01*
X175255714Y-75942438D02*
X175350952Y-75894819D01*
X175350952Y-75894819D02*
X175589047Y-75894819D01*
X175589047Y-75894819D02*
X175684285Y-75942438D01*
X175684285Y-75942438D02*
X175731904Y-75990057D01*
X175731904Y-75990057D02*
X175779523Y-76085295D01*
X175779523Y-76085295D02*
X175779523Y-76180533D01*
X175779523Y-76180533D02*
X175731904Y-76323390D01*
X175731904Y-76323390D02*
X175160476Y-76894819D01*
X175160476Y-76894819D02*
X175779523Y-76894819D01*
X176636666Y-75894819D02*
X176446190Y-75894819D01*
X176446190Y-75894819D02*
X176350952Y-75942438D01*
X176350952Y-75942438D02*
X176303333Y-75990057D01*
X176303333Y-75990057D02*
X176208095Y-76132914D01*
X176208095Y-76132914D02*
X176160476Y-76323390D01*
X176160476Y-76323390D02*
X176160476Y-76704342D01*
X176160476Y-76704342D02*
X176208095Y-76799580D01*
X176208095Y-76799580D02*
X176255714Y-76847200D01*
X176255714Y-76847200D02*
X176350952Y-76894819D01*
X176350952Y-76894819D02*
X176541428Y-76894819D01*
X176541428Y-76894819D02*
X176636666Y-76847200D01*
X176636666Y-76847200D02*
X176684285Y-76799580D01*
X176684285Y-76799580D02*
X176731904Y-76704342D01*
X176731904Y-76704342D02*
X176731904Y-76466247D01*
X176731904Y-76466247D02*
X176684285Y-76371009D01*
X176684285Y-76371009D02*
X176636666Y-76323390D01*
X176636666Y-76323390D02*
X176541428Y-76275771D01*
X176541428Y-76275771D02*
X176350952Y-76275771D01*
X176350952Y-76275771D02*
X176255714Y-76323390D01*
X176255714Y-76323390D02*
X176208095Y-76371009D01*
X176208095Y-76371009D02*
X176160476Y-76466247D01*
X132275714Y-96154819D02*
X132275714Y-95154819D01*
X132275714Y-95154819D02*
X132513809Y-95154819D01*
X132513809Y-95154819D02*
X132656666Y-95202438D01*
X132656666Y-95202438D02*
X132751904Y-95297676D01*
X132751904Y-95297676D02*
X132799523Y-95392914D01*
X132799523Y-95392914D02*
X132847142Y-95583390D01*
X132847142Y-95583390D02*
X132847142Y-95726247D01*
X132847142Y-95726247D02*
X132799523Y-95916723D01*
X132799523Y-95916723D02*
X132751904Y-96011961D01*
X132751904Y-96011961D02*
X132656666Y-96107200D01*
X132656666Y-96107200D02*
X132513809Y-96154819D01*
X132513809Y-96154819D02*
X132275714Y-96154819D01*
X133228095Y-95250057D02*
X133275714Y-95202438D01*
X133275714Y-95202438D02*
X133370952Y-95154819D01*
X133370952Y-95154819D02*
X133609047Y-95154819D01*
X133609047Y-95154819D02*
X133704285Y-95202438D01*
X133704285Y-95202438D02*
X133751904Y-95250057D01*
X133751904Y-95250057D02*
X133799523Y-95345295D01*
X133799523Y-95345295D02*
X133799523Y-95440533D01*
X133799523Y-95440533D02*
X133751904Y-95583390D01*
X133751904Y-95583390D02*
X133180476Y-96154819D01*
X133180476Y-96154819D02*
X133799523Y-96154819D01*
X134418571Y-95154819D02*
X134513809Y-95154819D01*
X134513809Y-95154819D02*
X134609047Y-95202438D01*
X134609047Y-95202438D02*
X134656666Y-95250057D01*
X134656666Y-95250057D02*
X134704285Y-95345295D01*
X134704285Y-95345295D02*
X134751904Y-95535771D01*
X134751904Y-95535771D02*
X134751904Y-95773866D01*
X134751904Y-95773866D02*
X134704285Y-95964342D01*
X134704285Y-95964342D02*
X134656666Y-96059580D01*
X134656666Y-96059580D02*
X134609047Y-96107200D01*
X134609047Y-96107200D02*
X134513809Y-96154819D01*
X134513809Y-96154819D02*
X134418571Y-96154819D01*
X134418571Y-96154819D02*
X134323333Y-96107200D01*
X134323333Y-96107200D02*
X134275714Y-96059580D01*
X134275714Y-96059580D02*
X134228095Y-95964342D01*
X134228095Y-95964342D02*
X134180476Y-95773866D01*
X134180476Y-95773866D02*
X134180476Y-95535771D01*
X134180476Y-95535771D02*
X134228095Y-95345295D01*
X134228095Y-95345295D02*
X134275714Y-95250057D01*
X134275714Y-95250057D02*
X134323333Y-95202438D01*
X134323333Y-95202438D02*
X134418571Y-95154819D01*
X121557142Y-96084819D02*
X121223809Y-95608628D01*
X120985714Y-96084819D02*
X120985714Y-95084819D01*
X120985714Y-95084819D02*
X121366666Y-95084819D01*
X121366666Y-95084819D02*
X121461904Y-95132438D01*
X121461904Y-95132438D02*
X121509523Y-95180057D01*
X121509523Y-95180057D02*
X121557142Y-95275295D01*
X121557142Y-95275295D02*
X121557142Y-95418152D01*
X121557142Y-95418152D02*
X121509523Y-95513390D01*
X121509523Y-95513390D02*
X121461904Y-95561009D01*
X121461904Y-95561009D02*
X121366666Y-95608628D01*
X121366666Y-95608628D02*
X120985714Y-95608628D01*
X121938095Y-95180057D02*
X121985714Y-95132438D01*
X121985714Y-95132438D02*
X122080952Y-95084819D01*
X122080952Y-95084819D02*
X122319047Y-95084819D01*
X122319047Y-95084819D02*
X122414285Y-95132438D01*
X122414285Y-95132438D02*
X122461904Y-95180057D01*
X122461904Y-95180057D02*
X122509523Y-95275295D01*
X122509523Y-95275295D02*
X122509523Y-95370533D01*
X122509523Y-95370533D02*
X122461904Y-95513390D01*
X122461904Y-95513390D02*
X121890476Y-96084819D01*
X121890476Y-96084819D02*
X122509523Y-96084819D01*
X123128571Y-95084819D02*
X123223809Y-95084819D01*
X123223809Y-95084819D02*
X123319047Y-95132438D01*
X123319047Y-95132438D02*
X123366666Y-95180057D01*
X123366666Y-95180057D02*
X123414285Y-95275295D01*
X123414285Y-95275295D02*
X123461904Y-95465771D01*
X123461904Y-95465771D02*
X123461904Y-95703866D01*
X123461904Y-95703866D02*
X123414285Y-95894342D01*
X123414285Y-95894342D02*
X123366666Y-95989580D01*
X123366666Y-95989580D02*
X123319047Y-96037200D01*
X123319047Y-96037200D02*
X123223809Y-96084819D01*
X123223809Y-96084819D02*
X123128571Y-96084819D01*
X123128571Y-96084819D02*
X123033333Y-96037200D01*
X123033333Y-96037200D02*
X122985714Y-95989580D01*
X122985714Y-95989580D02*
X122938095Y-95894342D01*
X122938095Y-95894342D02*
X122890476Y-95703866D01*
X122890476Y-95703866D02*
X122890476Y-95465771D01*
X122890476Y-95465771D02*
X122938095Y-95275295D01*
X122938095Y-95275295D02*
X122985714Y-95180057D01*
X122985714Y-95180057D02*
X123033333Y-95132438D01*
X123033333Y-95132438D02*
X123128571Y-95084819D01*
X152775714Y-86494819D02*
X152775714Y-85494819D01*
X152775714Y-85494819D02*
X153013809Y-85494819D01*
X153013809Y-85494819D02*
X153156666Y-85542438D01*
X153156666Y-85542438D02*
X153251904Y-85637676D01*
X153251904Y-85637676D02*
X153299523Y-85732914D01*
X153299523Y-85732914D02*
X153347142Y-85923390D01*
X153347142Y-85923390D02*
X153347142Y-86066247D01*
X153347142Y-86066247D02*
X153299523Y-86256723D01*
X153299523Y-86256723D02*
X153251904Y-86351961D01*
X153251904Y-86351961D02*
X153156666Y-86447200D01*
X153156666Y-86447200D02*
X153013809Y-86494819D01*
X153013809Y-86494819D02*
X152775714Y-86494819D01*
X153728095Y-85590057D02*
X153775714Y-85542438D01*
X153775714Y-85542438D02*
X153870952Y-85494819D01*
X153870952Y-85494819D02*
X154109047Y-85494819D01*
X154109047Y-85494819D02*
X154204285Y-85542438D01*
X154204285Y-85542438D02*
X154251904Y-85590057D01*
X154251904Y-85590057D02*
X154299523Y-85685295D01*
X154299523Y-85685295D02*
X154299523Y-85780533D01*
X154299523Y-85780533D02*
X154251904Y-85923390D01*
X154251904Y-85923390D02*
X153680476Y-86494819D01*
X153680476Y-86494819D02*
X154299523Y-86494819D01*
X154632857Y-85494819D02*
X155251904Y-85494819D01*
X155251904Y-85494819D02*
X154918571Y-85875771D01*
X154918571Y-85875771D02*
X155061428Y-85875771D01*
X155061428Y-85875771D02*
X155156666Y-85923390D01*
X155156666Y-85923390D02*
X155204285Y-85971009D01*
X155204285Y-85971009D02*
X155251904Y-86066247D01*
X155251904Y-86066247D02*
X155251904Y-86304342D01*
X155251904Y-86304342D02*
X155204285Y-86399580D01*
X155204285Y-86399580D02*
X155156666Y-86447200D01*
X155156666Y-86447200D02*
X155061428Y-86494819D01*
X155061428Y-86494819D02*
X154775714Y-86494819D01*
X154775714Y-86494819D02*
X154680476Y-86447200D01*
X154680476Y-86447200D02*
X154632857Y-86399580D01*
X243638095Y-64004819D02*
X243638095Y-63004819D01*
X243638095Y-63481009D02*
X244209523Y-63481009D01*
X244209523Y-64004819D02*
X244209523Y-63004819D01*
X244638095Y-63100057D02*
X244685714Y-63052438D01*
X244685714Y-63052438D02*
X244780952Y-63004819D01*
X244780952Y-63004819D02*
X245019047Y-63004819D01*
X245019047Y-63004819D02*
X245114285Y-63052438D01*
X245114285Y-63052438D02*
X245161904Y-63100057D01*
X245161904Y-63100057D02*
X245209523Y-63195295D01*
X245209523Y-63195295D02*
X245209523Y-63290533D01*
X245209523Y-63290533D02*
X245161904Y-63433390D01*
X245161904Y-63433390D02*
X244590476Y-64004819D01*
X244590476Y-64004819D02*
X245209523Y-64004819D01*
X184437142Y-82084819D02*
X184103809Y-81608628D01*
X183865714Y-82084819D02*
X183865714Y-81084819D01*
X183865714Y-81084819D02*
X184246666Y-81084819D01*
X184246666Y-81084819D02*
X184341904Y-81132438D01*
X184341904Y-81132438D02*
X184389523Y-81180057D01*
X184389523Y-81180057D02*
X184437142Y-81275295D01*
X184437142Y-81275295D02*
X184437142Y-81418152D01*
X184437142Y-81418152D02*
X184389523Y-81513390D01*
X184389523Y-81513390D02*
X184341904Y-81561009D01*
X184341904Y-81561009D02*
X184246666Y-81608628D01*
X184246666Y-81608628D02*
X183865714Y-81608628D01*
X184770476Y-81084819D02*
X185389523Y-81084819D01*
X185389523Y-81084819D02*
X185056190Y-81465771D01*
X185056190Y-81465771D02*
X185199047Y-81465771D01*
X185199047Y-81465771D02*
X185294285Y-81513390D01*
X185294285Y-81513390D02*
X185341904Y-81561009D01*
X185341904Y-81561009D02*
X185389523Y-81656247D01*
X185389523Y-81656247D02*
X185389523Y-81894342D01*
X185389523Y-81894342D02*
X185341904Y-81989580D01*
X185341904Y-81989580D02*
X185294285Y-82037200D01*
X185294285Y-82037200D02*
X185199047Y-82084819D01*
X185199047Y-82084819D02*
X184913333Y-82084819D01*
X184913333Y-82084819D02*
X184818095Y-82037200D01*
X184818095Y-82037200D02*
X184770476Y-81989580D01*
X186008571Y-81084819D02*
X186103809Y-81084819D01*
X186103809Y-81084819D02*
X186199047Y-81132438D01*
X186199047Y-81132438D02*
X186246666Y-81180057D01*
X186246666Y-81180057D02*
X186294285Y-81275295D01*
X186294285Y-81275295D02*
X186341904Y-81465771D01*
X186341904Y-81465771D02*
X186341904Y-81703866D01*
X186341904Y-81703866D02*
X186294285Y-81894342D01*
X186294285Y-81894342D02*
X186246666Y-81989580D01*
X186246666Y-81989580D02*
X186199047Y-82037200D01*
X186199047Y-82037200D02*
X186103809Y-82084819D01*
X186103809Y-82084819D02*
X186008571Y-82084819D01*
X186008571Y-82084819D02*
X185913333Y-82037200D01*
X185913333Y-82037200D02*
X185865714Y-81989580D01*
X185865714Y-81989580D02*
X185818095Y-81894342D01*
X185818095Y-81894342D02*
X185770476Y-81703866D01*
X185770476Y-81703866D02*
X185770476Y-81465771D01*
X185770476Y-81465771D02*
X185818095Y-81275295D01*
X185818095Y-81275295D02*
X185865714Y-81180057D01*
X185865714Y-81180057D02*
X185913333Y-81132438D01*
X185913333Y-81132438D02*
X186008571Y-81084819D01*
X194715714Y-76694819D02*
X194715714Y-75694819D01*
X194715714Y-75694819D02*
X194953809Y-75694819D01*
X194953809Y-75694819D02*
X195096666Y-75742438D01*
X195096666Y-75742438D02*
X195191904Y-75837676D01*
X195191904Y-75837676D02*
X195239523Y-75932914D01*
X195239523Y-75932914D02*
X195287142Y-76123390D01*
X195287142Y-76123390D02*
X195287142Y-76266247D01*
X195287142Y-76266247D02*
X195239523Y-76456723D01*
X195239523Y-76456723D02*
X195191904Y-76551961D01*
X195191904Y-76551961D02*
X195096666Y-76647200D01*
X195096666Y-76647200D02*
X194953809Y-76694819D01*
X194953809Y-76694819D02*
X194715714Y-76694819D01*
X195620476Y-75694819D02*
X196239523Y-75694819D01*
X196239523Y-75694819D02*
X195906190Y-76075771D01*
X195906190Y-76075771D02*
X196049047Y-76075771D01*
X196049047Y-76075771D02*
X196144285Y-76123390D01*
X196144285Y-76123390D02*
X196191904Y-76171009D01*
X196191904Y-76171009D02*
X196239523Y-76266247D01*
X196239523Y-76266247D02*
X196239523Y-76504342D01*
X196239523Y-76504342D02*
X196191904Y-76599580D01*
X196191904Y-76599580D02*
X196144285Y-76647200D01*
X196144285Y-76647200D02*
X196049047Y-76694819D01*
X196049047Y-76694819D02*
X195763333Y-76694819D01*
X195763333Y-76694819D02*
X195668095Y-76647200D01*
X195668095Y-76647200D02*
X195620476Y-76599580D01*
X196858571Y-75694819D02*
X196953809Y-75694819D01*
X196953809Y-75694819D02*
X197049047Y-75742438D01*
X197049047Y-75742438D02*
X197096666Y-75790057D01*
X197096666Y-75790057D02*
X197144285Y-75885295D01*
X197144285Y-75885295D02*
X197191904Y-76075771D01*
X197191904Y-76075771D02*
X197191904Y-76313866D01*
X197191904Y-76313866D02*
X197144285Y-76504342D01*
X197144285Y-76504342D02*
X197096666Y-76599580D01*
X197096666Y-76599580D02*
X197049047Y-76647200D01*
X197049047Y-76647200D02*
X196953809Y-76694819D01*
X196953809Y-76694819D02*
X196858571Y-76694819D01*
X196858571Y-76694819D02*
X196763333Y-76647200D01*
X196763333Y-76647200D02*
X196715714Y-76599580D01*
X196715714Y-76599580D02*
X196668095Y-76504342D01*
X196668095Y-76504342D02*
X196620476Y-76313866D01*
X196620476Y-76313866D02*
X196620476Y-76075771D01*
X196620476Y-76075771D02*
X196668095Y-75885295D01*
X196668095Y-75885295D02*
X196715714Y-75790057D01*
X196715714Y-75790057D02*
X196763333Y-75742438D01*
X196763333Y-75742438D02*
X196858571Y-75694819D01*
X163837142Y-89684819D02*
X163503809Y-89208628D01*
X163265714Y-89684819D02*
X163265714Y-88684819D01*
X163265714Y-88684819D02*
X163646666Y-88684819D01*
X163646666Y-88684819D02*
X163741904Y-88732438D01*
X163741904Y-88732438D02*
X163789523Y-88780057D01*
X163789523Y-88780057D02*
X163837142Y-88875295D01*
X163837142Y-88875295D02*
X163837142Y-89018152D01*
X163837142Y-89018152D02*
X163789523Y-89113390D01*
X163789523Y-89113390D02*
X163741904Y-89161009D01*
X163741904Y-89161009D02*
X163646666Y-89208628D01*
X163646666Y-89208628D02*
X163265714Y-89208628D01*
X164218095Y-88780057D02*
X164265714Y-88732438D01*
X164265714Y-88732438D02*
X164360952Y-88684819D01*
X164360952Y-88684819D02*
X164599047Y-88684819D01*
X164599047Y-88684819D02*
X164694285Y-88732438D01*
X164694285Y-88732438D02*
X164741904Y-88780057D01*
X164741904Y-88780057D02*
X164789523Y-88875295D01*
X164789523Y-88875295D02*
X164789523Y-88970533D01*
X164789523Y-88970533D02*
X164741904Y-89113390D01*
X164741904Y-89113390D02*
X164170476Y-89684819D01*
X164170476Y-89684819D02*
X164789523Y-89684819D01*
X165122857Y-88684819D02*
X165789523Y-88684819D01*
X165789523Y-88684819D02*
X165360952Y-89684819D01*
X152515714Y-77294819D02*
X152515714Y-76294819D01*
X152515714Y-76294819D02*
X152753809Y-76294819D01*
X152753809Y-76294819D02*
X152896666Y-76342438D01*
X152896666Y-76342438D02*
X152991904Y-76437676D01*
X152991904Y-76437676D02*
X153039523Y-76532914D01*
X153039523Y-76532914D02*
X153087142Y-76723390D01*
X153087142Y-76723390D02*
X153087142Y-76866247D01*
X153087142Y-76866247D02*
X153039523Y-77056723D01*
X153039523Y-77056723D02*
X152991904Y-77151961D01*
X152991904Y-77151961D02*
X152896666Y-77247200D01*
X152896666Y-77247200D02*
X152753809Y-77294819D01*
X152753809Y-77294819D02*
X152515714Y-77294819D01*
X153468095Y-76390057D02*
X153515714Y-76342438D01*
X153515714Y-76342438D02*
X153610952Y-76294819D01*
X153610952Y-76294819D02*
X153849047Y-76294819D01*
X153849047Y-76294819D02*
X153944285Y-76342438D01*
X153944285Y-76342438D02*
X153991904Y-76390057D01*
X153991904Y-76390057D02*
X154039523Y-76485295D01*
X154039523Y-76485295D02*
X154039523Y-76580533D01*
X154039523Y-76580533D02*
X153991904Y-76723390D01*
X153991904Y-76723390D02*
X153420476Y-77294819D01*
X153420476Y-77294819D02*
X154039523Y-77294819D01*
X154420476Y-76390057D02*
X154468095Y-76342438D01*
X154468095Y-76342438D02*
X154563333Y-76294819D01*
X154563333Y-76294819D02*
X154801428Y-76294819D01*
X154801428Y-76294819D02*
X154896666Y-76342438D01*
X154896666Y-76342438D02*
X154944285Y-76390057D01*
X154944285Y-76390057D02*
X154991904Y-76485295D01*
X154991904Y-76485295D02*
X154991904Y-76580533D01*
X154991904Y-76580533D02*
X154944285Y-76723390D01*
X154944285Y-76723390D02*
X154372857Y-77294819D01*
X154372857Y-77294819D02*
X154991904Y-77294819D01*
%TO.C,D11*%
D12*
X88730000Y-86655000D02*
X88730000Y-89745000D01*
X88730000Y-86655170D02*
G75*
G02*
X94280000Y-88200000I2560000J-1544830D01*
G01*
X94280000Y-88200000D02*
G75*
G02*
X88730000Y-89744830I-2990000J0D01*
G01*
X93790000Y-88200000D02*
G75*
G02*
X88790000Y-88200000I-2500000J0D01*
G01*
X88790000Y-88200000D02*
G75*
G02*
X93790000Y-88200000I2500000J0D01*
G01*
%TO.C,J5*%
X234380000Y-70070000D02*
X234380000Y-77800000D01*
X231620000Y-77800000D02*
X234380000Y-77800000D01*
X231620000Y-70070000D02*
X234380000Y-70070000D01*
X231620000Y-70070000D02*
X231620000Y-77800000D01*
X231620000Y-68800000D02*
X231620000Y-67420000D01*
X231620000Y-67420000D02*
X233000000Y-67420000D01*
%TO.C,J1*%
X205980000Y-70070000D02*
X205980000Y-77800000D01*
X203220000Y-77800000D02*
X205980000Y-77800000D01*
X203220000Y-70070000D02*
X205980000Y-70070000D01*
X203220000Y-70070000D02*
X203220000Y-77800000D01*
X203220000Y-68800000D02*
X203220000Y-67420000D01*
X203220000Y-67420000D02*
X204600000Y-67420000D01*
%TO.C,R4*%
X35650000Y-95630000D02*
X42190000Y-95630000D01*
X42190000Y-98370000D01*
X35650000Y-98370000D01*
X35650000Y-95630000D01*
X42960000Y-97000000D02*
X42190000Y-97000000D01*
X34880000Y-97000000D02*
X35650000Y-97000000D01*
%TO.C,R1*%
X35810000Y-77080000D02*
X42350000Y-77080000D01*
X42350000Y-79820000D01*
X35810000Y-79820000D01*
X35810000Y-77080000D01*
X43120000Y-78450000D02*
X42350000Y-78450000D01*
X35040000Y-78450000D02*
X35810000Y-78450000D01*
%TO.C,R2*%
X35450000Y-83130000D02*
X41990000Y-83130000D01*
X41990000Y-85870000D01*
X35450000Y-85870000D01*
X35450000Y-83130000D01*
X42760000Y-84500000D02*
X41990000Y-84500000D01*
X34680000Y-84500000D02*
X35450000Y-84500000D01*
%TO.C,D1*%
X52095000Y-69400000D02*
G75*
G02*
X47095000Y-69400000I-2500000J0D01*
G01*
X47095000Y-69400000D02*
G75*
G02*
X52095000Y-69400000I2500000J0D01*
G01*
X52585000Y-69400000D02*
G75*
G02*
X47035000Y-70944830I-2990000J0D01*
G01*
X47035000Y-67855170D02*
G75*
G02*
X52585000Y-69400000I2560000J-1544830D01*
G01*
X47035000Y-67855000D02*
X47035000Y-70945000D01*
%TO.C,J3*%
X215180000Y-70270000D02*
X215180000Y-78000000D01*
X212420000Y-78000000D02*
X215180000Y-78000000D01*
X212420000Y-70270000D02*
X215180000Y-70270000D01*
X212420000Y-70270000D02*
X212420000Y-78000000D01*
X212420000Y-69000000D02*
X212420000Y-67620000D01*
X212420000Y-67620000D02*
X213800000Y-67620000D01*
%TO.C,D4*%
X52300000Y-97800000D02*
G75*
G02*
X47300000Y-97800000I-2500000J0D01*
G01*
X47300000Y-97800000D02*
G75*
G02*
X52300000Y-97800000I2500000J0D01*
G01*
X52790000Y-97800000D02*
G75*
G02*
X47240000Y-99344830I-2990000J0D01*
G01*
X47240000Y-96255170D02*
G75*
G02*
X52790000Y-97800000I2560000J-1544830D01*
G01*
X47240000Y-96255000D02*
X47240000Y-99345000D01*
%TO.C,D2*%
X52295000Y-78800000D02*
G75*
G02*
X47295000Y-78800000I-2500000J0D01*
G01*
X47295000Y-78800000D02*
G75*
G02*
X52295000Y-78800000I2500000J0D01*
G01*
X52785000Y-78800000D02*
G75*
G02*
X47235000Y-80344830I-2990000J0D01*
G01*
X47235000Y-77255170D02*
G75*
G02*
X52785000Y-78800000I2560000J-1544830D01*
G01*
X47235000Y-77255000D02*
X47235000Y-80345000D01*
%TO.C,R3*%
X35530000Y-89230000D02*
X42070000Y-89230000D01*
X42070000Y-91970000D01*
X35530000Y-91970000D01*
X35530000Y-89230000D01*
X42840000Y-90600000D02*
X42070000Y-90600000D01*
X34760000Y-90600000D02*
X35530000Y-90600000D01*
%TO.C,D3*%
X52100000Y-88200000D02*
G75*
G02*
X47100000Y-88200000I-2500000J0D01*
G01*
X47100000Y-88200000D02*
G75*
G02*
X52100000Y-88200000I2500000J0D01*
G01*
X52590000Y-88200000D02*
G75*
G02*
X47040000Y-89744830I-2990000J0D01*
G01*
X47040000Y-86655170D02*
G75*
G02*
X52590000Y-88200000I2560000J-1544830D01*
G01*
X47040000Y-86655000D02*
X47040000Y-89745000D01*
%TO.C,R5*%
X57130000Y-76980000D02*
X63670000Y-76980000D01*
X63670000Y-79720000D01*
X57130000Y-79720000D01*
X57130000Y-76980000D01*
X64440000Y-78350000D02*
X63670000Y-78350000D01*
X56360000Y-78350000D02*
X57130000Y-78350000D01*
%TO.C,D7*%
X72570000Y-88950000D02*
G75*
G02*
X67570000Y-88950000I-2500000J0D01*
G01*
X67570000Y-88950000D02*
G75*
G02*
X72570000Y-88950000I2500000J0D01*
G01*
X73060000Y-88950000D02*
G75*
G02*
X67510000Y-90494830I-2990000J0D01*
G01*
X67510000Y-87405170D02*
G75*
G02*
X73060000Y-88950000I2560000J-1544830D01*
G01*
X67510000Y-87405000D02*
X67510000Y-90495000D01*
%TO.C,D5*%
X72170000Y-68950000D02*
G75*
G02*
X67170000Y-68950000I-2500000J0D01*
G01*
X67170000Y-68950000D02*
G75*
G02*
X72170000Y-68950000I2500000J0D01*
G01*
X72660000Y-68950000D02*
G75*
G02*
X67110000Y-70494830I-2990000J0D01*
G01*
X67110000Y-67405170D02*
G75*
G02*
X72660000Y-68950000I2560000J-1544830D01*
G01*
X67110000Y-67405000D02*
X67110000Y-70495000D01*
%TO.C,R8*%
X56730000Y-95430000D02*
X63270000Y-95430000D01*
X63270000Y-98170000D01*
X56730000Y-98170000D01*
X56730000Y-95430000D01*
X64040000Y-96800000D02*
X63270000Y-96800000D01*
X55960000Y-96800000D02*
X56730000Y-96800000D01*
%TO.C,R7*%
X56930000Y-89230000D02*
X63470000Y-89230000D01*
X63470000Y-91970000D01*
X56930000Y-91970000D01*
X56930000Y-89230000D01*
X64240000Y-90600000D02*
X63470000Y-90600000D01*
X56160000Y-90600000D02*
X56930000Y-90600000D01*
%TO.C,R6*%
X56730000Y-83230000D02*
X63270000Y-83230000D01*
X63270000Y-85970000D01*
X56730000Y-85970000D01*
X56730000Y-83230000D01*
X64040000Y-84600000D02*
X63270000Y-84600000D01*
X55960000Y-84600000D02*
X56730000Y-84600000D01*
%TO.C,D8*%
X72170000Y-98750000D02*
G75*
G02*
X67170000Y-98750000I-2500000J0D01*
G01*
X67170000Y-98750000D02*
G75*
G02*
X72170000Y-98750000I2500000J0D01*
G01*
X72660000Y-98750000D02*
G75*
G02*
X67110000Y-100294830I-2990000J0D01*
G01*
X67110000Y-97205170D02*
G75*
G02*
X72660000Y-98750000I2560000J-1544830D01*
G01*
X67110000Y-97205000D02*
X67110000Y-100295000D01*
%TO.C,D6*%
X72570000Y-78750000D02*
G75*
G02*
X67570000Y-78750000I-2500000J0D01*
G01*
X67570000Y-78750000D02*
G75*
G02*
X72570000Y-78750000I2500000J0D01*
G01*
X73060000Y-78750000D02*
G75*
G02*
X67510000Y-80294830I-2990000J0D01*
G01*
X67510000Y-77205170D02*
G75*
G02*
X73060000Y-78750000I2560000J-1544830D01*
G01*
X67510000Y-77205000D02*
X67510000Y-80295000D01*
%TO.C,J4*%
X224780000Y-70070000D02*
X224780000Y-77800000D01*
X222020000Y-77800000D02*
X224780000Y-77800000D01*
X222020000Y-70070000D02*
X224780000Y-70070000D01*
X222020000Y-70070000D02*
X222020000Y-77800000D01*
X222020000Y-68800000D02*
X222020000Y-67420000D01*
X222020000Y-67420000D02*
X223400000Y-67420000D01*
%TO.C,D9*%
X93930000Y-69390000D02*
G75*
G02*
X88930000Y-69390000I-2500000J0D01*
G01*
X88930000Y-69390000D02*
G75*
G02*
X93930000Y-69390000I2500000J0D01*
G01*
X94420000Y-69390000D02*
G75*
G02*
X88870000Y-70934830I-2990000J0D01*
G01*
X88870000Y-67845170D02*
G75*
G02*
X94420000Y-69390000I2560000J-1544830D01*
G01*
X88870000Y-67845000D02*
X88870000Y-70935000D01*
%TO.C,D12*%
X93790000Y-98000000D02*
G75*
G02*
X88790000Y-98000000I-2500000J0D01*
G01*
X88790000Y-98000000D02*
G75*
G02*
X93790000Y-98000000I2500000J0D01*
G01*
X94280000Y-98000000D02*
G75*
G02*
X88730000Y-99544830I-2990000J0D01*
G01*
X88730000Y-96455170D02*
G75*
G02*
X94280000Y-98000000I2560000J-1544830D01*
G01*
X88730000Y-96455000D02*
X88730000Y-99545000D01*
%TO.C,R12*%
X77010000Y-96230000D02*
X83550000Y-96230000D01*
X83550000Y-98970000D01*
X77010000Y-98970000D01*
X77010000Y-96230000D01*
X84320000Y-97600000D02*
X83550000Y-97600000D01*
X76240000Y-97600000D02*
X77010000Y-97600000D01*
%TO.C,D10*%
X93790000Y-78800000D02*
G75*
G02*
X88790000Y-78800000I-2500000J0D01*
G01*
X88790000Y-78800000D02*
G75*
G02*
X93790000Y-78800000I2500000J0D01*
G01*
X94280000Y-78800000D02*
G75*
G02*
X88730000Y-80344830I-2990000J0D01*
G01*
X88730000Y-77255170D02*
G75*
G02*
X94280000Y-78800000I2560000J-1544830D01*
G01*
X88730000Y-77255000D02*
X88730000Y-80345000D01*
%TO.C,R10*%
X77010000Y-83630000D02*
X83550000Y-83630000D01*
X83550000Y-86370000D01*
X77010000Y-86370000D01*
X77010000Y-83630000D01*
X84320000Y-85000000D02*
X83550000Y-85000000D01*
X76240000Y-85000000D02*
X77010000Y-85000000D01*
%TO.C,R9*%
X77170000Y-77130000D02*
X83710000Y-77130000D01*
X83710000Y-79870000D01*
X77170000Y-79870000D01*
X77170000Y-77130000D01*
X84480000Y-78500000D02*
X83710000Y-78500000D01*
X76400000Y-78500000D02*
X77170000Y-78500000D01*
%TO.C,R11*%
X77170000Y-89830000D02*
X83710000Y-89830000D01*
X83710000Y-92570000D01*
X77170000Y-92570000D01*
X77170000Y-89830000D01*
X84480000Y-91200000D02*
X83710000Y-91200000D01*
X76400000Y-91200000D02*
X77170000Y-91200000D01*
%TO.C,J6*%
X233580000Y-89470000D02*
X233580000Y-97200000D01*
X230820000Y-97200000D02*
X233580000Y-97200000D01*
X230820000Y-89470000D02*
X233580000Y-89470000D01*
X230820000Y-89470000D02*
X230820000Y-97200000D01*
X230820000Y-88200000D02*
X230820000Y-86820000D01*
X230820000Y-86820000D02*
X232200000Y-86820000D01*
%TO.C,J7*%
X224380000Y-89470000D02*
X224380000Y-97200000D01*
X221620000Y-97200000D02*
X224380000Y-97200000D01*
X221620000Y-89470000D02*
X224380000Y-89470000D01*
X221620000Y-89470000D02*
X221620000Y-97200000D01*
X221620000Y-88200000D02*
X221620000Y-86820000D01*
X221620000Y-86820000D02*
X223000000Y-86820000D01*
%TO.C,J8*%
X216180000Y-88870000D02*
X216180000Y-96600000D01*
X213420000Y-96600000D02*
X216180000Y-96600000D01*
X213420000Y-88870000D02*
X216180000Y-88870000D01*
X213420000Y-88870000D02*
X213420000Y-96600000D01*
X213420000Y-87600000D02*
X213420000Y-86220000D01*
X213420000Y-86220000D02*
X214800000Y-86220000D01*
%TO.C,J9*%
X205780000Y-89670000D02*
X205780000Y-97400000D01*
X203020000Y-97400000D02*
X205780000Y-97400000D01*
X203020000Y-89670000D02*
X205780000Y-89670000D01*
X203020000Y-89670000D02*
X203020000Y-97400000D01*
X203020000Y-88400000D02*
X203020000Y-87020000D01*
X203020000Y-87020000D02*
X204400000Y-87020000D01*
%TO.C,R14*%
X98360000Y-84600000D02*
X99130000Y-84600000D01*
X106440000Y-84600000D02*
X105670000Y-84600000D01*
X99130000Y-83230000D02*
X105670000Y-83230000D01*
X105670000Y-85970000D01*
X99130000Y-85970000D01*
X99130000Y-83230000D01*
%TO.C,R28*%
X160840000Y-98400000D02*
X161610000Y-98400000D01*
X168920000Y-98400000D02*
X168150000Y-98400000D01*
X161610000Y-97030000D02*
X168150000Y-97030000D01*
X168150000Y-99770000D01*
X161610000Y-99770000D01*
X161610000Y-97030000D01*
%TO.C,D29*%
X193105000Y-69255000D02*
X193105000Y-72345000D01*
X193105000Y-69255170D02*
G75*
G02*
X198655000Y-70800000I2560000J-1544830D01*
G01*
X198655000Y-70800000D02*
G75*
G02*
X193105000Y-72344830I-2990000J0D01*
G01*
X198165000Y-70800000D02*
G75*
G02*
X193165000Y-70800000I-2500000J0D01*
G01*
X193165000Y-70800000D02*
G75*
G02*
X198165000Y-70800000I2500000J0D01*
G01*
%TO.C,R24*%
X139840000Y-98800000D02*
X140610000Y-98800000D01*
X147920000Y-98800000D02*
X147150000Y-98800000D01*
X140610000Y-97430000D02*
X147150000Y-97430000D01*
X147150000Y-100170000D01*
X140610000Y-100170000D01*
X140610000Y-97430000D01*
%TO.C,D14*%
X109440000Y-78935000D02*
X109440000Y-82025000D01*
X109440000Y-78935170D02*
G75*
G02*
X114990000Y-80480000I2560000J-1544830D01*
G01*
X114990000Y-80480000D02*
G75*
G02*
X109440000Y-82024830I-2990000J0D01*
G01*
X114500000Y-80480000D02*
G75*
G02*
X109500000Y-80480000I-2500000J0D01*
G01*
X109500000Y-80480000D02*
G75*
G02*
X114500000Y-80480000I2500000J0D01*
G01*
%TO.C,R18*%
X118160000Y-85400000D02*
X118930000Y-85400000D01*
X126240000Y-85400000D02*
X125470000Y-85400000D01*
X118930000Y-84030000D02*
X125470000Y-84030000D01*
X125470000Y-86770000D01*
X118930000Y-86770000D01*
X118930000Y-84030000D01*
%TO.C,R21*%
X139160000Y-79400000D02*
X139930000Y-79400000D01*
X147240000Y-79400000D02*
X146470000Y-79400000D01*
X139930000Y-78030000D02*
X146470000Y-78030000D01*
X146470000Y-80770000D01*
X139930000Y-80770000D01*
X139930000Y-78030000D01*
%TO.C,D21*%
X151170000Y-69655000D02*
X151170000Y-72745000D01*
X151170000Y-69655170D02*
G75*
G02*
X156720000Y-71200000I2560000J-1544830D01*
G01*
X156720000Y-71200000D02*
G75*
G02*
X151170000Y-72744830I-2990000J0D01*
G01*
X156230000Y-71200000D02*
G75*
G02*
X151230000Y-71200000I-2500000J0D01*
G01*
X151230000Y-71200000D02*
G75*
G02*
X156230000Y-71200000I2500000J0D01*
G01*
%TO.C,D18*%
X130195000Y-78715000D02*
X130195000Y-81805000D01*
X130195000Y-78715170D02*
G75*
G02*
X135745000Y-80260000I2560000J-1544830D01*
G01*
X135745000Y-80260000D02*
G75*
G02*
X130195000Y-81804830I-2990000J0D01*
G01*
X135255000Y-80260000D02*
G75*
G02*
X130255000Y-80260000I-2500000J0D01*
G01*
X130255000Y-80260000D02*
G75*
G02*
X135255000Y-80260000I2500000J0D01*
G01*
%TO.C,D28*%
X173040000Y-98455000D02*
X173040000Y-101545000D01*
X173040000Y-98455170D02*
G75*
G02*
X178590000Y-100000000I2560000J-1544830D01*
G01*
X178590000Y-100000000D02*
G75*
G02*
X173040000Y-101544830I-2990000J0D01*
G01*
X178100000Y-100000000D02*
G75*
G02*
X173100000Y-100000000I-2500000J0D01*
G01*
X173100000Y-100000000D02*
G75*
G02*
X178100000Y-100000000I2500000J0D01*
G01*
%TO.C,D32*%
X193170000Y-98455000D02*
X193170000Y-101545000D01*
X193170000Y-98455170D02*
G75*
G02*
X198720000Y-100000000I2560000J-1544830D01*
G01*
X198720000Y-100000000D02*
G75*
G02*
X193170000Y-101544830I-2990000J0D01*
G01*
X198230000Y-100000000D02*
G75*
G02*
X193230000Y-100000000I-2500000J0D01*
G01*
X193230000Y-100000000D02*
G75*
G02*
X198230000Y-100000000I2500000J0D01*
G01*
%TO.C,R15*%
X98360000Y-91000000D02*
X99130000Y-91000000D01*
X106440000Y-91000000D02*
X105670000Y-91000000D01*
X99130000Y-89630000D02*
X105670000Y-89630000D01*
X105670000Y-92370000D01*
X99130000Y-92370000D01*
X99130000Y-89630000D01*
%TO.C,R23*%
X139440000Y-92000000D02*
X140210000Y-92000000D01*
X147520000Y-92000000D02*
X146750000Y-92000000D01*
X140210000Y-90630000D02*
X146750000Y-90630000D01*
X146750000Y-93370000D01*
X140210000Y-93370000D01*
X140210000Y-90630000D01*
%TO.C,D16*%
X109640000Y-98535000D02*
X109640000Y-101625000D01*
X109640000Y-98535170D02*
G75*
G02*
X115190000Y-100080000I2560000J-1544830D01*
G01*
X115190000Y-100080000D02*
G75*
G02*
X109640000Y-101624830I-2990000J0D01*
G01*
X114700000Y-100080000D02*
G75*
G02*
X109700000Y-100080000I-2500000J0D01*
G01*
X109700000Y-100080000D02*
G75*
G02*
X114700000Y-100080000I2500000J0D01*
G01*
%TO.C,D27*%
X172840000Y-88655000D02*
X172840000Y-91745000D01*
X172840000Y-88655170D02*
G75*
G02*
X178390000Y-90200000I2560000J-1544830D01*
G01*
X178390000Y-90200000D02*
G75*
G02*
X172840000Y-91744830I-2990000J0D01*
G01*
X177900000Y-90200000D02*
G75*
G02*
X172900000Y-90200000I-2500000J0D01*
G01*
X172900000Y-90200000D02*
G75*
G02*
X177900000Y-90200000I2500000J0D01*
G01*
%TO.C,D15*%
X109710000Y-88665000D02*
X109710000Y-91755000D01*
X109710000Y-88665170D02*
G75*
G02*
X115260000Y-90210000I2560000J-1544830D01*
G01*
X115260000Y-90210000D02*
G75*
G02*
X109710000Y-91754830I-2990000J0D01*
G01*
X114770000Y-90210000D02*
G75*
G02*
X109770000Y-90210000I-2500000J0D01*
G01*
X109770000Y-90210000D02*
G75*
G02*
X114770000Y-90210000I2500000J0D01*
G01*
%TO.C,R26*%
X160640000Y-85800000D02*
X161410000Y-85800000D01*
X168720000Y-85800000D02*
X167950000Y-85800000D01*
X161410000Y-84430000D02*
X167950000Y-84430000D01*
X167950000Y-87170000D01*
X161410000Y-87170000D01*
X161410000Y-84430000D01*
%TO.C,R25*%
X160720000Y-78970000D02*
X161490000Y-78970000D01*
X168800000Y-78970000D02*
X168030000Y-78970000D01*
X161490000Y-77600000D02*
X168030000Y-77600000D01*
X168030000Y-80340000D01*
X161490000Y-80340000D01*
X161490000Y-77600000D01*
%TO.C,R29*%
X181640000Y-77650000D02*
X182410000Y-77650000D01*
X189720000Y-77650000D02*
X188950000Y-77650000D01*
X182410000Y-76280000D02*
X188950000Y-76280000D01*
X188950000Y-79020000D01*
X182410000Y-79020000D01*
X182410000Y-76280000D01*
%TO.C,R16*%
X98160000Y-97400000D02*
X98930000Y-97400000D01*
X106240000Y-97400000D02*
X105470000Y-97400000D01*
X98930000Y-96030000D02*
X105470000Y-96030000D01*
X105470000Y-98770000D01*
X98930000Y-98770000D01*
X98930000Y-96030000D01*
%TO.C,R19*%
X117960000Y-91800000D02*
X118730000Y-91800000D01*
X126040000Y-91800000D02*
X125270000Y-91800000D01*
X118730000Y-90430000D02*
X125270000Y-90430000D01*
X125270000Y-93170000D01*
X118730000Y-93170000D01*
X118730000Y-90430000D01*
%TO.C,R17*%
X117760000Y-78200000D02*
X118530000Y-78200000D01*
X125840000Y-78200000D02*
X125070000Y-78200000D01*
X118530000Y-76830000D02*
X125070000Y-76830000D01*
X125070000Y-79570000D01*
X118530000Y-79570000D01*
X118530000Y-76830000D01*
%TO.C,R31*%
X181240000Y-90000000D02*
X182010000Y-90000000D01*
X189320000Y-90000000D02*
X188550000Y-90000000D01*
X182010000Y-88630000D02*
X188550000Y-88630000D01*
X188550000Y-91370000D01*
X182010000Y-91370000D01*
X182010000Y-88630000D01*
%TO.C,R13*%
X98360000Y-78000000D02*
X99130000Y-78000000D01*
X106440000Y-78000000D02*
X105670000Y-78000000D01*
X99130000Y-76630000D02*
X105670000Y-76630000D01*
X105670000Y-79370000D01*
X99130000Y-79370000D01*
X99130000Y-76630000D01*
%TO.C,R32*%
X181640000Y-96600000D02*
X182410000Y-96600000D01*
X189720000Y-96600000D02*
X188950000Y-96600000D01*
X182410000Y-95230000D02*
X188950000Y-95230000D01*
X188950000Y-97970000D01*
X182410000Y-97970000D01*
X182410000Y-95230000D01*
%TO.C,D17*%
X130400000Y-69115000D02*
X130400000Y-72205000D01*
X130400000Y-69115170D02*
G75*
G02*
X135950000Y-70660000I2560000J-1544830D01*
G01*
X135950000Y-70660000D02*
G75*
G02*
X130400000Y-72204830I-2990000J0D01*
G01*
X135460000Y-70660000D02*
G75*
G02*
X130460000Y-70660000I-2500000J0D01*
G01*
X130460000Y-70660000D02*
G75*
G02*
X135460000Y-70660000I2500000J0D01*
G01*
%TO.C,D24*%
X151570000Y-98055000D02*
X151570000Y-101145000D01*
X151570000Y-98055170D02*
G75*
G02*
X157120000Y-99600000I2560000J-1544830D01*
G01*
X157120000Y-99600000D02*
G75*
G02*
X151570000Y-101144830I-2990000J0D01*
G01*
X156630000Y-99600000D02*
G75*
G02*
X151630000Y-99600000I-2500000J0D01*
G01*
X151630000Y-99600000D02*
G75*
G02*
X156630000Y-99600000I2500000J0D01*
G01*
%TO.C,D25*%
X172980000Y-69585000D02*
X172980000Y-72675000D01*
X172980000Y-69585170D02*
G75*
G02*
X178530000Y-71130000I2560000J-1544830D01*
G01*
X178530000Y-71130000D02*
G75*
G02*
X172980000Y-72674830I-2990000J0D01*
G01*
X178040000Y-71130000D02*
G75*
G02*
X173040000Y-71130000I-2500000J0D01*
G01*
X173040000Y-71130000D02*
G75*
G02*
X178040000Y-71130000I2500000J0D01*
G01*
%TO.C,D13*%
X109370000Y-68935000D02*
X109370000Y-72025000D01*
X109370000Y-68935170D02*
G75*
G02*
X114920000Y-70480000I2560000J-1544830D01*
G01*
X114920000Y-70480000D02*
G75*
G02*
X109370000Y-72024830I-2990000J0D01*
G01*
X114430000Y-70480000D02*
G75*
G02*
X109430000Y-70480000I-2500000J0D01*
G01*
X109430000Y-70480000D02*
G75*
G02*
X114430000Y-70480000I2500000J0D01*
G01*
%TO.C,R22*%
X139280000Y-85800000D02*
X140050000Y-85800000D01*
X147360000Y-85800000D02*
X146590000Y-85800000D01*
X140050000Y-84430000D02*
X146590000Y-84430000D01*
X146590000Y-87170000D01*
X140050000Y-87170000D01*
X140050000Y-84430000D01*
%TO.C,J2*%
X120620000Y-67820000D02*
X122000000Y-67820000D01*
X120620000Y-69200000D02*
X120620000Y-67820000D01*
X120620000Y-70470000D02*
X120620000Y-70580000D01*
X120620000Y-70470000D02*
X123380000Y-70470000D01*
X120620000Y-70580000D02*
X123380000Y-70580000D01*
X123380000Y-70470000D02*
X123380000Y-70580000D01*
%TO.C,D31*%
X193505000Y-88255000D02*
X193505000Y-91345000D01*
X193505000Y-88255170D02*
G75*
G02*
X199055000Y-89800000I2560000J-1544830D01*
G01*
X199055000Y-89800000D02*
G75*
G02*
X193505000Y-91344830I-2990000J0D01*
G01*
X198565000Y-89800000D02*
G75*
G02*
X193565000Y-89800000I-2500000J0D01*
G01*
X193565000Y-89800000D02*
G75*
G02*
X198565000Y-89800000I2500000J0D01*
G01*
%TO.C,D19*%
X130400000Y-88715000D02*
X130400000Y-91805000D01*
X130400000Y-88715170D02*
G75*
G02*
X135950000Y-90260000I2560000J-1544830D01*
G01*
X135950000Y-90260000D02*
G75*
G02*
X130400000Y-91804830I-2990000J0D01*
G01*
X135460000Y-90260000D02*
G75*
G02*
X130460000Y-90260000I-2500000J0D01*
G01*
X130460000Y-90260000D02*
G75*
G02*
X135460000Y-90260000I2500000J0D01*
G01*
%TO.C,D26*%
X172910000Y-78855000D02*
X172910000Y-81945000D01*
X172910000Y-78855170D02*
G75*
G02*
X178460000Y-80400000I2560000J-1544830D01*
G01*
X178460000Y-80400000D02*
G75*
G02*
X172910000Y-81944830I-2990000J0D01*
G01*
X177970000Y-80400000D02*
G75*
G02*
X172970000Y-80400000I-2500000J0D01*
G01*
X172970000Y-80400000D02*
G75*
G02*
X177970000Y-80400000I2500000J0D01*
G01*
%TO.C,D20*%
X130930000Y-98115000D02*
X130930000Y-101205000D01*
X130930000Y-98115170D02*
G75*
G02*
X136480000Y-99660000I2560000J-1544830D01*
G01*
X136480000Y-99660000D02*
G75*
G02*
X130930000Y-101204830I-2990000J0D01*
G01*
X135990000Y-99660000D02*
G75*
G02*
X130990000Y-99660000I-2500000J0D01*
G01*
X130990000Y-99660000D02*
G75*
G02*
X135990000Y-99660000I2500000J0D01*
G01*
%TO.C,R20*%
X118160000Y-98000000D02*
X118930000Y-98000000D01*
X126240000Y-98000000D02*
X125470000Y-98000000D01*
X118930000Y-96630000D02*
X125470000Y-96630000D01*
X125470000Y-99370000D01*
X118930000Y-99370000D01*
X118930000Y-96630000D01*
%TO.C,D23*%
X151430000Y-88455000D02*
X151430000Y-91545000D01*
X151430000Y-88455170D02*
G75*
G02*
X156980000Y-90000000I2560000J-1544830D01*
G01*
X156980000Y-90000000D02*
G75*
G02*
X151430000Y-91544830I-2990000J0D01*
G01*
X156490000Y-90000000D02*
G75*
G02*
X151490000Y-90000000I-2500000J0D01*
G01*
X151490000Y-90000000D02*
G75*
G02*
X156490000Y-90000000I2500000J0D01*
G01*
%TO.C,R30*%
X181040000Y-84000000D02*
X181810000Y-84000000D01*
X189120000Y-84000000D02*
X188350000Y-84000000D01*
X181810000Y-82630000D02*
X188350000Y-82630000D01*
X188350000Y-85370000D01*
X181810000Y-85370000D01*
X181810000Y-82630000D01*
%TO.C,D30*%
X193370000Y-78655000D02*
X193370000Y-81745000D01*
X193370000Y-78655170D02*
G75*
G02*
X198920000Y-80200000I2560000J-1544830D01*
G01*
X198920000Y-80200000D02*
G75*
G02*
X193370000Y-81744830I-2990000J0D01*
G01*
X198430000Y-80200000D02*
G75*
G02*
X193430000Y-80200000I-2500000J0D01*
G01*
X193430000Y-80200000D02*
G75*
G02*
X198430000Y-80200000I2500000J0D01*
G01*
%TO.C,R27*%
X160440000Y-91600000D02*
X161210000Y-91600000D01*
X168520000Y-91600000D02*
X167750000Y-91600000D01*
X161210000Y-90230000D02*
X167750000Y-90230000D01*
X167750000Y-92970000D01*
X161210000Y-92970000D01*
X161210000Y-90230000D01*
%TO.C,D22*%
X151170000Y-79255000D02*
X151170000Y-82345000D01*
X151170000Y-79255170D02*
G75*
G02*
X156720000Y-80800000I2560000J-1544830D01*
G01*
X156720000Y-80800000D02*
G75*
G02*
X151170000Y-82344830I-2990000J0D01*
G01*
X156230000Y-80800000D02*
G75*
G02*
X151230000Y-80800000I-2500000J0D01*
G01*
X151230000Y-80800000D02*
G75*
G02*
X156230000Y-80800000I2500000J0D01*
G01*
%TD*%
M02*
